<?xml version='1.0' encoding='UTF-8' standalone='no'?>
<svg width="576pt" xmlns:xlink="http://www.w3.org/1999/xlink" viewBox="0 0 576 432" xmlns="http://www.w3.org/2000/svg" height="432pt">
 <title>gl2ps_renderer figure</title>
 <desc>
Creator: GL2PS 1.4.0, (C) 1999-2017 C. Geuzaine
For: Octave
CreationDate: Sun Jul 04 23:14:43 2021
</desc>
 <defs/>
 <polygon points="0,0 576,0 576,432 0,432" fill="#ffffff"/>
 <g>
  <polygon shape-rendering="crispEdges" points="0,432 576,432 576,0 0,0" fill="#ffffff"/>
  <clipPath id="cp00576432">
   <polygon points="0,432 576,432 576,0 0,0"/>
  </clipPath>
  <g clip-path="url(#cp00576432)">
   <polygon shape-rendering="crispEdges" points="74.88,384.48 521.28,384.48 521.28,32.4 74.88,32.4" fill="#ffffff"/>
   <polyline stroke-linecap="butt" stroke-opacity="0.15" points="74.88,384.48 74.88,32.4" stroke="#262626" stroke-width="0.5" fill="none" stroke-linejoin="miter" stroke-dasharray="16,0"/>
   <polyline stroke-linecap="butt" stroke-opacity="0.15" points="164.16,384.48 164.16,32.4" stroke="#262626" stroke-width="0.5" fill="none" stroke-linejoin="miter" stroke-dasharray="16,0"/>
   <polyline stroke-linecap="butt" stroke-opacity="0.15" points="253.44,384.48 253.44,32.4" stroke="#262626" stroke-width="0.5" fill="none" stroke-linejoin="miter" stroke-dasharray="16,0"/>
   <polyline stroke-linecap="butt" stroke-opacity="0.15" points="342.72,384.48 342.72,32.4" stroke="#262626" stroke-width="0.5" fill="none" stroke-linejoin="miter" stroke-dasharray="16,0"/>
   <polyline stroke-linecap="butt" stroke-opacity="0.15" points="432,384.48 432,32.4" stroke="#262626" stroke-width="0.5" fill="none" stroke-linejoin="miter" stroke-dasharray="16,0"/>
   <polyline stroke-linecap="butt" stroke-opacity="0.15" points="521.28,384.48 521.28,32.4" stroke="#262626" stroke-width="0.5" fill="none" stroke-linejoin="miter" stroke-dasharray="16,0"/>
   <polyline stroke-linecap="butt" points="74.88,384.48 74.88,380.015" stroke="#262626" stroke-width="0.5" fill="none" stroke-linejoin="miter"/>
   <polyline stroke-linecap="butt" points="74.88,32.4 74.88,36.865" stroke="#262626" stroke-width="0.5" fill="none" stroke-linejoin="miter"/>
   <polyline stroke-linecap="butt" points="164.16,384.48 164.16,380.015" stroke="#262626" stroke-width="0.5" fill="none" stroke-linejoin="miter"/>
   <polyline stroke-linecap="butt" points="164.16,32.4 164.16,36.865" stroke="#262626" stroke-width="0.5" fill="none" stroke-linejoin="miter"/>
   <polyline stroke-linecap="butt" points="253.44,384.48 253.44,380.015" stroke="#262626" stroke-width="0.5" fill="none" stroke-linejoin="miter"/>
   <polyline stroke-linecap="butt" points="253.44,32.4 253.44,36.865" stroke="#262626" stroke-width="0.5" fill="none" stroke-linejoin="miter"/>
   <polyline stroke-linecap="butt" points="342.72,384.48 342.72,380.015" stroke="#262626" stroke-width="0.5" fill="none" stroke-linejoin="miter"/>
   <polyline stroke-linecap="butt" points="342.72,32.4 342.72,36.865" stroke="#262626" stroke-width="0.5" fill="none" stroke-linejoin="miter"/>
   <polyline stroke-linecap="butt" points="432,384.48 432,380.015" stroke="#262626" stroke-width="0.5" fill="none" stroke-linejoin="miter"/>
   <polyline stroke-linecap="butt" points="432,32.4 432,36.865" stroke="#262626" stroke-width="0.5" fill="none" stroke-linejoin="miter"/>
   <polyline stroke-linecap="butt" points="521.28,384.48 521.28,380.015" stroke="#262626" stroke-width="0.5" fill="none" stroke-linejoin="miter"/>
   <polyline stroke-linecap="butt" points="521.28,32.4 521.28,36.865" stroke="#262626" stroke-width="0.5" fill="none" stroke-linejoin="miter"/>
   <text font-family="FreeSans" font-size="10" transform="translate(71.88,399.982) rotate(-0,3,-8)" xml:space="preserve" font-style="normal" font-weight="normal">
    <tspan y="-0" x="0 " fill="rgb(38,38,38)">0</tspan>
   </text>
   <text font-family="FreeSans" font-size="10" transform="translate(152.16,399.982) rotate(-0,12,-8)" xml:space="preserve" font-style="normal" font-weight="normal">
    <tspan y="-0" x="0 6 12 18 " fill="rgb(38,38,38)">1000</tspan>
   </text>
   <text font-family="FreeSans" font-size="10" transform="translate(241.44,399.982) rotate(-0,12,-8)" xml:space="preserve" font-style="normal" font-weight="normal">
    <tspan y="-0" x="0 6 12 18 " fill="rgb(38,38,38)">2000</tspan>
   </text>
   <text font-family="FreeSans" font-size="10" transform="translate(330.72,399.982) rotate(-0,12,-8)" xml:space="preserve" font-style="normal" font-weight="normal">
    <tspan y="-0" x="0 6 12 18 " fill="rgb(38,38,38)">3000</tspan>
   </text>
   <text font-family="FreeSans" font-size="10" transform="translate(420,399.982) rotate(-0,12,-8)" xml:space="preserve" font-style="normal" font-weight="normal">
    <tspan y="-0" x="0 6 12 18 " fill="rgb(38,38,38)">4000</tspan>
   </text>
   <text font-family="FreeSans" font-size="10" transform="translate(509.28,399.982) rotate(-0,12,-8)" xml:space="preserve" font-style="normal" font-weight="normal">
    <tspan y="-0" x="0 6 12 18 " fill="rgb(38,38,38)">5000</tspan>
   </text>
   <polyline stroke-linecap="butt" stroke-opacity="0.15" points="74.88,384.48 521.28,384.48" stroke="#262626" stroke-width="0.5" fill="none" stroke-linejoin="miter" stroke-dasharray="16,0"/>
   <polyline stroke-linecap="butt" stroke-opacity="0.15" points="74.88,334.183 521.28,334.183" stroke="#262626" stroke-width="0.5" fill="none" stroke-linejoin="miter" stroke-dasharray="16,0"/>
   <polyline stroke-linecap="butt" stroke-opacity="0.15" points="74.88,283.886 521.28,283.886" stroke="#262626" stroke-width="0.5" fill="none" stroke-linejoin="miter" stroke-dasharray="16,0"/>
   <polyline stroke-linecap="butt" stroke-opacity="0.15" points="74.88,233.589 521.28,233.589" stroke="#262626" stroke-width="0.5" fill="none" stroke-linejoin="miter" stroke-dasharray="16,0"/>
   <polyline stroke-linecap="butt" stroke-opacity="0.15" points="74.88,183.291 521.28,183.291" stroke="#262626" stroke-width="0.5" fill="none" stroke-linejoin="miter" stroke-dasharray="16,0"/>
   <polyline stroke-linecap="butt" stroke-opacity="0.15" points="74.88,132.994 521.28,132.994" stroke="#262626" stroke-width="0.5" fill="none" stroke-linejoin="miter" stroke-dasharray="16,0"/>
   <polyline stroke-linecap="butt" stroke-opacity="0.15" points="74.88,82.6971 521.28,82.6971" stroke="#262626" stroke-width="0.5" fill="none" stroke-linejoin="miter" stroke-dasharray="16,0"/>
   <polyline stroke-linecap="butt" stroke-opacity="0.15" points="74.88,32.4 521.28,32.4" stroke="#262626" stroke-width="0.5" fill="none" stroke-linejoin="miter" stroke-dasharray="16,0"/>
   <polyline stroke-linecap="butt" points="74.88,384.48 79.348,384.48" stroke="#262626" stroke-width="0.5" fill="none" stroke-linejoin="miter"/>
   <polyline stroke-linecap="butt" points="521.28,384.48 516.812,384.48" stroke="#262626" stroke-width="0.5" fill="none" stroke-linejoin="miter"/>
   <polyline stroke-linecap="butt" points="74.88,334.183 79.348,334.183" stroke="#262626" stroke-width="0.5" fill="none" stroke-linejoin="miter"/>
   <polyline stroke-linecap="butt" points="521.28,334.183 516.812,334.183" stroke="#262626" stroke-width="0.5" fill="none" stroke-linejoin="miter"/>
   <polyline stroke-linecap="butt" points="74.88,283.886 79.348,283.886" stroke="#262626" stroke-width="0.5" fill="none" stroke-linejoin="miter"/>
   <polyline stroke-linecap="butt" points="521.28,283.886 516.812,283.886" stroke="#262626" stroke-width="0.5" fill="none" stroke-linejoin="miter"/>
   <polyline stroke-linecap="butt" points="74.88,233.589 79.348,233.589" stroke="#262626" stroke-width="0.5" fill="none" stroke-linejoin="miter"/>
   <polyline stroke-linecap="butt" points="521.28,233.589 516.812,233.589" stroke="#262626" stroke-width="0.5" fill="none" stroke-linejoin="miter"/>
   <polyline stroke-linecap="butt" points="74.88,183.291 79.348,183.291" stroke="#262626" stroke-width="0.5" fill="none" stroke-linejoin="miter"/>
   <polyline stroke-linecap="butt" points="521.28,183.291 516.812,183.291" stroke="#262626" stroke-width="0.5" fill="none" stroke-linejoin="miter"/>
   <polyline stroke-linecap="butt" points="74.88,132.994 79.348,132.994" stroke="#262626" stroke-width="0.5" fill="none" stroke-linejoin="miter"/>
   <polyline stroke-linecap="butt" points="521.28,132.994 516.812,132.994" stroke="#262626" stroke-width="0.5" fill="none" stroke-linejoin="miter"/>
   <polyline stroke-linecap="butt" points="74.88,82.6971 79.348,82.6971" stroke="#262626" stroke-width="0.5" fill="none" stroke-linejoin="miter"/>
   <polyline stroke-linecap="butt" points="521.28,82.6971 516.812,82.6971" stroke="#262626" stroke-width="0.5" fill="none" stroke-linejoin="miter"/>
   <polyline stroke-linecap="butt" points="74.88,32.4 79.348,32.4" stroke="#262626" stroke-width="0.5" fill="none" stroke-linejoin="miter"/>
   <polyline stroke-linecap="butt" points="521.28,32.4 516.812,32.4" stroke="#262626" stroke-width="0.5" fill="none" stroke-linejoin="miter"/>
   <text font-family="FreeSans" font-size="10" transform="translate(54.8755,388.48) rotate(-0,15,-4)" xml:space="preserve" font-style="normal" font-weight="normal">
    <tspan y="-0" x="0 3 9 " fill="rgb(38,38,38)">-10</tspan>
   </text>
   <text font-family="FreeSans" font-size="10" transform="translate(63.8755,338.183) rotate(-0,6,-4)" xml:space="preserve" font-style="normal" font-weight="normal">
    <tspan y="-0" x="0 " fill="rgb(38,38,38)">0</tspan>
   </text>
   <text font-family="FreeSans" font-size="10" transform="translate(57.8755,287.886) rotate(-0,12,-4)" xml:space="preserve" font-style="normal" font-weight="normal">
    <tspan y="-0" x="0 6 " fill="rgb(38,38,38)">10</tspan>
   </text>
   <text font-family="FreeSans" font-size="10" transform="translate(57.8755,237.589) rotate(-0,12,-4)" xml:space="preserve" font-style="normal" font-weight="normal">
    <tspan y="-0" x="0 6 " fill="rgb(38,38,38)">20</tspan>
   </text>
   <text font-family="FreeSans" font-size="10" transform="translate(57.8755,187.291) rotate(-0,12,-4)" xml:space="preserve" font-style="normal" font-weight="normal">
    <tspan y="-0" x="0 6 " fill="rgb(38,38,38)">30</tspan>
   </text>
   <text font-family="FreeSans" font-size="10" transform="translate(57.8755,136.994) rotate(-0,12,-4)" xml:space="preserve" font-style="normal" font-weight="normal">
    <tspan y="-0" x="0 6 " fill="rgb(38,38,38)">40</tspan>
   </text>
   <text font-family="FreeSans" font-size="10" transform="translate(57.8755,86.6971) rotate(-0,12,-4)" xml:space="preserve" font-style="normal" font-weight="normal">
    <tspan y="-0" x="0 6 " fill="rgb(38,38,38)">50</tspan>
   </text>
   <text font-family="FreeSans" font-size="10" transform="translate(57.8755,36.4) rotate(-0,12,-4)" xml:space="preserve" font-style="normal" font-weight="normal">
    <tspan y="-0" x="0 6 " fill="rgb(38,38,38)">60</tspan>
   </text>
   <polyline stroke-linecap="square" points="74.88,384.48 521.28,384.48" stroke="#262626" stroke-width="0.5" fill="none" stroke-linejoin="miter" stroke-dasharray="16,0"/>
   <polyline stroke-linecap="square" points="74.88,32.4 521.28,32.4" stroke="#262626" stroke-width="0.5" fill="none" stroke-linejoin="miter" stroke-dasharray="16,0"/>
   <polyline stroke-linecap="square" points="74.88,384.48 74.88,32.4" stroke="#262626" stroke-width="0.5" fill="none" stroke-linejoin="miter" stroke-dasharray="16,0"/>
   <polyline stroke-linecap="square" points="521.28,384.48 521.28,32.4" stroke="#262626" stroke-width="0.5" fill="none" stroke-linejoin="miter" stroke-dasharray="16,0"/>
   <text font-family="FreeSans" font-size="11" transform="translate(273.08,416.982) rotate(-0,25,-12)" xml:space="preserve" font-style="normal" font-weight="normal">
    <tspan y="-3" x="0 7 13 22 28 34 37 41 46 " fill="rgb(38,38,38)">Tempo (s)</tspan>
   </text>
   <text font-family="FreeSans" font-size="11" transform="translate(13.3755,208.44) rotate(-90,36.5,0)" xml:space="preserve" font-style="normal" font-weight="normal">
    <tspan y="-3" x="0 7 13 19 25 27 30 33 40 43 47 56 59 " fill="rgb(38,38,38)">Accel. Z (m/s</tspan>
    <tspan y="-9" font-size="9" x="64 " fill="rgb(38,38,38)">2</tspan>
    <tspan y="-3" x="69 " fill="rgb(38,38,38)">)</tspan>
   </text>
   <polyline stroke-linecap="butt" points="128.984,288.168 129.162,288.168 129.341,287.951 129.52,288.222 129.698,287.734 129.877,288.005 130.056,287.951 130.234,287.951 130.413,287.788 130.592,288.114 130.77,287.842 130.949,288.114 131.127,287.951 131.306,287.951 131.485,287.842 131.663,287.788 131.842,287.788 132.021,287.951 132.199,287.734 132.378,288.005 132.557,287.788 132.735,288.005 132.914,288.005 133.07,287.734 133.24,287.788 133.402,288.005 133.581,287.951 133.727,288.114 133.906,287.951 134.085,288.222 134.263,288.005 134.442,287.788 134.621,288.059 134.799,288.222 134.978,287.897 135.157,288.005 135.335,288.168 135.514,288.276 135.693,288.276 135.871,288.276 136.05,288.168 136.229,288.439 136.407,288.331 136.586,288.222 136.765,288.331 136.943,288.331 137.122,288.276 137.301,288.222 137.479,287.842 137.658,288.114 137.837,288.331 137.977,288.276 138.135,288.005 138.286,288.385 138.446,288.331 138.605,288.385 138.781,288.493 138.955,288.276 139.097,288.439 139.244,288.276 139.378,288.276 139.51,288.276 139.687,288.168 139.864,288.059 140.011,288.276 140.173,288.276 140.32,288.168 140.497,288.276 140.648,288.602 140.824,288.385 141.002,288.168 141.159,288.276 141.318,288.331 141.494,288.331 141.641,288.059 141.793,288.276 141.929,288.276 142.093,288.276 142.196,288.331 142.373,288.602 142.536,288.331 142.697,288.222 142.869,288.493 143.027,288.493 143.185,288.168 143.362,288.168 143.536,287.951 143.71,288.222 143.885,288.114 144.059,288.168 144.23,289.85 144.403,287.083 144.569,281.06 144.747,297.988 144.926,279.378 145.101,294.896 145.276,280.029 145.433,295.927 145.592,283.99 145.771,289.362 145.92,279.053 146.098,294.787 146.275,281.223 146.438,294.462 146.601,280.68 146.766,295.71 146.945,283.122 147.111,294.733 147.28,282.362 147.452,293.756 147.624,282.091 147.794,295.981 147.972,283.882 148.138,287.842 148.312,287.788 148.491,284.641 148.656,291.966 148.818,281.494 148.992,295.113 149.153,280.029 149.331,296.632 149.504,281.06 149.659,295.33 149.83,278.727 149.982,295.167 150.152,281.006 150.316,294.299 150.477,281.657 150.636,292.617 150.815,280.952 150.974,292.454 151.143,288.656 151.3,288.331 151.448,288.276 151.603,288.493 151.781,288.602 151.958,288.439 152.135,288.439 152.295,288.276 152.455,288.385 152.632,288.602 152.807,288.439 152.965,288.331 153.125,288.439 153.284,288.385 153.461,288.439 153.607,288.168 153.765,288.059 153.934,263.535 154.093,305.91 154.252,276.991 154.396,297.175 154.567,284.912 154.741,284.424 154.837,290.121 154.929,290.555 155.059,287.625 155.218,297.988 155.355,289.579 155.504,285.998 155.672,283.882 155.834,281.603 155.979,259.846 156.144,280.301 156.3,286.215 156.47,293.539 156.625,306.561 156.797,316.49 156.961,318.986 157.137,300.376 157.297,284.967 157.469,295.981 157.646,286.757 157.807,305.205 157.971,283.882 158.133,277.751 158.312,277.316 158.482,296.361 158.639,292.454 158.803,284.207 158.939,284.153 159.109,283.339 159.268,287.571 159.396,288.656 159.536,288.602 159.704,295.384 159.797,281.114 159.922,294.95 160.068,285.238 160.246,299.996 160.425,284.804 160.604,287.137 160.782,284.316 160.961,286.323 161.064,295.493 161.243,274.766 161.421,288.114 161.6,290.772 161.779,283.502 161.957,289.145 162.136,295.113 162.314,280.843 162.493,293.648 162.672,287.842 162.85,290.989 163.029,297.88 163.053,291.152 163.231,282.091 163.41,291.369 163.513,293.431 163.692,282.579 163.703,293.811 163.881,280.138 164.06,296.903 164.239,273.898 164.417,294.299 164.596,295.818 164.775,296.144 164.919,284.641 165.05,288.602 165.228,282.905 165.377,286.974 165.556,300.43 165.734,284.37 165.913,279.215 166.092,293.756 166.27,286.703 166.449,280.843 166.628,268.798 166.806,290.827 166.985,298.368 167.164,299.616 167.342,300.864 167.521,297.175 167.7,287.951 167.878,292.291 168.053,280.246 168.23,284.75 168.393,281.332 168.562,277.154 168.739,285.943 168.916,280.192 169.089,276.34 169.268,278.076 169.434,262.721 169.611,261.256 169.79,274.115 169.868,276.937 170.047,295.818 170.218,299.453 170.384,301.135 170.563,312.746 170.724,316.87 170.9,307.158 171.043,298.694 171.221,296.523 171.399,293.322 171.578,286.757 171.757,283.61 171.935,288.982 172.114,289.47 172.293,290.067 172.471,286.432 172.65,286.16 172.829,271.619 173.007,267.225 173.186,278.619 173.364,289.958 173.543,293.865 173.722,291.695 173.9,290.881 174.079,291.857 174.24,290.881 174.368,288.765 174.546,289.796 174.636,291.044 174.814,291.369 174.993,295.601 175.172,293.051 175.237,297.5 175.402,298.64 175.455,295.493 175.63,295.384 175.73,294.896 175.908,289.904 176.087,289.09 176.265,290.067 176.438,286.323 176.607,288.873 176.783,290.447 176.962,293.214 177.132,298.314 177.295,296.632 177.46,295.927 177.638,284.099 177.775,284.044 177.954,288.168 178.133,290.284 178.311,285.618 178.49,286.486 178.669,288.656 178.847,290.609 179.026,291.044 179.205,292.346 179.383,290.067 179.51,290.989 179.689,293.214 179.868,293.051 180.046,292.508 180.225,291.152 180.404,290.175 180.582,295.601 180.761,297.229 180.918,268.201 181.013,306.67 181.162,285.292 181.204,292.78 181.382,294.19 181.561,291.261 181.739,279.053 181.918,268.201 182.097,275.906 182.229,289.307 182.335,225.175 182.49,215.518 182.668,214.541 182.847,231.741 183.026,232.5 183.204,234.399 183.383,229.082 183.562,246.227 183.74,252.033 183.907,233.694 184.06,295.818 184.238,302.98 184.386,281.603 184.52,290.718 184.692,292.943 184.831,272.759 184.992,271.185 185.165,284.695 185.339,288.005 185.515,294.95 185.684,304.988 185.837,301.732 185.998,295.981 186.174,295.113 186.307,292.563 186.467,291.912 186.57,293.648 186.697,292.834 186.872,303.034 186.906,297.229 187.085,289.145 187.259,287.354 187.431,287.897 187.549,289.199 187.724,291.098 187.862,290.23 187.976,292.346 188.105,291.098 188.281,291.749 188.399,289.796 188.574,289.579 188.688,290.881 188.804,291.152 188.983,290.392 189.162,290.881 189.34,281.494 189.519,279.324 189.698,294.842 189.869,235.43 190.005,212.316 190.184,210.363 190.246,181.227 190.424,186.978 190.603,192.513 190.782,139.72 190.95,124.203 191.127,171.027 191.301,186.11 191.454,144.224 191.616,132.179 191.789,154.37 191.964,185.188 192.138,262.016 192.143,295.059 192.322,281.494 192.5,300.864 192.679,293.485 192.858,298.043 193.036,289.145 193.215,284.641 193.393,288.493 193.572,286.16 193.751,290.664 193.93,292.02 194.108,281.983 194.287,287.354 194.465,286.594 194.644,286.323 194.823,277.696 194.99,285.13 195.169,288.765 195.348,290.501 195.526,295.221 195.705,254.311 195.861,189.583 195.995,184.428 196.088,224.09 196.266,182.421 196.425,147.154 196.594,143.518 196.624,164.516 196.803,169.291 196.858,169.942 197.026,190.776 197.205,193.815 197.384,192.947 197.562,294.842 197.741,295.384 197.766,230.655 197.945,290.23 198.123,302.817 198.293,310.034 198.469,298.965 198.646,298.965 198.813,302.438 198.955,299.616 199.115,297.717 199.275,295.981 199.442,292.671 199.618,288.765 199.785,284.912 199.945,284.316 200.037,285.075 200.216,283.99 200.395,294.842 200.573,302.438 200.752,295.221 200.931,285.455 201.102,282.851 201.231,286.92 201.403,180.251 201.486,156.54 201.665,169.399 201.844,182.746 202.022,193.218 202.201,204.124 202.38,305.639 202.538,294.516 202.688,294.299 202.796,287.137 202.967,282.362 203.145,287.191 203.324,281.44 203.503,290.175 203.681,298.857 203.86,292.78 204.039,286.811 204.217,292.834 204.372,308.623 204.542,236.135 204.691,206.348 204.776,222.734 204.946,185.513 205.124,160.175 205.303,130.28 205.481,151.223 205.66,139.232 205.837,138.961 206.015,143.952 206.191,152.796 206.342,181.553 206.517,269.449 206.696,237.383 206.863,292.834 207.039,300.647 207.216,293.485 207.328,283.448 207.467,289.416 207.646,288.493 207.824,291.532 208.003,298.965 208.182,275.255 208.36,188.877 208.539,168.694 208.718,143.193 208.896,128.923 209.075,146.394 209.254,186.165 209.432,292.291 209.611,255.125 209.789,178.243 209.968,294.516 210.128,291.369 210.304,280.626 210.441,283.013 210.567,279.812 210.717,295.764 210.895,297.066 211.004,288.656 211.125,287.788 211.286,288.168 211.325,288.114 211.503,288.927 211.529,288.059 211.707,283.99 211.886,281.603 212.065,284.37 212.243,284.858 212.422,286.269 212.601,286.106 212.752,280.463 212.897,292.02 213.033,296.578 213.158,290.935 213.285,291.478 213.444,290.23 213.567,289.796 213.655,290.827 213.783,289.09 213.909,290.392 214.07,289.579 214.239,288.656 214.415,287.571 214.564,291.64 214.719,291.315 214.835,293.811 214.945,287.788 215.044,293.105 215.17,293.811 215.28,291.586 215.427,288.819 215.591,280.68 215.769,289.633 215.772,285.184 215.951,285.184 216.13,287.734 216.308,296.741 216.487,291.695 216.666,291.206 216.844,290.447 217.023,278.781 217.19,284.153 217.315,299.399 217.453,286.866 217.603,284.533 217.781,282.417 217.798,278.293 217.976,276.286 218.131,276.177 218.272,268.961 218.45,265.163 218.622,268.907 218.753,258.978 218.879,264.946 219.032,270.209 219.21,274.712 219.389,304.065 219.568,277.534 219.746,282.905 219.925,280.626 220.104,288.656 220.282,297.934 220.461,294.028 220.64,290.827 220.818,289.524 220.997,285.672 221.176,281.006 221.354,274.983 221.533,276.014 221.712,286.269 221.89,280.463 222.069,277.588 222.248,274.929 222.426,274.712 222.605,274.604 222.784,275.743 222.962,283.285 223.141,280.301 223.32,280.572 223.498,279.704 223.677,285.292 223.855,301.949 223.987,304.065 224.114,295.981 224.28,284.153 224.419,276.014 224.598,265.597 224.776,260.714 224.955,266.791 225.134,280.463 225.312,284.858 225.491,286.16 225.67,277.316 225.848,277.425 226.027,278.619 226.205,279.378 226.384,278.564 226.523,280.192 226.661,271.348 226.793,264.729 226.966,253.986 227.089,276.448 227.226,277.099 227.314,272.596 227.489,271.782 227.617,271.999 227.669,272.65 227.798,276.991 227.977,277.696 228.156,267.333 228.334,266.194 228.513,269.612 228.691,269.449 228.87,265.651 229.049,265.109 229.141,270.914 229.262,271.185 229.44,264.186 229.462,279.867 229.64,284.316 229.819,283.339 229.998,280.626 230.176,279.378 230.355,277.751 230.534,272.488 230.712,275.2 230.891,277.262 231.07,274.875 231.248,272.976 231.42,272.271 231.569,274.224 231.724,271.023 231.898,270.751 232.017,273.898 232.196,279.053 232.374,279.975 232.553,279.65 232.732,278.619 232.903,279.215 233.012,281.494 233.17,282.579 233.346,288.059 233.514,289.687 233.688,288.819 233.867,285.672 234.016,290.013 234.195,291.478 234.374,288.819 234.552,287.137 234.731,287.083 234.91,284.153 235.088,287.354 235.267,285.726 235.446,284.044 235.624,284.75 235.803,277.045 235.982,273.301 236.16,274.712 236.339,273.681 236.518,266.519 236.696,258.652 236.875,269.829 237.054,271.457 237.232,270.643 237.411,275.309 237.59,282.254 237.768,282.525 237.921,283.393 238.046,282.851 238.206,282.2 238.385,286.54 238.563,287.68 238.714,288.276 238.854,282.905 239.029,282.742 239.204,282.417 239.382,282.362 239.509,283.068 239.687,283.068 239.709,274.875 239.887,272.325 240.066,272.162 240.244,278.076 240.423,277.913 240.602,269.666 240.767,267.93 240.933,274.061 241.1,273.573 241.275,274.766 241.452,276.34 241.599,277.534 241.774,280.626 241.926,288.385 242.102,286.106 242.279,283.882 242.393,284.207 242.496,281.223 242.674,279.975 242.853,274.387 243.032,271.24 243.21,270.643 243.389,271.294 243.568,275.689 243.746,276.34 243.925,279.27 244.104,278.727 244.282,277.425 244.461,277.534 244.639,276.231 244.818,276.286 244.997,276.014 245.175,275.906 245.354,267.604 245.533,263.535 245.711,268.581 245.869,275.689 246.012,274.278 246.185,275.58 246.219,275.743 246.397,275.96 246.558,280.246 246.72,280.952 246.895,279.378 247.07,279.812 247.229,279.161 247.396,279.161 247.574,279.053 247.748,277.805 247.907,277.371 247.986,282.525 248.164,287.137 248.343,290.121 248.522,289.416 248.7,294.842 248.879,301.244 249.057,295.872 249.236,288.819 249.415,289.307 249.593,289.47 249.772,287.842 249.951,290.664 250.056,286.269 250.151,284.478 250.312,291.749 250.444,289.958 250.623,290.338 250.798,289.687 250.957,291.044 251.117,288.276 251.288,292.454 251.463,269.015 251.641,289.633 251.808,273.464 251.883,265.76 252.062,276.828 252.24,288.927 252.38,278.456 252.557,284.099 252.711,284.153 252.865,271.674 253.032,271.674 253.2,272.65 253.217,271.565 253.396,273.464 253.575,275.58 253.753,280.138 253.932,286.323 254.111,286.377 254.289,286.215 254.468,287.029 254.647,278.51 254.825,268.635 254.904,268.31 255.083,271.077 255.261,271.674 255.437,277.696 255.614,287.408 255.791,284.533 255.968,279.432 256.072,273.573 256.249,270.155 256.428,272.162 256.606,274.549 256.781,273.898 256.95,277.913 257.128,278.51 257.305,277.479 257.478,278.998 257.64,288.331 257.683,289.253 257.862,284.967 258.039,284.804 258.216,285.672 258.392,291.857 258.568,289.036 258.728,286.377 258.767,274.115 258.946,271.891 259.117,272.867 259.295,270.263 259.472,274.766 259.65,277.534 259.828,278.402 260.007,286.377 260.172,287.408 260.351,285.889 260.529,285.075 260.708,280.029 260.887,284.533 261.052,271.674 261.231,261.853 261.408,251.707 261.585,244.274 261.761,262.179 261.934,252.847 262.099,254.691 262.206,268.69 262.384,285.13 262.563,280.192 262.741,279.215 262.919,287.897 263.095,300.918 263.273,288.005 263.452,284.316 263.63,263.589 263.806,256.862 263.983,255.017 264.119,266.248 264.298,268.635 264.476,268.744 264.653,274.224 264.828,277.913 264.918,271.185 265.093,257.187 265.269,264.241 265.448,280.626 265.619,282.471 265.771,275.526 265.807,264.349 265.986,271.077 266.163,271.457 266.34,276.448 266.519,274.712 266.697,274.983 266.874,274.929 267.036,271.511 267.124,273.464 267.303,280.897 267.477,282.525 267.654,278.89 267.831,269.938 268.006,268.907 268.183,269.883 268.357,259.086 268.527,250.676 268.657,248.452 268.836,253.335 268.912,253.606 269.035,255.451 269.1,256.21 269.218,257.079 269.328,260.063 269.439,257.621 269.534,218.556 269.632,130.714 269.739,124.8 269.918,248.018 270.095,121.273 270.144,144.929 270.323,126.102 270.5,149.378 270.678,138.31 270.853,286.811 271.015,162.943 271.193,182.367 271.367,165.276 271.531,197.287 271.708,174.282 271.885,308.352 271.951,188.443 272.13,216.223 272.307,170.973 272.48,216.928 272.657,180.522 272.831,274.061 272.93,292.074 273.108,312.909 273.287,315.188 273.465,315.893 273.643,309.437 273.811,304.716 273.987,265.488 274.165,262.179 274.344,275.472 274.522,273.139 274.694,283.556 274.843,292.291 274.994,292.726 275.156,291.532 275.311,293.756 275.49,265.163 275.667,263.698 275.843,277.208 276.019,257.296 276.189,248.072 276.368,262.179 276.543,226.206 276.714,201.302 276.89,193.218 277.056,286.974 277.226,271.402 277.395,285.564 277.551,289.958 277.576,303.197 277.755,288.439 277.934,283.068 278.101,276.286 278.275,289.633 278.449,291.478 278.626,289.307 278.799,299.019 278.961,297.066 279.019,290.718 279.197,281.711 279.373,274.17 279.544,288.439 279.717,293.377 279.883,293.539 280.03,292.074 280.161,298.64 280.265,301.027 280.443,275.038 280.537,226.749 280.715,162.183 280.894,155.672 281.073,171.244 281.251,156.052 281.43,170.973 281.609,194.574 281.776,276.014 281.949,295.004 282.127,291.857 282.301,224.145 282.471,198.427 282.574,224.145 282.753,248.94 282.931,188.769 283.103,177.321 283.272,273.518 283.416,274.712 283.467,253.552 283.645,283.339 283.823,267.984 283.995,289.633 284.168,298.422 284.311,298.531 284.49,292.454 284.667,299.996 284.842,308.135 285.018,290.664 285.196,276.286 285.228,272.216 285.406,288.385 285.585,297.012 285.758,311.444 285.927,311.878 286.102,294.95 286.279,291.803 286.394,347.688 286.46,360.71 286.639,314.537 286.806,311.444 286.973,329.023 287.136,208.03 287.299,197.613 287.477,191.916 287.599,282.037 287.737,304.933 287.907,283.339 288.051,305.042 288.218,276.557 288.388,285.347 288.562,272.542 288.734,271.837 288.898,303.251 288.951,215.843 289.13,181.878 289.306,311.119 289.48,244.437 289.654,297.554 289.823,297.337 289.991,300.322 290.165,284.37 290.332,276.557 290.481,260.551 290.659,285.618 290.838,270.643 291.011,284.858 291.187,261.256 291.365,253.172 291.542,284.37 291.703,199.512 291.748,153.773 291.927,189.637 292.099,174.879 292.276,215.789 292.455,191.536 292.633,205.534 292.792,210.2 292.956,197.016 293.135,191.536 293.313,237.383 293.492,283.176 293.668,298.857 293.845,278.076 294.024,290.501 294.202,171.081 294.338,147.696 294.516,238.685 294.691,261.636 294.869,286.594 295.047,254.149 295.225,307.592 295.404,180.522 295.519,161.966 295.698,139.829 295.877,152.688 296.055,133.427 296.219,213.727 296.259,218.502 296.438,228.594 296.617,278.076 296.795,318.226 296.972,320.234 297.134,325.171 297.234,282.525 297.413,296.795 297.587,229.842 297.759,199.892 297.934,267.713 298.099,219.967 298.277,233.151 298.431,108.414 298.61,93.3849 298.784,329.295 298.875,348.231 299.054,256.265 299.233,248.831 299.411,291.261 299.59,204.829 299.6,195.28 299.779,207.65 299.954,147.045 300.129,142.542 300.3,211.991 300.478,270.643 300.656,284.207 300.828,303.523 300.997,308.948 301.156,324.14 301.283,316.544 301.43,317.358 301.579,317.358 301.758,319.583 301.936,333.201 302.115,283.448 302.294,226.206 302.472,215.192 302.651,282.959 302.829,288.927 303.008,236.135 303.09,280.952 303.241,286.866 303.297,124.257 303.426,120.785 303.605,233.585 303.784,256.59 303.955,116.064 304.123,113.189 304.196,153.936 304.374,126.156 304.553,125.125 304.73,171.298 304.893,151.223 305.056,162.671 305.235,131.907 305.413,181.715 305.592,238.251 305.771,226.803 305.949,294.082 306.128,122.846 306.307,109.988 306.485,194.737 306.664,214.161 306.843,231.144 307.021,243.243 307.2,227.563 307.379,245.251 307.557,257.187 307.736,272.325 307.915,282.2 308.093,250.188 308.272,247.041 308.451,261.256 308.629,220.618 308.808,246.227 308.987,249.428 309.146,235.647 309.19,249.211 309.368,165.981 309.543,157.788 309.594,251.382 309.772,296.306 309.951,197.179 310.13,186.544 310.308,295.113 310.487,278.022 310.666,290.013 310.817,270.046 310.995,242.212 311.174,268.201 311.353,284.478 311.531,79.1152 311.71,75.046 311.889,192.024 312.067,64.303 312.227,82.2622 312.349,68.2096 312.482,110.042 312.569,96.4233 312.728,237.003 312.793,168.911 312.972,159.741 313.151,170.973 313.329,183.831 313.502,170.159 313.666,189.8 313.831,230.71 313.951,249.645 314.129,228.973 314.298,239.988 314.41,227.997 314.584,259.032 314.613,270.1 314.791,270.426 314.97,165.276 315.149,202.713 315.327,294.679 315.506,309.003 315.632,309.111 315.739,321.482 315.899,327.287 316.077,322.296 316.256,252.738 316.435,209.224 316.613,202.55 316.745,267.116 316.914,218.068 317.073,202.713 317.198,295.927 317.345,280.192 317.483,230.113 317.656,269.829 317.832,269.992 318.004,188.932 318.172,277.099 318.283,281.983 318.461,263.752 318.64,296.144 318.819,201.411 318.983,181.39 319.157,245.196 319.331,84.4324 319.446,97.2371 319.625,74.7204 319.801,110.367 319.951,253.335 320.13,146.503 320.308,160.338 320.485,146.123 320.651,166.469 320.83,154.424 320.962,172.437 321.122,160.718 321.165,173.034 321.344,159.199 321.365,274.875 321.544,308.623 321.633,254.583 321.811,226.803 321.99,246.77 322.039,320.451 322.196,327.287 322.375,278.293 322.432,174.228 322.611,153.665 322.774,269.883 322.818,279.975 322.997,263.535 323.07,307.972 323.225,189.528 323.397,92.9508 323.566,313.777 323.699,250.351 323.878,206.131 324.056,205.1 324.228,222.083 324.338,308.46 324.517,318.009 324.685,267.604 324.861,216.603 325.028,192.404 325.199,226.261 325.264,208.681 325.442,244.382 325.621,256.536 325.8,241.941 325.978,274.224 326.157,289.796 326.336,290.718 326.511,288.439 326.69,297.392 326.868,251.273 327.047,247.638 327.226,247.963 327.404,240.91 327.583,306.778 327.762,192.947 327.94,246.932 328.119,268.039 328.298,171.786 328.476,137.604 328.655,313.506 328.834,289.633 329.012,301.678 329.191,256.319 329.37,255.071 329.548,213.239 329.727,211.286 329.906,280.518 330.084,196.69 330.218,168.205 330.355,241.344 330.534,176.073 330.712,240.15 330.891,119.428 331.07,321.428 331.23,306.778 331.408,318.281 331.587,201.411 331.765,200.054 331.943,301.027 332.07,333.961 332.167,339.278 332.346,316.599 332.524,283.339 332.703,151.169 332.879,144.549 333.058,257.024 333.224,303.143 333.378,341.937 333.551,324.683 333.669,339.549 333.841,321.645 333.945,262.287 334.021,154.207 334.2,149.107 334.369,175.584 334.547,266.953 334.724,287.842 334.902,302.546 335.079,302.655 335.256,293.648 335.434,253.009 335.609,248.18 335.784,276.937 335.961,196.202 336.138,187.087 336.306,249.211 336.476,251.436 336.653,109.282 336.82,106.407 336.984,234.128 337.124,222.408 337.227,257.567 337.405,288.548 337.529,239.445 337.7,271.565 337.879,234.399 338.022,252.847 338.122,253.172 338.301,257.73 338.463,227.508 338.586,285.781 338.652,297.826 338.831,282.579 339.009,266.031 339.188,220.618 339.364,129.412 339.513,112.917 339.669,243.026 339.845,284.316 340.018,69.6202 340.135,67.0702 340.264,228.485 340.334,265.651 340.46,198.915 340.638,194.954 340.651,239.119 340.83,223.548 340.905,266.14 341.027,191.102 341.192,265.76 341.251,148.076 341.429,118.886 341.602,113.189 341.781,263.589 341.959,268.039 342.138,162.02 342.305,262.938 342.477,241.832 342.647,261.311 342.813,211.286 342.989,149.27 343.153,167.446 343.329,265.488 343.493,309.057 343.664,310.359 343.81,240.747 343.973,228.431 344.13,236.027 344.306,294.299 344.456,309.491 344.635,285.292 344.814,229.245 344.992,214.378 345.171,244.111 345.35,248.614 345.528,181.498 345.707,179.491 345.885,238.143 346.064,300.864 346.243,308.948 346.421,226.206 346.6,159.524 346.771,218.61 346.91,275.743 346.996,111.615 347.167,212.533 347.345,292.074 347.524,150.626 347.703,150.572 347.826,162.997 347.97,170.05 348.143,280.192 348.318,288.765 348.48,264.403 348.658,246.444 348.832,257.838 349.01,236.624 349.177,282.254 349.348,168.802 349.514,127.675 349.692,265.814 349.87,289.85 350.048,155.943 350.215,109.391 350.388,244.491 350.567,256.156 350.745,199.783 350.924,169.019 351.102,290.338 351.274,274.061 351.448,285.509 351.607,162.617 351.784,160.338 351.962,288.439 352.132,76.6194 352.31,94.3615 352.485,76.4024 352.663,249.862 352.835,103.802 353.009,117.963 353.184,106.624 353.358,198.318 353.52,213.727 353.683,194.574 353.832,246.227 353.971,284.587 354.143,272.976 354.321,287.625 354.5,261.528 354.67,252.087 354.824,258.001 354.937,260.714 355.074,271.837 355.222,276.177 355.377,273.139 355.555,269.666 355.731,263.427 355.759,257.187 355.916,256.048 356.094,262.559 356.273,227.617 356.452,129.466 356.626,255.397 356.804,218.827 356.979,279.975 357.131,220.401 357.252,279.487 357.431,341.177 357.61,343.998 357.78,209.332 357.944,169.616 358.121,248.723 358.297,297.934 358.476,275.146 358.653,286.16 358.83,271.457 358.992,260.063 359.158,273.301 359.299,280.735 359.463,271.348 359.619,269.069 359.785,267.876 359.939,279.65 360.084,275.797 360.252,267.604 360.381,266.14 360.528,266.085 360.614,275.092 360.751,277.099 360.929,272.108 361.091,266.14 361.269,269.286 361.448,270.534 361.627,272.271 361.805,263.535 361.984,235.484 362.163,162.997 362.341,144.441 362.52,255.342 362.699,277.696 362.877,245.956 363.056,143.681 363.234,224.145 363.413,212.262 363.592,246.444 363.77,220.781 363.949,265.814 364.128,282.091 364.306,263.969 364.485,289.47 364.664,261.853 364.831,293.702 365.006,299.345 365.179,291.64 365.351,284.587 365.528,292.074 365.707,287.463 365.883,253.932 365.893,281.223 366.072,270.046 366.25,285.943 366.429,274.658 366.608,291.586 366.779,296.849 366.947,297.554 367.124,294.353 367.296,264.349 367.475,280.084 367.653,292.129 367.832,303.36 368.01,303.468 368.189,279.812 368.354,188.769 368.532,174.391 368.682,172.655 368.855,249.862 368.872,176.127 369.051,175.15 369.161,188.932 369.34,235.484 369.518,271.891 369.697,245.576 369.876,306.181 370.054,309.437 370.233,306.29 370.409,302.546 370.578,295.33 370.755,281.06 370.925,277.805 371.101,282.742 371.27,289.416 371.439,277.859 371.535,272.759 371.714,275.038 371.892,271.999 372.069,275.146 372.248,282.254 372.426,292.183 372.603,296.469 372.768,287.191 372.941,283.936 372.964,286.269 373.143,266.736 373.315,256.048 373.489,255.234 373.66,282.091 373.808,271.728 373.857,253.009 374.036,239.662 374.214,166.578 374.392,166.469 374.571,221.16 374.739,183.94 374.792,79.6035 374.971,71.682 375.149,93.5476 375.328,82.3164 375.507,101.252 375.572,81.0685 375.751,118.886 375.929,87.5251 376.103,119.971 376.281,102.771 376.431,284.261 376.595,285.889 376.773,140.914 376.886,103.694 377.065,119.917 377.236,95.7722 377.413,107.492 377.59,95.8264 377.764,122.304 377.937,109.336 378.024,131.69 378.203,100.872 378.376,134.62 378.552,103.748 378.731,130.334 378.907,119.211 379.081,178.731 379.243,116.01 379.42,141.945 379.57,128.978 379.685,144.278 379.826,112.809 379.969,144.17 380.148,129.303 380.266,147.696 380.417,127.513 380.595,257.296 380.774,139.178 380.953,160.935 381.131,149.27 381.31,173.089 381.488,160.772 381.667,176.453 381.842,161.64 382.02,185.351 382.185,170.05 382.23,252.738 382.4,295.167 382.578,301.841 382.756,294.516 382.934,287.951 383.11,283.339 383.28,286.215 383.351,277.154 383.53,276.991 383.708,295.276 383.886,296.306 384.063,290.284 384.241,292.183 384.413,291.044 384.591,290.772 384.749,287.517 384.927,289.633 385.104,282.091 385.279,267.659 385.452,150.084 385.628,138.473 385.799,134.186 385.974,149.704 386.079,134.946 386.257,149.487 386.436,135.705 386.611,183.886 386.79,144.821 386.957,275.363 387.049,303.034 387.228,305.693 387.402,303.794 387.575,319.746 387.753,320.722 387.929,322.458 388.096,306.615 388.112,291.532 388.291,275.689 388.469,281.114 388.641,278.673 388.814,315.351 388.988,319.149 389.166,300.43 389.33,295.655 389.508,291.098 389.52,291.695 389.698,287.408 389.871,288.656 390.049,289.307 390.222,283.882 390.394,283.068 390.569,299.67 390.742,290.23 390.898,287.354 390.957,281.766 391.136,283.61 391.315,289.741 391.493,296.035 391.67,307.972 391.848,292.671 392.024,294.19 392.201,292.888 392.336,292.237 392.512,290.935 392.689,290.338 392.864,293.648 393.039,290.935 393.213,287.191 393.38,285.998 393.558,285.455 393.692,276.828 393.871,288.71 394.047,247.855 394.224,275.309 394.402,236.786 394.506,231.686 394.681,249.428 394.859,285.943 395.032,286.486 395.204,277.208 395.378,280.355 395.555,311.878 395.732,288.493 395.798,286.377 395.976,304.608 396.155,292.074 396.332,293.322 396.433,283.61 396.611,282.688 396.782,279.541 396.942,260.117 397.048,268.364 397.227,275.906 397.403,250.134 397.58,249.7 397.758,266.085 397.936,275.689 398.108,219.912 398.129,98.3223 398.307,96.2605 398.483,107.275 398.66,86.6027 398.836,100.059 399.007,83.8899 399.173,109.499 399.336,97.834 399.513,133.644 399.687,58.7688 399.865,70.4341 400.044,53.5059 400.223,71.9533 400.401,55.0251 400.549,77.2705 400.659,55.8932 400.837,73.4182 401.016,60.5593 401.118,135.651 401.212,121.924 401.375,169.236 401.541,76.8365 401.72,102.609 401.769,89.5326 401.948,293.431 402.127,139.341 402.305,128.652 402.464,150.897 402.642,132.993 402.821,166.74 402.993,147.479 403.098,183.886 403.276,165.764 403.452,186.978 403.617,172.98 403.753,193.326 403.932,181.173 404.11,262.125 404.288,283.556 404.464,262.667 404.639,308.297 404.815,301.352 404.858,294.082 405.037,303.794 405.215,298.151 405.394,285.238 405.568,278.456 405.745,289.958 405.924,288.982 406.102,288.71 406.263,296.415 406.43,300.973 406.596,306.453 406.775,305.205 406.949,302.492 407.128,292.02 407.307,284.316 407.485,287.897 407.664,284.967 407.843,282.905 408.021,286.106 408.2,286.594 408.379,289.796 408.557,296.469 408.736,287.408 408.915,290.175 409.093,292.671 409.272,291.098 409.432,281.06 409.61,287.354 409.659,295.818 409.837,307.375 410.016,307.755 410.195,299.616 410.373,309.816 410.552,311.824 410.731,306.941 410.909,294.136 411.088,292.4 411.267,293.756 411.445,288.276 411.624,278.836 411.803,280.843 411.949,276.014 412.099,277.154 412.278,272.271 412.397,284.316 412.575,290.827 412.754,293.431 412.933,283.665 413.111,281.06 413.288,279.704 413.46,284.695 413.633,298.422 413.804,291.749 413.976,296.686 414.154,284.587 414.181,277.534 414.36,289.904 414.493,292.943 414.661,270.86 414.826,270.643 414.974,267.387 415.12,275.363 415.287,271.999 415.463,271.185 415.623,280.843 415.792,295.384 415.97,274.712 416.128,272.162 416.281,289.145 416.441,275.96 416.605,190.071 416.78,108.577 416.957,93.1678 417.134,107.003 417.281,93.7647 417.419,112.104 417.482,91.0518 417.615,118.886 417.794,97.6169 417.972,113.189 417.978,96.6946 418.157,121.924 418.326,100.601 418.482,117.692 418.661,99.2446 418.809,131.148 418.948,116.824 419.127,130.008 419.293,108.414 419.457,133.155 419.621,118.614 419.782,134.403 419.954,117.204 420.118,146.394 420.296,124.094 420.442,160.718 420.584,141.836 420.73,154.533 420.882,134.403 421.038,150.626 421.209,139.015 421.372,298.043 421.539,216.331 421.667,183.94 421.799,213.13 421.93,191.699 422.057,223.819 422.189,202.604 422.313,220.781 422.449,206.674 422.585,227.563 422.725,211.123 422.86,251.11 422.977,235.213 423.125,265.705 423.261,227.997 423.438,225.23 423.583,250.622 423.754,230.33 423.906,261.094 424.078,235.756 424.239,285.509 424.394,240.53 424.569,238.197 424.742,265.597 424.897,251.544 425.055,318.498 425.217,327.45 425.389,325.605 425.551,318.66 425.71,272.271 425.87,271.782 426.027,284.912 426.185,252.25 426.364,276.34 426.532,282.688 426.698,293.485 426.87,293.485 427.032,277.751 427.211,276.069 427.387,293.756 427.554,298.802 427.727,304.337 427.898,304.879 428.071,299.508 428.245,294.842 428.418,283.448 428.596,280.029 428.764,279.867 428.942,289.796 429.09,276.665 429.251,274.387 429.424,282.091 429.576,286.106 429.72,291.586 429.897,293.865 430.072,294.245 430.239,291.478 430.402,295.764 430.573,290.23 430.74,280.897 430.916,289.199 431.082,287.68 431.237,293.214 431.397,295.059 431.542,279.432 431.695,282.634 431.861,228.322 432.039,144.983 432.186,136.139 432.332,158.059 432.503,177.863 432.68,217.634 432.85,251.87 433.02,150.897 433.184,178.406 433.358,164.95 433.531,190.342 433.698,255.939 433.863,280.029 434.031,305.964 434.21,306.181 434.386,295.764 434.562,283.176 434.741,282.2 434.91,296.198 435.079,287.788 435.253,280.626 435.431,279.595 435.6,278.076 435.779,275.743 435.946,281.114 436.107,290.392 436.262,295.221 436.409,293.539 436.581,276.069 436.753,273.41 436.891,279.704 437.057,267.008 437.16,281.766 437.304,284.858 437.466,275.58 437.634,268.093 437.785,267.225 437.963,263.481 437.968,260.225 438.147,277.425 438.325,280.029 438.504,278.402 438.683,280.192 438.861,270.209 439.04,266.628 439.219,263.698 439.397,260.822 439.576,255.831 439.755,261.69 439.933,259.52 440.112,245.685 440.291,242.646 440.469,276.557 440.648,269.829 440.826,276.014 441.005,279.107 441.184,279.541 441.362,265.651 441.541,270.155 441.72,233.422 441.898,193.218 442.077,245.576 442.256,217.634 442.434,202.387 442.613,249.754 442.792,257.892 442.97,212.154 443.149,207.65 443.328,298.64 443.391,322.187 443.539,324.791 443.71,313.289 443.875,310.847 444.052,289.416 444.105,272.054 444.284,282.362 444.462,290.664 444.641,292.291 444.82,293.811 444.998,253.118 445.177,316.653 445.199,324.303 445.378,301.624 445.557,283.99 445.735,298.314 445.914,299.833 446.093,299.887 446.271,291.261 446.45,240.259 446.629,287.137 446.807,302.6 446.986,302.817 447.164,289.85 447.202,299.453 447.381,305.367 447.43,296.469 447.609,294.896 447.76,286.974 447.811,289.633 447.99,292.074 448.168,298.857 448.347,303.468 448.526,304.12 448.704,268.635 448.883,266.953 449.062,285.292 449.24,297.717 449.419,332.116 449.597,335.155 449.776,317.847 449.955,288.765 450.133,224.09 450.312,222.354 450.491,249.862 450.669,218.99 450.848,252.63 451.027,274.549 451.205,312.529 451.33,313.289 451.48,295.493 451.652,307.321 451.758,313.56 451.878,289.958 451.984,263.372 452.119,293.919 452.298,316.11 452.476,307.646 452.655,301.352 452.834,163.268 453.012,128.381 453.191,194.412 453.37,279.921 453.548,124.257 453.727,120.079 453.906,274.712 454.084,156.215 454.263,150.301 454.415,214.704 454.582,214.921 454.755,157.191 454.93,219.858 455.087,149.215 455.263,279.867 455.401,152.796 455.569,296.144 455.732,297.12 455.858,286.052 456.021,300.864 456.176,230.655 456.353,229.842 456.494,246.39 456.652,189.04 456.803,186.327 456.977,269.015 457.122,275.038 457.281,275.906 457.395,275.038 457.508,280.68 457.636,204.341 457.815,117.584 457.821,263.21 458,291.261 458.178,297.392 458.357,285.618 458.536,311.336 458.714,312.367 458.893,262.993 459.072,258.869 459.25,336.24 459.429,309.762 459.608,286.92 459.786,247.909 459.965,229.57 460.144,257.838 460.306,266.736 460.485,250.459 460.651,238.848 460.826,252.684 460.924,236.624 461.076,206.565 461.247,279.704 461.423,289.904 461.589,298.422 461.759,291.315 461.906,278.347 462.028,286.215 462.178,165.981 462.353,157.191 462.459,199.62 462.638,296.632 462.658,298.965 462.836,254.583 463.01,283.122 463.188,76.2396 463.272,282.308 463.45,282.742 463.629,125.342 463.808,123.281 463.986,140.534 464.111,328.535 464.289,332.008 464.461,318.389 464.475,315.948 464.654,292.4 464.791,112.646 464.931,77.0535 465.109,175.096 465.275,221.377 465.453,191.482 465.609,185.351 465.788,303.468 465.967,259.412 466.145,272.108 466.31,258.978 466.488,319.149 466.653,319.257 466.822,275.2 467.001,221.866 467.158,282.2 467.335,315.731 467.502,307.7 467.677,298.748 467.846,277.588 467.996,232.5 468.165,199.349 468.329,214.541 468.464,268.69 468.622,272.65 468.798,155.618 468.976,147.859 469.155,227.237 469.334,160.772 469.512,231.306 469.691,195.822 469.87,281.983 470.048,165.004 470.227,135.326 470.406,185.568 470.584,262.125 470.763,211.882 470.942,246.39 471.12,261.69 471.299,272.867 471.478,89.6411 471.656,75.7513 471.835,291.423 472.013,302.003 472.192,274.712 472.371,273.898 472.549,283.936 472.728,254.963 472.907,269.558 473.085,302.166 473.264,309.545 473.443,318.715 473.621,304.554 473.8,283.285 473.979,304.879 474.157,259.412 474.336,244.437 474.515,319.094 474.693,325.497 474.872,187.141 475.05,140.48 475.229,137.984 475.408,271.565 475.586,216.874 475.765,281.06 475.944,264.458 476.122,300.05 476.301,179.111 476.48,85.3005 476.658,79.0067 476.837,284.153 477.016,108.089 477.194,119.048 477.373,104.453 477.552,121.816 477.73,108.74 477.909,124.149 478.088,113.243 478.266,126.97 478.445,111.073 478.623,124.962 478.802,113.786 478.981,247.529 479.16,228.594 479.338,173.902 479.517,226.586 479.695,263.21 479.874,230.059 480.053,269.558 480.231,269.666 480.41,220.509 480.589,238.468 480.767,105.376 480.946,126.156 481.125,81.7196 481.303,267.387 481.482,284.804 481.661,110.096 481.839,127.458 482.018,114.925 482.197,132.938 482.375,120.513 482.554,247.963 482.733,165.764 482.911,249.971 483.09,274.278 483.269,256.319 483.447,270.48 483.626,233.802 483.805,274.332 483.983,230.493 484.162,265.543 484.341,125.885 484.519,105.593 484.698,227.943 484.877,160.067 485.055,177.755 485.234,95.9892 485.413,110.639 485.591,97.5627 485.77,110.639 485.949,80.4174 486.127,206.565 486.306,233.477 486.485,103.639 486.663,97.6169 486.842,135.217 487.02,208.681 487.199,188.932 487.378,248.94 487.556,269.612 487.735,200.488 487.914,193.326 488.092,184.103 488.271,170.43 488.45,150.789 488.628,165.981 488.807,146.882 488.986,160.718 489.164,148.347 489.343,243.026 489.522,270.155 489.7,264.729 489.879,271.674 490.057,277.371 490.236,270.968 490.415,296.252 490.593,292.997 490.772,307.809 490.951,283.393 491.129,114.003 491.308,99.7329 491.487,300.593 491.665,314.7 491.844,300.05 492.023,256.699 492.201,98.485 492.38,260.877 492.559,209.224 492.737,226.206 492.916,209.875 493.095,274.17 493.273,292.074 493.452,300.539 493.631,301.515 493.809,125.234 493.988,122.738 494.167,315.079 494.345,53.2346 494.524,83.7271 494.703,72.4416 494.881,299.291 495.06,115.305 495.239,90.7263 495.417,89.4241 495.596,286.866 495.775,126.427 495.953,144.495 496.132,117.312" stroke="#0071bc" stroke-width="2" fill="none" stroke-linejoin="round"/>
  </g>
 </g>
</svg>
