<?xml version='1.0' encoding='UTF-8' standalone='no'?>
<svg width="576pt" xmlns="http://www.w3.org/2000/svg" viewBox="0 0 576 432" xmlns:xlink="http://www.w3.org/1999/xlink" height="432pt">
 <title>gl2ps_renderer figure</title>
 <desc>
Creator: GL2PS 1.4.0, (C) 1999-2017 C. Geuzaine
For: Octave
CreationDate: Mon Jul 05 00:16:12 2021
</desc>
 <defs/>
 <polygon points="0,0 576,0 576,432 0,432" fill="#ffffff"/>
 <g>
  <polygon shape-rendering="crispEdges" points="0,432 576,432 576,0 0,0" fill="#ffffff"/>
  <clipPath id="cp00576432">
   <polygon points="0,432 576,432 576,0 0,0"/>
  </clipPath>
  <g clip-path="url(#cp00576432)">
   <polygon shape-rendering="crispEdges" points="74.88,384.48 521.28,384.48 521.28,32.4 74.88,32.4" fill="#ffffff"/>
   <polyline stroke-dasharray="16,0" stroke-width="0.5" points="74.88,384.48 74.88,32.4" stroke-linecap="butt" stroke="#262626" fill="none" stroke-linejoin="miter" stroke-opacity="0.15"/>
   <polyline stroke-dasharray="16,0" stroke-width="0.5" points="164.16,384.48 164.16,32.4" stroke-linecap="butt" stroke="#262626" fill="none" stroke-linejoin="miter" stroke-opacity="0.15"/>
   <polyline stroke-dasharray="16,0" stroke-width="0.5" points="253.44,384.48 253.44,32.4" stroke-linecap="butt" stroke="#262626" fill="none" stroke-linejoin="miter" stroke-opacity="0.15"/>
   <polyline stroke-dasharray="16,0" stroke-width="0.5" points="342.72,384.48 342.72,32.4" stroke-linecap="butt" stroke="#262626" fill="none" stroke-linejoin="miter" stroke-opacity="0.15"/>
   <polyline stroke-dasharray="16,0" stroke-width="0.5" points="432,384.48 432,32.4" stroke-linecap="butt" stroke="#262626" fill="none" stroke-linejoin="miter" stroke-opacity="0.15"/>
   <polyline stroke-dasharray="16,0" stroke-width="0.5" points="521.28,384.48 521.28,32.4" stroke-linecap="butt" stroke="#262626" fill="none" stroke-linejoin="miter" stroke-opacity="0.15"/>
   <polyline stroke-width="0.5" points="74.88,384.48 74.88,380.015" stroke-linecap="butt" stroke="#262626" fill="none" stroke-linejoin="miter"/>
   <polyline stroke-width="0.5" points="74.88,32.4 74.88,36.865" stroke-linecap="butt" stroke="#262626" fill="none" stroke-linejoin="miter"/>
   <polyline stroke-width="0.5" points="164.16,384.48 164.16,380.015" stroke-linecap="butt" stroke="#262626" fill="none" stroke-linejoin="miter"/>
   <polyline stroke-width="0.5" points="164.16,32.4 164.16,36.865" stroke-linecap="butt" stroke="#262626" fill="none" stroke-linejoin="miter"/>
   <polyline stroke-width="0.5" points="253.44,384.48 253.44,380.015" stroke-linecap="butt" stroke="#262626" fill="none" stroke-linejoin="miter"/>
   <polyline stroke-width="0.5" points="253.44,32.4 253.44,36.865" stroke-linecap="butt" stroke="#262626" fill="none" stroke-linejoin="miter"/>
   <polyline stroke-width="0.5" points="342.72,384.48 342.72,380.015" stroke-linecap="butt" stroke="#262626" fill="none" stroke-linejoin="miter"/>
   <polyline stroke-width="0.5" points="342.72,32.4 342.72,36.865" stroke-linecap="butt" stroke="#262626" fill="none" stroke-linejoin="miter"/>
   <polyline stroke-width="0.5" points="432,384.48 432,380.015" stroke-linecap="butt" stroke="#262626" fill="none" stroke-linejoin="miter"/>
   <polyline stroke-width="0.5" points="432,32.4 432,36.865" stroke-linecap="butt" stroke="#262626" fill="none" stroke-linejoin="miter"/>
   <polyline stroke-width="0.5" points="521.28,384.48 521.28,380.015" stroke-linecap="butt" stroke="#262626" fill="none" stroke-linejoin="miter"/>
   <polyline stroke-width="0.5" points="521.28,32.4 521.28,36.865" stroke-linecap="butt" stroke="#262626" fill="none" stroke-linejoin="miter"/>
   <text font-weight="normal" font-style="normal" transform="translate(71.88,399.982) rotate(-0,3,-8)" xml:space="preserve" font-size="10" font-family="FreeSans">
    <tspan y="-0" x="0 " fill="rgb(38,38,38)">0</tspan>
   </text>
   <text font-weight="normal" font-style="normal" transform="translate(152.16,399.982) rotate(-0,12,-8)" xml:space="preserve" font-size="10" font-family="FreeSans">
    <tspan y="-0" x="0 6 12 18 " fill="rgb(38,38,38)">1000</tspan>
   </text>
   <text font-weight="normal" font-style="normal" transform="translate(241.44,399.982) rotate(-0,12,-8)" xml:space="preserve" font-size="10" font-family="FreeSans">
    <tspan y="-0" x="0 6 12 18 " fill="rgb(38,38,38)">2000</tspan>
   </text>
   <text font-weight="normal" font-style="normal" transform="translate(330.72,399.982) rotate(-0,12,-8)" xml:space="preserve" font-size="10" font-family="FreeSans">
    <tspan y="-0" x="0 6 12 18 " fill="rgb(38,38,38)">3000</tspan>
   </text>
   <text font-weight="normal" font-style="normal" transform="translate(420,399.982) rotate(-0,12,-8)" xml:space="preserve" font-size="10" font-family="FreeSans">
    <tspan y="-0" x="0 6 12 18 " fill="rgb(38,38,38)">4000</tspan>
   </text>
   <text font-weight="normal" font-style="normal" transform="translate(509.28,399.982) rotate(-0,12,-8)" xml:space="preserve" font-size="10" font-family="FreeSans">
    <tspan y="-0" x="0 6 12 18 " fill="rgb(38,38,38)">5000</tspan>
   </text>
   <polyline stroke-dasharray="16,0" stroke-width="0.5" points="74.88,384.48 521.28,384.48" stroke-linecap="butt" stroke="#262626" fill="none" stroke-linejoin="miter" stroke-opacity="0.15"/>
   <polyline stroke-dasharray="16,0" stroke-width="0.5" points="74.88,296.46 521.28,296.46" stroke-linecap="butt" stroke="#262626" fill="none" stroke-linejoin="miter" stroke-opacity="0.15"/>
   <polyline stroke-dasharray="16,0" stroke-width="0.5" points="74.88,208.44 521.28,208.44" stroke-linecap="butt" stroke="#262626" fill="none" stroke-linejoin="miter" stroke-opacity="0.15"/>
   <polyline stroke-dasharray="16,0" stroke-width="0.5" points="74.88,120.42 521.28,120.42" stroke-linecap="butt" stroke="#262626" fill="none" stroke-linejoin="miter" stroke-opacity="0.15"/>
   <polyline stroke-dasharray="16,0" stroke-width="0.5" points="74.88,32.4 521.28,32.4" stroke-linecap="butt" stroke="#262626" fill="none" stroke-linejoin="miter" stroke-opacity="0.15"/>
   <polyline stroke-width="0.5" points="74.88,384.48 79.348,384.48" stroke-linecap="butt" stroke="#262626" fill="none" stroke-linejoin="miter"/>
   <polyline stroke-width="0.5" points="521.28,384.48 516.812,384.48" stroke-linecap="butt" stroke="#262626" fill="none" stroke-linejoin="miter"/>
   <polyline stroke-width="0.5" points="74.88,296.46 79.348,296.46" stroke-linecap="butt" stroke="#262626" fill="none" stroke-linejoin="miter"/>
   <polyline stroke-width="0.5" points="521.28,296.46 516.812,296.46" stroke-linecap="butt" stroke="#262626" fill="none" stroke-linejoin="miter"/>
   <polyline stroke-width="0.5" points="74.88,208.44 79.348,208.44" stroke-linecap="butt" stroke="#262626" fill="none" stroke-linejoin="miter"/>
   <polyline stroke-width="0.5" points="521.28,208.44 516.812,208.44" stroke-linecap="butt" stroke="#262626" fill="none" stroke-linejoin="miter"/>
   <polyline stroke-width="0.5" points="74.88,120.42 79.348,120.42" stroke-linecap="butt" stroke="#262626" fill="none" stroke-linejoin="miter"/>
   <polyline stroke-width="0.5" points="521.28,120.42 516.812,120.42" stroke-linecap="butt" stroke="#262626" fill="none" stroke-linejoin="miter"/>
   <polyline stroke-width="0.5" points="74.88,32.4 79.348,32.4" stroke-linecap="butt" stroke="#262626" fill="none" stroke-linejoin="miter"/>
   <polyline stroke-width="0.5" points="521.28,32.4 516.812,32.4" stroke-linecap="butt" stroke="#262626" fill="none" stroke-linejoin="miter"/>
   <text font-weight="normal" font-style="normal" transform="translate(63.8755,388.48) rotate(-0,6,-4)" xml:space="preserve" font-size="10" font-family="FreeSans">
    <tspan y="-0" x="0 " fill="rgb(38,38,38)">0</tspan>
   </text>
   <text font-weight="normal" font-style="normal" transform="translate(57.8755,300.46) rotate(-0,12,-4)" xml:space="preserve" font-size="10" font-family="FreeSans">
    <tspan y="-0" x="0 6 " fill="rgb(38,38,38)">50</tspan>
   </text>
   <text font-weight="normal" font-style="normal" transform="translate(51.8755,212.44) rotate(-0,18,-4)" xml:space="preserve" font-size="10" font-family="FreeSans">
    <tspan y="-0" x="0 6 12 " fill="rgb(38,38,38)">100</tspan>
   </text>
   <text font-weight="normal" font-style="normal" transform="translate(51.8755,124.42) rotate(-0,18,-4)" xml:space="preserve" font-size="10" font-family="FreeSans">
    <tspan y="-0" x="0 6 12 " fill="rgb(38,38,38)">150</tspan>
   </text>
   <text font-weight="normal" font-style="normal" transform="translate(51.8755,36.4) rotate(-0,18,-4)" xml:space="preserve" font-size="10" font-family="FreeSans">
    <tspan y="-0" x="0 6 12 " fill="rgb(38,38,38)">200</tspan>
   </text>
   <polyline stroke-dasharray="16,0" stroke-width="0.5" points="74.88,384.48 521.28,384.48" stroke-linecap="square" stroke="#262626" fill="none" stroke-linejoin="miter"/>
   <polyline stroke-dasharray="16,0" stroke-width="0.5" points="74.88,32.4 521.28,32.4" stroke-linecap="square" stroke="#262626" fill="none" stroke-linejoin="miter"/>
   <polyline stroke-dasharray="16,0" stroke-width="0.5" points="74.88,384.48 74.88,32.4" stroke-linecap="square" stroke="#262626" fill="none" stroke-linejoin="miter"/>
   <polyline stroke-dasharray="16,0" stroke-width="0.5" points="521.28,384.48 521.28,32.4" stroke-linecap="square" stroke="#262626" fill="none" stroke-linejoin="miter"/>
   <text font-weight="normal" font-style="normal" transform="translate(273.08,416.982) rotate(-0,25,-12)" xml:space="preserve" font-size="11" font-family="FreeSans">
    <tspan y="-3" x="0 7 13 22 28 34 37 41 46 " fill="rgb(38,38,38)">Tempo (s)</tspan>
   </text>
   <text font-weight="normal" font-style="normal" transform="translate(-16.1245,208.44) rotate(-90,63,0)" xml:space="preserve" font-size="11" font-family="FreeSans">
    <tspan y="-3" x="0 8 14 20 25 31 40 46 49 57 63 72 78 84 89 92 94 99 105 107 110 114 116 122 " fill="rgb(38,38,38)">Consumo Combustível (lb)</tspan>
   </text>
   <polyline stroke-width="2" points="128.984,384.48 129.162,384.375 129.341,384.266 129.52,384.146 129.698,384.006 129.877,383.841 130.056,383.655 130.234,383.459 130.413,383.264 130.592,383.07 130.77,382.875 130.949,382.681 131.127,382.488 131.306,382.295 131.485,382.101 131.663,381.908 131.842,381.715 132.021,381.522 132.199,381.328 132.378,381.135 132.557,380.941 132.735,380.747 132.914,380.554 133.07,380.385 133.24,380.2 133.402,380.025 133.581,379.831 133.727,379.673 133.906,379.479 134.085,379.286 134.263,379.098 134.442,378.91 134.621,378.715 134.799,378.521 134.978,378.326 135.157,378.132 135.335,377.938 135.514,377.744 135.693,377.552 135.871,377.366 136.05,377.186 136.229,377.011 136.407,376.84 136.586,376.669 136.765,376.499 136.943,376.328 137.122,376.159 137.301,375.99 137.479,375.82 137.658,375.648 137.837,375.475 137.977,375.339 138.135,375.185 138.286,375.039 138.446,374.884 138.605,374.729 138.781,374.557 138.955,374.385 139.097,374.244 139.244,374.096 139.378,373.963 139.51,373.829 139.687,373.653 139.864,373.475 140.011,373.327 140.173,373.165 140.32,373.017 140.497,372.839 140.648,372.688 140.824,372.51 141.002,372.331 141.159,372.174 141.318,372.013 141.494,371.837 141.641,371.689 141.793,371.536 141.929,371.4 142.093,371.236 142.196,371.133 142.373,370.956 142.536,370.792 142.697,370.629 142.869,370.454 143.027,370.293 143.185,370.132 143.362,369.952 143.536,369.774 143.71,369.595 143.885,369.417 144.059,369.238 144.23,369.064 144.403,368.888 144.569,368.716 144.747,368.526 144.926,368.336 145.101,368.148 145.276,367.961 145.433,367.793 145.592,367.623 145.771,367.432 145.92,367.272 146.098,367.082 146.275,366.893 146.438,366.718 146.601,366.545 146.766,366.367 146.945,366.177 147.111,365.999 147.28,365.82 147.452,365.638 147.624,365.456 147.794,365.276 147.972,365.088 148.138,364.912 148.312,364.729 148.491,364.541 148.656,364.366 148.818,364.195 148.992,364.012 149.153,363.841 149.331,363.653 149.504,363.47 149.659,363.305 149.83,363.123 149.982,362.961 150.152,362.781 150.316,362.606 150.477,362.436 150.636,362.267 150.815,362.077 150.974,361.908 151.143,361.729 151.3,361.562 151.448,361.407 151.603,361.244 151.781,361.057 151.958,360.872 152.135,360.686 152.295,360.518 152.455,360.351 152.632,360.166 152.807,359.983 152.965,359.817 153.125,359.649 153.284,359.482 153.461,359.297 153.607,359.144 153.765,358.979 153.934,358.802 154.093,358.635 154.252,358.469 154.396,358.318 154.567,358.14 154.741,357.959 154.837,357.858 154.929,357.761 155.059,357.624 155.218,357.457 155.355,357.311 155.504,357.153 155.672,356.975 155.834,356.802 155.979,356.646 156.144,356.466 156.3,356.296 156.47,356.111 156.625,355.942 156.797,355.755 156.961,355.576 157.137,355.385 157.297,355.211 157.469,355.023 157.646,354.831 157.807,354.656 157.971,354.477 158.133,354.303 158.312,354.116 158.482,353.939 158.639,353.774 158.803,353.602 158.939,353.46 159.109,353.283 159.268,353.117 159.396,352.984 159.536,352.84 159.704,352.666 159.797,352.569 159.922,352.442 160.068,352.298 160.246,352.128 160.425,351.956 160.604,351.784 160.782,351.613 160.961,351.441 161.064,351.342 161.243,351.17 161.421,350.999 161.6,350.827 161.779,350.656 161.957,350.485 162.136,350.315 162.314,350.145 162.493,349.975 162.672,349.805 162.85,349.635 163.029,349.465 163.053,349.443 163.231,349.269 163.41,349.087 163.513,348.98 163.692,348.794 163.703,348.783 163.881,348.595 164.06,348.405 164.239,348.211 164.417,348.014 164.596,347.818 164.775,347.622 164.919,347.464 165.05,347.321 165.228,347.126 165.377,346.963 165.556,346.77 165.734,346.577 165.913,346.383 166.092,346.19 166.27,345.997 166.449,345.806 166.628,345.616 166.806,345.44 166.985,345.28 167.164,345.122 167.342,344.964 167.521,344.808 167.7,344.653 167.878,344.498 168.053,344.346 168.23,344.187 168.393,344.028 168.562,343.848 168.739,343.654 168.916,343.459 169.089,343.269 169.268,343.073 169.434,342.891 169.611,342.697 169.79,342.502 169.868,342.417 170.047,342.223 170.218,342.036 170.384,341.854 170.563,341.66 170.724,341.486 170.9,341.294 171.043,341.139 171.221,340.946 171.399,340.752 171.578,340.558 171.757,340.363 171.935,340.169 172.114,339.975 172.293,339.78 172.471,339.586 172.65,339.391 172.829,339.197 173.007,339.003 173.186,338.811 173.364,338.621 173.543,338.428 173.722,338.233 173.9,338.038 174.079,337.844 174.24,337.669 174.368,337.529 174.546,337.336 174.636,337.241 174.814,337.068 174.993,336.909 175.172,336.751 175.237,336.694 175.402,336.551 175.455,336.505 175.63,336.351 175.73,336.263 175.908,336.105 176.087,335.947 176.265,335.785 176.438,335.625 176.607,335.47 176.783,335.304 176.962,335.128 177.132,334.96 177.295,334.797 177.46,334.633 177.638,334.457 177.775,334.32 177.954,334.143 178.133,333.969 178.311,333.799 178.49,333.629 178.669,333.458 178.847,333.285 179.026,333.109 179.205,332.933 179.383,332.752 179.51,332.619 179.689,332.43 179.868,332.24 180.046,332.046 180.225,331.849 180.404,331.653 180.582,331.457 180.761,331.262 180.918,331.094 181.013,330.997 181.162,330.847 181.204,330.806 181.382,330.627 181.561,330.448 181.739,330.271 181.918,330.096 182.097,329.921 182.229,329.792 182.335,329.689 182.49,329.538 182.668,329.365 182.847,329.191 183.026,329.018 183.204,328.844 183.383,328.671 183.562,328.497 183.74,328.324 183.907,328.162 184.06,328.013 184.238,327.84 184.386,327.695 184.52,327.564 184.692,327.395 184.831,327.259 184.992,327.102 185.165,326.933 185.339,326.763 185.515,326.591 185.684,326.425 185.837,326.275 185.998,326.118 186.174,325.945 186.307,325.816 186.467,325.659 186.57,325.558 186.697,325.434 186.872,325.263 186.906,325.229 187.085,325.054 187.259,324.885 187.431,324.716 187.549,324.601 187.724,324.43 187.862,324.295 187.976,324.183 188.105,324.057 188.281,323.886 188.399,323.77 188.574,323.598 188.688,323.485 188.804,323.365 188.983,323.182 189.162,322.997 189.34,322.812 189.519,322.628 189.698,322.443 189.869,322.266 190.005,322.125 190.184,321.942 190.246,321.879 190.424,321.698 190.603,321.518 190.782,321.337 190.95,321.167 191.127,320.989 191.301,320.813 191.454,320.659 191.616,320.496 191.789,320.321 191.964,320.144 192.138,319.97 192.143,319.964 192.322,319.784 192.5,319.604 192.679,319.424 192.858,319.244 193.036,319.064 193.215,318.883 193.393,318.703 193.572,318.523 193.751,318.343 193.93,318.163 194.108,317.983 194.287,317.802 194.465,317.622 194.644,317.442 194.823,317.261 194.99,317.092 195.169,316.913 195.348,316.736 195.526,316.559 195.705,316.382 195.861,316.227 195.995,316.095 196.088,316.003 196.266,315.829 196.425,315.675 196.594,315.51 196.624,315.481 196.803,315.306 196.858,315.253 197.026,315.088 197.205,314.914 197.384,314.739 197.562,314.565 197.741,314.391 197.766,314.366 197.945,314.192 198.123,314.018 198.293,313.853 198.469,313.68 198.646,313.508 198.813,313.346 198.955,313.207 199.115,313.051 199.275,312.896 199.442,312.732 199.618,312.56 199.785,312.397 199.945,312.241 200.037,312.151 200.216,311.976 200.395,311.803 200.573,311.63 200.752,311.458 200.931,311.287 201.102,311.123 201.231,310.999 201.403,310.836 201.486,310.756 201.665,310.585 201.844,310.414 202.022,310.243 202.201,310.072 202.38,309.901 202.538,309.75 202.688,309.607 202.796,309.503 202.967,309.34 203.145,309.169 203.324,308.998 203.503,308.827 203.681,308.657 203.86,308.486 204.039,308.315 204.217,308.144 204.372,307.996 204.542,307.834 204.691,307.691 204.776,307.61 204.946,307.448 205.124,307.277 205.303,307.106 205.481,306.936 205.66,306.765 205.837,306.596 206.015,306.426 206.191,306.257 206.342,306.113 206.517,305.946 206.696,305.775 206.863,305.615 207.039,305.446 207.216,305.277 207.328,305.169 207.467,305.036 207.646,304.865 207.824,304.694 208.003,304.523 208.182,304.353 208.36,304.182 208.539,304.011 208.718,303.84 208.896,303.669 209.075,303.498 209.254,303.327 209.432,303.156 209.611,302.985 209.789,302.815 209.968,302.644 210.128,302.491 210.304,302.322 210.441,302.191 210.567,302.07 210.717,301.927 210.895,301.757 211.004,301.653 211.125,301.536 211.286,301.383 211.325,301.346 211.503,301.175 211.529,301.151 211.707,300.98 211.886,300.809 212.065,300.638 212.243,300.466 212.422,300.296 212.601,300.125 212.752,299.98 212.897,299.841 213.033,299.711 213.158,299.591 213.285,299.47 213.444,299.317 213.567,299.198 213.655,299.112 213.783,298.988 213.909,298.866 214.07,298.709 214.239,298.545 214.415,298.373 214.564,298.229 214.719,298.078 214.835,297.966 214.945,297.858 215.044,297.762 215.17,297.64 215.28,297.533 215.427,297.39 215.591,297.231 215.769,297.057 215.772,297.054 215.951,296.88 216.13,296.706 216.308,296.533 216.487,296.359 216.666,296.185 216.844,296.011 217.023,295.838 217.19,295.675 217.315,295.553 217.453,295.42 217.603,295.274 217.781,295.101 217.798,295.085 217.976,294.911 218.131,294.76 218.272,294.624 218.45,294.451 218.622,294.283 218.753,294.156 218.879,294.034 219.032,293.886 219.21,293.714 219.389,293.542 219.568,293.37 219.746,293.198 219.925,293.025 220.104,292.852 220.282,292.678 220.461,292.504 220.64,292.33 220.818,292.156 220.997,291.982 221.176,291.808 221.354,291.634 221.533,291.459 221.712,291.285 221.89,291.109 222.069,290.931 222.248,290.753 222.426,290.575 222.605,290.397 222.784,290.22 222.962,290.042 223.141,289.864 223.32,289.686 223.498,289.508 223.677,289.33 223.855,289.152 223.987,289.021 224.114,288.895 224.28,288.73 224.419,288.595 224.598,288.42 224.776,288.245 224.955,288.07 225.134,287.896 225.312,287.721 225.491,287.547 225.67,287.372 225.848,287.197 226.027,287.023 226.205,286.848 226.384,286.674 226.523,286.538 226.661,286.404 226.793,286.275 226.966,286.106 227.089,285.986 227.226,285.852 227.314,285.766 227.489,285.595 227.617,285.471 227.669,285.42 227.798,285.294 227.977,285.119 228.156,284.945 228.334,284.77 228.513,284.595 228.691,284.42 228.87,284.245 229.049,284.07 229.141,283.98 229.262,283.862 229.44,283.687 229.462,283.666 229.64,283.491 229.819,283.316 229.998,283.141 230.176,282.966 230.355,282.791 230.534,282.616 230.712,282.441 230.891,282.266 231.07,282.09 231.248,281.915 231.42,281.747 231.569,281.601 231.724,281.45 231.898,281.279 232.017,281.161 232.196,280.982 232.374,280.801 232.553,280.62 232.732,280.439 232.903,280.265 233.012,280.155 233.17,279.997 233.346,279.821 233.514,279.652 233.688,279.478 233.867,279.299 234.016,279.149 234.195,278.97 234.374,278.793 234.552,278.618 234.731,278.443 234.91,278.268 235.088,278.094 235.267,277.919 235.446,277.744 235.624,277.569 235.803,277.394 235.982,277.219 236.16,277.044 236.339,276.869 236.518,276.694 236.696,276.52 236.875,276.345 237.054,276.17 237.232,275.995 237.411,275.819 237.59,275.644 237.768,275.469 237.921,275.319 238.046,275.197 238.206,275.04 238.385,274.865 238.563,274.69 238.714,274.537 238.854,274.388 239.029,274.196 239.204,274.005 239.382,273.811 239.509,273.673 239.687,273.479 239.709,273.456 239.887,273.262 240.066,273.068 240.244,272.875 240.423,272.681 240.602,272.488 240.767,272.31 240.933,272.131 241.1,271.953 241.275,271.766 241.452,271.577 241.599,271.419 241.774,271.232 241.926,271.07 242.102,270.881 242.279,270.691 242.393,270.571 242.496,270.463 242.674,270.273 242.853,270.082 243.032,269.892 243.21,269.701 243.389,269.511 243.568,269.333 243.746,269.172 243.925,269.017 244.104,268.863 244.282,268.711 244.461,268.559 244.639,268.407 244.818,268.255 244.997,268.103 245.175,267.951 245.354,267.796 245.533,267.636 245.711,267.474 245.869,267.332 246.012,267.202 246.185,267.045 246.219,267.015 246.397,266.852 246.558,266.699 246.72,266.533 246.895,266.344 247.07,266.151 247.229,265.978 247.396,265.794 247.574,265.599 247.748,265.41 247.907,265.236 247.986,265.151 248.164,264.957 248.343,264.762 248.522,264.568 248.7,264.375 248.879,264.181 249.057,263.988 249.236,263.794 249.415,263.601 249.593,263.407 249.772,263.215 249.951,263.025 250.056,262.914 250.151,262.814 250.312,262.645 250.444,262.506 250.623,262.318 250.798,262.131 250.957,261.958 251.117,261.784 251.288,261.597 251.463,261.406 251.641,261.212 251.808,261.031 251.883,260.948 252.062,260.754 252.24,260.56 252.38,260.407 252.557,260.214 252.711,260.047 252.865,259.879 253.032,259.698 253.2,259.515 253.217,259.496 253.396,259.301 253.575,259.106 253.753,258.912 253.932,258.724 254.111,258.552 254.289,258.393 254.468,258.237 254.647,258.083 254.825,257.93 254.904,257.862 255.083,257.709 255.261,257.545 255.437,257.366 255.614,257.174 255.791,256.98 255.968,256.785 256.072,256.672 256.249,256.486 256.428,256.31 256.606,256.14 256.781,255.974 256.95,255.821 257.128,255.665 257.305,255.508 257.478,255.343 257.64,255.179 257.683,255.135 257.862,254.965 258.039,254.797 258.216,254.627 258.392,254.452 258.568,254.277 258.728,254.119 258.767,254.081 258.946,253.905 259.117,253.737 259.295,253.562 259.472,253.387 259.65,253.211 259.828,253.03 260.007,252.837 260.172,252.656 260.351,252.46 260.529,252.263 260.708,252.083 260.887,251.923 261.052,251.779 261.231,251.626 261.408,251.474 261.585,251.324 261.761,251.174 261.934,251.027 262.099,250.885 262.206,250.787 262.384,250.609 262.563,250.419 262.741,250.223 262.919,250.027 263.095,249.834 263.273,249.638 263.452,249.442 263.63,249.246 263.806,249.054 263.983,248.86 264.119,248.711 264.298,248.515 264.476,248.319 264.653,248.126 264.828,247.936 264.918,247.837 265.093,247.646 265.269,247.454 265.448,247.26 265.619,247.073 265.771,246.92 265.807,246.887 265.986,246.728 266.163,246.575 266.34,246.423 266.519,246.271 266.697,246.119 266.874,245.969 267.036,245.831 267.124,245.755 267.303,245.604 267.477,245.456 267.654,245.304 267.831,245.145 268.006,244.983 268.183,244.813 268.357,244.63 268.527,244.443 268.657,244.299 268.836,244.103 268.912,244.018 269.035,243.882 269.1,243.811 269.218,243.682 269.328,243.561 269.439,243.439 269.534,243.334 269.632,243.227 269.739,243.11 269.918,242.914 270.095,242.72 270.144,242.667 270.323,242.472 270.5,242.278 270.678,242.083 270.853,241.893 271.015,241.717 271.193,241.524 271.367,241.334 271.531,241.156 271.708,240.963 271.885,240.771 271.951,240.699 272.13,240.515 272.307,240.35 272.48,240.198 272.657,240.045 272.831,239.895 272.93,239.811 273.108,239.659 273.287,239.507 273.465,239.357 273.643,239.207 273.811,239.066 273.987,238.913 274.165,238.746 274.344,238.562 274.522,238.368 274.694,238.178 274.843,238.014 274.994,237.847 275.156,237.669 275.311,237.498 275.49,237.302 275.667,237.108 275.843,236.915 276.019,236.724 276.189,236.538 276.368,236.344 276.543,236.154 276.714,235.968 276.89,235.776 277.056,235.594 277.226,235.409 277.395,235.225 277.551,235.055 277.576,235.027 277.755,234.836 277.934,234.66 278.101,234.507 278.275,234.345 278.449,234.182 278.626,234.015 278.799,233.851 278.961,233.694 279.019,233.638 279.197,233.466 279.373,233.297 279.544,233.134 279.717,232.959 279.883,232.782 280.03,232.621 280.161,232.479 280.265,232.365 280.443,232.179 280.537,232.087 280.715,231.914 280.894,231.74 281.073,231.562 281.251,231.38 281.43,231.197 281.609,231.014 281.776,230.838 281.949,230.648 282.127,230.451 282.301,230.261 282.471,230.077 282.574,229.973 282.753,229.804 282.931,229.638 283.103,229.481 283.272,229.326 283.416,229.197 283.467,229.152 283.645,228.999 283.823,228.848 283.995,228.702 284.168,228.556 284.311,228.435 284.49,228.285 284.667,228.137 284.842,227.99 285.018,227.844 285.196,227.694 285.228,227.666 285.406,227.508 285.585,227.345 285.758,227.178 285.927,227 286.102,226.807 286.279,226.611 286.394,226.484 286.46,226.41 286.639,226.212 286.806,226.028 286.973,225.844 287.136,225.665 287.299,225.487 287.477,225.292 287.599,225.158 287.737,225.007 287.907,224.828 288.051,224.683 288.218,224.519 288.388,224.359 288.562,224.194 288.734,224.03 288.898,223.873 288.951,223.822 289.13,223.644 289.306,223.461 289.48,223.279 289.654,223.091 289.823,222.906 289.991,222.72 290.165,222.53 290.332,222.347 290.481,222.184 290.659,221.988 290.838,221.793 291.011,221.604 291.187,221.412 291.365,221.217 291.542,221.024 291.703,220.85 291.748,220.8 291.927,220.605 292.099,220.418 292.276,220.224 292.455,220.03 292.633,219.835 292.792,219.661 292.956,219.496 293.135,219.334 293.313,219.176 293.492,219.015 293.668,218.855 293.845,218.696 294.024,218.536 294.202,218.379 294.338,218.263 294.516,218.111 294.691,217.963 294.869,217.812 295.047,217.658 295.225,217.495 295.404,217.321 295.519,217.202 295.698,217.011 295.877,216.819 296.055,216.634 296.219,216.463 296.259,216.419 296.438,216.223 296.617,216.027 296.795,215.831 296.972,215.637 297.134,215.46 297.234,215.35 297.413,215.155 297.587,214.965 297.759,214.778 297.934,214.586 298.099,214.406 298.277,214.212 298.431,214.043 298.61,213.848 298.784,213.659 298.875,213.558 299.054,213.363 299.233,213.168 299.411,212.973 299.59,212.778 299.6,212.767 299.779,212.572 299.954,212.381 300.129,212.189 300.3,212.002 300.478,211.808 300.656,211.615 300.828,211.427 300.997,211.242 301.156,211.079 301.283,210.952 301.43,210.805 301.579,210.659 301.758,210.482 301.936,210.301 302.115,210.114 302.294,209.925 302.472,209.735 302.651,209.542 302.829,209.348 303.008,209.154 303.09,209.064 303.241,208.905 303.297,208.849 303.426,208.728 303.605,208.571 303.784,208.417 303.955,208.271 304.123,208.127 304.196,208.066 304.374,207.914 304.553,207.763 304.73,207.614 304.893,207.478 305.056,207.339 305.235,207.179 305.413,207.012 305.592,206.841 305.771,206.667 305.949,206.491 306.128,206.317 306.307,206.14 306.485,205.959 306.664,205.778 306.843,205.597 307.021,205.418 307.2,205.239 307.379,205.055 307.557,204.869 307.736,204.682 307.915,204.495 308.093,204.308 308.272,204.125 308.451,203.95 308.629,203.78 308.808,203.606 308.987,203.432 309.146,203.282 309.19,203.242 309.368,203.077 309.543,202.911 309.594,202.862 309.772,202.692 309.951,202.522 310.13,202.357 310.308,202.201 310.487,202.048 310.666,201.898 310.817,201.771 310.995,201.621 311.174,201.467 311.353,201.31 311.531,201.158 311.71,201.008 311.889,200.859 312.067,200.71 312.227,200.577 312.349,200.475 312.482,200.365 312.569,200.292 312.728,200.158 312.793,200.102 312.972,199.938 313.151,199.757 313.329,199.568 313.502,199.384 313.666,199.21 313.831,199.044 313.951,198.928 314.129,198.756 314.298,198.593 314.41,198.486 314.584,198.317 314.613,198.288 314.791,198.114 314.97,197.941 315.149,197.769 315.327,197.596 315.506,197.423 315.632,197.301 315.739,197.197 315.899,197.042 316.077,196.865 316.256,196.686 316.435,196.503 316.613,196.312 316.745,196.168 316.914,195.982 317.073,195.807 317.198,195.67 317.345,195.509 317.483,195.358 317.656,195.169 317.832,194.976 318.004,194.789 318.172,194.606 318.283,194.485 318.461,194.29 318.64,194.095 318.819,193.9 318.983,193.721 319.157,193.532 319.331,193.341 319.446,193.216 319.625,193.022 319.801,192.83 319.951,192.667 320.13,192.472 320.308,192.278 320.485,192.086 320.651,191.906 320.83,191.712 320.962,191.568 321.122,191.395 321.165,191.348 321.344,191.159 321.365,191.137 321.544,190.954 321.633,190.864 321.811,190.685 321.99,190.509 322.039,190.462 322.196,190.309 322.375,190.135 322.432,190.079 322.611,189.905 322.774,189.746 322.818,189.704 322.997,189.525 323.07,189.449 323.225,189.291 323.397,189.114 323.566,188.933 323.699,188.788 323.878,188.592 324.056,188.397 324.228,188.209 324.338,188.093 324.517,187.913 324.685,187.74 324.861,187.552 325.028,187.376 325.199,187.192 325.264,187.123 325.442,186.931 325.621,186.739 325.8,186.545 325.978,186.352 326.157,186.158 326.336,185.964 326.511,185.779 326.69,185.596 326.868,185.415 327.047,185.234 327.226,185.054 327.404,184.874 327.583,184.695 327.762,184.516 327.94,184.338 328.119,184.159 328.298,183.98 328.476,183.802 328.655,183.623 328.834,183.445 329.012,183.266 329.191,183.088 329.37,182.91 329.548,182.732 329.727,182.553 329.906,182.375 330.084,182.196 330.218,182.062 330.355,181.926 330.534,181.753 330.712,181.584 330.891,181.416 331.07,181.249 331.23,181.099 331.408,180.931 331.587,180.761 331.765,180.591 331.943,180.417 332.07,180.292 332.167,180.198 332.346,180.023 332.524,179.848 332.703,179.673 332.879,179.501 333.058,179.326 333.224,179.163 333.378,179.013 333.551,178.844 333.669,178.728 333.841,178.56 333.945,178.459 334.021,178.385 334.2,178.206 334.369,178.026 334.547,177.831 334.724,177.636 334.902,177.439 335.079,177.245 335.256,177.051 335.434,176.856 335.609,176.665 335.784,176.475 335.961,176.281 336.138,176.089 336.306,175.907 336.476,175.723 336.653,175.53 336.82,175.35 336.984,175.171 337.124,175.02 337.227,174.909 337.405,174.72 337.529,174.587 337.7,174.403 337.879,174.21 338.022,174.056 338.122,173.947 338.301,173.755 338.463,173.58 338.586,173.448 338.652,173.377 338.831,173.186 339.009,172.996 339.188,172.806 339.364,172.619 339.513,172.46 339.669,172.295 339.845,172.108 340.018,171.923 340.135,171.799 340.264,171.662 340.334,171.587 340.46,171.452 340.638,171.265 340.651,171.252 340.83,171.067 340.905,170.989 341.027,170.862 341.192,170.69 341.251,170.63 341.429,170.444 341.602,170.264 341.781,170.08 341.959,169.905 342.138,169.736 342.305,169.578 342.477,169.416 342.647,169.255 342.813,169.102 342.989,168.941 343.153,168.793 343.329,168.634 343.493,168.484 343.664,168.329 343.81,168.198 343.973,168.05 344.13,167.908 344.306,167.748 344.456,167.613 344.635,167.451 344.814,167.289 344.992,167.12 345.171,166.943 345.35,166.765 345.528,166.587 345.707,166.409 345.885,166.231 346.064,166.054 346.243,165.877 346.421,165.699 346.6,165.521 346.771,165.352 346.91,165.214 346.996,165.128 347.167,164.959 347.345,164.781 347.524,164.604 347.703,164.427 347.826,164.301 347.97,164.147 348.143,163.958 348.318,163.766 348.48,163.588 348.658,163.393 348.832,163.203 349.01,163.009 349.177,162.828 349.348,162.642 349.514,162.462 349.692,162.269 349.87,162.076 350.048,161.883 350.215,161.701 350.388,161.514 350.567,161.321 350.745,161.128 350.924,160.934 351.102,160.741 351.274,160.556 351.448,160.369 351.607,160.198 351.784,160.006 351.962,159.814 352.132,159.634 352.31,159.447 352.485,159.264 352.663,159.08 352.835,158.904 353.009,158.724 353.184,158.544 353.358,158.365 353.52,158.198 353.683,158.037 353.832,157.896 353.971,157.765 354.143,157.606 354.321,157.444 354.5,157.282 354.67,157.127 354.824,156.988 354.937,156.886 355.074,156.762 355.222,156.628 355.377,156.489 355.555,156.331 355.731,156.173 355.759,156.148 355.916,156.009 356.094,155.849 356.273,155.679 356.452,155.491 356.626,155.299 356.804,155.103 356.979,154.911 357.131,154.752 357.252,154.635 357.431,154.475 357.61,154.315 357.78,154.156 357.944,153.996 358.121,153.819 358.297,153.643 358.476,153.468 358.653,153.294 358.83,153.12 358.992,152.962 359.158,152.799 359.299,152.66 359.463,152.496 359.619,152.338 359.785,152.174 359.939,152.02 360.084,151.874 360.252,151.708 360.381,151.58 360.528,151.436 360.614,151.352 360.751,151.216 360.929,151.035 361.091,150.868 361.269,150.682 361.448,150.499 361.627,150.32 361.805,150.142 361.984,149.964 362.163,149.787 362.341,149.609 362.52,149.431 362.699,149.256 362.877,149.089 363.056,148.927 363.234,148.765 363.413,148.607 363.592,148.454 363.77,148.302 363.949,148.148 364.128,147.989 364.306,147.826 364.485,147.658 364.664,147.482 364.831,147.306 365.006,147.114 365.179,146.923 365.351,146.734 365.528,146.539 365.707,146.344 365.883,146.15 365.893,146.139 366.072,145.944 366.25,145.752 366.429,145.566 366.608,145.389 366.779,145.232 366.947,145.086 367.124,144.933 367.296,144.786 367.475,144.634 367.653,144.482 367.832,144.331 368.01,144.179 368.189,144.022 368.354,143.873 368.532,143.714 368.682,143.584 368.855,143.429 368.872,143.414 369.051,143.245 369.161,143.135 369.34,142.954 369.518,142.78 369.697,142.612 369.876,142.445 370.054,142.278 370.233,142.101 370.409,141.915 370.578,141.731 370.755,141.537 370.925,141.351 371.101,141.158 371.27,140.972 371.439,140.788 371.535,140.682 371.714,140.487 371.892,140.292 372.069,140.099 372.248,139.905 372.426,139.71 372.603,139.518 372.768,139.338 372.941,139.149 372.964,139.124 373.143,138.93 373.315,138.741 373.489,138.551 373.66,138.365 373.808,138.202 373.857,138.149 374.036,137.954 374.214,137.76 374.392,137.565 374.571,137.37 374.739,137.19 374.792,137.136 374.971,136.968 375.149,136.81 375.328,136.655 375.507,136.501 375.572,136.445 375.751,136.292 375.929,136.14 376.103,135.992 376.281,135.84 376.431,135.713 376.595,135.575 376.773,135.424 376.886,135.329 377.065,135.179 377.236,135.035 377.413,134.881 377.59,134.717 377.764,134.553 377.937,134.394 378.024,134.314 378.203,134.149 378.376,133.99 378.552,133.831 378.731,133.674 378.907,133.511 379.081,133.336 379.243,133.166 379.42,132.979 379.57,132.82 379.685,132.695 379.826,132.54 379.969,132.382 380.148,132.189 380.266,132.067 380.417,131.914 380.595,131.735 380.774,131.55 380.953,131.356 381.131,131.16 381.31,130.965 381.488,130.77 381.667,130.575 381.842,130.384 382.02,130.19 382.185,130.01 382.23,129.962 382.4,129.777 382.578,129.583 382.756,129.389 382.934,129.195 383.11,129.003 383.28,128.827 383.351,128.758 383.53,128.596 383.708,128.438 383.886,128.281 384.063,128.122 384.241,127.95 384.413,127.774 384.591,127.583 384.749,127.411 384.927,127.219 385.104,127.034 385.279,126.854 385.452,126.688 385.628,126.524 385.799,126.357 385.974,126.184 386.079,126.082 386.257,125.914 386.436,125.742 386.611,125.568 386.79,125.379 386.957,125.196 387.049,125.094 387.228,124.899 387.402,124.709 387.575,124.52 387.753,124.325 387.929,124.136 388.096,123.968 388.112,123.952 388.291,123.77 388.469,123.577 388.641,123.39 388.814,123.212 388.988,123.046 389.166,122.884 389.33,122.738 389.508,122.583 389.52,122.573 389.698,122.417 389.871,122.259 390.049,122.083 390.222,121.9 390.394,121.712 390.569,121.52 390.742,121.33 390.898,121.159 390.957,121.094 391.136,120.899 391.315,120.703 391.493,120.508 391.67,120.315 391.848,120.12 392.024,119.928 392.201,119.736 392.336,119.59 392.512,119.399 392.689,119.206 392.864,119.017 393.039,118.826 393.213,118.635 393.38,118.453 393.558,118.259 393.692,118.113 393.871,117.918 394.047,117.725 394.224,117.533 394.402,117.339 394.506,117.226 394.681,117.035 394.859,116.842 395.032,116.654 395.204,116.467 395.378,116.278 395.555,116.085 395.732,115.892 395.798,115.821 395.976,115.625 396.155,115.43 396.332,115.237 396.433,115.127 396.611,114.932 396.782,114.746 396.942,114.571 397.048,114.461 397.227,114.293 397.403,114.137 397.58,113.985 397.758,113.831 397.936,113.677 398.108,113.53 398.129,113.512 398.307,113.359 398.483,113.209 398.66,113.05 398.836,112.879 399.007,112.697 399.173,112.516 399.336,112.336 399.513,112.142 399.687,111.95 399.865,111.754 400.044,111.558 400.223,111.363 400.401,111.167 400.549,111.006 400.659,110.885 400.837,110.69 401.016,110.495 401.118,110.384 401.212,110.281 401.375,110.103 401.541,109.921 401.72,109.727 401.769,109.673 401.948,109.477 402.127,109.282 402.305,109.087 402.464,108.913 402.642,108.718 402.821,108.524 402.993,108.336 403.098,108.222 403.276,108.027 403.452,107.836 403.617,107.655 403.753,107.507 403.932,107.327 404.11,107.152 404.288,106.965 404.464,106.773 404.639,106.585 404.815,106.413 404.858,106.374 405.037,106.215 405.215,106.059 405.394,105.906 405.568,105.755 405.745,105.604 405.924,105.452 406.102,105.301 406.263,105.164 406.43,105.023 406.596,104.883 406.775,104.732 406.949,104.585 407.128,104.432 407.307,104.275 407.485,104.117 407.664,103.961 407.843,103.805 408.021,103.649 408.2,103.492 408.379,103.33 408.557,103.165 408.736,102.999 408.915,102.828 409.093,102.643 409.272,102.447 409.432,102.27 409.61,102.073 409.659,102.023 409.837,101.849 410.016,101.686 410.195,101.528 410.373,101.363 410.552,101.197 410.731,101.042 410.909,100.888 411.088,100.734 411.267,100.58 411.445,100.427 411.624,100.273 411.803,100.12 411.949,99.9937 412.099,99.865 412.278,99.7103 412.397,99.6058 412.575,99.4491 412.754,99.2923 412.933,99.1356 413.111,98.979 413.288,98.8241 413.46,98.6661 413.633,98.4938 413.804,98.3182 413.976,98.1409 414.154,97.9603 414.181,97.9337 414.36,97.7573 414.493,97.6257 414.661,97.4604 414.826,97.2978 414.974,97.1513 415.12,97.008 415.287,96.8434 415.463,96.6708 415.623,96.5198 415.792,96.3697 415.97,96.2116 416.128,96.0723 416.281,95.9385 416.441,95.7989 416.605,95.6572 416.78,95.5054 416.957,95.3517 417.134,95.1983 417.281,95.0707 417.419,94.9496 417.482,94.8922 417.615,94.7667 417.794,94.5926 417.972,94.4243 417.978,94.4186 418.157,94.256 418.326,94.1021 418.482,93.9614 418.661,93.802 418.809,93.6695 418.948,93.5457 419.127,93.3864 419.293,93.2376 419.457,93.0912 419.621,92.9454 419.782,92.8018 419.954,92.6486 420.118,92.5028 420.296,92.3452 420.442,92.2167 420.584,92.0918 420.73,91.9625 420.882,91.8278 421.038,91.6906 421.209,91.5392 421.372,91.3956 421.539,91.2479 421.667,91.135 421.799,91.0179 421.93,90.9026 422.057,90.7901 422.189,90.674 422.313,90.5645 422.449,90.4442 422.585,90.3244 422.725,90.2009 422.86,90.082 422.977,89.9785 423.125,89.8477 423.261,89.7277 423.438,89.5733 423.583,89.4476 423.754,89.3 423.906,89.168 424.078,89.02 424.239,88.8802 424.394,88.7466 424.569,88.5937 424.742,88.442 424.897,88.3038 425.055,88.1654 425.217,88.0229 425.389,87.8728 425.551,87.7309 425.71,87.5915 425.87,87.4513 426.027,87.3139 426.185,87.1754 426.364,87.0192 426.532,86.8715 426.698,86.7263 426.87,86.576 427.032,86.4339 427.211,86.2776 427.387,86.1232 427.554,85.977 427.727,85.8252 427.898,85.6751 428.071,85.5234 428.245,85.3712 428.418,85.2194 428.596,85.063 428.764,84.9159 428.942,84.7602 429.09,84.6302 429.251,84.4879 429.424,84.3291 429.576,84.1841 429.72,84.0448 429.897,83.8736 430.072,83.7014 430.239,83.5371 430.402,83.3775 430.573,83.2086 430.74,83.0454 430.916,82.8721 431.082,82.7094 431.237,82.5565 431.397,82.3988 431.542,82.2567 431.695,82.1069 431.861,81.9431 432.039,81.7706 432.186,81.63 432.332,81.4917 432.503,81.3307 432.68,81.1685 432.85,81.0173 433.02,80.8672 433.184,80.7235 433.358,80.5718 433.531,80.4214 433.698,80.2768 433.863,80.1349 434.031,79.9911 434.21,79.8385 434.386,79.6874 434.562,79.5365 434.741,79.3834 434.91,79.2381 435.079,79.0927 435.253,78.9438 435.431,78.7913 435.6,78.6468 435.779,78.4946 435.946,78.3537 436.107,78.2191 436.262,78.0915 436.409,77.9698 436.581,77.8285 436.753,77.6869 436.891,77.5742 437.057,77.438 437.16,77.3536 437.304,77.2365 437.466,77.1046 437.634,76.967 437.785,76.8434 437.963,76.6978 437.968,76.6932 438.147,76.5397 438.325,76.3831 438.504,76.2189 438.683,76.0451 438.861,75.8703 439.04,75.6936 439.219,75.5174 439.397,75.3481 439.576,75.1836 439.755,75.0194 439.933,74.8553 440.112,74.6911 440.291,74.5272 440.469,74.3635 440.648,74.2001 440.826,74.0373 441.005,73.8755 441.184,73.712 441.362,73.5458 441.541,73.3788 441.72,73.2113 441.898,73.0445 442.077,72.8781 442.256,72.7119 442.434,72.5458 442.613,72.3796 442.792,72.2136 442.97,72.0477 443.149,71.8818 443.328,71.7158 443.391,71.6566 443.539,71.5193 443.71,71.3602 443.875,71.2069 444.052,71.0428 444.105,70.9932 444.284,70.8269 444.462,70.6611 444.641,70.4969 444.82,70.3341 444.998,70.1713 445.177,70.0086 445.199,69.9884 445.378,69.8241 445.557,69.658 445.735,69.492 445.914,69.3257 446.093,69.1593 446.271,68.9932 446.45,68.8269 446.629,68.6606 446.807,68.4946 446.986,68.3282 447.164,68.1616 447.202,68.1262 447.381,67.9598 447.43,67.914 447.609,67.7474 447.76,67.6065 447.811,67.5589 447.99,67.3921 448.168,67.2255 448.347,67.0588 448.526,66.8923 448.704,66.7258 448.883,66.5586 449.062,66.3909 449.24,66.2231 449.419,66.0551 449.597,65.8872 449.776,65.7194 449.955,65.5515 450.133,65.3837 450.312,65.2156 450.491,65.0475 450.669,64.8796 450.848,64.7178 451.027,64.5711 451.205,64.4351 451.33,64.3417 451.48,64.2304 451.652,64.1069 451.758,64.0317 451.878,63.9468 451.984,63.8723 452.119,63.777 452.298,63.6514 452.476,63.5267 452.655,63.4021 452.834,63.2773 453.012,63.1458 453.191,63.0067 453.37,62.8666 453.548,62.7264 453.727,62.5759 453.906,62.4149 454.084,62.2564 454.263,62.1015 454.415,61.9716 454.582,61.829 454.755,61.6745 454.93,61.5138 455.087,61.3734 455.263,61.2222 455.401,61.1066 455.569,60.9698 455.732,60.842 455.858,60.7428 456.021,60.6179 456.176,60.5043 456.353,60.3857 456.494,60.2975 456.652,60.2022 456.803,60.1109 456.977,59.9939 457.122,59.8804 457.281,59.7526 457.395,59.667 457.508,59.5851 457.636,59.4962 457.815,59.3812 457.821,59.3771 458,59.2697 458.178,59.164 458.357,59.058 458.536,58.9487 458.714,58.8259 458.893,58.6785 459.072,58.5034 459.25,58.3099 459.429,58.1113 459.608,57.9129 459.786,57.7153 459.965,57.5184 460.144,57.3222 460.306,57.1438 460.485,56.9482 460.651,56.7664 460.826,56.5753 460.924,56.4684 461.076,56.3016 461.247,56.1136 461.423,55.9219 461.589,55.7529 461.759,55.5952 461.906,55.458 462.028,55.3477 462.178,55.2227 462.353,55.0861 462.459,55.0056 462.638,54.8724 462.658,54.8579 462.836,54.7267 463.01,54.597 463.188,54.4568 463.272,54.3894 463.45,54.2449 463.629,54.1007 463.808,53.9568 463.986,53.8112 464.111,53.7033 464.289,53.5398 464.461,53.3771 464.475,53.3632 464.654,53.1893 464.791,53.0597 464.931,52.931 465.109,52.7702 465.275,52.621 465.453,52.4607 465.609,52.3201 465.788,52.1566 465.967,51.9911 466.145,51.8269 466.31,51.6845 466.488,51.5407 466.653,51.408 466.822,51.2753 467.001,51.1384 467.158,51.0177 467.335,50.8824 467.502,50.7551 467.677,50.6208 467.846,50.4925 467.996,50.3774 468.165,50.2489 468.329,50.1237 468.464,50.0211 468.622,49.9052 468.798,49.7872 468.976,49.6776 469.155,49.5717 469.334,49.4653 469.512,49.3592 469.691,49.2532 469.87,49.1471 470.048,49.041 470.227,48.9351 470.406,48.829 470.584,48.7229 470.763,48.6168 470.942,48.5108 471.12,48.405 471.299,48.299 471.478,48.193 471.656,48.087 471.835,47.981 472.013,47.8749 472.192,47.7687 472.371,47.6626 472.549,47.5567 472.728,47.4505 472.907,47.3445 473.085,47.239 473.264,47.1333 473.443,47.0275 473.621,46.9158 473.8,46.804 473.979,46.6983 474.157,46.5927 474.336,46.4868 474.515,46.381 474.693,46.2752 474.872,46.1692 475.05,46.0635 475.229,45.9583 475.408,45.853 475.586,45.7477 475.765,45.6421 475.944,45.5366 476.122,45.431 476.301,45.3253 476.48,45.2198 476.658,45.1142 476.837,45.0083 477.016,44.9024 477.194,44.7968 477.373,44.6912 477.552,44.5855 477.73,44.4799 477.909,44.3743 478.088,44.2687 478.266,44.1632 478.445,44.0579 478.623,43.9526 478.802,43.8472 478.981,43.7415 479.16,43.6359 479.338,43.5305 479.517,43.425 479.695,43.3197 479.874,43.2144 480.053,43.1088 480.231,43.003 480.41,42.8978 480.589,42.7927 480.767,42.6872 480.946,42.5815 481.125,42.4761 481.303,42.3707 481.482,42.2651 481.661,42.1598 481.839,42.0546 482.018,41.9492 482.197,41.8438 482.375,41.7382 482.554,41.6327 482.733,41.5273 482.911,41.4218 483.09,41.3163 483.269,41.2108 483.447,41.1055 483.626,41.0003 483.805,40.895 483.983,40.7894 484.162,40.6842 484.341,40.5789 484.519,40.4737 484.698,40.3686 484.877,40.2634 485.055,40.158 485.234,40.0528 485.413,39.9476 485.591,39.8424 485.77,39.7374 485.949,39.6325 486.127,39.5274 486.306,39.4223 486.485,39.3173 486.663,39.2124 486.842,39.1073 487.02,39.002 487.199,38.8968 487.378,38.7917 487.556,38.6864 487.735,38.581 487.914,38.4756 488.092,38.3704 488.271,38.2651 488.45,38.1597 488.628,38.0541 488.807,37.9489 488.986,37.8438 489.164,37.7387 489.343,37.6337 489.522,37.5284 489.7,37.4229 489.879,37.3176 490.057,37.2124 490.236,37.1073 490.415,37.0022 490.593,36.8971 490.772,36.7921 490.951,36.687 491.129,36.5818 491.308,36.4767 491.487,36.3714 491.665,36.2638 491.844,36.1502 492.023,36.0312 492.201,35.9096 492.38,35.7878 492.559,35.6743 492.737,35.5817 492.916,35.5085 493.095,35.442 493.273,35.3754 493.452,35.3087 493.631,35.2422 493.809,35.1757 493.988,35.1092 494.167,35.0425 494.345,34.9759 494.524,34.9093 494.703,34.8427 494.881,34.7762 495.06,34.7096 495.239,34.643 495.417,34.5765 495.596,34.5099 495.775,34.4435 495.953,34.377 496.132,34.3104" stroke-linecap="butt" stroke="#0071bc" fill="none" stroke-linejoin="round"/>
  </g>
 </g>
</svg>
