<?xml version='1.0' encoding='UTF-8' standalone='no'?>
<svg viewBox="0 0 576 432" xmlns="http://www.w3.org/2000/svg" height="432pt" xmlns:xlink="http://www.w3.org/1999/xlink" width="576pt">
 <title>gl2ps_renderer figure</title>
 <desc>
Creator: GL2PS 1.4.0, (C) 1999-2017 C. Geuzaine
For: Octave
CreationDate: Mon Jul 05 00:04:07 2021
</desc>
 <defs/>
 <polygon fill="#ffffff" points="0,0 576,0 576,432 0,432"/>
 <g>
  <polygon fill="#ffffff" shape-rendering="crispEdges" points="0,432 576,432 576,0 0,0"/>
  <clipPath id="cp00576432">
   <polygon points="0,432 576,432 576,0 0,0"/>
  </clipPath>
  <g clip-path="url(#cp00576432)">
   <polygon fill="#ffffff" shape-rendering="crispEdges" points="74.88,384.48 521.28,384.48 521.28,32.4 74.88,32.4"/>
   <polyline stroke-linecap="butt" stroke-linejoin="miter" fill="none" stroke-dasharray="16,0" stroke-width="0.5" stroke-opacity="0.15" stroke="#262626" points="74.88,384.48 74.88,32.4"/>
   <polyline stroke-linecap="butt" stroke-linejoin="miter" fill="none" stroke-dasharray="16,0" stroke-width="0.5" stroke-opacity="0.15" stroke="#262626" points="164.16,384.48 164.16,32.4"/>
   <polyline stroke-linecap="butt" stroke-linejoin="miter" fill="none" stroke-dasharray="16,0" stroke-width="0.5" stroke-opacity="0.15" stroke="#262626" points="253.44,384.48 253.44,32.4"/>
   <polyline stroke-linecap="butt" stroke-linejoin="miter" fill="none" stroke-dasharray="16,0" stroke-width="0.5" stroke-opacity="0.15" stroke="#262626" points="342.72,384.48 342.72,32.4"/>
   <polyline stroke-linecap="butt" stroke-linejoin="miter" fill="none" stroke-dasharray="16,0" stroke-width="0.5" stroke-opacity="0.15" stroke="#262626" points="432,384.48 432,32.4"/>
   <polyline stroke-linecap="butt" stroke-linejoin="miter" fill="none" stroke-dasharray="16,0" stroke-width="0.5" stroke-opacity="0.15" stroke="#262626" points="521.28,384.48 521.28,32.4"/>
   <polyline stroke-linecap="butt" stroke-linejoin="miter" fill="none" stroke-width="0.5" stroke="#262626" points="74.88,384.48 74.88,380.015"/>
   <polyline stroke-linecap="butt" stroke-linejoin="miter" fill="none" stroke-width="0.5" stroke="#262626" points="74.88,32.4 74.88,36.865"/>
   <polyline stroke-linecap="butt" stroke-linejoin="miter" fill="none" stroke-width="0.5" stroke="#262626" points="164.16,384.48 164.16,380.015"/>
   <polyline stroke-linecap="butt" stroke-linejoin="miter" fill="none" stroke-width="0.5" stroke="#262626" points="164.16,32.4 164.16,36.865"/>
   <polyline stroke-linecap="butt" stroke-linejoin="miter" fill="none" stroke-width="0.5" stroke="#262626" points="253.44,384.48 253.44,380.015"/>
   <polyline stroke-linecap="butt" stroke-linejoin="miter" fill="none" stroke-width="0.5" stroke="#262626" points="253.44,32.4 253.44,36.865"/>
   <polyline stroke-linecap="butt" stroke-linejoin="miter" fill="none" stroke-width="0.5" stroke="#262626" points="342.72,384.48 342.72,380.015"/>
   <polyline stroke-linecap="butt" stroke-linejoin="miter" fill="none" stroke-width="0.5" stroke="#262626" points="342.72,32.4 342.72,36.865"/>
   <polyline stroke-linecap="butt" stroke-linejoin="miter" fill="none" stroke-width="0.5" stroke="#262626" points="432,384.48 432,380.015"/>
   <polyline stroke-linecap="butt" stroke-linejoin="miter" fill="none" stroke-width="0.5" stroke="#262626" points="432,32.4 432,36.865"/>
   <polyline stroke-linecap="butt" stroke-linejoin="miter" fill="none" stroke-width="0.5" stroke="#262626" points="521.28,384.48 521.28,380.015"/>
   <polyline stroke-linecap="butt" stroke-linejoin="miter" fill="none" stroke-width="0.5" stroke="#262626" points="521.28,32.4 521.28,36.865"/>
   <text font-family="FreeSans" font-style="normal" xml:space="preserve" transform="translate(71.88,399.982) rotate(-0,3,-8)" font-size="10" font-weight="normal">
    <tspan fill="rgb(38,38,38)" x="0 " y="-0">0</tspan>
   </text>
   <text font-family="FreeSans" font-style="normal" xml:space="preserve" transform="translate(152.16,399.982) rotate(-0,12,-8)" font-size="10" font-weight="normal">
    <tspan fill="rgb(38,38,38)" x="0 6 12 18 " y="-0">1000</tspan>
   </text>
   <text font-family="FreeSans" font-style="normal" xml:space="preserve" transform="translate(241.44,399.982) rotate(-0,12,-8)" font-size="10" font-weight="normal">
    <tspan fill="rgb(38,38,38)" x="0 6 12 18 " y="-0">2000</tspan>
   </text>
   <text font-family="FreeSans" font-style="normal" xml:space="preserve" transform="translate(330.72,399.982) rotate(-0,12,-8)" font-size="10" font-weight="normal">
    <tspan fill="rgb(38,38,38)" x="0 6 12 18 " y="-0">3000</tspan>
   </text>
   <text font-family="FreeSans" font-style="normal" xml:space="preserve" transform="translate(420,399.982) rotate(-0,12,-8)" font-size="10" font-weight="normal">
    <tspan fill="rgb(38,38,38)" x="0 6 12 18 " y="-0">4000</tspan>
   </text>
   <text font-family="FreeSans" font-style="normal" xml:space="preserve" transform="translate(509.28,399.982) rotate(-0,12,-8)" font-size="10" font-weight="normal">
    <tspan fill="rgb(38,38,38)" x="0 6 12 18 " y="-0">5000</tspan>
   </text>
   <polyline stroke-linecap="butt" stroke-linejoin="miter" fill="none" stroke-dasharray="16,0" stroke-width="0.5" stroke-opacity="0.15" stroke="#262626" points="74.88,384.48 521.28,384.48"/>
   <polyline stroke-linecap="butt" stroke-linejoin="miter" fill="none" stroke-dasharray="16,0" stroke-width="0.5" stroke-opacity="0.15" stroke="#262626" points="74.88,314.064 521.28,314.064"/>
   <polyline stroke-linecap="butt" stroke-linejoin="miter" fill="none" stroke-dasharray="16,0" stroke-width="0.5" stroke-opacity="0.15" stroke="#262626" points="74.88,243.648 521.28,243.648"/>
   <polyline stroke-linecap="butt" stroke-linejoin="miter" fill="none" stroke-dasharray="16,0" stroke-width="0.5" stroke-opacity="0.15" stroke="#262626" points="74.88,173.232 521.28,173.232"/>
   <polyline stroke-linecap="butt" stroke-linejoin="miter" fill="none" stroke-dasharray="16,0" stroke-width="0.5" stroke-opacity="0.15" stroke="#262626" points="74.88,102.816 521.28,102.816"/>
   <polyline stroke-linecap="butt" stroke-linejoin="miter" fill="none" stroke-dasharray="16,0" stroke-width="0.5" stroke-opacity="0.15" stroke="#262626" points="74.88,32.4 521.28,32.4"/>
   <polyline stroke-linecap="butt" stroke-linejoin="miter" fill="none" stroke-width="0.5" stroke="#262626" points="74.88,384.48 79.348,384.48"/>
   <polyline stroke-linecap="butt" stroke-linejoin="miter" fill="none" stroke-width="0.5" stroke="#262626" points="521.28,384.48 516.812,384.48"/>
   <polyline stroke-linecap="butt" stroke-linejoin="miter" fill="none" stroke-width="0.5" stroke="#262626" points="74.88,314.064 79.348,314.064"/>
   <polyline stroke-linecap="butt" stroke-linejoin="miter" fill="none" stroke-width="0.5" stroke="#262626" points="521.28,314.064 516.812,314.064"/>
   <polyline stroke-linecap="butt" stroke-linejoin="miter" fill="none" stroke-width="0.5" stroke="#262626" points="74.88,243.648 79.348,243.648"/>
   <polyline stroke-linecap="butt" stroke-linejoin="miter" fill="none" stroke-width="0.5" stroke="#262626" points="521.28,243.648 516.812,243.648"/>
   <polyline stroke-linecap="butt" stroke-linejoin="miter" fill="none" stroke-width="0.5" stroke="#262626" points="74.88,173.232 79.348,173.232"/>
   <polyline stroke-linecap="butt" stroke-linejoin="miter" fill="none" stroke-width="0.5" stroke="#262626" points="521.28,173.232 516.812,173.232"/>
   <polyline stroke-linecap="butt" stroke-linejoin="miter" fill="none" stroke-width="0.5" stroke="#262626" points="74.88,102.816 79.348,102.816"/>
   <polyline stroke-linecap="butt" stroke-linejoin="miter" fill="none" stroke-width="0.5" stroke="#262626" points="521.28,102.816 516.812,102.816"/>
   <polyline stroke-linecap="butt" stroke-linejoin="miter" fill="none" stroke-width="0.5" stroke="#262626" points="74.88,32.4 79.348,32.4"/>
   <polyline stroke-linecap="butt" stroke-linejoin="miter" fill="none" stroke-width="0.5" stroke="#262626" points="521.28,32.4 516.812,32.4"/>
   <text font-family="FreeSans" font-style="normal" xml:space="preserve" transform="translate(63.8755,388.48) rotate(-0,6,-4)" font-size="10" font-weight="normal">
    <tspan fill="rgb(38,38,38)" x="0 " y="-0">0</tspan>
   </text>
   <text font-family="FreeSans" font-style="normal" xml:space="preserve" transform="translate(51.8755,318.064) rotate(-0,18,-4)" font-size="10" font-weight="normal">
    <tspan fill="rgb(38,38,38)" x="0 6 12 " y="-0">100</tspan>
   </text>
   <text font-family="FreeSans" font-style="normal" xml:space="preserve" transform="translate(51.8755,247.648) rotate(-0,18,-4)" font-size="10" font-weight="normal">
    <tspan fill="rgb(38,38,38)" x="0 6 12 " y="-0">200</tspan>
   </text>
   <text font-family="FreeSans" font-style="normal" xml:space="preserve" transform="translate(51.8755,177.232) rotate(-0,18,-4)" font-size="10" font-weight="normal">
    <tspan fill="rgb(38,38,38)" x="0 6 12 " y="-0">300</tspan>
   </text>
   <text font-family="FreeSans" font-style="normal" xml:space="preserve" transform="translate(51.8755,106.816) rotate(-0,18,-4)" font-size="10" font-weight="normal">
    <tspan fill="rgb(38,38,38)" x="0 6 12 " y="-0">400</tspan>
   </text>
   <text font-family="FreeSans" font-style="normal" xml:space="preserve" transform="translate(51.8755,36.4) rotate(-0,18,-4)" font-size="10" font-weight="normal">
    <tspan fill="rgb(38,38,38)" x="0 6 12 " y="-0">500</tspan>
   </text>
   <polyline stroke-linecap="square" stroke-linejoin="miter" fill="none" stroke-dasharray="16,0" stroke-width="0.5" stroke="#262626" points="74.88,384.48 521.28,384.48"/>
   <polyline stroke-linecap="square" stroke-linejoin="miter" fill="none" stroke-dasharray="16,0" stroke-width="0.5" stroke="#262626" points="74.88,32.4 521.28,32.4"/>
   <polyline stroke-linecap="square" stroke-linejoin="miter" fill="none" stroke-dasharray="16,0" stroke-width="0.5" stroke="#262626" points="74.88,384.48 74.88,32.4"/>
   <polyline stroke-linecap="square" stroke-linejoin="miter" fill="none" stroke-dasharray="16,0" stroke-width="0.5" stroke="#262626" points="521.28,384.48 521.28,32.4"/>
   <text font-family="FreeSans" font-style="normal" xml:space="preserve" transform="translate(273.08,416.982) rotate(-0,25,-12)" font-size="11" font-weight="normal">
    <tspan fill="rgb(38,38,38)" x="0 7 13 22 28 34 37 41 46 " y="-3">Tempo (s)</tspan>
   </text>
   <text font-family="FreeSans" font-style="normal" xml:space="preserve" transform="translate(23.8755,208.44) rotate(-90,23,0)" font-size="11" font-weight="normal">
    <tspan fill="rgb(38,38,38)" x="0 7 14 21 24 28 34 37 42 " y="-3">EAS (kts)</tspan>
   </text>
   <polyline stroke-linecap="butt" stroke-linejoin="round" fill="none" stroke-width="2" stroke="#0071bc" points="128.984,364.446 129.162,364.32 129.341,364.446 129.52,364.446 129.698,364.763 129.877,365.398 130.056,366.031 130.234,366.031 130.413,366.348 130.592,366.284 130.77,366.348 130.949,366.348 131.127,366.475 131.306,358.11 131.485,348.508 131.663,335.888 131.842,325.166 132.021,312.365 132.199,302.959 132.378,292.904 132.557,284.32 132.735,276.688 132.914,272.872 133.07,271.156 133.24,271.728 133.402,269.629 133.581,266.954 133.727,263.126 133.906,253.364 134.085,243.046 134.263,233.84 134.442,223.236 134.621,213.626 134.799,204.362 134.978,194.236 135.157,186.561 135.335,176.799 135.514,169.736 135.693,162.252 135.871,154.212 136.05,151.959 136.229,149.813 136.407,148.962 136.586,147.834 136.765,148.592 136.943,148.222 137.122,148.463 137.301,146.927 137.479,146.002 137.658,144.522 137.837,146.372 137.977,146.742 138.135,146.372 138.286,147.963 138.446,149.129 138.605,148.962 138.781,149.332 138.955,148.777 139.097,148.592 139.244,146.557 139.378,145.743 139.51,143.227 139.687,143.172 139.864,141.562 140.011,140.822 140.173,139.897 140.32,140.988 140.497,138.787 140.648,141.192 140.824,134.939 141.002,134.606 141.159,136.567 141.318,137.492 141.494,136.567 141.641,136.752 141.793,135.42 141.929,135.826 142.093,132.682 142.196,132.496 142.373,131.941 142.536,131.941 142.697,130.831 142.869,131.016 143.027,131.941 143.185,131.572 143.362,131.941 143.536,133.236 143.71,136.197 143.885,138.787 144.059,148.814 144.23,155.17 144.403,161.314 144.569,164.741 144.747,163.592 144.926,161.353 145.101,159.764 145.276,157.084 145.433,154.691 145.592,152.299 145.771,149.591 145.92,147.852 146.098,145.743 146.275,142.857 146.438,140.637 146.601,139.157 146.766,138.602 146.945,141.377 147.111,143.597 147.28,143.597 147.452,143.042 147.624,144.67 147.794,146.742 147.972,148.407 148.138,150.258 148.312,151.83 148.491,152.681 148.656,154.423 148.818,155.744 148.992,157.084 149.153,158.233 149.331,158.424 149.504,158.233 149.659,158.233 149.83,157.027 149.982,155.744 150.152,154.175 150.316,152.681 150.477,151.996 150.636,151.552 150.815,151.922 150.974,152.299 151.143,152.49 151.3,151.945 151.448,151.589 151.603,151.182 151.781,151.182 151.958,151.182 152.135,150.812 152.295,150.423 152.455,150.258 152.632,150.258 152.807,150.072 152.965,149.702 153.125,149.887 153.284,150.258 153.461,149.887 153.607,149.702 153.765,149.517 153.934,149.147 154.093,148.592 154.252,148.074 154.396,147.482 154.567,146.742 154.741,145.447 154.837,144.522 154.929,143.745 155.059,142.302 155.218,140.415 155.355,138.972 155.504,138.231 155.672,137.492 155.834,137.121 155.979,137.307 156.144,137.677 156.3,137.677 156.47,137.677 156.625,138.046 156.797,138.787 156.961,139.712 157.137,140.082 157.297,140.082 157.469,140.082 157.646,139.897 157.807,139.897 157.971,139.341 158.133,140.082 158.312,141.654 158.482,143.412 158.639,144.522 158.803,145.447 158.939,145.817 159.109,146.002 159.268,146.187 159.396,146.187 159.536,145.632 159.704,145.077 159.797,144.707 159.922,144.152 160.068,144.152 160.246,144.559 160.425,145.077 160.604,145.447 160.782,145.817 160.961,146.187 161.064,146.372 161.243,146.557 161.421,146.742 161.6,146.742 161.779,146.927 161.957,147.112 162.136,147.353 162.314,147.667 162.493,147.852 162.672,147.852 162.85,148.037 163.029,148.407 163.053,148.444 163.231,148.962 163.41,148.407 163.513,148.037 163.692,147.445 163.703,147.482 163.881,147.464 164.06,148.037 164.239,149.517 164.417,151.922 164.596,152.49 164.775,153.065 164.919,155.744 165.05,156.701 165.228,155.553 165.377,153.16 165.556,150.072 165.734,147.112 165.913,143.782 166.092,140.341 166.27,137.381 166.449,134.902 166.628,132.311 166.806,132.496 166.985,134.531 167.164,136.752 167.342,139.379 167.521,142.302 167.7,145.262 167.878,148.222 168.053,150.997 168.23,153.601 168.393,156.223 168.562,158.615 168.739,160.988 168.916,164.357 169.089,170.693 169.268,176.952 169.434,182.733 169.611,188.189 169.79,191.155 169.868,191.538 170.047,190.198 170.218,188.858 170.384,188.705 170.563,188.666 170.724,186.944 170.9,185.412 171.043,183.729 171.221,181.011 171.399,177.757 171.578,174.119 171.757,170.291 171.935,166.692 172.114,163.018 172.293,159.573 172.471,156.701 172.65,154.021 172.829,151.385 173.007,148.481 173.186,145.817 173.364,143.412 173.543,141.007 173.722,141.932 173.9,143.782 174.079,145.817 174.24,145.817 174.368,145.817 174.546,144.152 174.636,143.597 174.814,144.522 174.993,146.557 175.172,148.832 175.237,149.702 175.402,151.737 175.455,152.299 175.63,154.041 175.73,154.979 175.908,156.701 176.087,157.85 176.265,157.85 176.438,157.658 176.607,157.448 176.783,157.275 176.962,157.275 177.132,156.51 177.295,156.701 177.46,156.893 177.638,157.85 177.775,158.233 177.954,158.233 178.133,159.171 178.311,159.955 178.49,160.338 178.669,160.912 178.847,161.295 179.026,161.295 179.205,161.142 179.383,160.912 179.51,160.912 179.689,161.658 179.868,163.209 180.046,166.272 180.225,168.186 180.404,166.654 180.582,162.979 180.761,161.104 180.918,158.233 181.013,157.466 181.162,156.319 181.204,156.126 181.382,155.17 181.561,154.691 181.739,154.404 181.918,153.849 182.097,153.639 182.229,153.217 182.335,153.256 182.49,153.256 182.668,153.256 182.847,153.256 183.026,153.639 183.204,154.212 183.383,154.979 183.562,155.935 183.74,156.893 183.907,158.233 184.06,159.189 184.238,159.955 184.386,160.72 184.52,161.295 184.692,161.869 184.831,162.634 184.992,163.113 185.165,163.783 185.339,164.319 185.515,164.932 185.684,165.334 185.837,166.081 185.998,166.54 186.174,166.846 186.307,167.057 186.467,167.152 186.57,167.228 186.697,167.42 186.872,167.42 186.906,167.42 187.085,167.42 187.259,167.228 187.431,167.228 187.549,167.42 187.724,167.995 187.862,168.588 187.976,169.181 188.105,169.909 188.281,170.616 188.399,171.057 188.574,171.383 188.688,171.249 188.804,170.789 188.983,169.526 189.162,167.611 189.34,165.257 189.519,162.443 189.698,159.573 189.869,156.893 190.005,154.787 190.184,152.872 190.246,152.681 190.424,152.318 190.603,152.872 190.782,154.212 190.95,155.744 191.127,157.084 191.301,158.998 191.454,159.955 191.616,160.529 191.789,160.912 191.964,161.104 192.138,160.912 192.143,160.912 192.322,160.147 192.5,158.998 192.679,157.658 192.858,156.739 193.036,155.744 193.215,154.596 193.393,153.065 193.572,152.051 193.751,151.182 193.93,150.627 194.108,150.442 194.287,150.072 194.465,150.072 194.644,150.423 194.823,150.627 194.99,150.775 195.169,149.702 195.348,148.351 195.526,146.927 195.705,145.928 195.861,145.447 195.995,145.262 196.088,145.336 196.266,145.632 196.425,145.632 196.594,145.632 196.624,145.632 196.803,145.761 196.858,145.817 197.026,146.002 197.205,146.187 197.384,146.557 197.562,146.742 197.741,147.112 197.766,147.112 197.945,147.482 198.123,147.667 198.293,147.686 198.469,147.667 198.646,147.667 198.813,147.667 198.955,147.667 199.115,147.667 199.275,147.482 199.442,146.557 199.618,145.817 199.785,145.447 199.945,145.262 200.037,145.077 200.216,145.262 200.395,145.632 200.573,147.852 200.752,149.332 200.931,150.479 201.102,151.737 201.231,152.49 201.403,153.447 201.486,153.639 201.665,154.404 201.844,154.979 202.022,155.17 202.201,154.979 202.38,154.404 202.538,153.83 202.688,153.639 202.796,153.447 202.967,153.447 203.145,153.83 203.324,154.212 203.503,154.979 203.681,155.992 203.86,157.409 204.039,158.806 204.217,160.338 204.372,161.544 204.542,162.634 204.691,163.19 204.776,163.515 204.946,163.974 205.124,163.974 205.303,163.783 205.481,162.827 205.66,161.678 205.837,160.72 206.015,159.209 206.191,157.658 206.342,156.357 206.517,154.768 206.696,153.256 206.863,152.107 207.039,151.182 207.216,150.812 207.328,150.756 207.467,150.812 207.646,151.182 207.824,151.793 208.003,152.872 208.182,153.639 208.36,154.404 208.539,155.361 208.718,156.126 208.896,156.51 209.075,157.275 209.254,157.754 209.432,158.041 209.611,158.041 209.789,158.041 209.968,157.275 210.128,156.701 210.304,155.84 210.441,155.553 210.567,155.17 210.717,154.596 210.895,154.021 211.004,153.83 211.125,153.639 211.286,153.773 211.325,153.83 211.503,154.212 211.529,154.212 211.707,154.711 211.886,155.744 212.065,156.51 212.243,157.064 212.422,157.084 212.601,157.084 212.752,156.988 212.897,156.51 213.033,156.126 213.158,155.553 213.285,155.17 213.444,154.404 213.567,153.849 213.655,153.581 213.783,153.256 213.909,152.872 214.07,152.49 214.239,152.299 214.415,151.922 214.564,151.552 214.719,151.182 214.835,150.961 214.945,150.627 215.044,150.258 215.17,150.072 215.28,149.646 215.427,149.147 215.591,148.777 215.769,148.777 215.772,148.777 215.951,149.055 216.13,149.388 216.308,149.887 216.487,150.442 216.666,151.256 216.844,152.107 217.023,152.872 217.19,153.639 217.315,154.212 217.453,154.787 217.603,155.093 217.781,155.744 217.798,155.744 217.976,156.126 218.131,156.319 218.272,156.319 218.45,156.433 218.622,156.893 218.753,157.275 218.879,157.658 219.032,158.041 219.21,158.328 219.389,158.615 219.568,158.806 219.746,158.998 219.925,158.883 220.104,158.806 220.282,158.615 220.461,158.233 220.64,158.233 220.818,158.041 220.997,158.041 221.176,157.85 221.354,157.658 221.533,157.466 221.712,157.122 221.89,156.893 222.069,156.433 222.248,155.553 222.426,154.596 222.605,153.639 222.784,152.299 222.962,151.182 223.141,150.442 223.32,150.072 223.498,149.887 223.677,149.517 223.855,148.962 223.987,148.407 224.114,147.482 224.28,146.742 224.419,146.372 224.598,146.372 224.776,146.372 224.955,146.927 225.134,147.149 225.312,147.316 225.491,147.482 225.67,147.686 225.848,148.407 226.027,149.221 226.205,150.072 226.384,150.701 226.523,151.367 226.661,152.107 226.793,152.872 226.966,154.021 227.089,154.787 227.226,155.361 227.314,155.744 227.489,156.51 227.617,156.893 227.669,156.893 227.798,157.084 227.977,157.237 228.156,156.701 228.334,155.935 228.513,155.744 228.691,155.744 228.87,156.126 229.049,156.893 229.141,157.122 229.262,157.275 229.44,157.466 229.462,157.466 229.64,157.466 229.819,157.275 229.998,156.893 230.176,156.126 230.355,154.825 230.534,154.021 230.712,154.021 230.891,154.212 231.07,155.361 231.248,157.275 231.42,159.189 231.569,160.529 231.724,161.678 231.898,162.482 232.017,162.827 232.196,161.869 232.374,159.764 232.553,157.084 232.732,154.482 232.903,153.447 233.012,152.681 233.17,151.922 233.346,151.182 233.514,150.258 233.688,149.332 233.867,148.592 234.016,148.37 234.195,148.222 234.374,148.222 234.552,148.222 234.731,148.222 234.91,148.463 235.088,148.925 235.267,149.332 235.446,149.887 235.624,150.165 235.803,150.275 235.982,150.442 236.16,150.627 236.339,150.775 236.518,150.627 236.696,150.442 236.875,150.258 237.054,150.442 237.232,151.367 237.411,152.49 237.59,153.83 237.768,155.17 237.921,156.319 238.046,156.988 238.206,157.658 238.385,158.233 238.563,158.424 238.714,159.189 238.854,163.994 239.029,168.76 239.204,184.264 239.382,194.715 239.509,203.022 239.687,201.682 239.709,200.726 239.887,209.148 240.066,208.956 240.244,206.085 240.423,202.448 240.602,197.472 240.767,191.92 240.933,186.312 241.1,180.244 241.275,173.545 241.452,167.803 241.599,164.166 241.774,160.338 241.926,156.701 242.102,152.604 242.279,148.222 242.393,146.039 242.496,144.781 242.674,142.672 242.853,141.506 243.032,140.637 243.21,140.082 243.389,140.267 243.568,139.712 243.746,143.375 243.925,149.147 244.104,151.404 244.282,153.639 244.461,155.935 244.639,158.233 244.818,160.338 244.997,162.06 245.175,163.592 245.354,165.123 245.533,166.846 245.711,168.397 245.869,169.832 246.012,171.057 246.185,172.205 246.219,172.396 246.397,173.545 246.558,175.612 246.72,179.383 246.895,184.838 247.07,190.638 247.229,194.792 247.396,195.06 247.574,194.409 247.748,194.007 247.907,194.62 247.986,195.174 248.164,194.6 248.343,192.686 248.522,192.112 248.7,188.475 248.879,185.948 249.057,183.116 249.236,180.512 249.415,177.757 249.593,174.694 249.772,171.765 249.951,168.951 250.056,167.037 250.151,165.506 250.312,163.401 250.444,161.678 250.623,159.573 250.798,156.319 250.957,152.49 251.117,148.703 251.288,142.598 251.463,131.997 251.641,122.003 251.808,116.147 251.883,114.968 252.062,114.777 252.24,114.588 252.38,113.827 252.557,113.066 252.711,112.153 252.865,111.925 253.032,111.545 253.2,110.784 253.217,110.784 253.396,109.453 253.575,107.741 253.753,105.764 253.932,103.938 254.111,105.839 254.289,108.502 254.468,111.165 254.647,114.207 254.825,117.25 254.904,118.238 255.083,121.623 255.261,129.167 255.437,139.379 255.614,148.574 255.791,159.362 255.968,165.104 256.072,165.506 256.249,160.912 256.428,152.49 256.606,141.636 256.781,131.22 256.95,128.981 257.128,128.241 257.305,128.241 257.478,126.65 257.64,122.574 257.683,122.574 257.862,128.315 258.039,139.064 258.216,157.084 258.392,172.99 258.568,182.542 258.728,183.881 258.767,183.881 258.946,181.776 259.117,177.431 259.295,167.803 259.472,155.476 259.65,144.522 259.828,133.977 260.007,122.194 260.172,117.972 260.351,120.482 260.529,118.391 260.708,119.456 260.887,122.574 261.052,128.574 261.231,141.544 261.408,159.439 261.585,175.918 261.761,187.518 261.934,195.156 262.099,199.768 262.206,200.534 262.384,197.663 262.563,190.198 262.741,180.934 262.919,167.784 263.095,152.835 263.273,140.267 263.452,130.462 263.63,120.673 263.806,112.495 263.983,104.338 264.119,103.368 264.298,103.558 264.476,109.073 264.653,120.862 264.828,128.796 264.918,129.721 265.093,126.947 265.269,122.212 265.448,118.2 265.619,113.447 265.771,112.495 265.807,112.876 265.986,122.764 266.163,138.213 266.34,154.021 266.519,171.267 266.697,188.858 266.874,202.831 267.036,209.702 267.124,211.636 267.303,212.402 267.477,210.086 267.654,201.682 267.831,190.676 268.006,179.862 268.183,168.951 268.357,160.529 268.527,156.126 268.657,153.065 268.836,148.777 268.912,147.131 269.035,145.632 269.1,144.337 269.218,141.932 269.328,139.527 269.439,137.307 269.534,135.272 269.632,133.384 269.739,131.572 269.918,128.426 270.095,131.387 270.144,131.757 270.323,137.991 270.5,157.792 270.678,177.067 270.853,188.418 271.015,195.213 271.193,195.347 271.367,186.886 271.531,181.565 271.708,176.034 271.885,172.014 271.951,170.674 272.13,169.909 272.307,179.862 272.48,191.232 272.657,198.237 272.831,202.869 272.93,203.98 273.108,204.324 273.287,201.548 273.465,198.046 273.643,191.538 273.811,185.796 273.987,182.618 274.165,176.742 274.344,167.803 274.522,159.228 274.694,152.241 274.843,147.482 274.994,143.412 275.156,139.527 275.311,136.936 275.49,135.826 275.667,151.922 275.843,175.076 276.019,187.518 276.189,196.132 276.368,191.078 276.543,178.522 276.714,168.32 276.89,159.821 277.056,152.299 277.226,142.82 277.395,134.346 277.551,128.241 277.576,127.871 277.755,128.371 277.934,131.201 278.101,134.531 278.275,137.677 278.449,148.925 278.626,165.506 278.799,173.928 278.961,178.139 279.019,178.713 279.197,177.565 279.373,170.291 279.544,162.252 279.717,154.806 279.883,149.702 280.03,146.742 280.161,144.041 280.265,142.117 280.443,140.452 280.537,140.822 280.715,141.377 280.894,142.117 281.073,141.932 281.251,142.302 281.43,141.746 281.609,141.562 281.776,141.34 281.949,139.712 282.127,146.021 282.301,152.949 282.471,156.126 282.574,157.85 282.753,157.658 282.931,150.46 283.103,142.857 283.272,139.897 283.416,138.972 283.467,139.157 283.645,144.337 283.823,155.399 283.995,171.249 284.168,181.011 284.311,185.796 284.49,186.561 284.667,183.307 284.842,177.373 285.018,170.482 285.196,169.909 285.228,170.482 285.406,171.822 285.585,173.354 285.758,170.368 285.927,161.563 286.102,150.683 286.279,140.637 286.394,137.492 286.46,136.936 286.639,138.787 286.806,142.302 286.973,144.337 287.136,146.557 287.299,146.557 287.477,145.262 287.599,144.152 287.737,142.561 287.907,143.189 288.051,145.262 288.218,147.667 288.388,156.701 288.562,171.383 288.734,180.627 288.898,184.628 288.951,184.876 289.13,182.618 289.306,175.498 289.48,167.63 289.654,159.38 289.823,151.552 289.991,142.857 290.165,134.531 290.332,126.004 290.481,120.862 290.659,122.669 290.838,124.666 291.011,127.538 291.187,139.749 291.365,148.037 291.542,156.319 291.703,158.615 291.748,158.233 291.927,154.289 292.099,148.777 292.276,141.746 292.455,134.346 292.633,126.004 292.792,122.764 292.956,122.003 293.135,125.046 293.313,131.757 293.492,143.042 293.668,159.782 293.845,174.789 294.024,187.154 294.202,196.897 294.338,200.342 294.516,198.812 294.691,190.581 294.869,181.584 295.047,174.158 295.225,169.717 295.404,166.081 295.519,164.951 295.698,164.549 295.877,163.592 296.055,163.592 296.219,165.123 296.259,165.315 296.438,163.592 296.617,161.869 296.795,174.694 296.972,180.206 297.134,186.37 297.234,188.13 297.413,188.858 297.587,180.819 297.759,171.191 297.934,162.634 298.099,155.935 298.277,149.887 298.431,145.873 298.61,144.152 298.784,140.267 298.875,138.046 299.054,136.197 299.233,140.267 299.411,139.527 299.59,138.417 299.6,138.417 299.779,136.936 299.954,134.531 300.129,135.272 300.3,139.472 300.478,149.887 300.656,157.466 300.828,158.998 300.997,152.835 301.156,150.017 301.283,148.869 301.43,147.482 301.579,147.056 301.758,146.927 301.936,146.742 302.115,145.632 302.294,143.967 302.472,141.562 302.651,138.417 302.829,135.087 303.008,131.941 303.09,130.462 303.241,128.463 303.297,128.611 303.426,130.091 303.605,133.699 303.784,143.856 303.955,154.002 304.123,161.295 304.196,163.018 304.374,163.228 304.553,159.573 304.73,154.959 304.893,154.596 305.056,157.85 305.235,159.764 305.413,160.147 305.592,160.07 305.771,160.127 305.949,159.764 306.128,159.764 306.307,158.998 306.485,158.424 306.664,157.275 306.843,156.126 307.021,156.126 307.2,155.744 307.379,153.447 307.557,151.367 307.736,149.702 307.915,148.333 308.093,146.557 308.272,145.632 308.451,145.04 308.629,147.038 308.808,150.258 308.987,152.107 309.146,151.552 309.19,151.385 309.368,156.089 309.543,161.104 309.594,161.869 309.772,162.634 309.951,162.443 310.13,162.443 310.308,163.401 310.487,164.51 310.666,165.984 310.817,167.037 310.995,169.526 311.174,171.249 311.353,173.736 311.531,176.57 311.71,178.713 311.889,180.627 312.067,183.307 312.227,186.178 312.349,188.284 312.482,190.428 312.569,191.691 312.728,193.069 312.793,193.643 312.972,198.046 313.151,199.577 313.329,199.768 313.502,202.008 313.666,206.85 313.831,211.062 313.951,212.516 314.129,213.876 314.298,215.847 314.41,216.038 314.584,215.273 314.613,214.89 314.791,212.593 314.97,210.104 315.149,207.999 315.327,206.468 315.506,204.65 315.632,203.596 315.739,202.831 315.899,201.491 316.077,200.056 316.256,198.428 316.435,196.017 316.613,191.155 316.745,187.901 316.914,183.498 317.073,179.268 317.198,176.034 317.345,172.396 317.483,168.951 317.656,163.592 317.832,156.51 318.004,148.315 318.172,143.412 318.283,141.932 318.461,139.712 318.64,141.007 318.819,145.817 318.983,152.624 319.157,162.634 319.331,166.081 319.446,166.654 319.625,170.234 319.801,170.674 319.951,169.296 320.13,170.865 320.308,180.627 320.485,191.538 320.651,203.022 320.83,209.511 320.962,208.765 321.122,205.07 321.165,203.903 321.344,200.151 321.365,199.96 321.544,197.299 321.633,196.323 321.811,194.792 321.99,194.409 322.039,194.218 322.196,193.643 322.375,193.069 322.432,192.878 322.611,192.112 322.774,191.346 322.818,191.155 322.997,189.624 323.07,188.858 323.225,187.327 323.397,185.489 323.566,183.498 323.699,182.733 323.878,183.116 324.056,184.073 324.228,183.881 324.338,181.967 324.517,186.733 324.685,188.666 324.861,188.839 325.028,188.858 325.199,187.748 325.264,186.944 325.442,183.307 325.621,178.904 325.8,174.885 325.978,171.401 326.157,168.76 326.336,166.253 326.511,163.783 326.69,161.889 326.868,159.955 327.047,158.233 327.226,157.084 327.404,155.744 327.583,154.959 327.762,153.639 327.94,152.49 328.119,151.959 328.298,151.737 328.476,151.367 328.655,151.367 328.834,151.182 329.012,150.627 329.191,149.702 329.37,148.592 329.548,147.482 329.727,146.187 329.906,144.707 330.084,143.578 330.218,142.487 330.355,141.562 330.534,141.562 330.712,143.042 330.891,145.04 331.07,148.037 331.23,151.811 331.408,156.893 331.587,161.104 331.765,164.357 331.943,165.888 332.07,166.692 332.167,166.846 332.346,166.654 332.524,165.123 332.703,162.711 332.879,160.184 333.058,157.275 333.224,154.825 333.378,152.872 333.551,150.627 333.669,149.887 333.841,149.498 333.945,149.147 334.021,148.962 334.2,148.777 334.369,151.182 334.547,151.182 334.724,142.506 334.902,130.091 335.079,128.796 335.256,139.193 335.434,155.61 335.609,172.78 335.784,179.288 335.961,195.73 336.138,203.788 336.306,213.033 336.476,216.038 336.653,217.761 336.82,218.144 336.984,216.23 337.124,214.124 337.227,212.191 337.405,209.128 337.529,206.468 337.7,203.022 337.879,199.692 338.022,197.165 338.122,195.558 338.301,192.858 338.463,190.217 338.586,188.207 338.652,186.944 338.831,183.116 339.009,178.713 339.188,173.736 339.364,169.315 339.513,165.295 339.669,161.487 339.845,157.811 340.018,154.557 340.135,152.529 340.264,150.627 340.334,149.536 340.46,147.482 340.638,145.447 340.651,145.28 340.83,143.597 340.905,142.672 341.027,141.192 341.192,139.712 341.251,138.972 341.429,137.417 341.602,136.197 341.781,134.902 341.959,135.272 342.138,135.641 342.305,135.826 342.477,135.272 342.647,133.902 342.813,132.496 342.989,133.421 343.153,137.121 343.329,140.988 343.493,144.522 343.664,148.592 343.81,152.299 343.973,156.299 344.13,157.275 344.306,158.041 344.456,158.615 344.635,159.955 344.814,161.487 344.992,161.869 345.171,160.912 345.35,159.879 345.528,158.405 345.707,157.888 345.885,157.275 346.064,156.969 346.243,156.854 346.421,156.912 346.6,157.237 346.771,157.85 346.91,158.233 346.996,158.233 347.167,158.424 347.345,158.041 347.524,156.893 347.703,157.275 347.826,160.912 347.97,167.879 348.143,176.608 348.318,189.432 348.48,202.64 348.658,207.234 348.832,214.316 349.01,222.317 349.177,237.094 349.348,242.262 349.514,244.118 349.692,250.875 349.87,256.618 350.048,254.895 350.215,263.126 350.388,260.637 350.567,255.852 350.745,249.344 350.924,240.348 351.102,230.241 351.274,220.996 351.448,213.186 351.607,206.64 351.784,199.558 351.962,192.476 352.132,187.269 352.31,182.158 352.485,177.354 352.663,172.014 352.835,166.654 353.009,161.295 353.184,155.323 353.358,149.887 353.52,146.131 353.683,143.967 353.832,143.597 353.971,143.227 354.143,143.412 354.321,143.967 354.5,144.522 354.67,145.225 354.824,145.28 354.937,145.632 355.074,146.002 355.222,146.557 355.377,147.297 355.555,148.222 355.731,149.184 355.759,149.369 355.916,150.627 356.094,152.299 356.273,156.491 356.452,163.898 356.626,174.119 356.804,184.456 356.979,192.131 357.131,197.472 357.252,202.104 357.431,207.042 357.61,206.755 357.78,204.19 357.944,199.194 358.121,192.686 358.297,187.135 358.476,181.776 358.653,176.608 358.83,172.148 358.992,168.76 359.158,166.272 359.299,164.108 359.463,161.678 359.619,157.466 359.785,154.212 359.939,150.608 360.084,148.111 360.252,146.187 360.381,145.077 360.528,144.152 360.614,144.152 360.751,143.597 360.929,142.487 361.091,141.007 361.269,139.341 361.448,138.046 361.627,137.492 361.805,137.307 361.984,137.492 362.163,137.307 362.341,137.307 362.52,137.307 362.699,137.677 362.877,139.712 363.056,142.857 363.234,145.262 363.413,147.501 363.592,150.35 363.77,153.065 363.949,155.285 364.128,156.701 364.306,156.701 364.485,158.998 364.664,160.338 364.831,162.443 365.006,166.654 365.179,171.038 365.351,176.225 365.528,179.077 365.707,179.536 365.883,176.799 365.893,176.608 366.072,172.396 366.25,168.76 366.429,167.382 366.608,167.611 366.779,169.142 366.947,172.396 367.124,175.843 367.296,177.182 367.475,178.541 367.653,180.053 367.832,180.895 368.01,181.584 368.189,184.111 368.354,186.561 368.532,189.05 368.682,190.791 368.855,192.686 368.872,192.878 369.051,192.878 369.161,191.844 369.34,189.222 369.518,188.666 369.697,188.666 369.876,188.8 370.054,188.398 370.233,185.528 370.409,179.862 370.578,174.503 370.755,167.669 370.925,159.189 371.101,149.887 371.27,141.746 371.439,136.382 371.535,134.346 371.714,132.867 371.892,132.311 372.069,132.682 372.248,131.941 372.426,131.016 372.603,129.167 372.768,126.947 372.941,124.285 372.964,124.095 373.143,120.673 373.315,114.777 373.489,106.791 373.66,97.4725 373.808,94.43 373.857,94.43 374.036,98.1952 374.214,101.466 374.392,113.598 374.571,125.236 374.739,129.721 374.792,130.462 374.971,132.682 375.149,135.457 375.328,140.211 375.507,147.112 375.572,148.592 375.751,149.979 375.929,149.517 376.103,147.852 376.281,149.036 376.431,149.702 376.595,150.553 376.773,151.552 376.886,152.49 377.065,156.012 377.236,167.669 377.413,185.087 377.59,197.28 377.764,205.109 377.937,209.875 378.024,211.253 378.203,208.956 378.376,200.726 378.552,191.346 378.731,184.456 378.907,179.67 379.081,174.311 379.243,168.799 379.42,164.071 379.57,160.72 379.685,158.003 379.826,154.825 379.969,152.872 380.148,150.072 380.266,148.777 380.417,147.667 380.595,146.927 380.774,145.632 380.953,142.672 381.131,142.487 381.31,142.487 381.488,140.082 381.667,138.231 381.842,147.907 382.02,157.85 382.185,162.194 382.23,162.827 382.4,161.487 382.578,150.701 382.756,138.787 382.934,124.97 383.11,110.403 383.28,106.22 383.351,108.312 383.53,119.132 383.708,129.352 383.886,144.744 384.063,159.457 384.241,171.115 384.413,179.862 384.591,183.881 384.749,184.264 384.927,179.288 385.104,171.937 385.279,163.974 385.452,156.701 385.628,150.812 385.799,145.077 385.974,140.822 386.079,140.915 386.257,142.672 386.436,144.411 386.611,151.552 386.79,159.573 386.957,163.86 387.049,163.974 387.228,162.827 387.402,157.084 387.575,148.278 387.753,141.192 387.929,136.936 388.096,136.382 388.112,136.197 388.291,139.767 388.469,152.242 388.641,158.022 388.814,162.252 388.988,170.196 389.166,177.182 389.33,181.967 389.508,185.528 389.52,185.604 389.698,185.796 389.871,182.35 390.049,172.128 390.222,162.023 390.394,151.885 390.569,140.655 390.742,129.61 390.898,125.888 390.957,125.617 391.136,125.236 391.315,123.715 391.493,122.194 391.67,120.673 391.848,127.131 392.024,147.26 392.201,161.104 392.336,168.147 392.512,171.057 392.689,158.405 392.864,146.835 393.039,139.527 393.213,132.496 393.38,126.762 393.558,120.958 393.692,117.63 393.871,121.814 394.047,134.365 394.224,152.681 394.402,163.209 394.506,165.888 394.681,164.357 394.859,148.851 395.032,139.989 395.204,132.682 395.378,125.179 395.555,115.709 395.732,109.073 395.798,106.886 395.976,108.882 396.155,119.95 396.332,125.617 396.433,126.004 396.611,122.783 396.782,117.82 396.942,114.397 397.048,112.686 397.227,119.132 397.403,136.567 397.58,159.151 397.758,180.895 397.936,196.093 398.108,205.894 398.129,206.659 398.307,209.913 398.483,205.836 398.66,198.735 398.836,188.858 399.007,180.857 399.173,174.387 399.336,168.186 399.513,162.634 399.687,158.213 399.865,154.787 400.044,151.367 400.223,148.037 400.401,144.078 400.549,141.562 400.659,141.192 400.837,141.746 401.016,138.694 401.118,136.567 401.212,134.716 401.375,131.757 401.541,130.831 401.72,125.617 401.769,124.476 401.948,122.954 402.127,121.814 402.305,120.673 402.464,119.532 402.642,121.243 402.821,128.611 402.993,134.716 403.098,136.382 403.276,136.936 403.452,128.241 403.617,123.335 403.753,122.003 403.932,122.346 404.11,129.352 404.288,144.152 404.464,152.49 404.639,158.041 404.815,162.252 404.858,162.673 405.037,163.094 405.215,165.123 405.394,164.166 405.568,158.041 405.745,154.021 405.924,153.447 406.102,153.639 406.263,153.256 406.43,152.107 406.596,151.589 406.775,152.299 406.949,153.065 407.128,156.701 407.307,159.017 407.485,160.415 407.664,161.869 407.843,163.974 408.021,166.176 408.2,168.186 408.379,169.526 408.557,170.445 408.736,170.981 408.915,171.057 409.093,167.995 409.272,163.401 409.432,159.859 409.61,155.935 409.659,155.361 409.837,155.744 410.016,156.95 410.195,159.037 410.373,160.912 410.552,162.693 410.731,165.123 410.909,167.037 411.088,168.568 411.267,169.909 411.445,172.014 411.624,174.694 411.803,178.293 411.949,181.393 412.099,184.264 412.278,186.752 412.397,187.71 412.575,188.686 412.754,189.088 412.933,189.413 413.111,189.241 413.288,188.705 413.46,186.772 413.633,182.733 413.804,179.097 413.976,176.052 414.154,176.034 414.181,176.034 414.36,176.761 414.493,176.952 414.661,176.225 414.826,174.885 414.974,174.426 415.12,173.354 415.287,170.674 415.463,167.803 415.623,166.463 415.792,165.984 415.97,165.123 416.128,163.974 416.281,162.902 416.441,162.06 416.605,161.295 416.78,160.912 416.957,160.912 417.134,160.72 417.281,160.223 417.419,160.147 417.482,160.147 417.615,160.147 417.794,160.529 417.972,161.678 417.978,161.678 418.157,162.634 418.326,163.018 418.482,163.247 418.661,163.401 418.809,163.209 418.948,163.209 419.127,163.228 419.293,163.209 419.457,162.443 419.621,161.869 419.782,161.295 419.954,161.295 420.118,161.295 420.296,161.487 420.442,161.869 420.584,161.965 420.73,162.252 420.882,162.443 421.038,162.827 421.209,163.19 421.372,163.209 421.539,163.592 421.667,163.592 421.799,163.706 421.93,164.108 422.057,164.491 422.189,164.741 422.313,165.219 422.449,165.582 422.585,165.888 422.725,166.081 422.86,166.272 422.977,166.463 423.125,166.846 423.261,167.228 423.438,167.611 423.583,167.841 423.754,167.995 423.906,168.186 424.078,168.243 424.239,168.071 424.394,167.803 424.569,167.228 424.742,166.654 424.897,167.114 425.055,169.909 425.217,170.674 425.389,169.335 425.551,168.568 425.71,167.937 425.87,167.228 426.027,167.037 426.185,168.568 426.364,171.669 426.532,173.373 426.698,174.33 426.87,174.885 427.032,174.885 427.211,174.751 427.387,174.828 427.554,174.885 427.727,175.459 427.898,176.972 428.071,177.948 428.245,178.579 428.418,179.862 428.596,181.106 428.764,181.967 428.942,182.924 429.09,184.264 429.251,185.987 429.424,186.944 429.576,187.135 429.72,187.671 429.897,188.666 430.072,188.284 430.239,188.246 430.402,187.518 430.573,186.159 430.74,185.03 430.916,183.613 431.082,182.178 431.237,181.393 431.397,181.068 431.542,181.011 431.695,180.819 431.861,180.436 432.039,180.244 432.186,180.627 432.332,181.393 432.503,182.35 432.68,182.733 432.85,182.924 433.02,183.307 433.184,183.498 433.358,184.456 433.531,185.355 433.698,185.987 433.863,186.37 434.031,186.389 434.21,183.786 434.386,181.393 434.562,180.493 434.741,180.819 434.91,181.202 435.079,180.934 435.253,181.011 435.431,181.967 435.6,182.924 435.779,183.498 435.946,181.011 436.107,179.364 436.262,177.757 436.409,177.373 436.581,177.373 436.753,177.469 436.891,177.757 437.057,178.713 437.16,178.695 437.304,180.819 437.466,182.714 437.634,183.881 437.785,185.068 437.963,186.37 437.968,186.37 438.147,186.178 438.325,188.858 438.504,188.666 438.683,187.135 438.861,185.01 439.04,182.867 439.219,178.139 439.397,176.99 439.576,177.221 439.755,175.076 439.933,174.119 440.112,175.268 440.291,173.66 440.469,173.602 440.648,175.076 440.826,176.397 441.005,177.182 441.184,177.565 441.362,175.918 441.541,175.843 441.72,173.258 441.898,171.42 442.077,170.482 442.256,170.674 442.434,169.238 442.613,171.057 442.792,168.568 442.97,169.142 443.149,169.526 443.328,169.335 443.391,169.353 443.539,169.335 443.71,169.487 443.875,170.291 444.052,170.731 444.105,170.865 444.284,170.33 444.462,169.526 444.641,169.985 444.82,172.014 444.998,172.78 445.177,173.029 445.199,173.009 445.378,171.631 445.557,170.75 445.735,169.736 445.914,168.951 446.093,168.377 446.271,164.893 446.45,166.463 446.629,165.506 446.807,164.741 446.986,163.974 447.164,163.783 447.202,163.803 447.381,162.827 447.43,162.827 447.609,162.348 447.76,161.869 447.811,161.869 447.99,161.678 448.168,162.06 448.347,162.827 448.526,163.401 448.704,164.741 448.883,162.634 449.062,160.147 449.24,159.955 449.419,157.754 449.597,158.806 449.776,158.424 449.955,158.041 450.133,158.233 450.312,157.658 450.491,156.988 450.669,157.466 450.848,159.075 451.027,165.506 451.205,175.843 451.33,185.47 451.48,195.424 451.652,207.234 451.758,212.478 451.878,217.359 451.984,223.638 452.119,229.246 452.298,234.605 452.476,238.625 452.655,243.219 452.834,248.502 453.012,251.641 453.191,255.469 453.37,261.212 453.548,266.456 453.727,268.102 453.906,270.583 454.084,272.682 454.263,273.941 454.415,274.78 454.582,273.063 454.755,270.774 454.93,266.571 455.087,265.231 455.263,264.657 455.401,265.04 455.569,267.336 455.732,266.896 455.858,268.294 456.021,269.82 456.176,270.011 456.353,271.156 456.494,271.346 456.652,271.156 456.803,271.919 456.977,274.207 457.122,276.116 457.281,278.214 457.395,278.977 457.508,280.79 457.636,284.701 457.815,289.28 457.821,289.471 458,296.339 458.178,301.776 458.357,304.733 458.536,308.358 458.714,309.617 458.893,310.838 459.072,306.164 459.25,292.638 459.429,281.076 459.608,272.529 459.786,264.466 459.965,255.526 460.144,247.047 460.306,237.036 460.485,226.374 460.651,215.445 460.826,204.362 460.924,197.663 461.076,191.25 461.247,188.475 461.423,190.906 461.589,198.237 461.759,206.468 461.906,209.186 462.028,211.56 462.178,218.91 462.353,229.035 462.459,233.074 462.638,239.39 462.658,239.774 462.836,246.282 463.01,250.301 463.188,252.981 463.272,254.129 463.45,256.235 463.629,259.297 463.808,261.977 463.986,264.274 464.111,265.614 464.289,268.294 464.461,269.82 464.475,269.629 464.654,268.102 464.791,269.057 464.931,271.422 465.109,275.162 465.275,277.26 465.453,281.267 465.609,281.877 465.788,282.602 465.967,280.885 466.145,276.116 466.31,274.017 466.488,272.682 466.653,271.346 466.822,270.583 467.001,270.583 467.158,270.964 467.335,270.583 467.502,270.011 467.677,270.583 467.846,271.537 467.996,272.624 468.165,273.445 468.329,274.971 468.464,277.07 468.622,278.595 468.798,282.03 468.976,288.65 469.155,294.049 469.334,299.391 469.512,304.542 469.691,309.56 469.87,311.601 470.048,313.509 470.227,315.989 470.406,320.949 470.584,323.239 470.763,325.147 470.942,324.384 471.12,326.482 471.299,328.009 471.478,327.627 471.656,330.107 471.835,330.107 472.013,329.344 472.192,331.442 472.371,331.633 472.549,332.778 472.728,334.877 472.907,334.877 473.085,335.83 473.264,336.785 473.443,336.593 473.621,337.357 473.8,337.738 473.979,340.028 474.157,341.173 474.336,341.173 474.515,340.791 474.693,341.173 474.872,343.08 475.05,342.126 475.229,342.889 475.408,343.881 475.586,343.843 475.765,344.797 475.944,345.751 476.122,346.068 476.301,346.385 476.48,346.385 476.658,346.765 476.837,348.286 477.016,348.603 477.194,348.603 477.373,348.92 477.552,349.87 477.73,350.98 477.909,352.089 478.088,352.089 478.266,352.406 478.445,354.941 478.623,355.574 478.802,355.258 478.981,356.525 479.16,358.11 479.338,358.743 479.517,360.01 479.695,361.278 479.874,361.278 480.053,362.862 480.231,363.179 480.41,363.496 480.589,363.813 480.767,363.496 480.946,363.496 481.125,363.496 481.303,363.496 481.482,363.496 481.661,363.496 481.839,363.813 482.018,363.813 482.197,363.845 482.375,364.446 482.554,364.003 482.733,364.13 482.911,364.13 483.09,364.13 483.269,364.13 483.447,364.13 483.626,364.446 483.805,364.446 483.983,364.446 484.162,364.446 484.341,364.446 484.519,364.446 484.698,364.446 484.877,364.446 485.055,364.446 485.234,364.446 485.413,364.446 485.591,364.446 485.77,364.446 485.949,364.446 486.127,364.7 486.306,365.049 486.485,365.714 486.663,365.714 486.842,365.714 487.02,365.714 487.199,365.714 487.378,365.714 487.556,365.714 487.735,365.714 487.914,365.714 488.092,365.714 488.271,365.714 488.45,365.714 488.628,365.714 488.807,365.714 488.986,365.714 489.164,365.714 489.343,365.714 489.522,365.714 489.7,365.714 489.879,365.714 490.057,365.714 490.236,365.714 490.415,365.778 490.593,365.714 490.772,365.714 490.951,365.714 491.129,365.714 491.308,365.714 491.487,365.714 491.665,365.714 491.844,365.714 492.023,365.714 492.201,365.714 492.38,365.714 492.559,365.714 492.737,365.714 492.916,365.714 493.095,365.714 493.273,365.714 493.452,365.714 493.631,365.778 493.809,365.714 493.988,365.714 494.167,365.714 494.345,365.714 494.524,365.714 494.703,365.714 494.881,365.714 495.06,365.714 495.239,365.714 495.417,365.714 495.596,365.714 495.775,365.714 495.953,365.714 496.132,365.714"/>
  </g>
 </g>
</svg>
