<?xml version='1.0' encoding='UTF-8' standalone='no'?>
<svg xmlns:xlink="http://www.w3.org/1999/xlink" viewBox="0 0 576 432" width="576pt" height="432pt" xmlns="http://www.w3.org/2000/svg">
 <title>gl2ps_renderer figure</title>
 <desc>
Creator: GL2PS 1.4.0, (C) 1999-2017 C. Geuzaine
For: Octave
CreationDate: Sun Jul 04 23:44:50 2021
</desc>
 <defs/>
 <polygon fill="#ffffff" points="0,0 576,0 576,432 0,432"/>
 <g>
  <polygon fill="#ffffff" shape-rendering="crispEdges" points="0,432 576,432 576,0 0,0"/>
  <clipPath id="cp00576432">
   <polygon points="0,432 576,432 576,0 0,0"/>
  </clipPath>
  <g clip-path="url(#cp00576432)">
   <polygon fill="#ffffff" shape-rendering="crispEdges" points="74.88,384.48 521.28,384.48 521.28,32.4 74.88,32.4"/>
   <polyline stroke-opacity="0.15" stroke="#262626" stroke-linejoin="miter" stroke-dasharray="16,0" fill="none" stroke-linecap="butt" points="74.88,384.48 74.88,32.4" stroke-width="0.5"/>
   <polyline stroke-opacity="0.15" stroke="#262626" stroke-linejoin="miter" stroke-dasharray="16,0" fill="none" stroke-linecap="butt" points="164.16,384.48 164.16,32.4" stroke-width="0.5"/>
   <polyline stroke-opacity="0.15" stroke="#262626" stroke-linejoin="miter" stroke-dasharray="16,0" fill="none" stroke-linecap="butt" points="253.44,384.48 253.44,32.4" stroke-width="0.5"/>
   <polyline stroke-opacity="0.15" stroke="#262626" stroke-linejoin="miter" stroke-dasharray="16,0" fill="none" stroke-linecap="butt" points="342.72,384.48 342.72,32.4" stroke-width="0.5"/>
   <polyline stroke-opacity="0.15" stroke="#262626" stroke-linejoin="miter" stroke-dasharray="16,0" fill="none" stroke-linecap="butt" points="432,384.48 432,32.4" stroke-width="0.5"/>
   <polyline stroke-opacity="0.15" stroke="#262626" stroke-linejoin="miter" stroke-dasharray="16,0" fill="none" stroke-linecap="butt" points="521.28,384.48 521.28,32.4" stroke-width="0.5"/>
   <polyline stroke="#262626" stroke-linejoin="miter" fill="none" stroke-linecap="butt" points="74.88,384.48 74.88,380.015" stroke-width="0.5"/>
   <polyline stroke="#262626" stroke-linejoin="miter" fill="none" stroke-linecap="butt" points="74.88,32.4 74.88,36.865" stroke-width="0.5"/>
   <polyline stroke="#262626" stroke-linejoin="miter" fill="none" stroke-linecap="butt" points="164.16,384.48 164.16,380.015" stroke-width="0.5"/>
   <polyline stroke="#262626" stroke-linejoin="miter" fill="none" stroke-linecap="butt" points="164.16,32.4 164.16,36.865" stroke-width="0.5"/>
   <polyline stroke="#262626" stroke-linejoin="miter" fill="none" stroke-linecap="butt" points="253.44,384.48 253.44,380.015" stroke-width="0.5"/>
   <polyline stroke="#262626" stroke-linejoin="miter" fill="none" stroke-linecap="butt" points="253.44,32.4 253.44,36.865" stroke-width="0.5"/>
   <polyline stroke="#262626" stroke-linejoin="miter" fill="none" stroke-linecap="butt" points="342.72,384.48 342.72,380.015" stroke-width="0.5"/>
   <polyline stroke="#262626" stroke-linejoin="miter" fill="none" stroke-linecap="butt" points="342.72,32.4 342.72,36.865" stroke-width="0.5"/>
   <polyline stroke="#262626" stroke-linejoin="miter" fill="none" stroke-linecap="butt" points="432,384.48 432,380.015" stroke-width="0.5"/>
   <polyline stroke="#262626" stroke-linejoin="miter" fill="none" stroke-linecap="butt" points="432,32.4 432,36.865" stroke-width="0.5"/>
   <polyline stroke="#262626" stroke-linejoin="miter" fill="none" stroke-linecap="butt" points="521.28,384.48 521.28,380.015" stroke-width="0.5"/>
   <polyline stroke="#262626" stroke-linejoin="miter" fill="none" stroke-linecap="butt" points="521.28,32.4 521.28,36.865" stroke-width="0.5"/>
   <text font-style="normal" transform="translate(71.88,399.982) rotate(-0,3,-8)" font-size="10" font-family="FreeSans" xml:space="preserve" font-weight="normal">
    <tspan y="-0" fill="rgb(38,38,38)" x="0 ">0</tspan>
   </text>
   <text font-style="normal" transform="translate(152.16,399.982) rotate(-0,12,-8)" font-size="10" font-family="FreeSans" xml:space="preserve" font-weight="normal">
    <tspan y="-0" fill="rgb(38,38,38)" x="0 6 12 18 ">1000</tspan>
   </text>
   <text font-style="normal" transform="translate(241.44,399.982) rotate(-0,12,-8)" font-size="10" font-family="FreeSans" xml:space="preserve" font-weight="normal">
    <tspan y="-0" fill="rgb(38,38,38)" x="0 6 12 18 ">2000</tspan>
   </text>
   <text font-style="normal" transform="translate(330.72,399.982) rotate(-0,12,-8)" font-size="10" font-family="FreeSans" xml:space="preserve" font-weight="normal">
    <tspan y="-0" fill="rgb(38,38,38)" x="0 6 12 18 ">3000</tspan>
   </text>
   <text font-style="normal" transform="translate(420,399.982) rotate(-0,12,-8)" font-size="10" font-family="FreeSans" xml:space="preserve" font-weight="normal">
    <tspan y="-0" fill="rgb(38,38,38)" x="0 6 12 18 ">4000</tspan>
   </text>
   <text font-style="normal" transform="translate(509.28,399.982) rotate(-0,12,-8)" font-size="10" font-family="FreeSans" xml:space="preserve" font-weight="normal">
    <tspan y="-0" fill="rgb(38,38,38)" x="0 6 12 18 ">5000</tspan>
   </text>
   <polyline stroke-opacity="0.15" stroke="#262626" stroke-linejoin="miter" stroke-dasharray="16,0" fill="none" stroke-linecap="butt" points="74.88,384.48 521.28,384.48" stroke-width="0.5"/>
   <polyline stroke-opacity="0.15" stroke="#262626" stroke-linejoin="miter" stroke-dasharray="16,0" fill="none" stroke-linecap="butt" points="74.88,314.064 521.28,314.064" stroke-width="0.5"/>
   <polyline stroke-opacity="0.15" stroke="#262626" stroke-linejoin="miter" stroke-dasharray="16,0" fill="none" stroke-linecap="butt" points="74.88,243.648 521.28,243.648" stroke-width="0.5"/>
   <polyline stroke-opacity="0.15" stroke="#262626" stroke-linejoin="miter" stroke-dasharray="16,0" fill="none" stroke-linecap="butt" points="74.88,173.232 521.28,173.232" stroke-width="0.5"/>
   <polyline stroke-opacity="0.15" stroke="#262626" stroke-linejoin="miter" stroke-dasharray="16,0" fill="none" stroke-linecap="butt" points="74.88,102.816 521.28,102.816" stroke-width="0.5"/>
   <polyline stroke-opacity="0.15" stroke="#262626" stroke-linejoin="miter" stroke-dasharray="16,0" fill="none" stroke-linecap="butt" points="74.88,32.4 521.28,32.4" stroke-width="0.5"/>
   <polyline stroke="#262626" stroke-linejoin="miter" fill="none" stroke-linecap="butt" points="74.88,384.48 79.348,384.48" stroke-width="0.5"/>
   <polyline stroke="#262626" stroke-linejoin="miter" fill="none" stroke-linecap="butt" points="521.28,384.48 516.812,384.48" stroke-width="0.5"/>
   <polyline stroke="#262626" stroke-linejoin="miter" fill="none" stroke-linecap="butt" points="74.88,314.064 79.348,314.064" stroke-width="0.5"/>
   <polyline stroke="#262626" stroke-linejoin="miter" fill="none" stroke-linecap="butt" points="521.28,314.064 516.812,314.064" stroke-width="0.5"/>
   <polyline stroke="#262626" stroke-linejoin="miter" fill="none" stroke-linecap="butt" points="74.88,243.648 79.348,243.648" stroke-width="0.5"/>
   <polyline stroke="#262626" stroke-linejoin="miter" fill="none" stroke-linecap="butt" points="521.28,243.648 516.812,243.648" stroke-width="0.5"/>
   <polyline stroke="#262626" stroke-linejoin="miter" fill="none" stroke-linecap="butt" points="74.88,173.232 79.348,173.232" stroke-width="0.5"/>
   <polyline stroke="#262626" stroke-linejoin="miter" fill="none" stroke-linecap="butt" points="521.28,173.232 516.812,173.232" stroke-width="0.5"/>
   <polyline stroke="#262626" stroke-linejoin="miter" fill="none" stroke-linecap="butt" points="74.88,102.816 79.348,102.816" stroke-width="0.5"/>
   <polyline stroke="#262626" stroke-linejoin="miter" fill="none" stroke-linecap="butt" points="521.28,102.816 516.812,102.816" stroke-width="0.5"/>
   <polyline stroke="#262626" stroke-linejoin="miter" fill="none" stroke-linecap="butt" points="74.88,32.4 79.348,32.4" stroke-width="0.5"/>
   <polyline stroke="#262626" stroke-linejoin="miter" fill="none" stroke-linecap="butt" points="521.28,32.4 516.812,32.4" stroke-width="0.5"/>
   <text font-style="normal" transform="translate(51.8755,388.48) rotate(-0,18,-4)" font-size="10" font-family="FreeSans" xml:space="preserve" font-weight="normal">
    <tspan y="-0" fill="rgb(38,38,38)" x="0 6 12 ">200</tspan>
   </text>
   <text font-style="normal" transform="translate(51.8755,318.064) rotate(-0,18,-4)" font-size="10" font-family="FreeSans" xml:space="preserve" font-weight="normal">
    <tspan y="-0" fill="rgb(38,38,38)" x="0 6 12 ">400</tspan>
   </text>
   <text font-style="normal" transform="translate(51.8755,247.648) rotate(-0,18,-4)" font-size="10" font-family="FreeSans" xml:space="preserve" font-weight="normal">
    <tspan y="-0" fill="rgb(38,38,38)" x="0 6 12 ">600</tspan>
   </text>
   <text font-style="normal" transform="translate(51.8755,177.232) rotate(-0,18,-4)" font-size="10" font-family="FreeSans" xml:space="preserve" font-weight="normal">
    <tspan y="-0" fill="rgb(38,38,38)" x="0 6 12 ">800</tspan>
   </text>
   <text font-style="normal" transform="translate(45.8755,106.816) rotate(-0,24,-4)" font-size="10" font-family="FreeSans" xml:space="preserve" font-weight="normal">
    <tspan y="-0" fill="rgb(38,38,38)" x="0 6 12 18 ">1000</tspan>
   </text>
   <text font-style="normal" transform="translate(45.8755,36.4) rotate(-0,24,-4)" font-size="10" font-family="FreeSans" xml:space="preserve" font-weight="normal">
    <tspan y="-0" fill="rgb(38,38,38)" x="0 6 12 18 ">1200</tspan>
   </text>
   <polyline stroke="#262626" stroke-linejoin="miter" stroke-dasharray="16,0" fill="none" stroke-linecap="square" points="74.88,384.48 521.28,384.48" stroke-width="0.5"/>
   <polyline stroke="#262626" stroke-linejoin="miter" stroke-dasharray="16,0" fill="none" stroke-linecap="square" points="74.88,32.4 521.28,32.4" stroke-width="0.5"/>
   <polyline stroke="#262626" stroke-linejoin="miter" stroke-dasharray="16,0" fill="none" stroke-linecap="square" points="74.88,384.48 74.88,32.4" stroke-width="0.5"/>
   <polyline stroke="#262626" stroke-linejoin="miter" stroke-dasharray="16,0" fill="none" stroke-linecap="square" points="521.28,384.48 521.28,32.4" stroke-width="0.5"/>
   <text font-style="normal" transform="translate(273.08,416.982) rotate(-0,25,-12)" font-size="11" font-family="FreeSans" xml:space="preserve" font-weight="normal">
    <tspan y="-3" fill="rgb(38,38,38)" x="0 7 13 22 28 34 37 41 46 ">Tempo (s)</tspan>
   </text>
   <text font-style="normal" transform="translate(-31.1245,208.44) rotate(-90,72,0)" font-size="11" font-family="FreeSans" xml:space="preserve" font-weight="normal">
    <tspan y="-3" fill="rgb(38,38,38)" x="0 7 12 18 24 30 35 38 41 49 55 60 63 70 76 85 91 97 101 107 110 116 120 126 129 133 140 ">Exhaust Gas Temperature (K)</tspan>
   </text>
   <polyline stroke="#0071bc" stroke-linejoin="round" fill="none" stroke-linecap="butt" points="128.984,213.42 129.162,213.712 129.341,186.958 129.52,168.653 129.698,168.943 129.877,162.316 130.056,106.323 130.234,120.389 130.413,120.829 130.592,121.565 130.77,121.682 130.949,122.256 131.127,122.544 131.306,122.687 131.485,122.131 131.663,122.292 131.842,122.077 132.021,121.879 132.199,121.574 132.378,121.807 132.557,121.673 132.735,121.511 132.914,120.91 133.07,121.736 133.24,121.709 133.402,121.583 133.581,122.283 133.727,122.382 133.906,122.346 134.085,121.781 134.263,160.798 134.442,115.955 134.621,120.623 134.799,121.305 134.978,121.565 135.157,121.664 135.335,121.843 135.514,121.745 135.693,146.971 135.871,166.018 136.05,177.268 136.229,194.455 136.407,191.768 136.586,193.218 136.765,193.568 136.943,194.233 137.122,198.157 137.301,198.49 137.479,192.127 137.658,189.269 137.837,189.636 137.977,189.482 138.135,189.679 138.286,189.721 138.446,190.318 138.605,190.139 138.781,177.763 138.955,181.678 139.097,181.789 139.244,182.002 139.378,180.108 139.51,180.057 139.687,180.586 139.864,180.697 140.011,180.748 140.173,181.243 140.32,180.765 140.497,178.744 140.648,178.3 140.824,179.111 141.002,179.682 141.159,179.213 141.318,179.059 141.494,179.657 141.641,179.46 141.793,179.494 141.929,180.842 142.093,180.322 142.196,180.774 142.373,178.727 142.536,175.519 142.697,174.701 142.869,175.647 143.027,176.125 143.185,175.895 143.362,171.997 143.536,169.634 143.71,169.523 143.885,169.43 144.059,170.615 144.23,170.197 144.403,170.283 144.569,126.52 144.747,144.267 144.926,142.962 145.101,142.817 145.276,142.689 145.433,142.033 145.592,142.391 145.771,142.195 145.92,142.101 146.098,142.024 146.275,142.033 146.438,142.288 146.601,142.152 146.766,141.896 146.945,142.792 147.111,142.689 147.28,146.63 147.452,148.327 147.624,148.438 147.794,148.336 147.972,148.908 148.138,149.112 148.312,149.189 148.491,149.846 148.656,149.692 148.818,149.812 148.992,150.084 149.153,150.801 149.331,145.496 149.504,145.905 149.659,144.762 149.83,144.72 149.982,145.027 150.152,144.805 150.316,144.489 150.477,144.967 150.636,144.762 150.815,145.001 150.974,145.368 151.143,144.651 151.3,153.061 151.448,151.083 151.603,153.3 151.781,153.394 151.958,153.829 152.135,153.513 152.295,153.948 152.455,154.127 152.632,154.401 152.807,154.221 152.965,153.94 153.125,154.665 153.284,154.025 153.461,154.622 153.607,154.887 153.765,155.245 153.934,155.433 154.093,155.1 154.252,155.074 154.396,155.799 154.567,155.416 154.741,156.448 154.837,156.106 154.929,144.097 155.059,150.11 155.218,147.423 155.355,148.43 155.504,147.748 155.672,147.637 155.834,131.951 155.979,133.917 156.144,123.701 156.3,124.348 156.47,123.809 156.625,123.54 156.797,123.737 156.961,124.07 157.137,125.093 157.297,123.621 157.469,124.716 157.646,123.809 157.807,123.962 157.971,123.971 158.133,160.636 158.312,155.083 158.482,155.859 158.639,156.72 158.803,156.994 158.939,157.454 159.109,157.795 159.268,160.542 159.396,160.627 159.536,162.273 159.704,163.621 159.797,163.715 159.922,173.677 160.068,209.998 160.246,195.189 160.425,196.468 160.604,197.415 160.782,197.978 160.961,198.439 161.064,198.856 161.243,199.308 161.421,199.411 161.6,199.812 161.779,202.19 161.957,201.958 162.136,202.835 162.314,203.093 162.493,203.17 162.672,203.583 162.85,203.29 163.029,204.916 163.053,205.148 163.231,155.322 163.41,160.286 163.513,163.356 163.692,151.97 163.703,151.867 163.881,151.594 164.06,142.024 164.239,110.829 164.417,123.531 164.596,123.468 164.775,123.315 164.919,123.558 165.05,123.145 165.228,123.45 165.377,123.962 165.556,144.267 165.734,126.08 165.913,127.22 166.092,133.423 166.27,136.816 166.449,141.308 166.628,141.444 166.806,236.68 166.985,220.566 167.164,222.526 167.342,224.186 167.521,225.39 167.7,226.662 167.878,227.617 168.053,228.571 168.23,178.283 168.393,127.983 168.562,126.143 168.739,124.922 168.916,123.809 169.089,123.711 169.268,123.693 169.434,123.603 169.611,123.621 169.79,123.719 169.868,123.773 170.047,124.464 170.218,123.657 170.384,124.177 170.563,124.312 170.724,134.402 170.9,109.77 171.043,123.019 171.221,123.755 171.399,124.043 171.578,123.89 171.757,124.097 171.935,124.043 172.114,124.07 172.293,124.276 172.471,124.078 172.65,124.303 172.829,124.321 173.007,123.998 173.186,129.303 173.364,138.263 173.543,118.091 173.722,123.378 173.9,123.648 174.079,123.926 174.24,124.168 174.368,123.944 174.546,123.1 174.636,168.67 174.814,232.544 174.993,222.208 175.172,227.118 175.237,232.243 175.402,226.473 175.455,221.881 175.63,225.278 175.73,226 175.908,227.101 176.087,220.944 176.265,214.254 176.438,214.091 176.607,223.446 176.783,167.57 176.962,185.474 177.132,185.439 177.295,184.169 177.46,183.751 177.638,185.627 177.775,185.857 177.954,184.501 178.133,202.181 178.311,203.652 178.49,196.118 178.669,200.805 178.847,187.248 179.026,188.28 179.205,188.203 179.383,144.446 179.51,152.362 179.689,149.095 179.868,144.071 180.046,123.477 180.225,124.025 180.404,123.728 180.582,123.118 180.761,125.856 180.918,186.395 181.013,171.187 181.162,178.394 181.204,174.667 181.382,175.528 181.561,178.275 181.739,186.003 181.918,187.58 182.097,188.698 182.229,197.202 182.335,192.937 182.49,193.201 182.668,193.201 182.847,193.756 183.026,193.679 183.204,194.148 183.383,194.575 183.562,194.532 183.74,194.114 183.907,194.575 184.06,192.732 184.238,194.421 184.386,194.378 184.52,194.387 184.692,194.225 184.831,194.771 184.992,194.25 185.165,194.344 185.339,194.396 185.515,194.6 185.684,194.225 185.837,194.993 185.998,194.575 186.174,194.438 186.307,194.924 186.467,194.865 186.57,194.847 186.697,195.18 186.872,194.762 186.906,194.924 187.085,194.89 187.259,194.071 187.431,194.754 187.549,194.899 187.724,194.396 187.862,195.01 187.976,194.694 188.105,194.89 188.281,194.924 188.399,195.061 188.574,187.222 188.688,159.092 188.804,171.4 188.983,158.477 189.162,159.493 189.34,160.636 189.519,159.697 189.698,159.297 189.869,159.373 190.005,159.535 190.184,174.061 190.246,186.736 190.424,176.646 190.603,176.662 190.782,176.944 190.95,176.671 191.127,177.14 191.301,176.27 191.454,176.79 191.616,177.43 191.789,177.379 191.964,176.876 192.138,177.055 192.143,177.021 192.322,177.899 192.5,177.26 192.679,177.609 192.858,177.354 193.036,177.336 193.215,176.901 193.393,176.697 193.572,177.004 193.751,177.251 193.93,177.371 194.108,177.413 194.287,177.507 194.465,177.601 194.644,177.234 194.823,176.884 194.99,178.181 195.169,180.484 195.348,186.326 195.526,186.642 195.705,187.162 195.861,186.779 195.995,187.043 196.088,197.278 196.266,193.201 196.425,193.543 196.594,193.551 196.624,193.636 196.803,193.918 196.858,193.679 197.026,193.602 197.205,193.44 197.384,193.952 197.562,193.781 197.741,193.722 197.766,194.31 197.945,193.918 198.123,194.31 198.293,194.148 198.469,194.268 198.646,193.832 198.813,193.978 198.955,194.25 199.115,194.233 199.275,193.875 199.442,194.429 199.618,194.242 199.785,194.216 199.945,194.404 200.037,194.25 200.216,194.54 200.395,199.556 200.573,197.125 200.752,203.273 200.931,203.325 201.102,203.488 201.231,203.729 201.403,203.565 201.486,203.738 201.665,203.609 201.844,203.669 202.022,203.987 202.201,203.703 202.38,204.107 202.538,204.09 202.688,203.892 202.796,203.798 202.967,204.168 203.145,204.09 203.324,204.193 203.503,203.892 203.681,204.142 203.86,203.995 204.039,204.081 204.217,203.918 204.372,203.952 204.542,204.253 204.691,204.004 204.776,203.892 204.946,203.901 205.124,203.97 205.303,204.494 205.481,203.858 205.66,204.245 205.837,204.159 206.015,204.253 206.191,204.271 206.342,204.193 206.517,204.09 206.696,204.15 206.863,203.987 207.039,203.952 207.216,204.391 207.328,204.219 207.467,204.434 207.646,204.168 207.824,204.417 208.003,204.426 208.182,203.849 208.36,204.056 208.539,203.944 208.718,204.081 208.896,203.978 209.075,203.815 209.254,204.039 209.432,203.987 209.611,204.15 209.789,204.064 209.968,203.927 210.128,203.591 210.304,203.652 210.441,203.987 210.567,203.798 210.717,203.548 210.895,203.643 211.004,203.729 211.125,203.901 211.286,203.669 211.325,203.703 211.503,203.634 211.529,203.66 211.707,203.548 211.886,203.385 212.065,203.29 212.243,203.23 212.422,203.299 212.601,203.514 212.752,203.342 212.897,203.135 213.033,202.938 213.158,203.127 213.285,194.703 213.444,194.831 213.567,195.854 213.655,195.777 213.783,195.172 213.909,195.556 214.07,195.692 214.239,195.683 214.415,195.41 214.564,195.624 214.719,195.138 214.835,195.47 214.945,195.428 215.044,195.649 215.17,195.428 215.28,195.359 215.427,195.428 215.591,195.121 215.769,195.428 215.772,195.342 215.951,195.436 216.13,195.282 216.308,195.206 216.487,195.419 216.666,194.975 216.844,195.189 217.023,194.993 217.19,195.01 217.315,194.728 217.453,195.265 217.603,195.027 217.781,194.498 217.798,194.396 217.976,195.001 218.131,195.163 218.272,195.206 218.45,194.711 218.622,195.163 218.753,195.095 218.879,195.445 219.032,197.338 219.21,197.884 219.389,197.893 219.568,197.466 219.746,197.986 219.925,188.86 220.104,192.28 220.282,192.11 220.461,192.161 220.64,191.836 220.818,192.254 220.997,189.619 221.176,189.124 221.354,189.013 221.533,189.184 221.712,188.749 221.89,170.044 222.069,179.562 222.248,178.829 222.426,179.529 222.605,179.119 222.784,178.965 222.962,178.172 223.141,178.403 223.32,177.703 223.498,178.198 223.677,179.068 223.855,178.471 223.987,178.624 224.114,179.059 224.28,198.285 224.419,189.082 224.598,189.03 224.776,189.244 224.955,190.216 225.134,190.148 225.312,190.071 225.491,189.337 225.67,189.832 225.848,189.815 226.027,189.67 226.205,190.105 226.384,190.335 226.523,189.772 226.661,190.242 226.793,190.259 226.966,190.242 227.089,190.514 227.226,190.617 227.314,190.173 227.489,190.148 227.617,190.472 227.669,190.839 227.798,190.233 227.977,188.527 228.156,188.211 228.334,188.314 228.513,187.99 228.691,188.305 228.87,188.698 229.049,188.015 229.141,188.032 229.262,188.263 229.44,188.485 229.462,187.998 229.64,188.032 229.819,187.683 229.998,188.536 230.176,187.836 230.355,187.282 230.534,187.828 230.712,187.478 230.891,188.024 231.07,187.811 231.248,187.614 231.42,188.433 231.569,187.64 231.724,188.05 231.898,188.322 232.017,163.015 232.196,170.18 232.374,169.754 232.553,169.105 232.732,168.713 232.903,169.301 233.012,176.85 233.17,175.042 233.346,174.871 233.514,175.033 233.688,174.769 233.867,174.607 234.016,174.812 234.195,175.383 234.374,194.31 234.552,184.817 234.731,185.516 234.91,185.618 235.088,185.559 235.267,185.38 235.446,185.695 235.624,186.113 235.803,185.917 235.982,185.96 236.16,186.215 236.339,185.934 236.518,185.875 236.696,186.045 236.875,185.883 237.054,185.448 237.232,185.32 237.411,185.363 237.59,185.439 237.768,185.772 237.921,185.439 238.046,185.09 238.206,185.235 238.385,185.269 238.563,184.186 238.714,108.226 238.854,123.001 239.029,123.935 239.204,123.998 239.382,122.445 239.509,122.31 239.687,121.107 239.709,121.43 239.887,123.082 240.066,122.391 240.244,122.589 240.423,121.897 240.602,122.148 240.767,127.992 240.933,129.707 241.1,133.091 241.275,132.696 241.452,132.822 241.599,132.696 241.774,133.36 241.926,133.226 242.102,132.786 242.279,133.63 242.393,154.793 242.496,137.085 242.674,135.2 242.853,136.574 243.032,136.619 243.21,136.825 243.389,136.897 243.568,233.997 243.746,231.418 243.925,228.941 244.104,229.87 244.282,231.452 244.461,232.708 244.639,233.911 244.818,225.433 244.997,232.054 245.175,232.363 245.354,211.503 245.533,222.277 245.711,221.95 245.869,222.114 246.012,221.864 246.185,220.248 246.219,219.818 246.397,216.473 246.558,158.026 246.72,103.397 246.895,123.603 247.07,122.544 247.229,121.395 247.396,122.14 247.574,121.826 247.748,121.655 247.907,121.502 247.986,121.816 248.164,121.897 248.343,121.619 248.522,122.66 248.7,122.193 248.879,122.175 249.057,120.928 249.236,122.759 249.415,122.418 249.593,122.364 249.772,142.988 249.951,141.214 250.056,141.777 250.151,143.815 250.312,145.231 250.444,144.438 250.623,141.896 250.798,119.788 250.957,121.682 251.117,119.761 251.288,121.314 251.463,121.475 251.641,120.64 251.808,120.928 251.883,120.685 252.062,121.7 252.24,120.73 252.38,122.283 252.557,121.152 252.711,121.386 252.865,120.712 253.032,121.26 253.2,121.036 253.217,120.73 253.396,121.412 253.575,121.296 253.753,121.063 253.932,194.071 254.111,232.088 254.289,232.183 254.468,231.676 254.647,233.705 254.825,235.519 254.904,236.044 255.083,217.676 255.261,162.086 255.437,102.795 255.614,123.881 255.791,123.387 255.968,122.66 256.072,122.552 256.249,206.592 256.428,198.421 256.606,192.041 256.781,232.518 256.95,226.585 257.128,237.316 257.305,186.617 257.478,148.353 257.64,180.936 257.683,229.397 257.862,208.106 258.039,205.44 258.216,170.734 258.392,184.68 258.568,185.294 258.728,186.31 258.767,186.864 258.946,185.201 259.117,186.122 259.295,183.657 259.472,183.188 259.65,190.796 259.828,111.727 260.007,123.244 260.172,122.562 260.351,122.938 260.529,122.095 260.708,236.233 260.887,233.834 261.052,232.621 261.231,231.435 261.408,232.363 261.585,232.269 261.761,231.933 261.934,231.856 262.099,183.759 262.206,168.133 262.384,115.614 262.563,124.464 262.741,123.019 262.919,122.283 263.095,122.077 263.273,121.565 263.452,122.014 263.63,121.933 263.806,121.852 263.983,121.224 264.119,121.161 264.298,121.071 264.476,121.242 264.653,121.664 264.828,121.574 264.918,121.484 265.093,121.484 265.269,121.179 265.448,121.439 265.619,121.915 265.771,233.748 265.807,233.481 265.986,230.704 266.163,229.629 266.34,230.248 266.519,229.191 266.697,228.528 266.874,228.382 267.036,228.528 267.124,228.735 267.303,229.87 267.477,230.996 267.654,210.488 267.831,181.166 268.006,212.079 268.183,145.837 268.357,121.089 268.527,123.603 268.657,122.301 268.836,122.05 268.912,121.296 269.035,121.996 269.1,121.924 269.218,121.834 269.328,121.861 269.439,121.834 269.534,121.305 269.632,121.745 269.739,121.421 269.918,122.346 270.095,120.982 270.144,123.351 270.323,121.376 270.5,122.032 270.678,122.256 270.853,122.283 271.015,122.364 271.193,122.481 271.367,122.14 271.531,121.224 271.708,122.867 271.885,122.193 271.951,122.651 272.13,222.139 272.307,227.488 272.48,224.109 272.657,222.544 272.831,223.937 272.93,224.642 273.108,226.456 273.287,228.245 273.465,229.939 273.643,232.269 273.811,234.427 273.987,196.571 274.165,161.054 274.344,108.145 274.522,123.208 274.694,122.983 274.843,122.185 274.994,121.834 275.156,122.158 275.311,122.678 275.49,121.305 275.667,121.933 275.843,121.826 276.019,122.804 276.189,122.508 276.368,122.804 276.543,121.664 276.714,121.772 276.89,122.525 277.056,121.906 277.226,122.005 277.395,121.906 277.551,121.278 277.576,121.395 277.755,170.99 277.934,209.206 278.101,208.441 278.275,201.932 278.449,202.723 278.626,202.164 278.799,193.116 278.961,194.054 279.019,194.668 279.197,198.08 279.373,197.978 279.544,196.835 279.717,113.711 279.883,130.892 280.03,132.023 280.161,132.454 280.265,132.965 280.443,195.948 280.537,198.447 280.715,191.598 280.894,169.054 281.073,167.749 281.251,168.15 281.43,168.287 281.609,167.254 281.776,127.059 281.949,120.398 282.127,121.664 282.301,123.037 282.471,145.487 282.574,231.899 282.753,198.686 282.931,215.286 283.103,211.485 283.272,215.088 283.416,241.968 283.467,234.118 283.645,237.007 283.823,231.641 283.995,234.006 284.168,231.959 284.311,234.522 284.49,234.72 284.667,235.528 284.842,237.015 285.018,238.529 285.196,212.629 285.228,198.268 285.406,237.248 285.585,189.346 285.758,137.614 285.927,124.06 286.102,123.782 286.279,121.897 286.394,121.736 286.46,121.673 286.639,121.772 286.806,122.211 286.973,122.166 287.136,121.951 287.299,122.274 287.477,122.283 287.599,122.104 287.737,122.158 287.907,166.478 288.051,168.38 288.218,222.26 288.388,197.858 288.562,194.788 288.734,198.865 288.898,194.643 288.951,180.74 289.13,151.04 289.306,159.604 289.48,123.351 289.654,115.775 289.823,121.547 289.991,121.906 290.165,122.005 290.332,121.879 290.481,121.843 290.659,122.14 290.838,122.05 291.011,121.107 291.187,122.831 291.365,121.628 291.542,122.777 291.703,123.199 291.748,122.687 291.927,122.032 292.099,121.942 292.276,121.951 292.455,121.888 292.633,121.466 292.792,121.834 292.956,232.708 293.135,231.667 293.313,186.199 293.492,214.968 293.668,218.597 293.845,214.908 294.024,229.724 294.202,232.914 294.338,230.377 294.516,231.099 294.691,232.837 294.869,233.206 295.047,221.211 295.225,179.989 295.404,148.319 295.519,137.563 295.698,143.585 295.877,143.218 296.055,165.779 296.219,113.45 296.259,122.508 296.438,122.723 296.617,122.175 296.795,122.274 296.972,122.104 297.134,122.265 297.234,122.193 297.413,122.373 297.587,122.463 297.759,122.068 297.934,122.148 298.099,122.292 298.277,121.269 298.431,122.005 298.61,122.256 298.784,122.472 298.875,122.104 299.054,121.376 299.233,121.35 299.411,122.086 299.59,121.843 299.6,121.646 299.779,121.332 299.954,122.544 300.129,121.852 300.3,120.838 300.478,121.718 300.656,122.059 300.828,122.436 300.997,121.161 301.156,187.504 301.283,138.74 301.43,193.508 301.579,183.512 301.758,174.598 301.936,149.854 302.115,147.048 302.294,141.606 302.472,131.269 302.651,128.684 302.829,131.152 303.008,130.156 303.09,129.563 303.241,201.166 303.297,221.658 303.426,234.702 303.605,231.865 303.784,230.239 303.955,230.893 304.123,231.951 304.196,232.381 304.374,234.006 304.553,236.096 304.73,237.196 304.893,237.102 305.056,205.423 305.235,186.719 305.413,202.293 305.592,201.958 305.771,162.435 305.949,199.445 306.128,195.402 306.307,180.757 306.485,173.745 306.664,173.353 306.843,189.38 307.021,184.791 307.2,161.685 307.379,156.746 307.557,161.352 307.736,158.853 307.915,154.469 308.093,161.557 308.272,175.008 308.451,226.542 308.629,196.699 308.808,186.804 308.987,184.433 309.146,236.164 309.19,242.631 309.368,194.378 309.543,190.574 309.594,202.921 309.772,200.78 309.951,194.106 310.13,243.439 310.308,238.004 310.487,236.396 310.666,236.371 310.817,236.844 310.995,237.437 311.174,186.932 311.353,243.826 311.531,240.051 311.71,238.933 311.889,238.701 312.067,238.709 312.227,238.675 312.349,238.701 312.482,238.675 312.569,238.649 312.728,225.407 312.793,213.816 312.972,165.241 313.151,146.468 313.329,158.597 313.502,154.904 313.666,153.428 313.831,222.096 313.951,194.532 314.129,198.379 314.298,197.065 314.41,190.864 314.584,191.93 314.613,193.159 314.791,193.116 314.97,196.519 315.149,200.29 315.327,182.667 315.506,203.548 315.632,194.668 315.739,194.063 315.899,185.081 316.077,178.036 316.256,178.565 316.435,141.871 316.613,123.737 316.745,123.387 316.914,122.265 317.073,122.005 317.198,122.131 317.345,121.843 317.483,122.211 317.656,121.682 317.832,122.095 318.004,122.292 318.172,122.059 318.283,122.095 318.461,121.826 318.64,121.403 318.819,121.834 318.983,122.247 319.157,122.023 319.331,123.019 319.446,122.256 319.625,121.448 319.801,122.077 319.951,121.637 320.13,121.933 320.308,122.876 320.485,121.772 320.651,121.834 320.83,122.364 320.962,122.822 321.122,122.005 321.165,147.253 321.344,159.467 321.365,165.207 321.544,164.337 321.633,167.638 321.811,175.579 321.99,184.425 322.039,184.774 322.196,185.039 322.375,186.036 322.432,186.523 322.611,186.676 322.774,187.307 322.818,182.616 322.997,163.433 323.07,164.303 323.225,164.244 323.397,148.106 323.566,117.696 323.699,120.273 323.878,121.565 324.056,121.646 324.228,121.125 324.338,190.566 324.517,149.428 324.685,102.66 324.861,158.162 325.028,138.749 325.199,139.064 325.264,129.303 325.442,127.902 325.621,126.888 325.8,126.466 325.978,125.596 326.157,126.035 326.336,125.972 326.511,169.788 326.69,161.582 326.868,162.725 327.047,168.815 327.226,169.719 327.404,170.189 327.583,174.889 327.762,174.718 327.94,175.869 328.119,176.364 328.298,176.475 328.476,176.944 328.655,178.019 328.834,176.629 329.012,177.686 329.191,178.283 329.37,177.908 329.548,178.019 329.727,177.959 329.906,178.556 330.084,178.786 330.218,178.778 330.355,178.548 330.534,225.76 330.712,204.013 330.891,207.315 331.07,207.882 331.23,209.826 331.408,191.009 331.587,202.422 331.765,195.811 331.943,181.422 332.07,189.721 332.167,189.636 332.346,189.312 332.524,190.028 332.703,189.559 332.879,189.704 333.058,189.61 333.224,190.463 333.378,191.726 333.551,190.83 333.669,189.892 333.841,192.289 333.945,192.28 334.021,191.777 334.2,132.166 334.369,123.181 334.547,122.463 334.724,122.238 334.902,121.493 335.079,121.664 335.256,121.933 335.434,121.951 335.609,122.956 335.784,123.181 335.961,121.897 336.138,121.538 336.306,121.969 336.476,122.463 336.653,121.475 336.82,121.96 336.984,122.265 337.124,122.166 337.227,169.191 337.405,129.15 337.529,130.254 337.7,129.725 337.879,129.949 338.022,130.219 338.122,130.21 338.301,130.918 338.463,130.362 338.586,130.802 338.652,131.52 338.831,138.732 339.009,139.252 339.188,138.502 339.364,138.877 339.513,139.397 339.669,139.388 339.845,139.44 340.018,140.071 340.135,139.346 340.264,139.653 340.334,139.721 340.46,139.278 340.638,153.36 340.651,152.976 340.83,154.324 340.905,153.369 341.027,153.522 341.192,154.58 341.251,154.085 341.429,154.392 341.602,154.938 341.781,179.546 341.959,208.028 342.138,201.605 342.305,202.697 342.477,203.617 342.647,204.245 342.813,221.563 342.989,218.786 343.153,220.127 343.329,219.783 343.493,220.033 343.664,220.42 343.81,220.583 343.973,218.39 344.13,220.549 344.306,220.669 344.456,220.626 344.635,220.85 344.814,219.972 344.992,165.839 345.171,183.119 345.35,182.463 345.528,181.286 345.707,183.043 345.885,183.853 346.064,182.539 346.243,181.993 346.421,183.043 346.6,181.61 346.771,182.207 346.91,182.19 346.996,181.772 347.167,181.695 347.345,181.849 347.524,182.215 347.703,177.55 347.826,129.77 347.97,122.876 348.143,122.436 348.318,122.642 348.48,121.727 348.658,121.772 348.832,121.951 349.01,121.736 349.177,121.951 349.348,123.118 349.514,121.655 349.692,121.368 349.87,121.17 350.048,122.211 350.215,122.903 350.388,122.822 350.567,122.131 350.745,122.095 350.924,121.888 351.102,122.014 351.274,128.315 351.448,123.701 351.607,122.813 351.784,122.364 351.962,145.103 352.132,145.7 352.31,148.072 352.485,162.896 352.663,157.173 352.835,158.554 353.009,158.426 353.184,159.604 353.358,159.697 353.52,161.352 353.683,211.597 353.832,202.439 353.971,214.684 354.143,215.346 354.321,216.335 354.5,218.287 354.67,217.9 354.824,218.906 354.937,220.179 355.074,221.305 355.222,223.842 355.377,224.126 355.555,223.773 355.731,227.84 355.759,227.901 355.916,228.623 356.094,200.367 356.273,142.109 356.452,122.148 356.626,123.109 356.804,122.301 356.979,120.658 357.131,213.609 357.252,231.925 357.431,228.081 357.61,207.469 357.78,169.472 357.944,164.909 358.121,175.144 358.297,186.019 358.476,184.663 358.653,185.32 358.83,185.968 358.992,185.875 359.158,186.045 359.299,187.486 359.463,130.416 359.619,197.074 359.785,183.392 359.939,168.824 360.084,181.865 360.252,182.548 360.381,183.631 360.528,199.223 360.614,193.671 360.751,163.937 360.929,151.449 361.091,158.247 361.269,157.429 361.448,181.541 361.627,186.215 361.805,179.776 361.984,180.705 362.163,180.774 362.341,180.961 362.52,181.618 362.699,214.349 362.877,222.982 363.056,218.502 363.234,219.603 363.413,242.682 363.592,237.635 363.77,226.035 363.949,213.867 364.128,210.152 364.306,219.697 364.485,169.924 364.664,155.544 364.831,117.068 365.006,123.423 365.179,122.256 365.351,122.238 365.528,121.87 365.707,121.206 365.883,122.113 365.893,122.158 366.072,121.691 366.25,162.87 366.429,155.509 366.608,210.978 366.779,232.922 366.947,229.173 367.124,228.803 367.296,229.87 367.475,230.394 367.653,231.022 367.832,231.83 368.01,231.891 368.189,199.419 368.354,218.519 368.532,242.768 368.682,238.761 368.855,183.375 368.872,181.021 369.051,176.936 369.161,135.299 369.34,193.491 369.518,214.297 369.697,206.102 369.876,210.127 370.054,178.846 370.233,120.461 370.409,125.999 370.578,127.283 370.755,122.148 370.925,121.61 371.101,121.565 371.27,121.457 371.439,121.386 371.535,121.547 371.714,122.05 371.892,121.996 372.069,122.113 372.248,122.274 372.426,122.211 372.603,121.834 372.768,121.574 372.941,121.754 372.964,121.7 373.143,121.619 373.315,121.772 373.489,121.646 373.66,120.335 373.808,120.362 373.857,120.757 374.036,121.179 374.214,120.811 374.392,120.479 374.571,121.924 374.739,154.998 374.792,218.898 374.971,230.248 375.149,229.087 375.328,228.193 375.507,229.844 375.572,229.973 375.751,232.062 375.929,233.946 376.103,235.416 376.281,236.396 376.431,236.603 376.595,237.282 376.773,237.961 376.886,238.46 377.065,238.787 377.236,236.93 377.413,188.877 377.59,191.879 377.764,235.666 377.937,214.142 378.024,212.07 378.203,211.795 378.376,213.351 378.552,228.056 378.731,224.727 378.907,162.555 379.081,143.832 379.243,155.091 379.42,153.872 379.57,125.246 379.685,110.282 379.826,121.754 379.969,121.637 380.148,157.898 380.266,177.84 380.417,168.977 380.595,183.026 380.774,102.167 380.953,122.911 381.131,122.319 381.31,122.077 381.488,122.05 381.667,121.251 381.842,120.874 382.02,121.942 382.185,121.879 382.23,122.086 382.4,121.296 382.578,122.75 382.756,122.382 382.934,122.104 383.11,120.479 383.28,215.028 383.351,232.879 383.53,226.43 383.708,214.504 383.886,224.96 384.063,177.575 384.241,136.332 384.413,147.995 384.591,111.7 384.749,122.463 384.927,168.125 385.104,147.577 385.279,174.274 385.452,228.288 385.628,192.221 385.799,154.656 385.974,182.377 386.079,237.007 386.257,182.932 386.436,192.365 386.611,127.319 386.79,123.19 386.957,122.624 387.049,122.436 387.228,122.256 387.402,122.005 387.575,122.382 387.753,122.113 387.929,141.964 388.096,177.319 388.112,165.199 388.291,96.682 388.469,125.111 388.641,121.457 388.814,222.053 388.988,204.967 389.166,211.425 389.33,231.693 389.508,226.851 389.52,226.791 389.698,203.084 389.871,167.331 390.049,117.05 390.222,123.459 390.394,122.831 390.569,122.292 390.742,121.242 390.898,121.664 390.957,121.897 391.136,121.933 391.315,120.982 391.493,122.606 391.67,118.657 391.848,121.143 392.024,122.229 392.201,121.502 392.336,121.296 392.512,121.718 392.689,121.673 392.864,119.931 393.039,121.861 393.213,121.583 393.38,121.826 393.558,121.7 393.692,120.865 393.871,121.619 394.047,121.583 394.224,122.068 394.402,121.655 394.506,121.924 394.681,122.373 394.859,122.463 395.032,122.57 395.204,121.924 395.378,121.125 395.555,121.996 395.732,121.063 395.798,120.416 395.976,120.73 396.155,120.802 396.332,121.475 396.433,121.152 396.611,121.287 396.782,120.847 396.942,121.942 397.048,215.639 397.227,231.091 397.403,228.348 397.58,224.882 397.758,225.639 397.936,224.71 398.108,224.194 398.129,224.298 398.307,225.854 398.483,228.58 398.66,170.88 398.836,124.393 399.007,123.36 399.173,123.549 399.336,122.463 399.513,121.852 399.687,121.691 399.865,121.475 400.044,121.583 400.223,121.655 400.401,120.488 400.549,121.511 400.659,121.745 400.837,121.565 401.016,121.852 401.118,121.718 401.212,122.472 401.375,121.179 401.541,121.826 401.72,120.928 401.769,121.556 401.948,121.386 402.127,121.341 402.305,121.655 402.464,120.811 402.642,121.439 402.821,119.752 402.993,120.775 403.098,121.107 403.276,121.296 403.452,121.556 403.617,120.802 403.753,122.454 403.932,232.028 404.11,119.788 404.288,124.411 404.464,122.552 404.639,163.732 404.815,230.687 404.858,229.689 405.037,227.273 405.215,226.955 405.394,227.815 405.568,230.652 405.745,233.344 405.924,234.444 406.102,235.192 406.263,236.396 406.43,237.377 406.596,238.383 406.775,238.486 406.949,239.415 407.128,214.357 407.307,231.641 407.485,231.22 407.664,233.593 407.843,234.324 408.021,234.144 408.2,203.875 408.379,221.288 408.557,221.529 408.736,221.09 408.915,163.962 409.093,111.323 409.272,124.779 409.432,122.579 409.61,144.702 409.659,216.765 409.837,210.213 410.016,229.552 410.195,229.612 410.373,207.229 410.552,242.665 410.731,223.292 410.909,230.231 411.088,230.79 411.267,230.885 411.445,232.708 411.624,232.028 411.803,233.155 411.949,232.888 412.099,232.708 412.278,224.409 412.397,230.394 412.575,231.031 412.754,231.409 412.933,231.022 413.111,230.816 413.288,230.859 413.46,170.189 413.633,168.568 413.804,169.882 413.976,168.466 414.154,187.734 414.181,188.143 414.36,189.44 414.493,189.337 414.661,188.51 414.826,188.459 414.974,187.785 415.12,191.282 415.287,188.689 415.463,188.877 415.623,243.998 415.792,225.502 415.97,226.069 416.128,232.725 416.281,231.753 416.441,232.062 416.605,232.974 416.78,232.802 416.957,233.645 417.134,234.315 417.281,234.427 417.419,205.062 417.482,180.748 417.615,192.092 417.794,199.769 417.972,221.426 417.978,221.503 418.157,220.832 418.326,222.483 418.482,226.645 418.661,226.989 418.809,226.447 418.948,226.791 419.127,226.843 419.293,227.015 419.457,227.127 419.621,227.109 419.782,229.302 419.954,228.924 420.118,228.907 420.296,232.407 420.442,231.994 420.584,232.002 420.73,232.346 420.882,232.26 421.038,232.45 421.209,232.45 421.372,232.458 421.539,232.57 421.667,232.69 421.799,232.656 421.93,232.458 422.057,232.536 422.189,232.579 422.313,232.561 422.449,232.269 422.585,232.346 422.725,232.26 422.86,232.157 422.977,232.097 423.125,232.209 423.261,232.08 423.438,241.263 423.583,233.395 423.754,233.318 423.906,233.671 424.078,233.576 424.239,233.49 424.394,233.748 424.569,219.061 424.742,229.156 424.897,230.076 425.055,236.921 425.217,230.308 425.389,231.074 425.551,231.237 425.71,231.246 425.87,231.271 426.027,230.738 426.185,230.618 426.364,231.263 426.532,230.893 426.698,230.403 426.87,230.351 427.032,229.947 427.211,229.956 427.387,229.526 427.554,229.431 427.727,229.173 427.898,229.354 428.071,228.399 428.245,228.167 428.418,227.995 428.596,228.322 428.764,227.634 428.942,227.634 429.09,228.718 429.251,209.009 429.424,183.043 429.576,202.104 429.72,201.837 429.897,186.386 430.072,208.338 430.239,192.033 430.402,191.257 430.573,190.625 430.74,191.913 430.916,190.173 431.082,190.557 431.237,191.419 431.397,191.367 431.542,189.542 431.695,191.078 431.861,190.907 432.039,201.201 432.186,201.089 432.332,201.605 432.503,216.447 432.68,217.35 432.85,223.111 433.02,222.44 433.184,223.98 433.358,224.727 433.531,225.579 433.698,226.009 433.863,227.067 434.031,223.971 434.21,224.659 434.386,227.024 434.562,227.66 434.741,228.331 434.91,228.098 435.079,229.199 435.253,229.001 435.431,229.44 435.6,229.449 435.779,227.866 435.946,240.584 436.107,232.226 436.262,231.727 436.409,231.933 436.581,232.002 436.753,236.818 436.891,233.103 437.057,232.897 437.16,232.415 437.304,232.544 437.466,232.355 437.634,224.083 437.785,237.755 437.963,226.576 437.968,223.154 438.147,231.048 438.325,224.014 438.504,193.056 438.683,195.342 438.861,186.651 439.04,186.147 439.219,202.534 439.397,213.257 439.576,211.993 439.755,212.956 439.933,213.498 440.112,212.93 440.291,213.282 440.469,213.506 440.648,214.701 440.826,217.788 441.005,217.35 441.184,208.011 441.362,211.967 441.541,201.321 441.72,206.541 441.898,208.544 442.077,208.802 442.256,208.57 442.434,208.544 442.613,208.725 442.792,208.647 442.97,208.742 443.149,208.742 443.328,208.734 443.391,208.708 443.539,208.682 443.71,208.914 443.875,209.241 444.052,208.562 444.105,208.355 444.284,207.882 444.462,212.749 444.641,214.71 444.82,214.993 444.998,213.876 445.177,214.727 445.199,214.701 445.378,208.776 445.557,208.08 445.735,208.949 445.914,208.716 446.093,208.106 446.271,209 446.45,208.295 446.629,208.484 446.807,208.544 446.986,205.612 447.164,207.521 447.202,207.211 447.381,206.979 447.43,206.979 447.609,206.988 447.76,206.911 447.811,206.549 447.99,206.825 448.168,206.747 448.347,207.409 448.526,207.108 448.704,207.289 448.883,205.363 449.062,204.984 449.24,204.958 449.419,204.598 449.597,204.434 449.776,204.606 449.955,205.337 450.133,204.675 450.312,204.417 450.491,205.139 450.669,204.279 450.848,250.215 451.027,248.461 451.205,243.361 451.33,234.419 451.48,233.817 451.652,231.581 451.758,232.966 451.878,232.742 451.984,231.512 452.119,229.956 452.298,235.605 452.476,231.529 452.655,229.801 452.834,230.816 453.012,197.15 453.191,228.073 453.37,227.677 453.548,226.705 453.727,187.35 453.906,214.804 454.084,220.411 454.263,224.444 454.415,222.234 454.582,218.081 454.755,208.286 454.93,207.16 455.087,234.943 455.263,222.647 455.401,220.781 455.569,237.188 455.732,225.45 455.858,226.757 456.021,244.858 456.176,242.209 456.353,256.578 456.494,255.005 456.652,234.29 456.803,197.842 456.977,164.704 457.122,176.705 457.281,240.799 457.395,227.531 457.508,232.372 457.636,249.604 457.815,257.189 457.821,256.871 458,239.836 458.178,216.894 458.357,218.046 458.536,185.329 458.714,158.537 458.893,165.651 459.072,117.364 459.25,124.429 459.429,122.274 459.608,121.87 459.786,121.754 459.965,122.265 460.144,122.589 460.306,123.019 460.485,122.822 460.651,122.938 460.826,123.253 460.924,123.423 461.076,122.876 461.247,123.136 461.423,122.804 461.589,201.235 461.759,197.807 461.906,200.505 462.028,241.375 462.178,239.509 462.353,229.809 462.459,224.874 462.638,221.142 462.658,220.411 462.836,226.62 463.01,195.461 463.188,224.246 463.272,223.077 463.45,223.429 463.629,224.151 463.808,223.98 463.986,202.233 464.111,182.898 464.289,209.25 464.461,191.871 464.475,191.649 464.654,193.44 464.791,217.246 464.931,208.003 465.109,213.085 465.275,211.374 465.453,212.586 465.609,213.188 465.788,205.595 465.967,206.18 466.145,217.462 466.31,232.501 466.488,222.724 466.653,223.326 466.822,231.383 467.001,225.734 467.158,225.888 467.335,226.155 467.502,226.766 467.677,226.766 467.846,226.516 467.996,226.413 468.165,225.983 468.329,225.544 468.464,231.813 468.622,242.536 468.798,257.954 468.976,251.556 469.155,220.772 469.334,218.949 469.512,220.033 469.691,219.671 469.87,218.39 470.048,218.003 470.227,226.413 470.406,218.399 470.584,218.528 470.763,218.597 470.942,218.769 471.12,217.969 471.299,218.261 471.478,218.571 471.656,218.33 471.835,217.522 472.013,218.106 472.192,217.771 472.371,218.089 472.549,218.141 472.728,218.579 472.907,217.883 473.085,218.089 473.264,217.909 473.443,217.117 473.621,218.046 473.8,218.003 473.979,217.057 474.157,217.315 474.336,217.462 474.515,217.702 474.693,217.315 474.872,217.53 475.05,217.152 475.229,217.599 475.408,217.625 475.586,217.341 475.765,217.057 475.944,216.808 476.122,216.653 476.301,217.092 476.48,216.816 476.658,217.315 476.837,216.705 477.016,217.367 477.194,216.559 477.373,216.585 477.552,216.559 477.73,216.92 477.909,216.456 478.088,216.43 478.266,216.791 478.445,216.516 478.623,215.303 478.802,216.456 478.981,216.068 479.16,215.931 479.338,215.991 479.517,216.051 479.695,216.154 479.874,215.991 480.053,215.914 480.231,215.286 480.41,215.295 480.589,214.563 480.767,215.045 480.946,215.578 481.125,215.664 481.303,215.819 481.482,216.215 481.661,215.432 481.839,215.26 482.018,215.81 482.197,215.277 482.375,215.389 482.554,214.787 482.733,215.492 482.911,215.338 483.09,215.63 483.269,215.81 483.447,214.865 483.626,214.813 483.805,215.037 483.983,214.993 484.162,215.277 484.341,215.63 484.519,215.174 484.698,216.111 484.877,214.4 485.055,215.381 485.234,215.768 485.413,214.865 485.591,215.148 485.77,214.873 485.949,215.75 486.127,215.51 486.306,215.363 486.485,215.484 486.663,215.346 486.842,215.381 487.02,215.862 487.199,214.779 487.378,213.79 487.556,213.884 487.735,214.297 487.914,214.796 488.092,215.449 488.271,214.933 488.45,214.916 488.628,214.865 488.807,215.08 488.986,214.718 489.164,215.166 489.343,214.082 489.522,214.297 489.7,214.856 489.879,214.933 490.057,214.675 490.236,214.744 490.415,214.159 490.593,214.288 490.772,214.409 490.951,214.762 491.129,214.933 491.308,215.08 491.487,214.993 491.665,215.853 491.844,216.989 492.023,217.315 492.201,217.135 492.38,217.582 492.559,216.026 492.737,214.116 492.916,213.549 493.095,213.601 493.273,213.936 493.452,213.979 493.631,213.179 493.809,213.093 493.988,213.446 494.167,212.784 494.345,213.644 494.524,213.523 494.703,211.812 494.881,213.394 495.06,212.422 495.239,213.265 495.417,212.706 495.596,212.852 495.775,213.197 495.953,213.274 496.132,213.618" stroke-width="2"/>
   <polyline stroke="#d85218" stroke-linejoin="round" fill="none" stroke-linecap="butt" points="128.984,221.094 129.162,220.886 129.341,187.836 129.52,167.937 129.698,167.553 129.877,165.25 130.056,118.972 130.234,130.667 130.413,131.362 130.592,129.838 130.77,130.506 130.949,131.415 131.127,132.432 131.306,131.638 131.485,132.057 131.663,130.355 131.842,131.897 132.021,131.504 132.199,130.444 132.378,130.194 132.557,130.675 132.735,130.497 132.914,130.658 133.07,132.556 133.24,132.307 133.402,130.257 133.581,130.836 133.727,130.934 133.906,129.936 134.085,130.025 134.263,169.472 134.442,128.358 134.621,130.185 134.799,130.524 134.978,129.241 135.157,129.436 135.335,129.053 135.514,128.804 135.693,154.963 135.871,174.761 136.05,185.926 136.229,207.164 136.407,204.255 136.586,203.623 136.765,204.107 136.943,203.718 137.122,209.38 137.301,208.86 137.479,200.42 137.658,198.797 137.837,199.982 137.977,199.411 138.135,198.831 138.286,200.025 138.446,198.925 138.605,198.848 138.781,185.806 138.955,183.742 139.097,181.797 139.244,182.446 139.378,181.729 139.51,181.345 139.687,180.637 139.864,180.45 140.011,180.757 140.173,181.004 140.32,181.328 140.497,180.45 140.648,180.066 140.824,180.33 141.002,180.382 141.159,180.407 141.318,179.23 141.494,179.69 141.641,179.153 141.793,179.725 141.929,185.875 142.093,186.224 142.196,185.875 142.373,184.22 142.536,179.81 142.697,165.387 142.869,172.279 143.027,171.707 143.185,171.587 143.362,172.475 143.536,169.941 143.71,170.189 143.885,169.097 144.059,169.813 144.23,170.828 144.403,171.05 144.569,128.162 144.747,139.448 144.926,138.817 145.101,137.666 145.276,137.572 145.433,136.567 145.592,135.943 145.771,135.97 145.92,135.703 146.098,135.721 146.275,135.774 146.438,135.836 146.601,135.409 146.766,135.409 146.945,135.783 147.111,135.489 147.28,143.227 147.452,142.212 147.624,141.888 147.794,141.623 147.972,142.288 148.138,142.075 148.312,142.766 148.491,142.903 148.656,142.8 148.818,140.011 148.992,139.167 149.153,138.612 149.331,139.09 149.504,139.064 149.659,138.877 149.83,138.962 149.982,138.646 150.152,138.519 150.316,138.058 150.477,138.305 150.636,138.049 150.815,138.502 150.974,138.706 151.143,140.745 151.3,144.37 151.448,144.267 151.603,143.721 151.781,144.25 151.958,144.43 152.135,144.404 152.295,144.302 152.455,144.591 152.632,144.574 152.807,144.737 152.965,144.532 153.125,144.95 153.284,144.25 153.461,144.515 153.607,144.353 153.765,144.071 153.934,144.259 154.093,144.549 154.252,144.54 154.396,145.325 154.567,148.046 154.741,145.965 154.837,146.263 154.929,146.042 155.059,137.427 155.218,137.265 155.355,137.29 155.504,137.614 155.672,137.64 155.834,125.06 155.979,125.586 156.144,122.538 156.3,124.989 156.47,125.203 156.625,125.461 156.797,125.399 156.961,125.372 157.137,126.335 157.297,125.114 157.469,126.415 157.646,124.909 157.807,125.8 157.971,125.657 158.133,139.832 158.312,140.344 158.482,140.71 158.639,141.239 158.803,141.026 158.939,141.384 159.109,141.657 159.268,147.628 159.396,148.404 159.536,148.754 159.704,152.208 159.797,152.251 159.922,163.723 160.068,218.038 160.246,194.413 160.425,192.86 160.604,193.56 160.782,194.429 160.961,194.617 161.064,195.001 161.243,195.257 161.421,196.4 161.6,196.929 161.779,203.034 161.957,201.978 162.136,202.532 162.314,202.333 162.493,202.506 162.672,202.618 162.85,202.263 163.029,203.285 163.053,203.51 163.231,162.188 163.41,156.277 163.513,159.493 163.692,145.581 163.703,145.632 163.881,145.009 164.06,132.726 164.239,106.788 164.417,122.377 164.596,123.447 164.775,123.411 164.919,123.536 165.05,123.58 165.228,123.01 165.377,124.026 165.556,135.979 165.734,125.871 165.913,123.99 166.092,126.968 166.27,131.594 166.449,136.826 166.628,137.094 166.806,232.955 166.985,228.089 167.164,221.206 167.342,222.799 167.521,231.448 167.7,231.414 167.878,230.427 168.053,231.656 168.23,173.404 168.393,142.553 168.562,124.356 168.739,124.436 168.916,123.821 169.089,123.5 169.268,122.876 169.434,122.876 169.611,122.912 169.79,123.037 169.868,123.108 170.047,123.795 170.218,123.42 170.384,123.438 170.563,123.153 170.724,132.316 170.9,103.605 171.043,121.842 171.221,122.573 171.399,122.966 171.578,123.117 171.757,122.867 171.935,122.386 172.114,122.858 172.293,122.707 172.471,122.475 172.65,122.707 172.829,122.823 173.007,122.832 173.186,122.653 173.364,134.018 173.543,118.651 173.722,122.092 173.9,122.243 174.079,122.761 174.24,122.743 174.368,122.404 174.546,121.709 174.636,172.978 174.814,227.215 174.993,223.587 175.172,222.185 175.237,223.059 175.402,224.782 175.455,219.163 175.63,220.453 175.73,221.596 175.908,222.531 176.087,216.358 176.265,210.081 176.438,210.635 176.607,222.496 176.783,158.981 176.962,180.944 177.132,178.965 177.295,178.804 177.46,178.215 177.638,178.88 177.775,180.919 177.954,179.853 178.133,196.144 178.311,199.419 178.49,189.346 178.669,195.342 178.847,179.767 179.026,181.277 179.205,182.804 179.383,135.186 179.51,142.34 179.689,137.418 179.868,132.164 180.046,120.193 180.225,121.138 180.404,121.218 180.582,121.593 180.761,124.436 180.918,165.054 181.013,166.717 181.162,173.95 181.204,169.719 181.382,169.472 181.561,171.46 181.739,180.782 181.918,181.695 182.097,182.471 182.229,192.749 182.335,187.137 182.49,187.657 182.668,188.28 182.847,188.263 183.026,188.604 183.204,188.868 183.383,189.082 183.562,189.09 183.74,188.851 183.907,189.15 184.06,188.979 184.238,182.539 184.386,182.454 184.52,182.224 184.692,182.173 184.831,181.951 184.992,181.942 185.165,181.738 185.339,181.789 185.515,181.525 185.684,181.362 185.837,181.303 185.998,181.422 186.174,181.516 186.307,181.516 186.467,181.286 186.57,181.14 186.697,181.465 186.872,181.49 186.906,181.268 187.085,181.541 187.259,181.328 187.431,181.132 187.549,181.345 187.724,180.919 187.862,181.362 187.976,181.166 188.105,181.541 188.281,181.107 188.399,181.021 188.574,176.936 188.688,144.728 188.804,158.759 188.983,151.415 189.162,152.763 189.34,152.49 189.519,152.302 189.698,152.089 189.869,151.705 190.005,151.628 190.184,165.028 190.246,160.78 190.424,160.67 190.603,160.857 190.782,160.78 190.95,160.943 191.127,160.985 191.301,161.062 191.454,161.165 191.616,161.037 191.789,161.48 191.964,161.318 192.138,161.233 192.143,161.224 192.322,161.181 192.5,160.985 192.679,161.079 192.858,160.994 193.036,160.806 193.215,160.729 193.393,160.891 193.572,160.866 193.751,160.883 193.93,161.011 194.108,161.045 194.287,161.173 194.465,161.062 194.644,160.96 194.823,161.224 194.99,161.344 195.169,175.247 195.348,172.645 195.526,172.765 195.705,172.568 195.861,172.884 195.995,173.225 196.088,188.945 196.266,182.514 196.425,182.872 196.594,182.778 196.624,182.889 196.803,182.889 196.858,183.043 197.026,182.608 197.205,182.855 197.384,183.239 197.562,183.162 197.741,183.222 197.766,183.426 197.945,183.597 198.123,183.572 198.293,183.443 198.469,183.589 198.646,183.256 198.813,183.299 198.955,183.315 199.115,183.461 199.275,183.401 199.442,183.435 199.618,183.154 199.785,182.872 199.945,182.94 200.037,183.418 200.216,182.906 200.395,190.779 200.573,187.325 200.752,189.184 200.931,191.836 201.102,191.828 201.231,191.905 201.403,192.357 201.486,192.221 201.665,192.212 201.844,192.075 202.022,192.306 202.201,192.203 202.38,192.084 202.538,192.212 202.688,192.084 202.796,192.272 202.967,192.417 203.145,192.434 203.324,192.459 203.503,192.442 203.681,192.434 203.86,192.186 204.039,192.263 204.217,192.084 204.372,192.254 204.542,192.092 204.691,192.263 204.776,192.365 204.946,192.272 205.124,192.357 205.303,192.357 205.481,192.382 205.66,192.468 205.837,192.528 206.015,192.417 206.191,192.528 206.342,192.485 206.517,192.229 206.696,192.442 206.863,192.348 207.039,192.229 207.216,192.348 207.328,192.442 207.467,192.434 207.646,192.434 207.824,192.468 208.003,192.451 208.182,192.579 208.36,192.348 208.539,192.34 208.718,192.169 208.896,192.357 209.075,192.144 209.254,192.391 209.432,192.4 209.611,192.007 209.789,192.084 209.968,192.203 210.128,192.101 210.304,191.956 210.441,192.092 210.567,192.084 210.717,192.186 210.895,191.862 211.004,192.084 211.125,192.169 211.286,192.11 211.325,192.144 211.503,192.28 211.529,192.186 211.707,191.956 211.886,192.238 212.065,191.888 212.243,191.803 212.422,191.93 212.601,192.161 212.752,192.024 212.897,192.229 213.033,192.195 213.158,192.186 213.285,192.186 213.444,190.276 213.567,183.205 213.655,185.61 213.783,185.388 213.909,185.286 214.07,185.278 214.239,185.064 214.415,185.132 214.564,185.115 214.719,185.15 214.835,185.141 214.945,185.081 215.044,185.107 215.17,184.962 215.28,184.962 215.427,184.868 215.591,184.817 215.769,184.629 215.772,184.638 215.951,184.86 216.13,184.68 216.308,184.774 216.487,184.586 216.666,184.68 216.844,184.86 217.023,184.672 217.19,184.842 217.315,184.612 217.453,184.595 217.603,184.518 217.781,184.578 217.798,184.586 217.976,183.879 218.131,184.254 218.272,184.425 218.45,184.245 218.622,184.348 218.753,184.322 218.879,184.262 219.032,189.192 219.21,189.321 219.389,189.491 219.568,190.02 219.746,190.011 219.925,183.657 220.104,185.866 220.282,185.704 220.461,185.84 220.64,185.806 220.818,185.747 220.997,185.866 221.176,185.926 221.354,185.892 221.533,185.695 221.712,185.644 221.89,169.694 222.069,174.368 222.248,174.121 222.426,174.112 222.605,173.933 222.784,174.018 222.962,173.805 223.141,173.532 223.32,173.541 223.498,173.507 223.677,173.745 223.855,173.336 223.987,173.532 224.114,173.396 224.28,189.389 224.419,182.326 224.598,182.232 224.776,182.377 224.955,182.787 225.134,182.667 225.312,182.881 225.491,182.608 225.67,182.642 225.848,182.821 226.027,182.736 226.205,182.975 226.384,182.957 226.523,182.949 226.661,183.026 226.793,182.838 226.966,183.085 227.089,182.838 227.226,183.094 227.314,182.975 227.489,183.06 227.617,183.06 227.669,183.145 227.798,183.068 227.977,182.352 228.156,182.505 228.334,182.215 228.513,182.053 228.691,182.164 228.87,182.207 229.049,182.07 229.141,182.19 229.262,182.25 229.44,182.13 229.462,182.19 229.64,182.156 229.819,181.976 229.998,182.036 230.176,181.857 230.355,182.07 230.534,181.849 230.712,181.874 230.891,181.712 231.07,181.396 231.248,181.49 231.42,181.772 231.569,181.593 231.724,181.661 231.898,181.917 232.017,167.084 232.196,161.403 232.374,162.606 232.553,162.324 232.732,161.83 232.903,161.881 233.012,171.545 233.17,169.208 233.346,169.071 233.514,169.208 233.688,169.131 233.867,169.029 234.016,168.994 234.195,169.157 234.374,193.21 234.552,182.318 234.731,182.676 234.91,183.188 235.088,183.273 235.267,183.486 235.446,183.546 235.624,183.52 235.803,183.665 235.982,183.793 236.16,184.083 236.339,184.066 236.518,183.921 236.696,183.819 236.875,183.733 237.054,183.597 237.232,183.725 237.411,183.58 237.59,183.529 237.768,183.631 237.921,183.674 238.046,183.81 238.206,183.486 238.385,183.742 238.563,183.179 238.714,121.004 238.854,116.789 239.029,119.364 239.204,120.363 239.382,118.892 239.509,119.177 239.687,117.074 239.709,116.78 239.887,119.855 240.066,119.231 240.244,118.803 240.423,118.972 240.602,118.829 240.767,120.987 240.933,120.621 241.1,124.409 241.275,123.634 241.452,123.892 241.599,123.901 241.774,124.097 241.926,123.83 242.102,123.643 242.279,124.089 242.393,148.711 242.496,128.456 242.674,126.923 242.853,127.832 243.032,127.583 243.21,127.476 243.389,127.645 243.568,227.838 243.746,223.189 243.925,220.99 244.104,221.847 244.282,223.276 244.461,224.419 244.639,225.57 244.818,225.527 244.997,226.54 245.175,227.405 245.354,203.856 245.533,212.029 245.711,215.172 245.869,215.354 246.012,215.388 246.185,213.319 246.219,213.034 246.397,209.631 246.558,165.011 246.72,111.761 246.895,119.819 247.07,119.017 247.229,118.687 247.396,118.981 247.574,118.58 247.748,118.188 247.907,118.027 247.986,118.322 248.164,118.723 248.343,118.188 248.522,119.133 248.7,118.856 248.879,118.464 249.057,118.634 249.236,119.266 249.415,118.856 249.593,118.803 249.772,132.637 249.951,130.613 250.056,131.29 250.151,132.734 250.312,135.444 250.444,134.562 250.623,131.353 250.798,115.327 250.957,117.145 251.117,116.619 251.288,118.117 251.463,118.277 251.641,117.742 251.808,118.375 251.883,118.108 252.062,118.473 252.24,117.653 252.38,118.295 252.557,117.787 252.711,117.849 252.865,117.314 253.032,117.377 253.2,117.992 253.217,117.929 253.396,117.938 253.575,118.036 253.753,117.564 253.932,188.297 254.111,225.05 254.289,224.167 254.468,224.011 254.647,224.73 254.825,226.557 254.904,227.293 255.083,208.488 255.261,161.651 255.437,111.253 255.614,119.48 255.791,119.409 255.968,119.097 256.072,118.785 256.249,198.942 256.428,199.283 256.606,184.987 256.781,223.847 256.95,228.539 257.128,229.951 257.305,180.612 257.478,161.002 257.64,153.573 257.683,221.293 257.862,199.206 258.039,197.884 258.216,162.947 258.392,173.942 258.568,175.784 258.728,175.63 258.767,176.398 258.946,176.629 259.117,177.208 259.295,173.669 259.472,173.157 259.65,188.911 259.828,116.022 260.007,118.482 260.172,118.651 260.351,119.409 260.529,118.687 260.708,230.375 260.887,225.959 261.052,224.618 261.231,224.955 261.408,224.384 261.585,223.579 261.761,223.059 261.934,222.895 262.099,177.507 262.206,170.026 262.384,146.059 262.563,112.483 262.741,119.48 262.919,118.553 263.095,118.17 263.273,118.09 263.452,118.643 263.63,118.553 263.806,118.553 263.983,118.518 264.119,118.883 264.298,118.482 264.476,118.384 264.653,119.364 264.828,118.981 264.918,118.99 265.093,119.302 265.269,118.643 265.448,118.874 265.619,118.919 265.771,227.907 265.807,227.293 265.986,224.289 266.163,222.193 266.34,222.695 266.519,221.535 266.697,220.817 266.874,220.15 267.036,220.367 267.124,220.644 267.303,221.397 267.477,223.189 267.654,201.484 267.831,178.24 268.006,210.887 268.183,160.917 268.357,101.199 268.527,119.801 268.657,118.607 268.836,118.616 268.912,118.09 269.035,118.954 269.1,118.856 269.218,118.482 269.328,118.553 269.439,118.66 269.534,118.348 269.632,118.464 269.739,118.125 269.918,118.91 270.095,118.045 270.144,121.085 270.323,118.544 270.5,119.133 270.678,118.821 270.853,119.053 271.015,118.848 271.193,119.266 271.367,118.803 271.531,117.911 271.708,118.901 271.885,118.482 271.951,119.24 272.13,219.241 272.307,220.176 272.48,215.588 272.657,215.241 272.831,216.341 272.93,217.38 273.108,218.877 273.287,220.557 273.465,222.003 273.643,224.02 273.811,225.933 273.987,188.339 274.165,166.888 274.344,112.349 274.522,119.106 274.694,118.482 274.843,118.384 274.994,118.455 275.156,118.758 275.311,119.436 275.49,118.001 275.667,118.829 275.843,118.143 276.019,119.498 276.189,119.115 276.368,119.409 276.543,118.17 276.714,118.286 276.89,118.705 277.056,118.553 277.226,118.723 277.395,118.509 277.551,118.259 277.576,118.598 277.755,164.192 277.934,211.527 278.101,204.376 278.275,194.02 278.449,194.651 278.626,195.461 278.799,181.525 278.961,183.64 279.019,184.177 279.197,189.346 279.373,190.114 279.544,188.186 279.717,123.064 279.883,121.325 280.03,119.605 280.161,119.275 280.265,120.782 280.443,188.092 280.537,192.775 280.715,184.97 280.894,168.372 281.073,152.712 281.251,157.591 281.43,157.539 281.609,155.663 281.776,118.25 281.949,115.291 282.127,118.206 282.301,119.543 282.471,136.699 282.574,224.938 282.753,192.169 282.931,208.436 283.103,205.259 283.272,209.259 283.416,233.552 283.467,232.063 283.645,227.985 283.823,226.756 283.995,225.648 284.168,225.31 284.311,226.176 284.49,226.713 284.667,227.734 284.842,229.076 285.018,230.366 285.196,203.692 285.228,190.472 285.406,232.279 285.585,186.292 285.758,167.323 285.927,103.909 286.102,119.792 286.279,118.206 286.394,118.277 286.46,118.17 286.639,118.33 286.806,118.384 286.973,118.74 287.136,118.09 287.299,118.758 287.477,118.785 287.599,118.562 287.737,118.678 287.907,155.074 288.051,160.619 288.218,222.358 288.388,193.363 288.562,187.879 288.734,190.369 288.898,188.996 288.951,176.884 289.13,137.341 289.306,149.522 289.48,118.714 289.654,111.654 289.823,117.698 289.991,118.25 290.165,118.66 290.332,118.634 290.481,118.607 290.659,119.088 290.838,118.928 291.011,118.634 291.187,119.935 291.365,118.464 291.542,119.364 291.703,119.445 291.748,119.944 291.927,118.678 292.099,118.749 292.276,119.07 292.455,119.222 292.633,118.375 292.792,118.821 292.956,227.907 293.135,223.925 293.313,189.286 293.492,211.31 293.668,213.57 293.845,210.887 294.024,222.773 294.202,224.886 294.338,223.025 294.516,222.964 294.691,224.713 294.869,226.228 295.047,218.704 295.225,179.682 295.404,157.207 295.519,123.491 295.698,131.522 295.877,130.194 296.055,167.126 296.219,96.4035 296.259,111.922 296.438,118.438 296.617,118.348 296.795,119.053 296.972,118.571 297.134,118.839 297.234,118.651 297.413,118.928 297.587,119.088 297.759,118.438 297.934,118.571 298.099,118.767 298.277,117.84 298.431,118.482 298.61,119.097 298.784,118.821 298.875,118.723 299.054,117.814 299.233,118.643 299.411,119.088 299.59,118.571 299.6,118.393 299.779,118.134 299.954,119.204 300.129,118.054 300.3,118.339 300.478,119.249 300.656,118.963 300.828,119.088 300.997,118.108 301.156,186.728 301.283,140.702 301.43,194.106 301.579,175.835 301.758,163.288 301.936,140.344 302.115,133.608 302.294,127.948 302.472,119.168 302.651,117.172 302.829,118.74 303.008,118.348 303.09,118.553 303.241,181.482 303.297,216.583 303.426,226.271 303.605,223.224 303.784,221.787 303.955,222.488 304.123,223.302 304.196,223.579 304.374,225.206 304.553,227.656 304.73,228.34 304.893,229.726 305.056,204.35 305.235,182.915 305.413,190.804 305.592,194.242 305.771,166.359 305.949,196.502 306.128,186.966 306.307,160.525 306.485,162.154 306.664,160.482 306.843,170.393 307.021,172.824 307.2,153.624 307.379,143.065 307.557,146.4 307.736,143.585 307.915,135.73 308.093,146.298 308.272,161.941 308.451,220.436 308.629,186.693 308.808,163.928 308.987,177.942 309.146,228.609 309.19,235.362 309.368,181.993 309.543,182.829 309.594,189.636 309.772,192.169 309.951,188.135 310.13,236.236 310.308,229.578 310.487,227.604 310.666,228.063 310.817,228.539 310.995,228.981 311.174,180.893 311.353,235.838 311.531,231.7 311.71,230.574 311.889,230.28 312.067,229.985 312.227,230.236 312.349,230.158 312.482,230.046 312.569,230.288 312.728,219.639 312.793,205.441 312.972,166.368 313.151,118.571 313.329,140.224 313.502,135.542 313.666,134.383 313.831,219.007 313.951,180.603 314.129,183.759 314.298,186.199 314.41,180.97 314.584,178.104 314.613,179.998 314.791,181.789 314.97,185.704 315.149,190.557 315.327,177.072 315.506,192.519 315.632,185.806 315.739,185.337 315.899,179.034 316.077,164.405 316.256,167.408 316.435,133.563 316.613,118.829 316.745,118.732 316.914,118.304 317.073,118.179 317.198,118.161 317.345,118.108 317.483,118.384 317.656,118.268 317.832,118.277 318.004,118.732 318.172,118.268 318.283,118.411 318.461,118.339 318.64,118.152 318.819,118.829 318.983,118.589 319.157,118.954 319.331,119.275 319.446,119.053 319.625,119.177 319.801,119.061 319.951,119.115 320.13,118.91 320.308,119.445 320.485,118.286 320.651,118.589 320.83,119.266 320.962,119.32 321.122,118.553 321.165,135.649 321.344,141.896 321.365,152.302 321.544,154.767 321.633,158.93 321.811,169.686 321.99,178.633 322.039,178.71 322.196,179.059 322.375,179.708 322.432,180.057 322.611,180.561 322.774,180.961 322.818,177.78 322.997,148.438 323.07,154.452 323.225,155.987 323.397,131.594 323.566,108.374 323.699,116.298 323.878,118.117 324.056,117.992 324.228,118.108 324.338,188.51 324.517,151.816 324.685,98.9705 324.861,161.352 325.028,124.605 325.199,125.087 325.264,117.805 325.442,117.903 325.621,118.705 325.8,118.384 325.978,118.339 326.157,118.446 326.336,118.598 326.511,162.307 326.69,157.514 326.868,159.305 327.047,160.926 327.226,161.693 327.404,162.222 327.583,166.947 327.762,167.195 327.94,167.8 328.119,168.346 328.298,168.645 328.476,168.952 328.655,169.549 328.834,169.353 329.012,169.643 329.191,170.026 329.37,170.078 329.548,170.044 329.727,170.308 329.906,170.172 330.084,170.649 330.218,170.538 330.355,170.581 330.534,226.912 330.712,197.048 330.891,201.571 331.07,201.389 331.23,202.047 331.408,186.668 331.587,193.543 331.765,189.15 331.943,176.577 332.07,180.936 332.167,182.207 332.346,182.301 332.524,182.599 332.703,182.539 332.879,182.505 333.058,181.789 333.224,182.386 333.378,182.693 333.551,182.087 333.669,181.405 333.841,183.085 333.945,182.872 334.021,182.889 334.2,136.309 334.369,118.384 334.547,118.643 334.724,118.348 334.902,118.117 335.079,118.286 335.256,118.562 335.434,118.366 335.609,119.418 335.784,119.873 335.961,118.375 336.138,118.09 336.306,118.054 336.476,118.598 336.653,117.992 336.82,118.571 336.984,118.544 337.124,118.758 337.227,162.393 337.405,120.211 337.529,119.409 337.7,118.848 337.879,119.115 338.022,119.097 338.122,118.892 338.301,119.195 338.463,119.231 338.586,119.213 338.652,120.158 338.831,126.335 339.009,127.164 339.188,127.52 339.364,127.324 339.513,127.583 339.669,127.912 339.845,128.082 340.018,128.349 340.135,127.886 340.264,128.617 340.334,128.367 340.46,128.724 340.638,143.056 340.651,142.706 340.83,141.052 340.905,142.306 341.027,142.135 341.192,142.98 341.251,142.954 341.429,142.843 341.602,143.287 341.781,164.346 341.959,200.454 342.138,194.455 342.305,195.231 342.477,196.118 342.647,196.818 342.813,220.453 342.989,214.921 343.153,215.345 343.329,215.934 343.493,216.202 343.664,216.479 343.81,216.6 343.973,216.644 344.13,217.181 344.306,217.155 344.456,217.423 344.635,217.414 344.814,216.973 344.992,169.233 345.171,174.905 345.35,174.948 345.528,174.274 345.707,175.238 345.885,178.044 346.064,175.596 346.243,175.63 346.421,175.383 346.6,175.451 346.771,175.554 346.91,175.844 346.996,175.451 347.167,175.212 347.345,175.494 347.524,174.633 347.703,171.221 347.826,124.775 347.97,118.58 348.143,118.643 348.318,119.293 348.48,118.624 348.658,117.965 348.832,117.84 349.01,118.117 349.177,118.544 349.348,119.757 349.514,118.019 349.692,117.992 349.87,117.724 350.048,118.188 350.215,119.676 350.388,119.159 350.567,118.571 350.745,118.259 350.924,118.233 351.102,118.206 351.274,131.13 351.448,119.525 351.607,118.892 351.784,118.42 351.962,127.208 352.132,138.356 352.31,135.765 352.485,146.331 352.663,146.161 352.835,147.005 353.009,147.176 353.184,147.756 353.358,147.773 353.52,148.421 353.683,203.12 353.832,194.293 353.971,212.003 354.143,210.956 354.321,211.362 354.5,213.83 354.67,213.034 354.824,213.709 354.937,214.765 355.074,216.557 355.222,218.349 355.377,219.077 355.555,218.895 355.731,221.752 355.759,221.674 355.916,223.449 356.094,194.711 356.273,160.209 356.452,101.315 356.626,119.275 356.804,118.714 356.979,116.789 357.131,211.501 357.252,225.717 357.431,219.726 357.61,202.627 357.78,168.295 357.944,160.286 358.121,166.581 358.297,182.966 358.476,179.128 358.653,180.245 358.83,181.439 358.992,181.55 359.158,181.448 359.299,181.883 359.463,145.351 359.619,197.773 359.785,178.002 359.939,156.524 360.084,174.829 360.252,175.119 360.381,175.622 360.528,190.898 360.614,186.642 360.751,158.512 360.929,145.897 361.091,147.56 361.269,146.4 361.448,175.161 361.627,180.415 361.805,172.159 361.984,172.449 362.163,172.458 362.341,172.756 362.52,172.662 362.699,206.661 362.877,219.302 363.056,212.826 363.234,213.821 363.413,233.535 363.592,229.44 363.77,228.254 363.949,206.029 364.128,203.536 364.306,213.994 364.485,170.427 364.664,159.604 364.831,104.096 365.006,119.159 365.179,118.215 365.351,118.357 365.528,118.001 365.707,117.582 365.883,118.045 365.893,118.117 366.072,118.019 366.25,142.212 366.429,145.956 366.608,205.363 366.779,224.358 366.947,219.752 367.124,219.786 367.296,220.791 367.475,222.202 367.653,223.068 367.832,224.193 368.01,225.016 368.189,195.905 368.354,213.492 368.532,235.033 368.682,228.834 368.855,181.123 368.872,179.017 369.051,176.552 369.161,156.644 369.34,186.011 369.518,213.821 369.697,201.389 369.876,204.783 370.054,177.661 370.233,147.091 370.409,118.954 370.578,116.191 370.755,117.484 370.925,117.564 371.101,117.742 371.27,117.68 371.439,117.751 371.535,118.108 371.714,118.286 371.892,118.411 372.069,118.384 372.248,118.411 372.426,118.25 372.603,117.929 372.768,117.787 372.941,118.17 372.964,118.108 373.143,117.582 373.315,117.466 373.489,117.626 373.66,117.127 373.808,117.395 373.857,117.573 374.036,118.348 374.214,117.172 374.392,117.733 374.571,118.366 374.739,150.093 374.792,216.15 374.971,222.219 375.149,221.856 375.328,221.146 375.507,222.401 375.572,222.47 375.751,223.873 375.929,225.44 376.103,227.639 376.281,228.185 376.431,228.678 376.595,229.241 376.773,229.829 376.886,230.418 377.065,231.189 377.236,229.751 377.413,186.207 377.59,184.604 377.764,230.08 377.937,209.302 378.024,206.514 378.203,208.817 378.376,208.566 378.552,230.687 378.731,219.025 378.907,172.475 379.081,139.167 379.243,145.811 379.42,143.79 379.57,120.3 379.685,107.964 379.826,117.528 379.969,117.911 380.148,143.363 380.266,169.626 380.417,159.535 380.595,177.78 380.774,102.028 380.953,118.375 381.131,118.357 381.31,118.438 381.488,118.562 381.667,117.555 381.842,117.225 382.02,118.286 382.185,118.643 382.23,118.58 382.4,118.393 382.578,119.436 382.756,118.634 382.934,118.562 383.11,117.475 383.28,211.64 383.351,228.392 383.53,224.02 383.708,207.129 383.886,220.886 384.063,177.345 384.241,161.932 384.413,129.303 384.591,108.624 384.749,118.714 384.927,153.078 385.104,137.256 385.279,167.442 385.452,224.514 385.628,187.376 385.799,160.03 385.974,177.771 386.079,232.539 386.257,179.332 386.436,187.222 386.611,145.658 386.79,113.393 386.957,118.304 387.049,118.357 387.228,118.357 387.402,118.366 387.575,118.74 387.753,118.5 387.929,142.681 388.096,182.121 388.112,169.993 388.291,107.162 388.469,120.817 388.641,117.368 388.814,211.666 388.988,201.536 389.166,206.635 389.33,221.951 389.508,218.999 389.52,219.077 389.698,195.59 389.871,170.026 390.049,153.369 390.222,101.431 390.394,119.061 390.569,118.643 390.742,117.493 390.898,118.01 390.957,118.099 391.136,118.304 391.315,117.261 391.493,119.15 391.67,115.237 391.848,118.42 392.024,118.527 392.201,117.555 392.336,118.072 392.512,118.794 392.689,118.036 392.864,116.735 393.039,118.286 393.213,118.313 393.38,118.393 393.558,118.027 393.692,117.385 393.871,118.848 394.047,118.901 394.224,118.758 394.402,118.616 394.506,118.705 394.681,118.999 394.859,119.213 395.032,119.703 395.204,118.5 395.378,117.778 395.555,118.749 395.732,117.573 395.798,118.01 395.976,117.929 396.155,117.911 396.332,119.097 396.433,118.74 396.611,118.233 396.782,118.143 396.942,119.373 397.048,213.449 397.227,224.193 397.403,220.869 397.58,217.934 397.758,217.648 397.936,216.211 398.108,216.895 398.129,217.008 398.307,218.263 398.483,220.609 398.66,166.913 398.836,150.025 399.007,106.253 399.173,119.454 399.336,118.732 399.513,118.277 399.687,118.134 399.865,118.125 400.044,118.339 400.223,118.482 400.401,117.395 400.549,117.92 400.659,118.286 400.837,118.455 401.016,118.384 401.118,118.322 401.212,118.945 401.375,117.76 401.541,118.999 401.72,118.384 401.769,118.25 401.948,118.313 402.127,118.045 402.305,118.117 402.464,117.956 402.642,118.411 402.821,116.619 402.993,117.385 403.098,118.17 403.276,118.589 403.452,118.785 403.617,117.609 403.753,119.623 403.932,226.661 404.11,136.443 404.288,116.057 404.464,118.375 404.639,165.421 404.815,223.76 404.858,221.942 405.037,218.921 405.215,218.557 405.394,220.037 405.568,223.103 405.745,225.734 405.924,226.262 406.102,227.059 406.263,228.159 406.43,229.111 406.596,229.847 406.775,230.418 406.949,231.171 407.128,209.224 407.307,224.107 407.485,223.76 407.664,226.591 407.843,226.877 408.021,226.955 408.2,199.138 408.379,206.549 408.557,207.016 408.736,206.012 408.915,165.608 409.093,102.661 409.272,120.381 409.432,119.213 409.61,141.495 409.659,205.285 409.837,202.791 410.016,222.6 410.195,226.358 410.373,199.632 410.552,234.799 410.731,228.678 410.909,225.994 411.088,226.782 411.267,226.089 411.445,227.57 411.624,227.552 411.803,228.306 411.949,228.245 412.099,227.812 412.278,216.713 412.397,224.531 412.575,224.115 412.754,224.271 412.933,224.566 413.111,224.444 413.288,224.661 413.46,173.063 413.633,148.123 413.804,160.26 413.976,152.37 414.154,176.893 414.181,176.842 414.36,178.965 414.493,179.153 414.661,179.29 414.826,177.601 414.974,177.686 415.12,183.162 415.287,179.622 415.463,179.588 415.623,236.669 415.792,218.912 415.97,219.934 416.128,226.643 416.281,224.972 416.441,224.531 416.605,225.215 416.78,225.769 416.957,226.427 417.134,226.617 417.281,227.111 417.419,198.652 417.482,178.07 417.615,177.456 417.794,189.764 417.972,214.791 417.978,214.298 418.157,214.402 418.326,217.068 418.482,220.73 418.661,220.834 418.809,221.042 418.948,221.068 419.127,221.301 419.293,221.864 419.457,221.683 419.621,221.787 419.782,223.743 419.954,223.302 420.118,223.483 420.296,228.47 420.442,216.904 420.584,223.466 420.73,223.933 420.882,224.011 421.038,224.02 421.209,223.916 421.372,223.882 421.539,223.83 421.667,223.856 421.799,223.847 421.93,223.682 422.057,223.639 422.189,223.682 422.313,223.665 422.449,223.579 422.585,223.587 422.725,223.579 422.86,223.475 422.977,223.345 423.125,223.501 423.261,223.397 423.438,229.405 423.583,224.799 423.754,224.635 423.906,224.791 424.078,224.6 424.239,224.782 424.394,224.868 424.569,225.042 424.742,216.142 424.897,223.224 425.055,234.314 425.217,224.124 425.389,223.89 425.551,224.089 425.71,224.124 425.87,224.115 426.027,224.306 426.185,224.419 426.364,224.531 426.532,224.124 426.698,223.752 426.87,223.267 427.032,222.999 427.211,222.999 427.387,223.051 427.554,222.86 427.727,222.643 427.898,222.366 428.071,222.185 428.245,222.038 428.418,221.778 428.596,221.561 428.764,221.327 428.942,221.215 429.09,221.388 429.251,204.436 429.424,179.827 429.576,191.052 429.72,191.964 429.897,180.833 430.072,196.443 430.239,179.657 430.402,179.503 430.573,178.932 430.74,179.469 430.916,178.479 431.082,178.496 431.237,178.539 431.397,178.735 431.542,177.678 431.695,178.419 431.861,178.368 432.039,190.804 432.186,190.677 432.332,190.941 432.503,208.229 432.68,212.055 432.85,219.25 433.02,215.994 433.184,217.077 433.358,216.159 433.531,217.579 433.698,217.778 433.863,220.341 434.031,219.094 434.21,219.752 434.386,222.029 434.562,222.747 434.741,223.414 434.91,223.501 435.079,223.622 435.253,223.951 435.431,223.882 435.6,224.289 435.779,225.648 435.946,236.453 436.107,227.457 436.262,227.795 436.409,227.994 436.581,227.968 436.753,234.236 436.891,229.198 437.057,228.964 437.16,229.198 437.304,228.877 437.466,228.79 437.634,224.782 437.785,231.466 437.963,221.535 437.968,217.345 438.147,225.709 438.325,217.345 438.504,182.795 438.683,189.013 438.861,181.337 439.04,176.995 439.219,191.436 439.397,209.943 439.576,208.445 439.755,210.35 439.933,209.631 440.112,209.847 440.291,210.107 440.469,210.298 440.648,211.518 440.826,214.618 441.005,215.077 441.184,204.038 441.362,203.484 441.541,203.527 441.72,203.761 441.898,209.094 442.077,207.943 442.256,207.744 442.434,207.467 442.613,207.821 442.792,207.744 442.97,208.791 443.149,208.765 443.328,208.601 443.391,208.627 443.539,208.41 443.71,208.67 443.875,208.436 444.052,208.125 444.105,208.125 444.284,207.891 444.462,210.653 444.641,214.704 444.82,214.436 444.998,211.423 445.177,213.536 445.199,213.449 445.378,208.627 445.557,208.488 445.735,208.35 445.914,208.168 446.093,208.168 446.271,208.419 446.45,208.393 446.629,208.09 446.807,208.333 446.986,208.107 447.164,207.891 447.202,208.003 447.381,208.073 447.43,208.003 447.609,207.873 447.76,207.891 447.811,207.622 447.99,208.003 448.168,207.995 448.347,208.324 448.526,208.021 448.704,208.159 448.883,201.345 449.062,204.973 449.24,205.138 449.419,205.051 449.597,204.887 449.776,205.302 449.955,205.267 450.133,205.164 450.312,205.207 450.491,205.215 450.669,204.895 450.848,246.911 451.027,243.846 451.205,239.197 451.33,237.474 451.48,252.868 451.652,246.574 451.758,232.176 451.878,231.578 451.984,230.202 452.119,231.526 452.298,231.804 452.476,227.31 452.655,230.011 452.834,227.882 453.012,157.923 453.191,227.518 453.37,225.189 453.548,221.579 453.727,183.299 453.906,215.527 454.084,222.02 454.263,223.146 454.415,218.73 454.582,217.986 454.755,196.033 454.93,207.501 455.087,241.067 455.263,221.258 455.401,219.414 455.569,243.534 455.732,222.713 455.858,225.561 456.021,236.721 456.176,253.768 456.353,249.448 456.494,238.184 456.652,219.536 456.803,176.79 456.977,147.091 457.122,202.965 457.281,243.059 457.395,247.015 457.508,253.188 457.636,249.941 457.815,230.141 457.821,228.782 458,213.319 458.178,212.774 458.357,212.626 458.536,165.685 458.714,143.431 458.893,166.632 459.072,133.679 459.25,120.791 459.429,120.345 459.608,120.229 459.786,119.873 459.965,120.068 460.144,120.229 460.306,120.951 460.485,120.844 460.651,120.782 460.826,121.379 460.924,120.996 461.076,120.657 461.247,120.773 461.423,121.04 461.589,203.467 461.759,195.974 461.906,198.549 462.028,238.331 462.178,235.31 462.353,229.665 462.459,227.734 462.638,244.149 462.658,239.665 462.836,221.232 463.01,177.865 463.188,220.67 463.272,218.825 463.45,219.302 463.629,219.587 463.808,220.011 463.986,192.11 464.111,177.49 464.289,208.523 464.461,184.535 464.475,185.798 464.654,189.644 464.791,216.912 464.931,206.376 465.109,209.224 465.275,209.847 465.453,210.497 465.609,211.891 465.788,201.978 465.967,205.571 466.145,216.323 466.31,242.79 466.488,220.583 466.653,220.73 466.822,236.227 467.001,222.514 467.158,222.072 467.335,222.28 467.502,222.392 467.677,222.47 467.846,222.643 467.996,221.942 468.165,221.761 468.329,221.752 468.464,226.063 468.622,253.257 468.798,249.491 468.976,228.115 469.155,212.246 469.334,214.064 469.512,213.752 469.691,212.28 469.87,211.692 470.048,211.692 470.227,220.349 470.406,212.523 470.584,212.756 470.763,212.384 470.942,212.774 471.12,212.384 471.299,212.246 471.478,212.324 471.656,212.211 471.835,211.484 472.013,212.332 472.192,212.479 472.371,212.626 472.549,212.817 472.728,213.449 472.907,212.739 473.085,212.419 473.264,212.211 473.443,212.289 473.621,212.774 473.8,213.034 473.979,212.151 474.157,212.263 474.336,212.566 474.515,212.8 474.693,212.626 474.872,212.549 475.05,212.531 475.229,212.652 475.408,212.67 475.586,212.254 475.765,211.891 475.944,211.787 476.122,211.267 476.301,211.761 476.48,211.674 476.658,212.462 476.837,211.865 477.016,212.116 477.194,212.012 477.373,211.882 477.552,211.96 477.73,211.804 477.909,211.726 478.088,211.865 478.266,211.986 478.445,211.12 478.623,210.471 478.802,211.804 478.981,210.938 479.16,210.93 479.338,210.947 479.517,210.964 479.695,210.843 479.874,211.233 480.053,211.406 480.231,210.436 480.41,209.977 480.589,209.259 480.767,209.873 480.946,210.393 481.125,210.436 481.303,210.488 481.482,210.592 481.661,209.83 481.839,210.315 482.018,210.237 482.197,210.072 482.375,210.324 482.554,210.402 482.733,210.35 482.911,210.107 483.09,210.358 483.269,210.254 483.447,209.77 483.626,209.813 483.805,209.891 483.983,209.553 484.162,210.246 484.341,209.77 484.519,209.882 484.698,210.947 484.877,209.302 485.055,210.54 485.234,210.592 485.413,209.579 485.591,210.687 485.77,210.046 485.949,210.609 486.127,211.025 486.306,210.592 486.485,210.774 486.663,210.739 486.842,210.583 487.02,211.57 487.199,209.735 487.378,209.77 487.556,209.822 487.735,210.384 487.914,210.618 488.092,210.887 488.271,210.601 488.45,210.072 488.628,210.263 488.807,210.402 488.986,210.09 489.164,211.06 489.343,210.098 489.522,210.93 489.7,210.964 489.879,210.956 490.057,210.843 490.236,210.826 490.415,210.843 490.593,210.618 490.772,210.843 490.951,210.843 491.129,210.921 491.308,210.809 491.487,210.765 491.665,160.448 491.844,196.869 492.023,213.622 492.201,191.811 492.38,216.445 492.559,297.538 492.737,302.444 492.916,305.154 493.095,307.684 493.273,308.809 493.452,310.195 493.631,311.258 493.809,312.608 493.988,312.932 494.167,313.256 494.345,313.553 494.524,313.571 494.703,313.616 494.881,313.76 495.06,314.21 495.239,313.985 495.417,313.904 495.596,313.445 495.775,313.166 495.953,312.617 496.132,312.302" stroke-width="2"/>
  </g>
  <clipPath id="cp00576432">
   <polygon points="0,432 576,432 576,0 0,0"/>
  </clipPath>
  <g clip-path="url(#cp00576432)">
   <polygon fill="#ffffff" shape-rendering="crispEdges" points="438.651,76.1943 509.669,76.1943 509.669,44.0114 438.651,44.0114"/>
   <polyline stroke="#262626" stroke-linejoin="miter" stroke-dasharray="16,0" fill="none" stroke-linecap="square" points="438.651,76.1943 509.669,76.1943" stroke-width="0.5"/>
   <polyline stroke="#262626" stroke-linejoin="miter" stroke-dasharray="16,0" fill="none" stroke-linecap="square" points="438.651,44.0114 509.669,44.0114" stroke-width="0.5"/>
   <polyline stroke="#262626" stroke-linejoin="miter" stroke-dasharray="16,0" fill="none" stroke-linecap="square" points="438.651,76.1943 438.651,44.0114" stroke-width="0.5"/>
   <polyline stroke="#262626" stroke-linejoin="miter" stroke-dasharray="16,0" fill="none" stroke-linecap="square" points="509.669,76.1943 509.669,44.0114" stroke-width="0.5"/>
   <text font-style="normal" transform="translate(467.196,56.0571) rotate(-0,-0,-4)" font-size="9" font-family="FreeSans" xml:space="preserve" font-weight="normal">
    <tspan y="-0" fill="rgb(0,0,0)" x="0 6 8 11 16 18 21 ">Direita</tspan>
   </text>
   <text font-style="normal" transform="translate(467.196,73.1486) rotate(-0,-0,-5)" font-size="9" font-family="FreeSans" xml:space="preserve" font-weight="normal">
    <tspan y="-2" fill="rgb(0,0,0)" x="0 6 10 15 20 25 28 33 ">Esquerda</tspan>
   </text>
   <polyline stroke="#0071bc" stroke-linejoin="round" fill="none" stroke-linecap="butt" points="442.038,52.0572 463.81,52.0572" stroke-width="2"/>
   <polyline stroke="#d85218" stroke-linejoin="round" fill="none" stroke-linecap="butt" points="442.038,68.1486 463.81,68.1486" stroke-width="2"/>
  </g>
 </g>
</svg>
