<?xml version='1.0' encoding='UTF-8' standalone='no'?>
<svg height="432pt" viewBox="0 0 576 432" xmlns:xlink="http://www.w3.org/1999/xlink" xmlns="http://www.w3.org/2000/svg" width="576pt">
 <title>gl2ps_renderer figure</title>
 <desc>
Creator: GL2PS 1.4.0, (C) 1999-2017 C. Geuzaine
For: Octave
CreationDate: Fri Jul 02 16:46:41 2021
</desc>
 <defs/>
 <polygon fill="#ffffff" points="0,0 576,0 576,432 0,432"/>
 <g>
  <polygon fill="#ffffff" points="0,432 576,432 576,0 0,0" shape-rendering="crispEdges"/>
  <clipPath id="cp00576432">
   <polygon points="0,432 576,432 576,0 0,0"/>
  </clipPath>
  <g clip-path="url(#cp00576432)">
   <polygon fill="#ffffff" points="74.88,384.48 521.28,384.48 521.28,32.4 74.88,32.4" shape-rendering="crispEdges"/>
   <polyline stroke="#262626" fill="none" stroke-opacity="0.15" points="74.88,384.48 74.88,32.4" stroke-width="0.5" stroke-linejoin="miter" stroke-dasharray="16,0" stroke-linecap="butt"/>
   <polyline stroke="#262626" fill="none" stroke-opacity="0.15" points="164.16,384.48 164.16,32.4" stroke-width="0.5" stroke-linejoin="miter" stroke-dasharray="16,0" stroke-linecap="butt"/>
   <polyline stroke="#262626" fill="none" stroke-opacity="0.15" points="253.44,384.48 253.44,32.4" stroke-width="0.5" stroke-linejoin="miter" stroke-dasharray="16,0" stroke-linecap="butt"/>
   <polyline stroke="#262626" fill="none" stroke-opacity="0.15" points="342.72,384.48 342.72,32.4" stroke-width="0.5" stroke-linejoin="miter" stroke-dasharray="16,0" stroke-linecap="butt"/>
   <polyline stroke="#262626" fill="none" stroke-opacity="0.15" points="432,384.48 432,32.4" stroke-width="0.5" stroke-linejoin="miter" stroke-dasharray="16,0" stroke-linecap="butt"/>
   <polyline stroke="#262626" fill="none" stroke-opacity="0.15" points="521.28,384.48 521.28,32.4" stroke-width="0.5" stroke-linejoin="miter" stroke-dasharray="16,0" stroke-linecap="butt"/>
   <polyline stroke="#262626" fill="none" points="74.88,384.48 74.88,380.015" stroke-width="0.5" stroke-linejoin="miter" stroke-linecap="butt"/>
   <polyline stroke="#262626" fill="none" points="74.88,32.4 74.88,36.865" stroke-width="0.5" stroke-linejoin="miter" stroke-linecap="butt"/>
   <polyline stroke="#262626" fill="none" points="164.16,384.48 164.16,380.015" stroke-width="0.5" stroke-linejoin="miter" stroke-linecap="butt"/>
   <polyline stroke="#262626" fill="none" points="164.16,32.4 164.16,36.865" stroke-width="0.5" stroke-linejoin="miter" stroke-linecap="butt"/>
   <polyline stroke="#262626" fill="none" points="253.44,384.48 253.44,380.015" stroke-width="0.5" stroke-linejoin="miter" stroke-linecap="butt"/>
   <polyline stroke="#262626" fill="none" points="253.44,32.4 253.44,36.865" stroke-width="0.5" stroke-linejoin="miter" stroke-linecap="butt"/>
   <polyline stroke="#262626" fill="none" points="342.72,384.48 342.72,380.015" stroke-width="0.5" stroke-linejoin="miter" stroke-linecap="butt"/>
   <polyline stroke="#262626" fill="none" points="342.72,32.4 342.72,36.865" stroke-width="0.5" stroke-linejoin="miter" stroke-linecap="butt"/>
   <polyline stroke="#262626" fill="none" points="432,384.48 432,380.015" stroke-width="0.5" stroke-linejoin="miter" stroke-linecap="butt"/>
   <polyline stroke="#262626" fill="none" points="432,32.4 432,36.865" stroke-width="0.5" stroke-linejoin="miter" stroke-linecap="butt"/>
   <polyline stroke="#262626" fill="none" points="521.28,384.48 521.28,380.015" stroke-width="0.5" stroke-linejoin="miter" stroke-linecap="butt"/>
   <polyline stroke="#262626" fill="none" points="521.28,32.4 521.28,36.865" stroke-width="0.5" stroke-linejoin="miter" stroke-linecap="butt"/>
   <text font-style="normal" transform="translate(71.88,399.982) rotate(-0,3,-8)" xml:space="preserve" font-weight="normal" font-size="10" font-family="FreeSans">
    <tspan y="-0" fill="rgb(38,38,38)" x="0 ">0</tspan>
   </text>
   <text font-style="normal" transform="translate(152.16,399.982) rotate(-0,12,-8)" xml:space="preserve" font-weight="normal" font-size="10" font-family="FreeSans">
    <tspan y="-0" fill="rgb(38,38,38)" x="0 6 12 18 ">1000</tspan>
   </text>
   <text font-style="normal" transform="translate(241.44,399.982) rotate(-0,12,-8)" xml:space="preserve" font-weight="normal" font-size="10" font-family="FreeSans">
    <tspan y="-0" fill="rgb(38,38,38)" x="0 6 12 18 ">2000</tspan>
   </text>
   <text font-style="normal" transform="translate(330.72,399.982) rotate(-0,12,-8)" xml:space="preserve" font-weight="normal" font-size="10" font-family="FreeSans">
    <tspan y="-0" fill="rgb(38,38,38)" x="0 6 12 18 ">3000</tspan>
   </text>
   <text font-style="normal" transform="translate(420,399.982) rotate(-0,12,-8)" xml:space="preserve" font-weight="normal" font-size="10" font-family="FreeSans">
    <tspan y="-0" fill="rgb(38,38,38)" x="0 6 12 18 ">4000</tspan>
   </text>
   <text font-style="normal" transform="translate(509.28,399.982) rotate(-0,12,-8)" xml:space="preserve" font-weight="normal" font-size="10" font-family="FreeSans">
    <tspan y="-0" fill="rgb(38,38,38)" x="0 6 12 18 ">5000</tspan>
   </text>
   <polyline stroke="#262626" fill="none" stroke-opacity="0.15" points="74.88,384.48 521.28,384.48" stroke-width="0.5" stroke-linejoin="miter" stroke-dasharray="16,0" stroke-linecap="butt"/>
   <polyline stroke="#262626" fill="none" stroke-opacity="0.15" points="74.88,325.8 521.28,325.8" stroke-width="0.5" stroke-linejoin="miter" stroke-dasharray="16,0" stroke-linecap="butt"/>
   <polyline stroke="#262626" fill="none" stroke-opacity="0.15" points="74.88,267.12 521.28,267.12" stroke-width="0.5" stroke-linejoin="miter" stroke-dasharray="16,0" stroke-linecap="butt"/>
   <polyline stroke="#262626" fill="none" stroke-opacity="0.15" points="74.88,208.44 521.28,208.44" stroke-width="0.5" stroke-linejoin="miter" stroke-dasharray="16,0" stroke-linecap="butt"/>
   <polyline stroke="#262626" fill="none" stroke-opacity="0.15" points="74.88,149.76 521.28,149.76" stroke-width="0.5" stroke-linejoin="miter" stroke-dasharray="16,0" stroke-linecap="butt"/>
   <polyline stroke="#262626" fill="none" stroke-opacity="0.15" points="74.88,91.08 521.28,91.08" stroke-width="0.5" stroke-linejoin="miter" stroke-dasharray="16,0" stroke-linecap="butt"/>
   <polyline stroke="#262626" fill="none" stroke-opacity="0.15" points="74.88,32.4 521.28,32.4" stroke-width="0.5" stroke-linejoin="miter" stroke-dasharray="16,0" stroke-linecap="butt"/>
   <polyline stroke="#262626" fill="none" points="74.88,384.48 79.348,384.48" stroke-width="0.5" stroke-linejoin="miter" stroke-linecap="butt"/>
   <polyline stroke="#262626" fill="none" points="521.28,384.48 516.812,384.48" stroke-width="0.5" stroke-linejoin="miter" stroke-linecap="butt"/>
   <polyline stroke="#262626" fill="none" points="74.88,325.8 79.348,325.8" stroke-width="0.5" stroke-linejoin="miter" stroke-linecap="butt"/>
   <polyline stroke="#262626" fill="none" points="521.28,325.8 516.812,325.8" stroke-width="0.5" stroke-linejoin="miter" stroke-linecap="butt"/>
   <polyline stroke="#262626" fill="none" points="74.88,267.12 79.348,267.12" stroke-width="0.5" stroke-linejoin="miter" stroke-linecap="butt"/>
   <polyline stroke="#262626" fill="none" points="521.28,267.12 516.812,267.12" stroke-width="0.5" stroke-linejoin="miter" stroke-linecap="butt"/>
   <polyline stroke="#262626" fill="none" points="74.88,208.44 79.348,208.44" stroke-width="0.5" stroke-linejoin="miter" stroke-linecap="butt"/>
   <polyline stroke="#262626" fill="none" points="521.28,208.44 516.812,208.44" stroke-width="0.5" stroke-linejoin="miter" stroke-linecap="butt"/>
   <polyline stroke="#262626" fill="none" points="74.88,149.76 79.348,149.76" stroke-width="0.5" stroke-linejoin="miter" stroke-linecap="butt"/>
   <polyline stroke="#262626" fill="none" points="521.28,149.76 516.812,149.76" stroke-width="0.5" stroke-linejoin="miter" stroke-linecap="butt"/>
   <polyline stroke="#262626" fill="none" points="74.88,91.08 79.348,91.08" stroke-width="0.5" stroke-linejoin="miter" stroke-linecap="butt"/>
   <polyline stroke="#262626" fill="none" points="521.28,91.08 516.812,91.08" stroke-width="0.5" stroke-linejoin="miter" stroke-linecap="butt"/>
   <polyline stroke="#262626" fill="none" points="74.88,32.4 79.348,32.4" stroke-width="0.5" stroke-linejoin="miter" stroke-linecap="butt"/>
   <polyline stroke="#262626" fill="none" points="521.28,32.4 516.812,32.4" stroke-width="0.5" stroke-linejoin="miter" stroke-linecap="butt"/>
   <text font-style="normal" transform="translate(51.8755,388.48) rotate(-0,18,-4)" xml:space="preserve" font-weight="normal" font-size="10" font-family="FreeSans">
    <tspan y="-0" fill="rgb(38,38,38)" x="0 6 12 ">500</tspan>
   </text>
   <text font-style="normal" transform="translate(51.8755,329.8) rotate(-0,18,-4)" xml:space="preserve" font-weight="normal" font-size="10" font-family="FreeSans">
    <tspan y="-0" fill="rgb(38,38,38)" x="0 6 12 ">600</tspan>
   </text>
   <text font-style="normal" transform="translate(51.8755,271.12) rotate(-0,18,-4)" xml:space="preserve" font-weight="normal" font-size="10" font-family="FreeSans">
    <tspan y="-0" fill="rgb(38,38,38)" x="0 6 12 ">700</tspan>
   </text>
   <text font-style="normal" transform="translate(51.8755,212.44) rotate(-0,18,-4)" xml:space="preserve" font-weight="normal" font-size="10" font-family="FreeSans">
    <tspan y="-0" fill="rgb(38,38,38)" x="0 6 12 ">800</tspan>
   </text>
   <text font-style="normal" transform="translate(51.8755,153.76) rotate(-0,18,-4)" xml:space="preserve" font-weight="normal" font-size="10" font-family="FreeSans">
    <tspan y="-0" fill="rgb(38,38,38)" x="0 6 12 ">900</tspan>
   </text>
   <text font-style="normal" transform="translate(45.8755,95.08) rotate(-0,24,-4)" xml:space="preserve" font-weight="normal" font-size="10" font-family="FreeSans">
    <tspan y="-0" fill="rgb(38,38,38)" x="0 6 12 18 ">1000</tspan>
   </text>
   <text font-style="normal" transform="translate(45.8755,36.4) rotate(-0,24,-4)" xml:space="preserve" font-weight="normal" font-size="10" font-family="FreeSans">
    <tspan y="-0" fill="rgb(38,38,38)" x="0 6 12 18 ">1100</tspan>
   </text>
   <polyline stroke="#262626" fill="none" points="74.88,384.48 521.28,384.48" stroke-width="0.5" stroke-linejoin="miter" stroke-dasharray="16,0" stroke-linecap="square"/>
   <polyline stroke="#262626" fill="none" points="74.88,32.4 521.28,32.4" stroke-width="0.5" stroke-linejoin="miter" stroke-dasharray="16,0" stroke-linecap="square"/>
   <polyline stroke="#262626" fill="none" points="74.88,384.48 74.88,32.4" stroke-width="0.5" stroke-linejoin="miter" stroke-dasharray="16,0" stroke-linecap="square"/>
   <polyline stroke="#262626" fill="none" points="521.28,384.48 521.28,32.4" stroke-width="0.5" stroke-linejoin="miter" stroke-dasharray="16,0" stroke-linecap="square"/>
   <text font-style="normal" transform="translate(273.08,416.982) rotate(-0,25,-12)" xml:space="preserve" font-weight="normal" font-size="11" font-family="FreeSans">
    <tspan y="-3" fill="rgb(38,38,38)" x="0 7 13 22 28 34 37 41 46 ">Tempo (s)</tspan>
   </text>
   <text font-style="normal" transform="translate(-31.1245,208.44) rotate(-90,72,0)" xml:space="preserve" font-weight="normal" font-size="11" font-family="FreeSans">
    <tspan y="-3" fill="rgb(38,38,38)" x="0 7 12 18 24 30 35 38 41 49 55 60 63 70 76 85 91 97 101 107 110 116 120 126 129 133 140 ">Exhaust Gas Temperature (K)</tspan>
   </text>
   <polyline stroke="#0071bc" fill="none" points="128.984,275.42 129.162,275.907 129.341,231.316 129.52,200.809 129.698,201.292 129.877,190.246 130.056,96.9247 130.234,120.369 130.413,121.102 130.592,122.328 130.77,122.523 130.949,123.48 131.127,123.959 131.306,124.198 131.485,123.271 131.663,123.54 131.842,123.181 132.021,122.852 132.199,122.343 132.378,122.732 132.557,122.508 132.735,122.239 132.914,121.236 133.07,122.612 133.24,122.568 133.402,122.358 133.581,123.525 133.727,123.69 133.906,123.63 134.085,122.688 134.263,187.716 134.442,112.978 134.621,120.758 134.799,121.895 134.978,122.328 135.157,122.493 135.335,122.792 135.514,122.628 135.693,164.672 135.871,196.416 136.05,215.167 136.229,243.812 136.407,239.334 136.586,241.751 136.765,242.334 136.943,243.442 137.122,249.982 137.301,250.536 137.479,239.931 137.658,235.169 137.837,235.78 137.977,235.524 138.135,235.851 138.286,235.922 138.446,236.917 138.605,236.619 138.781,215.992 138.955,222.516 139.097,222.701 139.244,223.057 139.378,219.901 139.51,219.816 139.687,220.697 139.864,220.882 140.011,220.967 140.173,221.791 140.32,220.995 140.497,217.626 140.648,216.887 140.824,218.238 141.002,219.19 141.159,218.408 141.318,218.152 141.494,219.148 141.641,218.82 141.793,218.877 141.929,221.123 142.093,220.256 142.196,221.01 142.373,217.598 142.536,212.252 142.697,210.888 142.869,212.466 143.027,213.262 143.185,212.878 143.362,206.381 143.536,202.444 143.71,202.259 143.885,202.102 144.059,204.079 144.23,203.382 144.403,203.524 144.569,130.587 144.747,160.166 144.926,157.991 145.101,157.749 145.276,157.535 145.433,156.441 145.592,157.038 145.771,156.711 145.92,156.555 146.098,156.427 146.275,156.441 146.438,156.867 146.601,156.64 146.766,156.214 146.945,157.706 147.111,157.535 147.28,164.103 147.452,166.932 147.624,167.117 147.794,166.947 147.972,167.899 148.138,168.24 148.312,168.368 148.491,169.463 148.656,169.207 148.818,169.406 148.992,169.861 149.153,171.055 149.331,162.213 149.504,162.895 149.659,160.99 149.83,160.919 149.982,161.431 150.152,161.061 150.316,160.535 150.477,161.332 150.636,160.99 150.815,161.388 150.974,162 151.143,160.806 151.3,174.822 151.448,171.524 151.603,175.22 151.781,175.376 151.958,176.102 152.135,175.576 152.295,176.301 152.455,176.599 152.632,177.054 152.807,176.755 152.965,176.286 153.125,177.495 153.284,176.428 153.461,177.424 153.607,177.864 153.765,178.462 153.934,178.774 154.093,178.22 154.252,178.177 154.396,179.385 154.567,178.746 154.741,180.466 154.837,179.897 154.929,159.881 155.059,169.904 155.218,165.426 155.355,167.103 155.504,165.966 155.672,165.781 155.834,139.638 155.979,142.914 156.144,125.889 156.3,126.966 156.47,126.068 156.625,125.62 156.797,125.949 156.961,126.503 157.137,128.208 157.297,125.754 157.469,127.579 157.646,126.068 157.807,126.323 157.971,126.338 158.133,187.446 158.312,178.191 158.482,179.485 158.639,180.921 158.803,181.376 158.939,182.143 159.109,182.712 159.268,187.29 159.396,187.432 159.536,190.175 159.704,192.422 159.797,192.578 159.922,209.182 160.068,269.716 160.246,245.034 160.425,247.167 160.604,248.745 160.782,249.683 160.961,250.451 161.064,251.147 161.243,251.9 161.421,252.071 161.6,252.74 161.779,256.704 161.957,256.316 162.136,257.778 162.314,258.208 162.493,258.337 162.672,259.024 162.85,258.537 163.029,261.246 163.053,261.633 163.231,178.59 163.41,186.863 163.513,191.981 163.692,173.003 163.703,172.832 163.881,172.377 164.06,156.427 164.239,104.435 164.417,125.605 164.596,125.5 164.775,125.246 164.919,125.65 165.05,124.962 165.228,125.47 165.377,126.323 165.556,160.166 165.734,129.854 165.913,131.754 166.092,142.092 166.27,147.747 166.449,155.233 166.628,155.46 166.806,314.187 166.985,287.329 167.164,290.597 167.342,293.363 167.521,295.37 167.7,297.49 167.878,299.082 168.053,300.672 168.23,216.859 168.393,133.025 168.562,129.959 168.739,127.924 168.916,126.068 169.089,125.904 169.268,125.874 169.434,125.725 169.611,125.754 169.79,125.919 169.868,126.009 170.047,127.161 170.218,125.814 170.384,126.682 170.563,126.907 170.724,143.723 170.9,102.67 171.043,124.752 171.221,125.979 171.399,126.458 171.578,126.203 171.757,126.548 171.935,126.458 172.114,126.503 172.293,126.846 172.471,126.517 172.65,126.891 172.829,126.921 173.007,126.383 173.186,135.225 173.364,150.158 173.543,116.539 173.722,125.35 173.9,125.799 174.079,126.263 174.24,126.667 174.368,126.293 174.546,124.887 174.636,200.837 174.814,307.293 174.993,290.067 175.172,298.25 175.237,306.792 175.402,297.175 175.455,289.522 175.63,295.183 175.73,296.387 175.908,298.221 176.087,287.96 176.265,276.81 176.438,276.538 176.607,292.131 176.783,199.003 176.962,228.843 177.132,228.786 177.295,226.667 177.46,225.971 177.638,229.098 177.775,229.482 177.954,227.222 178.133,256.688 178.311,259.139 178.49,246.584 178.669,254.395 178.847,231.8 179.026,233.52 179.205,233.391 179.383,160.464 179.51,173.656 179.689,168.212 179.868,159.839 180.046,125.515 180.225,126.428 180.404,125.934 180.582,124.917 180.761,129.48 180.918,230.378 181.013,205.031 181.162,217.044 181.204,210.831 181.382,212.267 181.561,216.844 181.739,229.724 181.918,232.354 182.097,234.216 182.229,248.39 182.335,241.282 182.49,241.722 182.668,241.722 182.847,242.646 183.026,242.518 183.204,243.3 183.383,244.011 183.562,243.94 183.74,243.243 183.907,244.011 184.06,240.94 184.238,243.755 184.386,243.684 184.52,243.698 184.692,243.428 184.831,244.338 184.992,243.471 185.165,243.627 185.339,243.713 185.515,244.054 185.684,243.428 185.837,244.707 185.998,244.011 186.174,243.783 186.307,244.594 186.467,244.494 186.57,244.466 186.697,245.02 186.872,244.324 186.906,244.594 187.085,244.537 187.259,243.172 187.431,244.309 187.549,244.551 187.724,243.713 187.862,244.736 187.976,244.21 188.105,244.537 188.281,244.594 188.399,244.821 188.574,231.757 188.688,184.873 188.804,205.386 188.983,183.849 189.162,185.541 189.34,187.446 189.519,185.882 189.698,185.214 189.869,185.342 190.005,185.612 190.184,209.821 190.246,230.946 190.424,214.129 190.603,214.157 190.782,214.627 190.95,214.172 191.127,214.954 191.301,213.504 191.454,214.371 191.616,215.437 191.789,215.352 191.964,214.513 192.138,214.812 192.143,214.755 192.322,216.219 192.5,215.153 192.679,215.735 192.858,215.309 193.036,215.281 193.215,214.556 193.393,214.214 193.572,214.726 193.751,215.139 193.93,215.338 194.108,215.408 194.287,215.565 194.465,215.721 194.644,215.11 194.823,214.527 194.99,216.688 195.169,220.526 195.348,230.264 195.526,230.79 195.705,231.657 195.861,231.018 195.995,231.458 196.088,248.517 196.266,241.722 196.425,242.291 196.594,242.305 196.624,242.447 196.803,242.916 196.858,242.518 197.026,242.39 197.205,242.12 197.384,242.973 197.562,242.689 197.741,242.589 197.766,243.57 197.945,242.916 198.123,243.57 198.293,243.3 198.469,243.499 198.646,242.774 198.813,243.016 198.955,243.471 199.115,243.442 199.275,242.845 199.442,243.769 199.618,243.456 199.785,243.414 199.945,243.727 200.037,243.471 200.216,243.954 200.395,252.313 200.573,248.261 200.752,258.509 200.931,258.594 201.102,258.867 201.231,259.268 201.403,258.996 201.486,259.283 201.665,259.068 201.844,259.168 202.022,259.698 202.201,259.225 202.38,259.899 202.538,259.87 202.688,259.54 202.796,259.383 202.967,259.999 203.145,259.87 203.324,260.042 203.503,259.54 203.681,259.956 203.86,259.712 204.039,259.856 204.217,259.584 204.372,259.641 204.542,260.142 204.691,259.727 204.776,259.54 204.946,259.555 205.124,259.67 205.303,260.544 205.481,259.483 205.66,260.128 205.837,259.985 206.015,260.142 206.191,260.171 206.342,260.042 206.517,259.87 206.696,259.971 206.863,259.698 207.039,259.641 207.216,260.372 207.328,260.085 207.467,260.443 207.646,259.999 207.824,260.415 208.003,260.429 208.182,259.469 208.36,259.813 208.539,259.626 208.718,259.856 208.896,259.684 209.075,259.411 209.254,259.784 209.432,259.698 209.611,259.971 209.789,259.827 209.968,259.598 210.128,259.039 210.304,259.139 210.441,259.698 210.567,259.383 210.717,258.967 210.895,259.125 211.004,259.268 211.125,259.555 211.286,259.168 211.325,259.225 211.503,259.11 211.529,259.154 211.707,258.967 211.886,258.695 212.065,258.537 212.243,258.437 212.422,258.552 212.601,258.91 212.752,258.623 212.897,258.279 213.033,257.95 213.158,258.265 213.285,244.224 213.444,244.438 213.567,246.143 213.655,246.015 213.783,245.006 213.909,245.646 214.07,245.873 214.239,245.859 214.415,245.404 214.564,245.759 214.719,244.949 214.835,245.503 214.945,245.433 215.044,245.802 215.17,245.433 215.28,245.319 215.427,245.433 215.591,244.921 215.769,245.433 215.772,245.291 215.951,245.447 216.13,245.191 216.308,245.063 216.487,245.418 216.666,244.679 216.844,245.034 217.023,244.707 217.19,244.736 217.315,244.267 217.453,245.162 217.603,244.765 217.781,243.883 217.798,243.713 217.976,244.722 218.131,244.992 218.272,245.063 218.45,244.239 218.622,244.992 218.753,244.878 218.879,245.461 219.032,248.617 219.21,249.527 219.389,249.541 219.568,248.83 219.746,249.697 219.925,234.486 220.104,240.187 220.282,239.903 220.461,239.988 220.64,239.447 220.818,240.144 220.997,235.752 221.176,234.927 221.354,234.742 221.533,235.027 221.712,234.301 221.89,203.126 222.069,218.991 222.248,217.769 222.426,218.934 222.605,218.252 222.784,217.996 222.962,216.674 223.141,217.058 223.32,215.892 223.498,216.717 223.677,218.166 223.855,217.171 223.987,217.427 224.114,218.152 224.28,250.195 224.419,234.856 224.598,234.77 224.776,235.126 224.955,236.747 225.134,236.633 225.312,236.505 225.491,235.282 225.67,236.107 225.848,236.079 226.027,235.837 226.205,236.562 226.384,236.946 226.523,236.007 226.661,236.789 226.793,236.818 226.966,236.789 227.089,237.244 227.226,237.415 227.314,236.675 227.489,236.633 227.617,237.173 227.669,237.784 227.798,236.775 227.977,233.932 228.156,233.406 228.334,233.576 228.513,233.036 228.691,233.562 228.87,234.216 229.049,233.079 229.141,233.107 229.262,233.491 229.44,233.861 229.462,233.05 229.64,233.107 229.819,232.524 229.998,233.946 230.176,232.78 230.355,231.856 230.534,232.766 230.712,232.183 230.891,233.093 231.07,232.738 231.248,232.411 231.42,233.775 231.569,232.454 231.724,233.136 231.898,233.591 232.017,191.412 232.196,203.354 232.374,202.643 232.553,201.562 232.732,200.908 232.903,201.889 233.012,214.47 233.17,211.457 233.346,211.172 233.514,211.442 233.688,211.002 233.867,210.731 234.016,211.073 234.195,212.025 234.374,243.57 234.552,227.748 234.731,228.914 234.91,229.084 235.088,228.985 235.267,228.686 235.446,229.212 235.624,229.909 235.803,229.582 235.982,229.653 236.16,230.079 236.339,229.61 236.518,229.511 236.696,229.795 236.875,229.525 237.054,228.8 237.232,228.587 237.411,228.658 237.59,228.786 237.768,229.34 237.921,228.786 238.046,228.203 238.206,228.445 238.385,228.502 238.563,226.696 238.714,100.097 238.854,124.722 239.029,126.278 239.204,126.383 239.382,123.794 239.509,123.57 239.687,121.565 239.709,122.104 239.887,124.857 240.066,123.705 240.244,124.034 240.423,122.882 240.602,123.301 240.767,133.04 240.933,135.898 241.1,141.538 241.275,140.88 241.452,141.089 241.599,140.88 241.774,141.987 241.926,141.763 242.102,141.03 242.279,142.436 242.393,177.708 242.496,148.196 242.674,145.054 242.853,147.343 243.032,147.418 243.21,147.762 243.389,147.881 243.568,309.715 243.746,305.416 243.925,301.289 244.104,302.836 244.282,305.474 244.461,307.566 244.639,309.572 244.818,295.441 244.997,306.476 245.175,306.992 245.354,272.224 245.533,290.181 245.711,289.637 245.869,289.909 246.012,289.494 246.185,286.799 246.219,286.083 246.397,280.508 246.558,183.096 246.72,92.0475 246.895,125.725 247.07,123.959 247.229,122.044 247.396,123.286 247.574,122.762 247.748,122.478 247.907,122.224 247.986,122.747 248.164,122.882 248.343,122.418 248.522,124.154 248.7,123.376 248.879,123.345 249.057,121.266 249.236,124.318 249.415,123.75 249.593,123.66 249.772,158.034 249.951,155.077 250.056,156.014 250.151,159.412 250.312,161.772 250.444,160.45 250.623,156.214 250.798,119.366 250.957,122.523 251.117,119.321 251.288,121.91 251.463,122.179 251.641,120.787 251.808,121.266 251.883,120.862 252.062,122.553 252.24,120.937 252.38,123.525 252.557,121.64 252.711,122.029 252.865,120.907 253.032,121.82 253.2,121.446 253.217,120.937 253.396,122.074 253.575,121.879 253.753,121.491 253.932,243.172 254.111,306.534 254.289,306.691 254.468,305.846 254.647,309.228 254.825,312.252 254.904,313.127 255.083,282.514 255.261,189.863 255.437,91.0452 255.614,126.188 255.791,125.366 255.968,124.154 256.072,123.974 256.249,264.04 256.428,250.422 256.606,239.789 256.781,307.251 256.95,297.362 257.128,315.247 257.305,230.748 257.478,166.975 257.64,221.28 257.683,302.048 257.862,266.563 258.039,262.12 258.216,204.277 258.392,227.52 258.568,228.544 258.728,230.236 258.767,231.16 258.946,228.388 259.117,229.923 259.295,225.815 259.472,225.033 259.65,237.713 259.828,105.931 260.007,125.126 260.172,123.989 260.351,124.617 260.529,123.211 260.708,313.442 260.887,309.443 261.052,307.422 261.231,305.444 261.408,306.992 261.585,306.835 261.761,306.276 261.934,306.147 262.099,225.985 262.206,199.942 262.384,112.409 262.563,127.161 262.741,124.752 262.919,123.525 263.095,123.181 263.273,122.328 263.452,123.076 263.63,122.942 263.806,122.807 263.983,121.76 264.119,121.655 264.298,121.506 264.476,121.79 264.653,122.493 264.828,122.343 264.918,122.194 265.093,122.194 265.269,121.685 265.448,122.119 265.619,122.912 265.771,309.3 265.807,308.856 265.986,304.227 266.163,302.435 266.34,303.467 266.519,301.704 266.697,300.601 266.874,300.357 267.036,300.601 267.124,300.944 267.303,302.836 267.477,304.714 267.654,270.533 267.831,221.663 268.006,273.184 268.183,162.781 268.357,121.536 268.527,125.725 268.657,123.555 268.836,123.136 268.912,121.879 269.035,123.047 269.1,122.927 269.218,122.777 269.328,122.822 269.439,122.777 269.534,121.895 269.632,122.628 269.739,122.089 269.918,123.63 270.095,121.356 270.144,125.305 270.323,122.014 270.5,123.106 270.678,123.48 270.853,123.525 271.015,123.66 271.193,123.855 271.367,123.286 271.531,121.76 271.708,124.498 271.885,123.376 271.951,124.139 272.13,289.952 272.307,298.866 272.48,293.234 272.657,290.626 272.831,292.948 272.93,294.123 273.108,297.147 273.287,300.128 273.465,302.951 273.643,306.835 273.811,310.432 273.987,247.338 274.165,188.143 274.344,99.962 274.522,125.066 274.694,124.692 274.843,123.361 274.994,122.777 275.156,123.316 275.311,124.184 275.49,121.895 275.667,122.942 275.843,122.762 276.019,124.393 276.189,123.9 276.368,124.393 276.543,122.493 276.714,122.673 276.89,123.929 277.056,122.897 277.226,123.061 277.395,122.897 277.551,121.85 277.576,122.044 277.755,204.704 277.934,268.397 278.101,267.122 278.275,256.273 278.449,257.592 278.626,256.66 278.799,241.58 278.961,243.144 279.019,244.167 279.197,249.854 279.373,249.683 279.544,247.778 279.717,109.238 279.883,137.873 280.03,139.758 280.161,140.476 280.265,141.329 280.443,246.3 280.537,250.465 280.715,239.05 280.894,201.477 281.073,199.302 281.251,199.97 281.43,200.198 281.609,198.477 281.776,131.484 281.949,120.383 282.127,122.493 282.301,124.782 282.471,162.198 282.574,306.219 282.753,250.863 282.931,278.53 283.103,272.195 283.272,278.2 283.416,323.001 283.467,309.916 283.645,314.731 283.823,305.789 283.995,309.73 284.168,306.319 284.311,310.59 284.49,310.919 284.667,312.267 284.842,314.746 285.018,317.268 285.196,274.102 285.228,250.166 285.406,315.133 285.585,235.296 285.758,149.077 285.927,126.487 286.102,126.024 286.279,122.882 286.394,122.612 286.46,122.508 286.639,122.673 286.806,123.406 286.973,123.331 287.136,122.972 287.299,123.51 287.477,123.525 287.599,123.226 287.737,123.316 287.907,197.184 288.051,200.354 288.218,290.153 288.388,249.484 288.562,244.366 288.734,251.162 288.898,244.124 288.951,220.953 289.13,171.453 289.306,185.726 289.48,125.305 289.654,112.679 289.823,122.298 289.991,122.897 290.165,123.061 290.332,122.852 290.481,122.792 290.659,123.286 290.838,123.136 291.011,121.565 291.187,124.438 291.365,122.433 291.542,124.348 291.703,125.051 291.748,124.198 291.927,123.106 292.099,122.957 292.276,122.972 292.455,122.867 292.633,122.164 292.792,122.777 292.956,307.566 293.135,305.832 293.313,230.051 293.492,278 293.668,284.048 293.845,277.899 294.024,302.593 294.202,307.91 294.338,303.682 294.516,304.886 294.691,307.781 294.869,308.397 295.047,288.404 295.225,219.702 295.404,166.918 295.519,148.992 295.698,159.029 295.877,158.417 296.055,196.018 296.219,108.804 296.259,123.9 296.438,124.258 296.617,123.345 296.795,123.51 296.972,123.226 297.134,123.496 297.234,123.376 297.413,123.675 297.587,123.825 297.759,123.166 297.934,123.301 298.099,123.54 298.277,121.835 298.431,123.061 298.61,123.48 298.784,123.839 298.875,123.226 299.054,122.014 299.233,121.969 299.411,123.196 299.59,122.792 299.6,122.463 299.779,121.94 299.954,123.959 300.129,122.807 300.3,121.116 300.478,122.583 300.656,123.151 300.828,123.78 300.997,121.655 301.156,232.226 301.283,150.954 301.43,242.234 301.579,225.573 301.758,210.717 301.936,169.477 302.115,164.8 302.294,155.73 302.472,138.501 302.651,134.193 302.829,138.307 303.008,136.646 303.09,135.659 303.241,254.997 303.297,289.15 303.426,310.89 303.605,306.161 303.784,303.452 303.955,304.542 304.123,306.305 304.196,307.021 304.374,309.73 304.553,313.213 304.73,315.047 304.893,314.889 305.056,262.092 305.235,230.918 305.413,256.875 305.592,256.316 305.771,190.445 305.949,252.128 306.128,245.39 306.307,220.981 306.485,209.295 306.664,208.642 306.843,235.353 307.021,227.705 307.2,189.195 307.379,180.963 307.557,188.64 307.736,184.475 307.915,177.168 308.093,188.981 308.272,211.399 308.451,297.29 308.629,247.551 308.808,231.06 308.987,227.108 309.146,313.327 309.19,324.105 309.368,243.684 309.543,237.344 309.594,257.921 309.772,254.353 309.951,243.229 310.13,325.452 310.308,316.394 310.487,313.714 310.666,313.671 310.817,314.459 310.995,315.448 311.174,231.274 311.353,326.097 311.531,319.805 311.71,317.942 311.889,317.555 312.067,317.569 312.227,317.512 312.349,317.555 312.482,317.512 312.569,317.469 312.728,295.398 312.793,276.079 312.972,195.122 313.151,163.833 313.329,184.048 313.502,177.893 313.666,175.433 313.831,289.881 313.951,243.94 314.129,250.351 314.298,248.162 314.41,237.827 314.584,239.604 314.613,241.651 314.791,241.58 314.97,247.252 315.149,253.537 315.327,224.166 315.506,258.967 315.632,244.167 315.739,243.158 315.899,228.188 316.077,216.446 316.256,217.328 316.435,156.171 316.613,125.949 316.745,125.366 316.914,123.496 317.073,123.061 317.198,123.271 317.345,122.792 317.483,123.406 317.656,122.523 317.832,123.211 318.004,123.54 318.172,123.151 318.283,123.211 318.461,122.762 318.64,122.059 318.819,122.777 318.983,123.465 319.157,123.091 319.331,124.752 319.446,123.48 319.625,122.134 319.801,123.181 319.951,122.448 320.13,122.942 320.308,124.513 320.485,122.673 320.651,122.777 320.83,123.66 320.962,124.423 321.122,123.061 321.165,165.141 321.344,185.498 321.365,195.066 321.544,193.616 321.633,199.117 321.811,212.352 321.99,227.094 322.039,227.677 322.196,228.118 322.375,229.781 322.432,230.591 322.611,230.847 322.774,231.899 322.818,224.08 322.997,192.109 323.07,193.559 323.225,193.459 323.397,166.563 323.566,115.88 323.699,120.174 323.878,122.328 324.056,122.463 324.228,121.595 324.338,237.33 324.517,168.766 324.685,90.8207 324.861,183.323 325.028,150.968 325.199,151.494 325.264,135.225 325.442,132.891 325.621,131.2 325.8,130.497 325.978,129.046 326.157,129.779 326.336,129.674 326.511,202.7 326.69,189.024 326.868,190.929 327.047,201.079 327.226,202.586 327.404,203.368 327.583,211.201 327.762,210.916 327.94,212.835 328.119,213.66 328.298,213.845 328.476,214.627 328.655,216.418 328.834,214.101 329.012,215.864 329.191,216.859 329.37,216.233 329.548,216.418 329.727,216.318 329.906,217.313 330.084,217.697 330.218,217.683 330.355,217.299 330.534,295.986 330.712,259.741 330.891,265.245 331.07,266.19 331.23,269.429 331.408,238.069 331.587,257.09 331.765,246.072 331.943,222.09 332.07,235.922 332.167,235.78 332.346,235.24 332.524,236.434 332.703,235.652 332.879,235.894 333.058,235.737 333.224,237.159 333.378,239.263 333.551,237.77 333.669,236.206 333.841,240.201 333.945,240.187 334.021,239.348 334.2,139.997 334.369,125.021 334.547,123.825 334.724,123.451 334.902,122.208 335.079,122.493 335.256,122.942 335.434,122.972 335.609,124.647 335.784,125.021 335.961,122.882 336.138,122.284 336.306,123.002 336.476,123.825 336.653,122.179 336.82,122.987 336.984,123.496 337.124,123.331 337.227,201.704 337.405,134.97 337.529,136.81 337.7,135.928 337.879,136.302 338.022,136.751 338.122,136.736 338.301,137.917 338.463,136.99 338.586,137.723 338.652,138.92 338.831,150.94 339.009,151.806 339.188,150.556 339.364,151.181 339.513,152.048 339.669,152.034 339.845,152.12 340.018,153.172 340.135,151.963 340.264,152.475 340.334,152.589 340.46,151.849 340.638,175.32 340.651,174.68 340.83,176.926 340.905,175.334 341.027,175.59 341.192,177.353 341.251,176.528 341.429,177.04 341.602,177.95 341.781,218.963 341.959,266.434 342.138,255.728 342.305,257.548 342.477,259.082 342.647,260.128 342.813,288.992 342.989,284.363 343.153,286.599 343.329,286.026 343.493,286.441 343.664,287.086 343.81,287.358 343.973,283.703 344.13,287.301 344.306,287.502 344.456,287.43 344.635,287.803 344.814,286.341 344.992,196.118 345.171,224.919 345.35,223.825 345.528,221.863 345.707,224.791 345.885,226.141 346.064,223.952 346.243,223.042 346.421,224.791 346.6,222.403 346.771,223.398 346.91,223.369 346.996,222.673 347.167,222.545 347.345,222.801 347.524,223.412 347.703,215.636 347.826,136.002 347.97,124.513 348.143,123.78 348.318,124.124 348.48,122.598 348.658,122.673 348.832,122.972 349.01,122.612 349.177,122.972 349.348,124.917 349.514,122.478 349.692,121.999 349.87,121.67 350.048,123.406 350.215,124.558 350.388,124.423 350.567,123.271 350.745,123.211 350.924,122.867 351.102,123.076 351.274,133.579 351.448,125.889 351.607,124.408 351.784,123.66 351.962,161.559 352.132,162.554 352.31,166.506 352.485,191.213 352.663,181.674 352.835,183.977 353.009,183.764 353.184,185.726 353.358,185.882 353.52,188.64 353.683,272.382 353.832,257.118 353.971,277.526 354.143,278.63 354.321,280.279 354.5,283.532 354.67,282.887 354.824,284.564 354.937,286.685 355.074,288.562 355.222,292.79 355.377,293.263 355.555,292.675 355.731,299.454 355.759,299.554 355.916,300.758 356.094,253.665 356.273,156.569 356.452,123.301 356.626,124.902 356.804,123.555 356.979,120.817 357.131,275.735 357.252,306.261 357.431,299.855 357.61,265.502 357.78,202.174 357.944,194.568 358.121,211.627 358.297,229.752 358.476,227.492 358.653,228.587 358.83,229.667 358.992,229.511 359.158,229.795 359.299,232.197 359.463,137.08 359.619,248.176 359.785,225.374 359.939,201.093 360.084,222.829 360.252,223.967 360.381,225.772 360.528,251.758 360.614,242.504 360.751,192.948 360.929,172.135 361.091,183.466 361.269,182.101 361.448,222.289 361.627,230.079 361.805,219.346 361.984,220.896 362.163,221.01 362.341,221.322 362.52,222.417 362.699,276.968 362.877,291.357 363.056,283.89 363.234,285.724 363.413,324.191 363.592,315.778 363.77,296.444 363.949,276.165 364.128,269.974 364.306,285.882 364.485,202.927 364.664,178.959 364.831,114.833 365.006,125.425 365.179,123.48 365.351,123.451 365.528,122.837 365.707,121.73 365.883,123.241 365.893,123.316 366.072,122.538 366.25,191.17 366.429,178.902 366.608,271.35 366.779,307.924 366.947,301.675 367.124,301.059 367.296,302.836 367.475,303.711 367.653,304.757 367.832,306.104 368.01,306.204 368.189,252.085 368.354,283.919 368.532,324.334 368.682,317.655 368.855,225.346 368.872,221.422 369.051,214.613 369.161,145.219 369.34,242.205 369.518,276.882 369.697,263.224 369.876,269.931 370.054,217.797 370.233,120.488 370.409,129.719 370.578,131.858 370.755,123.301 370.925,122.403 371.101,122.328 371.27,122.149 371.439,122.029 371.535,122.298 371.714,123.136 371.892,123.047 372.069,123.241 372.248,123.51 372.426,123.406 372.603,122.777 372.768,122.343 372.941,122.643 372.964,122.553 373.143,122.418 373.315,122.673 373.489,122.463 373.66,120.279 373.808,120.324 373.857,120.982 374.036,121.685 374.214,121.071 374.392,120.518 374.571,122.927 374.739,178.049 374.792,284.549 374.971,303.467 375.149,301.532 375.328,300.042 375.507,302.793 375.572,303.008 375.751,306.491 375.929,309.629 376.103,312.08 376.281,313.714 376.431,314.058 376.595,315.19 376.773,316.322 376.886,317.153 377.065,317.698 377.236,314.603 377.413,234.515 377.59,239.519 377.764,312.496 377.937,276.624 378.024,273.17 378.203,272.711 378.376,275.305 378.552,299.813 378.731,294.266 378.907,190.644 379.081,159.44 379.243,178.206 379.42,176.173 379.57,128.462 379.685,103.523 379.826,122.643 379.969,122.448 380.148,182.883 380.266,216.119 380.417,201.349 380.595,224.763 380.774,89.9979 380.953,124.572 381.131,123.585 381.31,123.181 381.488,123.136 381.667,121.805 381.842,121.177 382.02,122.957 382.185,122.852 382.23,123.196 382.4,121.879 382.578,124.303 382.756,123.69 382.934,123.226 383.11,120.518 383.28,278.1 383.351,307.852 383.53,297.104 383.708,277.226 383.886,294.653 384.063,215.679 384.241,146.939 384.413,166.378 384.591,105.886 384.749,123.825 384.927,199.928 385.104,165.681 385.279,210.177 385.452,300.199 385.628,240.088 385.799,177.48 385.974,223.682 386.079,314.731 386.257,224.606 386.436,240.329 386.611,131.918 386.79,125.037 386.957,124.094 387.049,123.78 387.228,123.48 387.402,123.061 387.575,123.69 387.753,123.241 387.929,156.327 388.096,215.252 388.112,195.052 388.291,80.8567 388.469,128.238 388.641,122.149 388.814,289.809 388.988,261.332 389.166,272.095 389.33,305.874 389.508,297.806 389.52,297.705 389.698,258.194 389.871,198.605 390.049,114.803 390.222,125.485 390.394,124.438 390.569,123.54 390.742,121.79 390.898,122.493 390.957,122.882 391.136,122.942 391.315,121.356 391.493,124.064 391.67,117.481 391.848,121.625 392.024,123.435 392.201,122.224 392.336,121.879 392.512,122.583 392.689,122.508 392.864,119.605 393.039,122.822 393.213,122.358 393.38,122.762 393.558,122.553 393.692,121.161 393.871,122.418 394.047,122.358 394.224,123.166 394.402,122.478 394.506,122.927 394.681,123.675 394.859,123.825 395.032,124.004 395.204,122.927 395.378,121.595 395.555,123.047 395.732,121.491 395.798,120.413 395.976,120.937 396.155,121.057 396.332,122.179 396.433,121.64 396.611,121.865 396.782,121.132 396.942,122.957 397.048,279.118 397.227,304.871 397.403,300.3 397.58,294.524 397.758,295.785 397.936,294.237 398.108,293.377 398.129,293.55 398.307,296.143 398.483,300.687 398.66,204.519 398.836,127.041 399.007,125.321 399.173,125.635 399.336,123.825 399.513,122.807 399.687,122.538 399.865,122.179 400.044,122.358 400.223,122.478 400.401,120.533 400.549,122.239 400.659,122.628 400.837,122.328 401.016,122.807 401.118,122.583 401.212,123.839 401.375,121.685 401.541,122.762 401.72,121.266 401.769,122.314 401.948,122.029 402.127,121.954 402.305,122.478 402.464,121.071 402.642,122.119 402.821,119.306 402.993,121.012 403.098,121.565 403.276,121.879 403.452,122.314 403.617,121.057 403.753,123.81 403.932,306.434 404.11,119.366 404.288,127.071 404.464,123.974 404.639,192.606 404.815,304.198 404.858,302.536 405.037,298.508 405.215,297.978 405.394,299.411 405.568,304.141 405.745,308.626 405.924,310.461 406.102,311.707 406.263,313.714 406.43,315.348 406.596,317.025 406.775,317.197 406.949,318.745 407.128,276.982 407.307,305.789 407.485,305.086 407.664,309.042 407.843,310.26 408.021,309.959 408.2,259.512 408.379,288.534 408.557,288.935 408.736,288.203 408.915,192.99 409.093,105.258 409.272,127.685 409.432,124.019 409.61,160.891 409.659,280.995 409.837,270.074 410.016,302.306 410.195,302.406 410.373,265.101 410.552,324.162 410.731,291.873 410.909,303.438 411.088,304.37 411.267,304.528 411.445,307.566 411.624,306.434 411.803,308.311 411.949,307.867 412.099,307.566 412.278,293.736 412.397,303.711 412.575,304.771 412.754,305.402 412.933,304.757 413.111,304.413 413.288,304.484 413.46,203.368 413.633,200.667 413.804,202.856 413.976,200.496 414.154,232.61 414.181,233.292 414.36,235.453 414.493,235.282 414.661,233.903 414.826,233.818 414.974,232.695 415.12,238.524 415.287,234.202 415.463,234.515 415.623,326.383 415.792,295.556 415.97,296.502 416.128,307.594 416.281,305.975 416.441,306.491 416.605,308.01 416.78,307.723 416.957,309.128 417.134,310.246 417.281,310.432 417.419,261.49 417.482,220.967 417.615,239.874 417.794,252.668 417.972,288.763 417.978,288.892 418.157,287.774 418.326,290.526 418.482,297.462 418.661,298.035 418.809,297.132 418.948,297.705 419.127,297.791 419.293,298.078 419.457,298.265 419.621,298.236 419.782,301.89 419.954,301.26 420.118,301.231 420.296,307.064 420.442,306.376 420.584,306.39 420.73,306.964 420.882,306.821 421.038,307.136 421.209,307.136 421.372,307.15 421.539,307.336 421.667,307.537 421.799,307.48 421.93,307.15 422.057,307.279 422.189,307.351 422.313,307.322 422.449,306.835 422.585,306.964 422.725,306.821 422.86,306.649 422.977,306.548 423.125,306.735 423.261,306.52 423.438,321.826 423.583,308.712 423.754,308.583 423.906,309.171 424.078,309.013 424.239,308.87 424.394,309.3 424.569,284.821 424.742,301.647 424.897,303.18 425.055,314.588 425.217,303.567 425.389,304.843 425.551,305.115 425.71,305.129 425.87,305.172 426.027,304.284 426.185,304.083 426.364,305.158 426.532,304.542 426.698,303.725 426.87,303.639 427.032,302.966 427.211,302.98 427.387,302.263 427.554,302.105 427.727,301.675 427.898,301.976 428.071,300.386 428.245,299.999 428.418,299.712 428.596,300.257 428.764,299.11 428.942,299.11 429.09,300.916 429.251,268.068 429.424,224.791 429.576,256.56 429.72,256.115 429.897,230.364 430.072,266.95 430.239,239.774 430.402,238.481 430.573,237.429 430.74,239.576 430.916,236.675 431.082,237.315 431.237,238.751 431.397,238.666 431.542,235.623 431.695,238.183 431.861,237.898 432.039,255.055 432.186,254.869 432.332,255.728 432.503,280.465 432.68,281.97 432.85,291.572 433.02,290.454 433.184,293.019 433.358,294.266 433.531,295.685 433.698,296.401 433.863,298.164 434.031,293.005 434.21,294.151 434.386,298.093 434.562,299.153 434.741,300.271 434.91,299.884 435.079,301.719 435.253,301.389 435.431,302.12 435.6,302.134 435.779,299.497 435.946,320.693 436.107,306.763 436.262,305.932 436.409,306.276 436.581,306.39 436.753,314.416 436.891,308.225 437.057,307.881 437.16,307.078 437.304,307.293 437.466,306.978 437.634,293.191 437.785,315.978 437.963,297.347 437.968,291.643 438.147,304.8 438.325,293.076 438.504,241.481 438.683,245.291 438.861,230.804 439.04,229.966 439.219,257.276 439.397,275.148 439.576,273.041 439.755,274.646 439.933,275.549 440.112,274.603 440.291,275.191 440.469,275.563 440.648,277.556 440.826,282.7 441.005,281.97 441.184,266.405 441.362,272.998 441.541,255.255 441.72,263.955 441.898,267.294 442.077,267.724 442.256,267.337 442.434,267.294 442.613,267.595 442.792,267.466 442.97,267.624 443.149,267.624 443.328,267.609 443.391,267.566 443.539,267.523 443.71,267.91 443.875,268.455 444.052,267.323 444.105,266.979 444.284,266.19 444.462,274.302 444.641,277.57 444.82,278.042 444.998,276.18 445.177,277.598 445.199,277.556 445.378,267.681 445.557,266.52 445.735,267.967 445.914,267.58 446.093,266.563 446.271,268.054 446.45,266.878 446.629,267.194 446.807,267.294 446.986,262.407 447.164,265.588 447.202,265.072 447.381,264.686 447.43,264.686 447.609,264.7 447.76,264.571 447.811,263.969 447.99,264.427 448.168,264.299 448.347,265.402 448.526,264.901 448.704,265.202 448.883,261.991 449.062,261.361 449.24,261.317 449.419,260.716 449.597,260.443 449.776,260.73 449.955,261.948 450.133,260.845 450.312,260.415 450.491,261.618 450.669,260.186 450.848,336.745 451.027,333.821 451.205,325.322 451.33,310.418 451.48,309.414 451.652,305.688 451.758,307.996 451.878,307.623 451.984,305.574 452.119,302.98 452.298,312.396 452.476,305.602 452.655,302.721 452.834,304.413 453.012,248.304 453.191,299.841 453.37,299.182 453.548,297.562 453.727,231.97 453.906,277.727 454.084,287.072 454.263,293.793 454.415,290.11 454.582,283.188 454.755,266.864 454.93,264.987 455.087,311.292 455.263,290.798 455.401,287.688 455.569,315.033 455.732,295.47 455.858,297.648 456.021,327.816 456.176,323.402 456.353,347.35 456.494,344.728 456.652,310.203 456.803,249.456 456.977,194.227 457.122,214.229 457.281,321.052 457.395,298.938 457.508,307.007 457.636,335.727 457.815,348.368 457.821,347.838 458,319.447 458.178,281.21 458.357,283.13 458.536,228.601 458.714,183.949 458.893,195.805 459.072,115.327 459.25,127.101 459.429,123.51 459.608,122.837 459.786,122.643 459.965,123.496 460.144,124.034 460.306,124.752 460.485,124.423 460.651,124.617 460.826,125.141 460.924,125.425 461.076,124.513 461.247,124.947 461.423,124.393 461.589,255.112 461.759,249.399 461.906,253.895 462.028,322.012 462.178,318.902 462.353,302.736 462.459,294.51 462.638,288.29 462.658,287.072 462.836,297.419 463.01,245.489 463.188,293.464 463.272,291.514 463.45,292.102 463.629,293.306 463.808,293.019 463.986,256.775 464.111,224.549 464.289,268.469 464.461,239.504 464.475,239.135 464.654,242.12 464.791,281.797 464.931,266.391 465.109,274.861 465.275,272.009 465.453,274.03 465.609,275.033 465.788,262.378 465.967,263.353 466.145,282.156 466.31,307.222 466.488,290.927 466.653,291.93 466.822,305.359 467.001,295.943 467.158,296.201 467.335,296.645 467.502,297.663 467.677,297.663 467.846,297.247 467.996,297.075 468.165,296.358 468.329,295.627 468.464,306.075 468.622,323.947 468.798,349.643 468.976,338.981 469.155,287.673 469.334,284.635 469.512,286.441 469.691,285.839 469.87,283.703 470.048,283.059 470.227,297.075 470.406,283.718 470.584,283.933 470.763,284.048 470.942,284.334 471.12,283.001 471.299,283.488 471.478,284.004 471.656,283.604 471.835,282.256 472.013,283.231 472.192,282.672 472.371,283.202 472.549,283.288 472.728,284.019 472.907,282.858 473.085,283.202 473.264,282.901 473.443,281.582 473.621,283.13 473.8,283.059 473.979,281.482 474.157,281.912 474.336,282.156 474.515,282.557 474.693,281.912 474.872,282.271 475.05,281.64 475.229,282.385 475.408,282.428 475.586,281.955 475.765,281.482 475.944,281.066 476.122,280.809 476.301,281.54 476.48,281.081 476.658,281.912 476.837,280.895 477.016,281.998 477.194,280.651 477.373,280.694 477.552,280.651 477.73,281.253 477.909,280.479 478.088,280.436 478.266,281.038 478.445,280.58 478.623,278.558 478.802,280.479 478.981,279.834 479.16,279.605 479.338,279.705 479.517,279.805 479.695,279.977 479.874,279.705 480.053,279.576 480.231,278.53 480.41,278.544 480.589,277.326 480.767,278.129 480.946,279.017 481.125,279.16 481.303,279.418 481.482,280.078 481.661,278.773 481.839,278.487 482.018,279.404 482.197,278.516 482.375,278.702 482.554,277.699 482.733,278.874 482.911,278.616 483.09,279.103 483.269,279.404 483.447,277.828 483.626,277.741 483.805,278.114 483.983,278.042 484.162,278.516 484.341,279.103 484.519,278.343 484.698,279.906 484.877,277.054 485.055,278.688 485.234,279.333 485.413,277.828 485.591,278.301 485.77,277.842 485.949,279.304 486.127,278.903 486.306,278.659 486.485,278.859 486.663,278.63 486.842,278.688 487.02,279.49 487.199,277.684 487.378,276.036 487.556,276.194 487.735,276.882 487.914,277.713 488.092,278.802 488.271,277.942 488.45,277.914 488.628,277.828 488.807,278.186 488.986,277.584 489.164,278.329 489.343,276.524 489.522,276.882 489.7,277.813 489.879,277.942 490.057,277.512 490.236,277.627 490.415,276.652 490.593,276.867 490.772,277.068 490.951,277.656 491.129,277.942 491.308,278.186 491.487,278.042 491.665,279.476 491.844,281.367 492.023,281.912 492.201,281.611 492.38,282.357 492.559,279.763 492.737,276.581 492.916,275.635 493.095,275.721 493.273,276.28 493.452,276.351 493.631,275.018 493.809,274.875 493.988,275.463 494.167,274.359 494.345,275.793 494.524,275.592 494.703,272.74 494.881,275.377 495.06,273.757 495.239,275.162 495.417,274.23 495.596,274.474 495.775,275.047 495.953,275.176 496.132,275.749" stroke-width="2" stroke-linejoin="round" stroke-linecap="butt"/>
  </g>
 </g>
</svg>
