<?xml version='1.0' encoding='UTF-8' standalone='no'?>
<svg xmlns="http://www.w3.org/2000/svg" xmlns:xlink="http://www.w3.org/1999/xlink" height="432pt" width="576pt" viewBox="0 0 576 432">
 <title>gl2ps_renderer figure</title>
 <desc>
Creator: GL2PS 1.4.0, (C) 1999-2017 C. Geuzaine
For: Octave
CreationDate: Fri Jul 02 16:46:43 2021
</desc>
 <defs/>
 <polygon points="0,0 576,0 576,432 0,432" fill="#ffffff"/>
 <g>
  <polygon points="0,432 576,432 576,0 0,0" fill="#ffffff" shape-rendering="crispEdges"/>
  <clipPath id="cp00576432">
   <polygon points="0,432 576,432 576,0 0,0"/>
  </clipPath>
  <g clip-path="url(#cp00576432)">
   <polygon points="74.88,384.48 521.28,384.48 521.28,32.4 74.88,32.4" fill="#ffffff" shape-rendering="crispEdges"/>
   <polyline points="74.88,384.48 74.88,32.4" stroke-linejoin="miter" fill="none" stroke-opacity="0.15" stroke-dasharray="16,0" stroke-linecap="butt" stroke="#262626" stroke-width="0.5"/>
   <polyline points="164.16,384.48 164.16,32.4" stroke-linejoin="miter" fill="none" stroke-opacity="0.15" stroke-dasharray="16,0" stroke-linecap="butt" stroke="#262626" stroke-width="0.5"/>
   <polyline points="253.44,384.48 253.44,32.4" stroke-linejoin="miter" fill="none" stroke-opacity="0.15" stroke-dasharray="16,0" stroke-linecap="butt" stroke="#262626" stroke-width="0.5"/>
   <polyline points="342.72,384.48 342.72,32.4" stroke-linejoin="miter" fill="none" stroke-opacity="0.15" stroke-dasharray="16,0" stroke-linecap="butt" stroke="#262626" stroke-width="0.5"/>
   <polyline points="432,384.48 432,32.4" stroke-linejoin="miter" fill="none" stroke-opacity="0.15" stroke-dasharray="16,0" stroke-linecap="butt" stroke="#262626" stroke-width="0.5"/>
   <polyline points="521.28,384.48 521.28,32.4" stroke-linejoin="miter" fill="none" stroke-opacity="0.15" stroke-dasharray="16,0" stroke-linecap="butt" stroke="#262626" stroke-width="0.5"/>
   <polyline points="74.88,384.48 74.88,380.015" stroke-linejoin="miter" fill="none" stroke-linecap="butt" stroke="#262626" stroke-width="0.5"/>
   <polyline points="74.88,32.4 74.88,36.8651" stroke-linejoin="miter" fill="none" stroke-linecap="butt" stroke="#262626" stroke-width="0.5"/>
   <polyline points="164.16,384.48 164.16,380.015" stroke-linejoin="miter" fill="none" stroke-linecap="butt" stroke="#262626" stroke-width="0.5"/>
   <polyline points="164.16,32.4 164.16,36.8651" stroke-linejoin="miter" fill="none" stroke-linecap="butt" stroke="#262626" stroke-width="0.5"/>
   <polyline points="253.44,384.48 253.44,380.015" stroke-linejoin="miter" fill="none" stroke-linecap="butt" stroke="#262626" stroke-width="0.5"/>
   <polyline points="253.44,32.4 253.44,36.8651" stroke-linejoin="miter" fill="none" stroke-linecap="butt" stroke="#262626" stroke-width="0.5"/>
   <polyline points="342.72,384.48 342.72,380.015" stroke-linejoin="miter" fill="none" stroke-linecap="butt" stroke="#262626" stroke-width="0.5"/>
   <polyline points="342.72,32.4 342.72,36.8651" stroke-linejoin="miter" fill="none" stroke-linecap="butt" stroke="#262626" stroke-width="0.5"/>
   <polyline points="432,384.48 432,380.015" stroke-linejoin="miter" fill="none" stroke-linecap="butt" stroke="#262626" stroke-width="0.5"/>
   <polyline points="432,32.4 432,36.8651" stroke-linejoin="miter" fill="none" stroke-linecap="butt" stroke="#262626" stroke-width="0.5"/>
   <polyline points="521.28,384.48 521.28,380.015" stroke-linejoin="miter" fill="none" stroke-linecap="butt" stroke="#262626" stroke-width="0.5"/>
   <polyline points="521.28,32.4 521.28,36.8651" stroke-linejoin="miter" fill="none" stroke-linecap="butt" stroke="#262626" stroke-width="0.5"/>
   <text font-size="10" font-family="FreeSans" font-style="normal" xml:space="preserve" transform="translate(71.88,399.982) rotate(-0,3,-8)" font-weight="normal">
    <tspan x="0 " fill="rgb(38,38,38)" y="-0">0</tspan>
   </text>
   <text font-size="10" font-family="FreeSans" font-style="normal" xml:space="preserve" transform="translate(152.16,399.982) rotate(-0,12,-8)" font-weight="normal">
    <tspan x="0 6 12 18 " fill="rgb(38,38,38)" y="-0">1000</tspan>
   </text>
   <text font-size="10" font-family="FreeSans" font-style="normal" xml:space="preserve" transform="translate(241.44,399.982) rotate(-0,12,-8)" font-weight="normal">
    <tspan x="0 6 12 18 " fill="rgb(38,38,38)" y="-0">2000</tspan>
   </text>
   <text font-size="10" font-family="FreeSans" font-style="normal" xml:space="preserve" transform="translate(330.72,399.982) rotate(-0,12,-8)" font-weight="normal">
    <tspan x="0 6 12 18 " fill="rgb(38,38,38)" y="-0">3000</tspan>
   </text>
   <text font-size="10" font-family="FreeSans" font-style="normal" xml:space="preserve" transform="translate(420,399.982) rotate(-0,12,-8)" font-weight="normal">
    <tspan x="0 6 12 18 " fill="rgb(38,38,38)" y="-0">4000</tspan>
   </text>
   <text font-size="10" font-family="FreeSans" font-style="normal" xml:space="preserve" transform="translate(509.28,399.982) rotate(-0,12,-8)" font-weight="normal">
    <tspan x="0 6 12 18 " fill="rgb(38,38,38)" y="-0">5000</tspan>
   </text>
   <polyline points="74.88,384.48 521.28,384.48" stroke-linejoin="miter" fill="none" stroke-opacity="0.15" stroke-dasharray="16,0" stroke-linecap="butt" stroke="#262626" stroke-width="0.5"/>
   <polyline points="74.88,314.064 521.28,314.064" stroke-linejoin="miter" fill="none" stroke-opacity="0.15" stroke-dasharray="16,0" stroke-linecap="butt" stroke="#262626" stroke-width="0.5"/>
   <polyline points="74.88,243.648 521.28,243.648" stroke-linejoin="miter" fill="none" stroke-opacity="0.15" stroke-dasharray="16,0" stroke-linecap="butt" stroke="#262626" stroke-width="0.5"/>
   <polyline points="74.88,173.232 521.28,173.232" stroke-linejoin="miter" fill="none" stroke-opacity="0.15" stroke-dasharray="16,0" stroke-linecap="butt" stroke="#262626" stroke-width="0.5"/>
   <polyline points="74.88,102.816 521.28,102.816" stroke-linejoin="miter" fill="none" stroke-opacity="0.15" stroke-dasharray="16,0" stroke-linecap="butt" stroke="#262626" stroke-width="0.5"/>
   <polyline points="74.88,32.4 521.28,32.4" stroke-linejoin="miter" fill="none" stroke-opacity="0.15" stroke-dasharray="16,0" stroke-linecap="butt" stroke="#262626" stroke-width="0.5"/>
   <polyline points="74.88,384.48 79.348,384.48" stroke-linejoin="miter" fill="none" stroke-linecap="butt" stroke="#262626" stroke-width="0.5"/>
   <polyline points="521.28,384.48 516.812,384.48" stroke-linejoin="miter" fill="none" stroke-linecap="butt" stroke="#262626" stroke-width="0.5"/>
   <polyline points="74.88,314.064 79.348,314.064" stroke-linejoin="miter" fill="none" stroke-linecap="butt" stroke="#262626" stroke-width="0.5"/>
   <polyline points="521.28,314.064 516.812,314.064" stroke-linejoin="miter" fill="none" stroke-linecap="butt" stroke="#262626" stroke-width="0.5"/>
   <polyline points="74.88,243.648 79.348,243.648" stroke-linejoin="miter" fill="none" stroke-linecap="butt" stroke="#262626" stroke-width="0.5"/>
   <polyline points="521.28,243.648 516.812,243.648" stroke-linejoin="miter" fill="none" stroke-linecap="butt" stroke="#262626" stroke-width="0.5"/>
   <polyline points="74.88,173.232 79.348,173.232" stroke-linejoin="miter" fill="none" stroke-linecap="butt" stroke="#262626" stroke-width="0.5"/>
   <polyline points="521.28,173.232 516.812,173.232" stroke-linejoin="miter" fill="none" stroke-linecap="butt" stroke="#262626" stroke-width="0.5"/>
   <polyline points="74.88,102.816 79.348,102.816" stroke-linejoin="miter" fill="none" stroke-linecap="butt" stroke="#262626" stroke-width="0.5"/>
   <polyline points="521.28,102.816 516.812,102.816" stroke-linejoin="miter" fill="none" stroke-linecap="butt" stroke="#262626" stroke-width="0.5"/>
   <polyline points="74.88,32.4 79.348,32.4" stroke-linejoin="miter" fill="none" stroke-linecap="butt" stroke="#262626" stroke-width="0.5"/>
   <polyline points="521.28,32.4 516.812,32.4" stroke-linejoin="miter" fill="none" stroke-linecap="butt" stroke="#262626" stroke-width="0.5"/>
   <text font-size="10" font-family="FreeSans" font-style="normal" xml:space="preserve" transform="translate(63.8755,388.48) rotate(-0,6,-4)" font-weight="normal">
    <tspan x="0 " fill="rgb(38,38,38)" y="-0">0</tspan>
   </text>
   <text font-size="10" font-family="FreeSans" font-style="normal" xml:space="preserve" transform="translate(51.8755,318.064) rotate(-0,18,-4)" font-weight="normal">
    <tspan x="0 6 12 " fill="rgb(38,38,38)" y="-0">500</tspan>
   </text>
   <text font-size="10" font-family="FreeSans" font-style="normal" xml:space="preserve" transform="translate(45.8755,247.648) rotate(-0,24,-4)" font-weight="normal">
    <tspan x="0 6 12 18 " fill="rgb(38,38,38)" y="-0">1000</tspan>
   </text>
   <text font-size="10" font-family="FreeSans" font-style="normal" xml:space="preserve" transform="translate(45.8755,177.232) rotate(-0,24,-4)" font-weight="normal">
    <tspan x="0 6 12 18 " fill="rgb(38,38,38)" y="-0">1500</tspan>
   </text>
   <text font-size="10" font-family="FreeSans" font-style="normal" xml:space="preserve" transform="translate(45.8755,106.816) rotate(-0,24,-4)" font-weight="normal">
    <tspan x="0 6 12 18 " fill="rgb(38,38,38)" y="-0">2000</tspan>
   </text>
   <text font-size="10" font-family="FreeSans" font-style="normal" xml:space="preserve" transform="translate(45.8755,36.4) rotate(-0,24,-4)" font-weight="normal">
    <tspan x="0 6 12 18 " fill="rgb(38,38,38)" y="-0">2500</tspan>
   </text>
   <polyline points="74.88,384.48 521.28,384.48" stroke-linejoin="miter" fill="none" stroke-dasharray="16,0" stroke-linecap="square" stroke="#262626" stroke-width="0.5"/>
   <polyline points="74.88,32.4 521.28,32.4" stroke-linejoin="miter" fill="none" stroke-dasharray="16,0" stroke-linecap="square" stroke="#262626" stroke-width="0.5"/>
   <polyline points="74.88,384.48 74.88,32.4" stroke-linejoin="miter" fill="none" stroke-dasharray="16,0" stroke-linecap="square" stroke="#262626" stroke-width="0.5"/>
   <polyline points="521.28,384.48 521.28,32.4" stroke-linejoin="miter" fill="none" stroke-dasharray="16,0" stroke-linecap="square" stroke="#262626" stroke-width="0.5"/>
   <text font-size="11" font-family="FreeSans" font-style="normal" xml:space="preserve" transform="translate(273.08,416.982) rotate(-0,25,-12)" font-weight="normal">
    <tspan x="0 7 13 22 28 34 37 41 46 " fill="rgb(38,38,38)" y="-3">Tempo (s)</tspan>
   </text>
   <text font-size="11" font-family="FreeSans" font-style="normal" xml:space="preserve" transform="translate(3.37552,208.44) rotate(-90,37.5,0)" font-weight="normal">
    <tspan x="0 7 13 19 21 24 31 33 39 47 50 54 56 62 65 71 " fill="rgb(38,38,38)" y="-3">Fuel Flow (lb/h)</tspan>
   </text>
   <polyline points="128.984,330.507 129.162,329.729 129.341,314.154 129.52,294.5 129.698,260.855 129.877,175.752 130.056,44.9874 130.234,69.9505 130.413,77.3383 130.592,82.3457 130.77,86.8844 130.949,89.3265 131.127,91.2013 131.306,91.2135 131.485,92.6072 131.663,91.8055 131.842,91.0778 132.021,91.3122 132.199,91.7069 132.378,89.7212 132.557,89.0304 132.735,89.2771 132.914,89.5237 133.07,89.869 133.24,90.1034 133.402,90.683 133.581,91.3122 133.727,90.942 133.906,89.8322 134.085,88.389 134.263,192.932 134.442,69.6915 134.621,80.5696 134.799,80.8286 134.978,79.953 135.157,78.3127 135.335,77.0916 135.514,75.8583 135.693,130.906 135.871,176.438 136.05,206.668 136.229,244.628 136.407,247.248 136.586,245.536 136.765,244.888 136.943,243.803 137.122,252.273 137.301,251.319 137.479,238.491 137.658,223.479 137.837,224.704 137.977,225.442 138.135,225.167 138.286,225.354 138.446,225.667 138.605,225.817 138.781,206.656 138.955,193.632 139.097,184.44 139.244,185.61 139.378,185.244 139.51,183.979 139.687,184.606 139.864,184.499 140.011,184.783 140.173,185.043 140.32,185.445 140.497,182.23 140.648,182.703 140.824,182.159 141.002,182.703 141.159,182.986 141.318,183.672 141.494,183.908 141.641,184.429 141.793,184.381 141.929,196.731 142.093,196.332 142.196,195.544 142.373,191.357 142.536,183.105 142.697,157.277 142.869,165.421 143.027,166.591 143.185,166.568 143.362,167.206 143.536,162.986 143.71,165.031 143.885,166.32 144.059,176.981 144.23,184.393 144.403,188.341 144.569,120.539 144.747,125.244 144.926,126.426 145.101,127.431 145.276,127.691 145.433,127.371 145.592,127.88 145.771,127.714 145.92,127.868 146.098,128.045 146.275,128.341 146.438,128.884 146.601,128.896 146.766,129.818 146.945,133.424 147.111,135.138 147.28,150.918 147.452,151.911 147.624,153.234 147.794,154.889 147.972,156.851 148.138,158.317 148.312,160.22 148.491,161.521 148.656,163.199 148.818,159.558 148.992,156.887 149.153,157.667 149.331,158.435 149.504,159.192 149.659,160.043 149.83,160.646 149.982,161.272 150.152,162.017 150.316,162.064 150.477,162.206 150.636,162.892 150.815,164.109 150.974,165.256 151.143,170.114 151.3,177.147 151.448,176.887 151.603,176.875 151.781,177.821 151.958,178.506 152.135,178.885 152.295,179.594 152.455,179.807 152.632,180.717 152.807,181.403 152.965,182.1 153.125,182.809 153.284,183.435 153.461,184.44 153.607,184.381 153.765,184.901 153.934,184.878 154.093,185.138 154.252,185.457 154.396,185.043 154.567,190.907 154.741,188.494 154.837,188.601 154.929,187.478 155.059,172.289 155.218,172.963 155.355,172.774 155.504,173.317 155.672,173.542 155.834,152.348 155.979,152.183 156.144,147.431 156.3,152.052 156.47,153.79 156.625,154.617 156.797,155.776 156.961,156.816 157.137,159.003 157.297,158.116 157.469,161.036 157.646,160.421 157.807,161.249 157.971,162.348 158.133,190.532 158.312,190.919 158.482,191.957 158.639,193.069 158.803,194.444 158.939,194.994 159.109,196.369 159.268,206.681 159.396,207.181 159.536,207.793 159.704,213.03 159.797,212.805 159.922,230.004 160.068,299.146 160.246,278.802 160.425,273.643 160.604,273.496 160.782,273.533 160.961,273.056 161.064,273.117 161.243,273.02 161.421,272.934 161.6,273.57 161.779,280.489 161.957,280.868 162.136,280.636 162.314,280.416 162.493,280.624 162.672,280.44 162.85,280.208 163.029,281.797 163.053,281.92 163.231,229.167 163.41,208.443 163.513,212.955 163.692,192.794 163.703,192.682 163.881,191.294 164.06,173.566 164.239,139.015 164.417,158.979 164.596,161.733 164.775,164.074 164.919,165.587 165.05,166.391 165.228,166.343 165.377,167.171 165.556,186.71 165.734,169.688 165.913,166.201 166.092,171.39 166.27,177.525 166.449,186.473 166.628,186.095 166.806,324.406 166.985,326.079 167.164,321.586 167.342,320.334 167.521,327.199 167.7,327.436 167.878,326.145 168.053,326.145 168.23,274.902 168.393,199.369 168.562,156.556 168.739,161.792 168.916,165.468 169.089,170.244 169.268,173.92 169.434,177.289 169.611,179.653 169.79,181.674 169.868,181.627 170.047,182.466 170.218,182.206 170.384,183.258 170.563,183.968 170.724,197.119 170.9,162.502 171.043,182.395 171.221,183.684 171.399,183.376 171.578,182.833 171.757,181.722 171.935,181.059 172.114,180.232 172.293,179.759 172.471,178.837 172.65,178.767 172.829,177.939 173.007,177.301 173.186,186.26 173.364,194.094 173.543,168.849 173.722,173.329 173.9,175.681 174.079,177.667 174.24,178.069 174.368,178.069 174.546,177.478 174.636,252.224 174.814,326.119 174.993,327.318 175.172,327.173 175.237,327.634 175.402,327.7 175.455,323.602 175.63,321.375 175.73,321.52 175.908,321.335 176.087,313.666 176.265,297.825 176.438,296.994 176.607,308.764 176.783,240.816 176.962,252.774 177.132,251.001 177.295,251.001 177.46,250.659 177.638,251.906 177.775,255.182 177.954,253.727 178.133,283.301 178.311,283.937 178.49,273.386 178.669,276.479 178.847,257.016 179.026,255.83 179.205,257.786 179.383,191.832 179.51,195.069 179.689,189.245 179.868,183.601 180.046,166.603 180.225,169.476 180.404,170.327 180.582,170.149 180.761,173.436 180.918,236.754 181.013,247.346 181.162,253.361 181.204,249.314 181.382,247.187 181.561,248.434 181.739,262.053 181.918,262.041 182.097,262.31 182.229,272.677 182.335,268.508 182.49,268.728 182.668,268.227 182.847,268.19 183.026,268.447 183.204,268.484 183.383,268.496 183.562,268.581 183.74,268.545 183.907,269.107 184.06,268.912 184.238,259.718 184.386,260.085 184.52,260.28 184.692,260.72 184.831,260.439 184.992,260.941 185.165,261.185 185.339,260.843 185.515,261.185 185.684,261.185 185.837,261.21 185.998,261.417 186.174,261.772 186.307,261.955 186.467,261.698 186.57,261.589 186.697,261.833 186.872,261.894 186.906,261.747 187.085,262.065 187.259,261.43 187.431,261.552 187.549,261.698 187.724,261.552 187.862,262.114 187.976,261.919 188.105,262.64 188.281,262.408 188.399,262.347 188.574,256.601 188.688,214.48 188.804,229.154 188.983,219.205 189.162,221.43 189.34,221.43 189.519,221.13 189.698,220.48 189.869,220.13 190.005,219.555 190.184,239.128 190.246,236.103 190.424,235.054 190.603,235.441 190.782,235.941 190.95,236.591 191.127,237.203 191.301,237.778 191.454,238.691 191.616,238.778 191.789,239.503 191.964,239.416 192.138,239.428 192.143,239.428 192.322,239.266 192.5,238.778 192.679,238.903 192.858,238.553 193.036,238.166 193.215,238.028 193.393,238.103 193.572,237.816 193.751,237.528 193.93,237.303 194.108,237.603 194.287,237.691 194.465,238.066 194.644,238.278 194.823,238.666 194.99,238.816 195.169,257.139 195.348,254.608 195.526,253.935 195.705,253.508 195.861,253.446 195.995,253.52 196.088,271.442 196.266,265.501 196.425,265.488 196.594,265.183 196.624,265.342 196.803,265.109 196.858,265.097 197.026,265.134 197.205,265.317 197.384,265.134 197.562,264.841 197.741,264.767 197.766,265.073 197.945,265.036 198.123,265.354 198.293,265.195 198.469,265.415 198.646,265.207 198.813,264.89 198.955,264.841 199.115,264.963 199.275,264.706 199.442,264.841 199.618,264.241 199.785,263.863 199.945,263.85 200.037,264.022 200.216,263.704 200.395,272.543 200.573,270.183 200.752,273.178 200.931,277.445 201.102,277.592 201.231,277.433 201.403,277.579 201.486,277.69 201.665,277.421 201.844,277.078 202.022,277.445 202.201,276.944 202.38,276.834 202.538,276.834 202.688,276.736 202.796,276.491 202.967,276.858 203.145,276.675 203.324,276.919 203.503,276.968 203.681,277.201 203.86,277.078 204.039,277.445 204.217,277.433 204.372,277.91 204.542,277.934 204.691,278.056 204.776,278.056 204.946,278.032 205.124,278.142 205.303,278.02 205.481,277.934 205.66,277.763 205.837,277.323 206.015,276.981 206.191,276.748 206.342,276.296 206.517,275.734 206.696,275.672 206.863,275.257 207.039,274.878 207.216,274.829 207.328,274.878 207.467,274.817 207.646,275.061 207.824,275.232 208.003,275.464 208.182,275.709 208.36,275.77 208.539,276.051 208.718,275.611 208.896,275.954 209.075,276.015 209.254,276.113 209.432,276.357 209.611,275.746 209.789,275.782 209.968,275.746 210.128,275.318 210.304,275.012 210.441,275.012 210.567,274.804 210.717,274.804 210.895,274.352 211.004,274.768 211.125,274.633 211.286,274.511 211.325,274.645 211.503,274.78 211.529,274.768 211.707,274.755 211.886,274.719 212.065,274.853 212.243,274.927 212.422,275.025 212.601,275.245 212.752,275.122 212.897,275.025 213.033,274.878 213.158,274.682 213.285,274.169 213.444,271.002 213.567,261.686 213.655,263.997 213.783,263.924 213.909,263.997 214.07,264.119 214.239,263.777 214.415,264.205 214.564,263.911 214.719,264.119 214.835,264.022 214.945,264.193 215.044,264.241 215.17,263.985 215.28,263.899 215.427,263.753 215.591,263.63 215.769,263.386 215.772,263.447 215.951,263.508 216.13,263.569 216.308,263.875 216.487,263.618 216.666,263.801 216.844,264.315 217.023,264.51 217.19,264.596 217.315,264.877 217.453,264.804 217.603,264.657 217.781,264.877 217.798,264.975 217.976,264.327 218.131,264.779 218.272,265.317 218.45,265.207 218.622,264.865 218.753,265.232 218.879,265.244 219.032,270.978 219.21,272.665 219.389,272.53 219.568,272.983 219.746,272.958 219.925,264.718 220.104,265.965 220.282,266.259 220.461,266.564 220.64,266.564 220.818,266.625 220.997,266.369 221.176,266.21 221.354,266.185 221.533,266.075 221.712,266.075 221.89,246.478 222.069,248.74 222.248,249.021 222.426,249.449 222.605,249.216 222.784,249.412 222.962,248.85 223.141,248.96 223.32,248.984 223.498,249.106 223.677,249.4 223.855,249.009 223.987,249.082 224.114,248.923 224.28,267.897 224.419,262.897 224.598,262.383 224.776,262.175 224.955,262.652 225.134,262.567 225.312,262.371 225.491,262.603 225.67,262.31 225.848,262.334 226.027,262.591 226.205,262.799 226.384,263.19 226.523,263.153 226.661,263.655 226.793,263.435 226.966,263.948 227.089,264.327 227.226,264.29 227.314,264.364 227.489,264.523 227.617,264.523 227.669,264.51 227.798,264.669 227.977,263.447 228.156,263.386 228.334,262.884 228.513,262.591 228.691,262.775 228.87,263.019 229.049,262.579 229.141,263.263 229.262,263.471 229.44,263.129 229.462,263.459 229.64,263.312 229.819,262.848 229.998,263.019 230.176,262.897 230.355,262.481 230.534,262.31 230.712,262.065 230.891,261.919 231.07,261.662 231.248,262.285 231.42,263.019 231.569,263.398 231.724,263.704 231.898,264.095 232.017,245.842 232.196,233.916 232.374,235.703 232.553,235.529 232.732,234.804 232.903,235.279 233.012,248.972 233.17,246.282 233.346,246.001 233.514,246.025 233.688,245.781 233.867,245.219 234.016,245.475 234.195,245.891 234.374,273.313 234.552,264.865 234.731,264.706 234.91,264.816 235.088,264.841 235.267,264.718 235.446,264.743 235.624,264.877 235.803,264.731 235.982,264.755 236.16,265.122 236.339,265.195 236.518,265.085 236.696,264.804 236.875,264.718 237.054,264.572 237.232,264.535 237.411,264.596 237.59,264.877 237.768,265.44 237.921,265.452 238.046,265.513 238.206,265.88 238.385,265.916 238.563,264.975 238.714,178.613 238.854,166.497 239.029,174.239 239.204,182.478 239.382,187.194 239.509,190.944 239.687,189.182 239.709,189.519 239.887,194.932 240.066,193.932 240.244,193.357 240.423,192.419 240.602,191.444 240.767,194.569 240.933,192.994 241.1,194.656 241.275,191.569 241.452,190.057 241.599,188.885 241.774,187.786 241.926,186.627 242.102,185.74 242.279,184.984 242.393,218.892 242.496,193.519 242.674,188.223 242.853,189.069 243.032,188.577 243.21,188.648 243.389,188.424 243.568,325.157 243.746,329.163 243.925,329.953 244.104,329.993 244.282,330.296 244.461,330.48 244.639,330.572 244.818,329.795 244.997,329.703 245.175,329.756 245.354,310.517 245.533,305.813 245.711,307.71 245.869,308.132 246.012,308.343 246.185,305.286 246.219,304.996 246.397,301.781 246.558,246.698 246.72,168.589 246.895,177.029 247.07,180.764 247.229,182.466 247.396,185.067 247.574,186.225 247.748,187.1 247.907,188.778 247.986,189.807 248.164,190.682 248.343,189.769 248.522,191.269 248.7,189.607 248.879,188.684 249.057,188.946 249.236,189.282 249.415,187.951 249.593,187.064 249.772,206.193 249.951,205.568 250.056,205.381 250.151,207.243 250.312,210.618 250.444,208.568 250.623,202.806 250.798,177.336 250.957,178.412 251.117,176.19 251.288,175.043 251.463,173.802 251.641,170.35 251.808,168.211 251.883,167.241 252.062,167.703 252.24,167.017 252.38,167.655 252.557,168.01 252.711,167.975 252.865,167.714 253.032,167.762 253.2,169.547 253.217,169.464 253.396,168.636 253.575,167.915 253.753,167.383 253.932,265.036 254.111,327.99 254.289,329.097 254.468,329.716 254.647,329.98 254.825,330.177 254.904,329.677 255.083,313.719 255.261,248.715 255.437,164.523 255.614,171.119 255.791,179.925 255.968,184.818 256.072,186.012 256.249,287.837 256.428,298.84 256.606,278.998 256.781,313.218 256.95,326.29 257.128,327.015 257.305,289.744 257.478,236.466 257.64,205.993 257.683,298.779 257.862,289.585 258.039,286.614 258.216,244.303 258.392,257.97 258.568,263.361 258.728,264.828 258.767,266.222 258.946,266.002 259.117,264.841 259.295,258.74 259.472,254.657 259.65,269.572 259.828,167.135 260.007,152.478 260.172,152.478 260.351,157.053 260.529,156.509 260.708,326.777 260.887,329.149 261.052,329.597 261.231,329.782 261.408,329.795 261.585,330.414 261.761,330.467 261.934,330.586 262.099,286.7 262.206,265.537 262.384,221.292 262.563,171.532 262.741,176.97 262.919,172.395 263.095,168.081 263.273,163.849 263.452,161.509 263.63,158.837 263.806,156.048 263.983,153.672 264.119,153.79 264.298,155.232 264.476,157.135 264.653,163.329 264.828,167.076 264.918,167.537 265.093,165.93 265.269,163.4 265.448,162.372 265.619,159.842 265.771,325.987 265.807,327.581 265.986,329.4 266.163,330.427 266.34,330.454 266.519,330.164 266.697,330.823 266.874,331.086 267.036,331.139 267.124,331.231 267.303,331.218 267.477,331.245 267.654,312.849 267.831,277.579 268.006,301.939 268.183,235.891 268.357,138.223 268.527,158.353 268.657,158.672 268.836,159.133 268.912,159.239 269.035,161.84 269.1,161.083 269.218,161.261 269.328,161.166 269.439,161.521 269.534,161.461 269.632,161.899 269.739,162.123 269.918,160.906 270.095,163.057 270.144,165.327 270.323,164.558 270.5,172.454 270.678,179.44 270.853,186.213 271.015,189.494 271.193,187.277 271.367,182.833 271.531,181.059 271.708,179.511 271.885,178.767 271.951,178.258 272.13,311.637 272.307,329.255 272.48,330.177 272.657,330.941 272.831,331.126 272.93,330.862 273.108,331.192 273.287,331.179 273.465,330.981 273.643,331.93 273.811,331.772 273.987,296.615 274.165,249.497 274.344,157.643 274.522,157.194 274.694,157.123 274.843,157.572 274.994,157.525 275.156,158.187 275.311,157.407 275.49,158.506 275.667,166.733 275.843,175.149 276.019,183.731 276.189,185.811 276.368,184.168 276.543,178.436 276.714,174.558 276.89,171.745 277.056,169.357 277.226,165.989 277.395,161.982 277.551,158.896 277.576,158.849 277.755,214.105 277.934,315.142 278.101,306.366 278.275,289.451 278.449,287.47 278.626,288.717 278.799,270.599 278.961,272.628 279.019,273.301 279.197,279.634 279.373,279.45 279.544,274.89 279.717,177.573 279.883,160.871 280.03,159.192 280.161,159.216 280.265,162.135 280.443,268.386 280.537,281.7 280.715,272.115 280.894,255.928 281.073,219.23 281.251,223.979 281.43,225.029 281.609,221.642 281.776,159.381 281.949,153.376 282.127,161.674 282.301,168.956 282.471,195.569 282.574,320.874 282.753,291.064 282.931,310.293 283.103,302.914 283.272,303.467 283.416,328.24 283.467,328.859 283.645,330.072 283.823,329.953 283.995,330.059 284.168,330.493 284.311,331.113 284.49,331.376 284.667,331.39 284.842,331.785 285.018,331.561 285.196,309.371 285.228,299.671 285.406,319.741 285.585,282.47 285.758,236.616 285.927,133.152 286.102,148.483 286.279,144.889 286.394,145.114 286.46,145.906 286.639,149.204 286.806,153.684 286.973,156.958 287.136,159.452 287.299,161.875 287.477,163.187 287.599,163.282 287.737,163.554 287.907,236.303 288.051,238.528 288.218,314.299 288.388,289.108 288.562,280.147 288.734,283.68 288.898,282.543 288.951,268.423 289.13,207.218 289.306,217.73 289.48,174.097 289.654,153.045 289.823,160.918 289.991,160.563 290.165,158.317 290.332,156.06 290.481,154.074 290.659,156.544 290.838,158.341 291.011,159.606 291.187,167.821 291.365,170.374 291.542,176.166 291.703,178.128 291.748,177.915 291.927,175.989 292.099,173.566 292.276,170.019 292.455,166.662 292.633,161.852 292.792,160.847 292.956,323.865 293.135,328.701 293.313,304.192 293.492,310.556 293.668,313.35 293.845,311.953 294.024,323.048 294.202,330.362 294.338,330.665 294.516,330.507 294.691,330.612 294.869,330.638 295.047,318.687 295.225,277.665 295.404,225.279 295.519,172.714 295.698,179.038 295.877,181.036 296.055,253.08 296.219,141.804 296.259,158.235 296.438,166.06 296.617,167.301 296.795,172.644 296.972,177.868 297.134,181.816 297.234,182.064 297.413,181.627 297.587,179.357 297.759,175.563 297.934,173.199 298.099,171.071 298.277,168.589 298.431,167.525 298.61,167.573 298.784,166.473 298.875,166.06 299.054,164.381 299.233,166.533 299.411,167.655 299.59,167.23 299.6,167.466 299.779,166.71 299.954,166.166 300.129,166.781 300.3,168.495 300.478,174.157 300.656,177.1 300.828,176.544 300.997,172.49 301.156,285.062 301.283,224.142 301.43,281.944 301.579,263.765 301.758,244.59 301.936,208.531 302.115,191.344 302.294,183.093 302.472,169.109 302.651,163.79 302.829,165.398 303.008,165.209 303.09,165.114 303.241,253.251 303.297,303.665 303.426,328.649 303.605,330.085 303.784,330.849 303.955,330.467 304.123,330.968 304.196,330.955 304.374,331.442 304.553,331.917 304.73,331.218 304.893,330.968 305.056,312.704 305.235,285.062 305.413,271.626 305.592,274.597 305.771,241.553 305.949,276.088 306.128,267.163 306.307,230.291 306.485,230.916 306.664,227.892 306.843,243.915 307.021,251.087 307.2,222.117 307.379,202.844 307.557,207.218 307.736,203.006 307.915,192.057 308.093,209.805 308.272,237.291 308.451,305.536 308.629,276.565 308.808,242.091 308.987,273.398 309.146,316.288 309.19,325.565 309.368,276.015 309.543,273.888 309.594,278.215 309.772,280.159 309.951,275.061 310.13,327.252 310.308,331.06 310.487,331.139 310.666,331.245 310.817,331.39 310.995,331.231 311.174,292.055 311.353,330.441 311.531,331.297 311.71,331.442 311.889,331.561 312.067,331.732 312.227,331.759 312.349,331.956 312.482,332.035 312.569,332.061 312.728,322.495 312.793,309.845 312.972,253.727 313.151,170.953 313.329,194.557 313.502,193.507 313.666,195.307 313.831,309.199 313.951,274.89 314.129,275.721 314.298,278.411 314.41,271.992 314.584,265.342 314.613,267.261 314.791,269.34 314.97,275.147 315.149,280.012 315.327,264.498 315.506,278.961 315.632,273.472 315.739,272.971 315.899,264.07 316.077,242.265 316.256,244.515 316.435,194.369 316.613,169.688 316.745,170.752 316.914,171.119 317.073,171.201 317.198,171.154 317.345,171.166 317.483,171.261 317.656,170.35 317.832,169.192 318.004,166.473 318.172,164.097 318.283,164.275 318.461,163.707 318.64,164.676 318.819,167.147 318.983,168.825 319.157,173.105 319.331,175.835 319.446,176.166 319.625,177.714 319.801,174.783 319.951,173.814 320.13,174.381 320.308,177.714 320.485,182.265 320.651,186.095 320.83,187.632 320.962,186.923 321.122,185.551 321.165,212.818 321.344,220.779 321.365,233.416 321.544,242.903 321.633,247.089 321.811,261.809 321.99,274.645 322.039,274.328 322.196,273.484 322.375,273.08 322.432,273.044 322.611,272.983 322.774,272.371 322.818,267.384 322.997,225.454 323.07,231.054 323.225,233.154 323.397,199.156 323.566,166.272 323.699,173.672 323.878,177.975 324.056,179.003 324.228,177.951 324.338,272.751 324.517,253.605 324.685,161.816 324.861,233.866 325.028,191.732 325.199,192.694 325.264,180.256 325.442,182.265 325.621,181.84 325.8,180.788 325.978,180.303 326.157,179.677 326.336,179.83 326.511,244.503 326.69,243.266 326.868,243.228 327.047,244.428 327.226,244.528 327.404,244.303 327.583,250.598 327.762,250.194 327.94,250.341 328.119,250.329 328.298,250.28 328.476,250.463 328.655,251.087 328.834,250.879 329.012,250.867 329.191,250.891 329.37,250.757 329.548,250.671 329.727,250.427 329.906,249.852 330.084,249.901 330.218,249.656 330.355,249.094 330.534,313.192 330.712,288.522 330.891,293.742 331.07,293.241 331.23,294.011 331.408,278.937 331.587,282.311 331.765,277.8 331.943,262.408 332.07,265.219 332.167,267.286 332.346,267.787 332.524,267.934 332.703,267.603 332.879,267.334 333.058,265.794 333.224,265.941 333.378,266.1 333.551,264.902 333.669,264.877 333.841,265.709 333.945,265.99 334.021,265.696 334.2,202.718 334.369,164.18 334.547,165.551 334.724,161.698 334.902,155.953 335.079,155.906 335.256,160.634 335.434,168.246 335.609,174.558 335.784,180.114 335.961,186.698 336.138,188.034 336.306,191.057 336.476,192.307 336.653,192.794 336.82,193.807 336.984,193.732 337.124,193.882 337.227,249.73 337.405,196.469 337.529,194.282 337.7,192.707 337.879,192.557 338.022,192.432 338.122,191.994 338.301,191.682 338.463,191.507 338.586,191.307 338.652,192.757 338.831,201.843 339.009,201.406 339.188,199.744 339.364,198.569 339.513,197.769 339.669,197.194 339.845,196.094 340.018,195.807 340.135,195.007 340.264,194.944 340.334,194.932 340.46,194.482 340.638,220.492 340.651,219.817 340.83,215.018 340.905,215.93 341.027,214.805 341.192,215.18 341.251,215.03 341.429,214.705 341.602,214.617 341.781,243.565 341.959,296.762 342.138,290.563 342.305,289.61 342.477,288.852 342.647,288.081 342.813,315.129 342.989,310.952 343.153,310.438 343.329,310.425 343.493,310.293 343.664,310.398 343.81,310.556 343.973,310.846 344.13,311.545 344.306,311.453 344.456,311.532 344.635,311.202 344.814,309.806 344.992,249.412 345.171,248.752 345.35,250.427 345.528,250.549 345.707,252.725 345.885,256.466 346.064,254.583 346.243,255.011 346.421,254.962 346.6,255.182 346.771,255.757 346.91,256.393 346.996,255.843 347.167,256.014 347.345,256.319 347.524,255.207 347.703,250.439 347.826,184.689 347.97,169.819 348.143,174.263 348.318,180.646 348.48,184.074 348.658,184.937 348.832,189.394 349.01,194.306 349.177,197.719 349.348,200.356 349.514,199.456 349.692,201.819 349.87,203.781 350.048,204.056 350.215,209.805 350.388,206.681 350.567,205.468 350.745,203.768 350.924,201.419 351.102,198.081 351.274,209.143 351.448,195.094 351.607,192.819 351.784,190.732 351.962,201.719 352.132,216.38 352.31,212.78 352.485,227.742 352.663,226.754 352.835,225.929 353.009,224.154 353.184,223.055 353.358,221.53 353.52,221.58 353.683,293.717 353.832,290.637 353.971,306.459 354.143,308.053 354.321,308.54 354.5,310.556 354.67,309.489 354.824,308.857 354.937,309.621 355.074,311.018 355.222,312.783 355.377,313.416 355.555,313.245 355.731,315.63 355.759,315.959 355.916,317.54 356.094,293.265 356.273,233.304 356.452,144.499 356.626,169.901 356.804,176.769 356.979,180.232 357.131,301.939 357.252,329.4 357.431,331.086 357.61,309.871 357.78,276.479 357.944,246.625 358.121,248.495 358.297,270.428 358.476,265.342 358.653,265.342 358.83,266.442 358.992,265.66 359.158,264.951 359.299,265.207 359.463,215.005 359.619,275.782 359.785,259.351 359.939,228.054 360.084,253.324 360.252,253.202 360.381,253.63 360.528,270.978 360.614,269.217 360.751,232.141 360.929,209.88 361.091,207.256 361.269,206.568 361.448,248.25 361.627,258.422 361.805,250.292 361.984,249.84 362.163,249.559 362.341,249.375 362.52,249.449 362.699,287.764 362.877,315.788 363.056,310.451 363.234,309.885 363.413,329.387 363.592,331.192 363.77,330.849 363.949,313.456 364.128,298.987 364.306,304.087 364.485,252.578 364.664,227.504 364.831,142.702 365.006,163.518 365.179,168.033 365.351,173.211 365.528,176.119 365.707,177.821 365.883,178.885 365.893,178.825 366.072,178.885 366.25,218.367 366.429,224.942 366.608,301.097 366.779,330.23 366.947,331.1 367.124,331.245 367.296,331.231 367.475,331.218 367.653,331.073 367.832,330.823 368.01,331.007 368.189,301.873 368.354,309.094 368.532,328.754 368.682,330.849 368.855,288.35 368.872,284.756 369.051,262.872 369.161,232.291 369.34,263.716 369.518,303.678 369.697,295.551 369.876,302.558 370.054,275.171 370.233,220.292 370.409,173.305 370.578,167.478 370.755,170.421 370.925,169.464 371.101,167.431 371.27,165.823 371.439,164.783 371.535,165.539 371.714,166.012 371.892,166.816 372.069,168.365 372.248,169.062 372.426,169.807 372.603,169.547 372.768,168.731 372.941,169.062 372.964,168.849 373.143,167.265 373.315,165.303 373.489,162.123 373.66,158.719 373.808,157.372 373.857,157.714 374.036,160.067 374.214,160.268 374.392,165.339 374.571,172.111 374.739,214.317 374.792,307.605 374.971,329.4 375.149,329.624 375.328,330.559 375.507,330.77 375.572,330.559 375.751,330.717 375.929,330.915 376.103,330.889 376.281,331.007 376.431,331.007 376.595,331.192 376.773,331.152 376.886,331.152 377.065,331.666 377.236,331.39 377.413,297.899 377.59,276.773 377.764,318.977 377.937,308.211 378.024,305.549 378.203,305.813 378.376,304.284 378.552,327.898 378.731,321.283 378.907,262.457 379.081,201.519 379.243,203.156 379.42,202.744 379.57,169.948 379.685,150.008 379.826,163.636 379.969,165.823 380.148,209.618 380.266,247.016 380.417,237.054 380.595,263.19 380.774,149.263 380.953,165.398 381.131,167.194 381.31,169.582 381.488,169.488 381.667,168.589 381.842,174.074 382.02,178.873 382.185,182.454 382.23,182.821 382.4,182.064 382.578,178.093 382.756,172.218 382.934,166.84 383.11,159.641 383.28,292.372 383.351,323.496 383.53,328.899 383.708,318.779 383.886,323.773 384.063,290.001 384.241,249.913 384.413,198.919 384.591,171.922 384.749,184.204 384.927,234.466 385.104,213.093 385.279,258.202 385.452,320.387 385.628,288.852 385.799,242.191 385.974,255.94 386.079,321.704 386.257,273.9 386.436,273.203 386.611,217.442 386.79,164.653 386.957,174.487 387.049,175.693 387.228,176.142 387.402,175.339 387.575,173.376 387.753,171.426 387.929,208.268 388.096,285.575 388.112,274.719 388.291,166.391 388.469,174.783 388.641,177.573 388.814,304.324 388.988,312.546 389.166,316.46 389.33,330.599 389.508,331.376 389.52,331.39 389.698,313.798 389.871,273.655 390.049,234.029 390.222,154.913 390.394,170.268 390.569,167.017 390.742,162.904 390.898,162.963 390.957,163.873 391.136,165.209 391.315,165.421 391.493,167.383 391.67,165.729 391.848,170.149 392.024,179.559 392.201,185.208 392.336,190.057 392.512,189.069 392.689,184.807 392.864,176.426 393.039,174.949 393.213,172.242 393.38,169.653 393.558,168.069 393.692,166.001 393.871,168.648 394.047,174.121 394.224,181.851 394.402,188.246 394.506,189.932 394.681,186.804 394.859,181.32 395.032,177.372 395.204,173.388 395.378,169.18 395.555,166.804 395.732,163.388 395.798,162.691 395.976,162.821 396.155,167.726 396.332,171.568 396.433,171.804 396.611,170.126 396.782,166.639 396.942,166.284 397.048,300.137 397.227,329.268 397.403,330.335 397.58,330.783 397.758,331.31 397.936,331.495 398.108,331.495 398.129,331.535 398.307,331.732 398.483,331.64 398.66,277.176 398.836,228.392 399.007,160.398 399.173,172.277 399.336,171.332 399.513,171.284 399.687,171.32 399.865,172.159 400.044,172.017 400.223,172.324 400.401,170.563 400.549,170.599 400.659,171.828 400.837,172.762 401.016,171.674 401.118,171.201 401.212,171.485 401.375,169.074 401.541,170.244 401.72,168.128 401.769,167.821 401.948,167.537 402.127,167.076 402.305,167.076 402.464,166.686 402.642,168.223 402.821,170.93 402.993,173.636 403.098,175.752 403.276,175.741 403.452,171.249 403.617,167.632 403.753,169.322 403.932,325.143 404.11,218.58 404.288,170.102 404.464,178.696 404.639,245.561 404.815,328.148 404.858,329.268 405.037,330.362 405.215,331.403 405.394,331.521 405.568,331.627 405.745,331.35 405.924,331.337 406.102,331.429 406.263,331.469 406.43,331.442 406.596,331.245 406.775,330.823 406.949,331.152 407.128,313.64 407.307,321.296 407.485,320.94 407.664,324.34 407.843,325.038 408.021,324.972 408.2,301.412 408.379,295.062 408.557,293.95 408.736,294.133 408.915,244.065 409.093,144.842 409.272,164.369 409.432,164.913 409.61,197.906 409.659,284.292 409.837,302.15 410.016,323.562 410.195,330.414 410.373,303.467 410.552,329.637 410.731,330.704 410.909,329.294 411.088,329.031 411.267,327.95 411.445,328.372 411.624,328.148 411.803,328.583 411.949,328.728 412.099,328.873 412.278,319.965 412.397,323.641 412.575,323.088 412.754,323.325 412.933,323.338 413.111,322.996 413.288,322.851 413.46,262.016 413.633,210.905 413.804,223.842 413.976,217.855 414.154,258.019 414.181,257.42 414.36,259.608 414.493,260.073 414.661,260.439 414.826,258.336 414.974,257.799 415.12,264.902 415.287,260.794 415.463,260.329 415.623,328.372 415.792,319.741 415.97,318.581 416.128,322.956 416.281,325.789 416.441,325.064 416.605,324.722 416.78,324.406 416.957,324.182 417.134,323.786 417.281,323.536 417.419,298.253 417.482,274.315 417.615,251.453 417.794,262.689 417.972,305.602 417.978,305.048 418.157,304.429 418.326,306.682 418.482,313.403 418.661,312.836 418.809,312.414 418.948,312.309 419.127,311.914 419.293,311.874 419.457,311.294 419.621,311.149 419.782,313.087 419.954,312.401 420.118,312.401 420.296,317.791 420.442,311.756 420.584,313.021 420.73,313.021 420.882,313.152 421.038,312.889 421.209,312.757 421.372,312.573 421.539,312.414 421.667,312.401 421.799,312.401 421.93,312.401 422.057,312.388 422.189,312.375 422.313,312.414 422.449,312.164 422.585,312.138 422.725,312.322 422.86,312.032 422.977,311.598 423.125,311.888 423.261,311.703 423.438,321.335 423.583,319.425 423.754,319.016 423.906,318.964 424.078,318.489 424.239,318.568 424.394,318.476 424.569,317.936 424.742,307.275 424.897,308.843 425.055,319.056 425.217,316.104 425.389,315.485 425.551,315.445 425.71,314.945 425.87,314.747 426.027,314.773 426.185,314.523 426.364,314.918 426.532,314.615 426.698,314.272 426.87,313.983 427.032,313.311 427.211,312.942 427.387,312.638 427.554,312.19 427.727,311.874 427.898,311.664 428.071,311.479 428.245,311.347 428.418,310.846 428.596,310.504 428.764,310.188 428.942,309.779 429.09,310.425 429.251,294.231 429.424,252.456 429.576,252.468 429.72,254.755 429.897,240.266 430.072,248.752 430.239,237.004 430.402,236.716 430.573,235.929 430.74,236.778 430.916,235.629 431.082,234.754 431.237,234.878 431.397,235.803 431.542,234.179 431.695,234.678 431.861,234.604 432.039,259.889 432.186,259.901 432.332,259.84 432.503,282.69 432.68,298.155 432.85,305.101 433.02,302.545 433.184,308.448 433.358,307.407 433.531,308.777 433.698,308.448 433.863,310.504 434.031,309.16 434.21,307.921 434.386,306.366 434.562,304.522 434.741,304.113 434.91,303.559 435.079,303.375 435.253,303.401 435.431,303.48 435.6,303.928 435.779,305.549 435.946,317.922 436.107,312.164 436.262,312.164 436.409,312.151 436.581,311.914 436.753,317.685 436.891,314.47 437.057,314.127 437.16,314.365 437.304,314.114 437.466,314.22 437.634,310.583 437.785,316.513 437.963,304.706 437.968,299.757 438.147,292.263 438.325,293.363 438.504,217.355 438.683,223.055 438.861,210.893 439.04,197.269 439.219,222.204 439.397,274.951 439.576,272.298 439.755,273.606 439.933,272.371 440.112,272.188 440.291,272.298 440.469,272.592 440.648,274.083 440.826,281.076 441.005,281.7 441.184,264.254 441.362,257.64 441.541,258.276 441.72,258.117 441.898,267.396 442.077,267.09 442.256,267.127 442.434,267.005 442.613,267.151 442.792,266.821 442.97,268.679 443.149,268.471 443.328,268.581 443.391,268.435 443.539,268.386 443.71,268.753 443.875,268.398 444.052,267.237 444.105,266.98 444.284,266.356 444.462,269.718 444.641,279.206 444.82,279.817 444.998,276.565 445.177,277.812 445.199,277.567 445.378,266.1 445.557,266.442 445.735,266.723 445.914,266.638 446.093,266.515 446.271,266.32 446.45,266.442 446.629,266.197 446.807,266.43 446.986,265.855 447.164,265.978 447.202,265.843 447.381,265.586 447.43,265.672 447.609,265.892 447.76,265.586 447.811,265.085 447.99,265.378 448.168,265.623 448.347,266.21 448.526,266.088 448.704,266.173 448.883,256.026 449.062,258.972 449.24,259.376 449.419,258.936 449.597,259.241 449.776,259.73 449.955,259.571 450.133,259.486 450.312,259.828 450.491,259.718 450.669,259.571 450.848,317 451.027,330.902 451.205,332.009 451.33,332.43 451.48,345.687 451.652,343.143 451.758,337.043 451.878,337.016 451.984,336.502 452.119,337.346 452.298,338.044 452.476,336.41 452.655,337.122 452.834,337.016 453.012,296.774 453.191,326.119 453.37,322.68 453.548,317.488 453.727,272.726 453.906,283.79 454.084,301.293 454.263,305.18 454.415,305.338 454.582,302.057 454.755,267.848 454.93,275.025 455.087,311.479 455.263,309.687 455.401,308.422 455.569,331.113 455.732,321.032 455.858,323.655 456.021,332.417 456.176,346.596 456.353,347.281 456.494,341.918 456.652,336.858 456.803,316.196 456.977,290.832 457.122,310.491 457.281,332.404 457.395,340.745 457.508,347.057 457.636,347.914 457.815,339.006 457.821,338.479 458,335.896 458.178,336.739 458.357,336.489 458.536,313.126 458.714,286.419 458.893,249.436 459.072,115.634 459.25,66.6452 459.429,71.6649 459.608,74.4646 459.786,77.2148 459.965,79.879 460.144,82.0496 460.306,82.543 460.485,82.543 460.651,81.9756 460.826,82.432 460.924,81.6426 461.076,79.9654 461.247,82.0742 461.423,84.2574 461.589,285.526 461.759,271.626 461.906,271.137 462.028,318.819 462.178,330.849 462.353,331.469 462.459,331.653 462.638,344.053 462.658,340.534 462.836,332.206 463.01,300.221 463.188,321.283 463.272,316.486 463.45,316.618 463.629,316.895 463.808,316.368 463.986,291.615 464.111,266.149 464.289,273.362 464.461,225.217 464.475,226.117 464.654,232.516 464.791,282.812 464.931,275.294 465.109,291.712 465.275,283.643 465.453,284.267 465.609,284.842 465.788,266.332 465.967,270.538 466.145,283.106 466.31,329.822 466.488,318.581 466.653,318.186 466.822,331.231 467.001,323.747 467.158,323.483 467.335,323.589 467.502,323.76 467.677,323.206 467.846,323.075 467.996,322.508 468.165,321.823 468.329,321.915 468.464,327.015 468.622,346.319 468.798,347.176 468.976,337.714 469.155,335.83 469.334,336.95 469.512,336.779 469.691,336.449 469.87,336.397 470.048,336.423 470.227,336.107 470.406,336.449 470.584,336.529 470.763,336.555 470.942,336.687 471.12,336.502 471.299,336.463 471.478,336.647 471.656,336.99 471.835,336.674 472.013,336.555 472.192,336.581 472.371,336.529 472.549,336.608 472.728,336.871 472.907,336.529 473.085,336.357 473.264,336.568 473.443,336.357 473.621,336.647 473.8,336.608 473.979,336.555 474.157,336.239 474.336,336.344 474.515,336.7 474.693,336.146 474.872,336.568 475.05,336.225 475.229,336.687 475.408,336.739 475.586,336.344 475.765,336.239 475.944,336.252 476.122,336.502 476.301,335.791 476.48,336.278 476.658,336.515 476.837,336.12 477.016,336.344 477.194,336.067 477.373,336.133 477.552,336.067 477.73,336.146 477.909,336.212 478.088,336.305 478.266,336.173 478.445,336.331 478.623,335.83 478.802,336.16 478.981,335.856 479.16,336.436 479.338,336.028 479.517,336.225 479.695,335.856 479.874,335.764 480.053,336.384 480.231,335.949 480.41,336.186 480.589,335.751 480.767,335.843 480.946,335.764 481.125,336.067 481.303,335.988 481.482,335.988 481.661,336.054 481.839,336.041 482.018,335.777 482.197,335.896 482.375,335.856 482.554,335.553 482.733,335.988 482.911,335.83 483.09,335.698 483.269,336.133 483.447,335.751 483.626,335.962 483.805,335.962 483.983,335.935 484.162,336.08 484.341,336.028 484.519,335.817 484.698,335.87 484.877,335.777 485.055,336.107 485.234,336.239 485.413,335.804 485.591,336.252 485.77,335.764 485.949,336.067 486.127,336.423 486.306,336.015 486.485,336.146 486.663,335.988 486.842,335.764 487.02,336.318 487.199,335.698 487.378,336.028 487.556,335.659 487.735,335.975 487.914,336.107 488.092,335.804 488.271,335.935 488.45,335.738 488.628,336.001 488.807,335.764 488.986,335.685 489.164,336.199 489.343,335.395 489.522,335.764 489.7,335.725 489.879,335.777 490.057,335.712 490.236,335.738 490.415,335.988 490.593,335.896 490.772,335.659 490.951,335.725 491.129,335.988 491.308,336.015 491.487,335.474 491.665,310.03 491.844,323.101 492.023,323.193 492.201,302.413 492.38,318.133 492.559,377.315 492.737,374.147 492.916,378.038 493.095,378.249 493.273,378.301 493.452,378.236 493.631,378.222 493.809,378.407 493.988,378.222 494.167,378.314 494.345,378.144 494.524,378.367 494.703,378.38 494.881,378.222 495.06,378.196 495.239,378.236 495.417,378.262 495.596,378.472 495.775,378.551 495.953,378.498 496.132,378.472" stroke-linejoin="round" fill="none" stroke-linecap="butt" stroke="#0071bc" stroke-width="2"/>
  </g>
 </g>
</svg>
