<?xml version='1.0' encoding='UTF-8' standalone='no'?>
<svg width="576pt" xmlns:xlink="http://www.w3.org/1999/xlink" xmlns="http://www.w3.org/2000/svg" viewBox="0 0 576 432" height="432pt">
 <title>gl2ps_renderer figure</title>
 <desc>
Creator: GL2PS 1.4.0, (C) 1999-2017 C. Geuzaine
For: Octave
CreationDate: Fri Jul 02 16:46:40 2021
</desc>
 <defs/>
 <polygon points="0,0 576,0 576,432 0,432" fill="#ffffff"/>
 <g>
  <polygon points="0,432 576,432 576,0 0,0" shape-rendering="crispEdges" fill="#ffffff"/>
  <clipPath id="cp00576432">
   <polygon points="0,432 576,432 576,0 0,0"/>
  </clipPath>
  <g clip-path="url(#cp00576432)">
   <polygon points="74.88,384.48 521.28,384.48 521.28,32.4 74.88,32.4" shape-rendering="crispEdges" fill="#ffffff"/>
   <polyline points="74.88,384.48 74.88,32.4" fill="none" stroke="#262626" stroke-linecap="butt" stroke-opacity="0.15" stroke-dasharray="16,0" stroke-linejoin="miter" stroke-width="0.5"/>
   <polyline points="164.16,384.48 164.16,32.4" fill="none" stroke="#262626" stroke-linecap="butt" stroke-opacity="0.15" stroke-dasharray="16,0" stroke-linejoin="miter" stroke-width="0.5"/>
   <polyline points="253.44,384.48 253.44,32.4" fill="none" stroke="#262626" stroke-linecap="butt" stroke-opacity="0.15" stroke-dasharray="16,0" stroke-linejoin="miter" stroke-width="0.5"/>
   <polyline points="342.72,384.48 342.72,32.4" fill="none" stroke="#262626" stroke-linecap="butt" stroke-opacity="0.15" stroke-dasharray="16,0" stroke-linejoin="miter" stroke-width="0.5"/>
   <polyline points="432,384.48 432,32.4" fill="none" stroke="#262626" stroke-linecap="butt" stroke-opacity="0.15" stroke-dasharray="16,0" stroke-linejoin="miter" stroke-width="0.5"/>
   <polyline points="521.28,384.48 521.28,32.4" fill="none" stroke="#262626" stroke-linecap="butt" stroke-opacity="0.15" stroke-dasharray="16,0" stroke-linejoin="miter" stroke-width="0.5"/>
   <polyline points="74.88,384.48 74.88,380.015" fill="none" stroke="#262626" stroke-linecap="butt" stroke-linejoin="miter" stroke-width="0.5"/>
   <polyline points="74.88,32.4 74.88,36.8651" fill="none" stroke="#262626" stroke-linecap="butt" stroke-linejoin="miter" stroke-width="0.5"/>
   <polyline points="164.16,384.48 164.16,380.015" fill="none" stroke="#262626" stroke-linecap="butt" stroke-linejoin="miter" stroke-width="0.5"/>
   <polyline points="164.16,32.4 164.16,36.8651" fill="none" stroke="#262626" stroke-linecap="butt" stroke-linejoin="miter" stroke-width="0.5"/>
   <polyline points="253.44,384.48 253.44,380.015" fill="none" stroke="#262626" stroke-linecap="butt" stroke-linejoin="miter" stroke-width="0.5"/>
   <polyline points="253.44,32.4 253.44,36.8651" fill="none" stroke="#262626" stroke-linecap="butt" stroke-linejoin="miter" stroke-width="0.5"/>
   <polyline points="342.72,384.48 342.72,380.015" fill="none" stroke="#262626" stroke-linecap="butt" stroke-linejoin="miter" stroke-width="0.5"/>
   <polyline points="342.72,32.4 342.72,36.8651" fill="none" stroke="#262626" stroke-linecap="butt" stroke-linejoin="miter" stroke-width="0.5"/>
   <polyline points="432,384.48 432,380.015" fill="none" stroke="#262626" stroke-linecap="butt" stroke-linejoin="miter" stroke-width="0.5"/>
   <polyline points="432,32.4 432,36.8651" fill="none" stroke="#262626" stroke-linecap="butt" stroke-linejoin="miter" stroke-width="0.5"/>
   <polyline points="521.28,384.48 521.28,380.015" fill="none" stroke="#262626" stroke-linecap="butt" stroke-linejoin="miter" stroke-width="0.5"/>
   <polyline points="521.28,32.4 521.28,36.8651" fill="none" stroke="#262626" stroke-linecap="butt" stroke-linejoin="miter" stroke-width="0.5"/>
   <text xml:space="preserve" font-weight="normal" font-family="FreeSans" font-style="normal" font-size="10" transform="translate(71.88,399.982) rotate(-0,3,-8)">
    <tspan y="-0" fill="rgb(38,38,38)" x="0 ">0</tspan>
   </text>
   <text xml:space="preserve" font-weight="normal" font-family="FreeSans" font-style="normal" font-size="10" transform="translate(152.16,399.982) rotate(-0,12,-8)">
    <tspan y="-0" fill="rgb(38,38,38)" x="0 6 12 18 ">1000</tspan>
   </text>
   <text xml:space="preserve" font-weight="normal" font-family="FreeSans" font-style="normal" font-size="10" transform="translate(241.44,399.982) rotate(-0,12,-8)">
    <tspan y="-0" fill="rgb(38,38,38)" x="0 6 12 18 ">2000</tspan>
   </text>
   <text xml:space="preserve" font-weight="normal" font-family="FreeSans" font-style="normal" font-size="10" transform="translate(330.72,399.982) rotate(-0,12,-8)">
    <tspan y="-0" fill="rgb(38,38,38)" x="0 6 12 18 ">3000</tspan>
   </text>
   <text xml:space="preserve" font-weight="normal" font-family="FreeSans" font-style="normal" font-size="10" transform="translate(420,399.982) rotate(-0,12,-8)">
    <tspan y="-0" fill="rgb(38,38,38)" x="0 6 12 18 ">4000</tspan>
   </text>
   <text xml:space="preserve" font-weight="normal" font-family="FreeSans" font-style="normal" font-size="10" transform="translate(509.28,399.982) rotate(-0,12,-8)">
    <tspan y="-0" fill="rgb(38,38,38)" x="0 6 12 18 ">5000</tspan>
   </text>
   <polyline points="74.88,384.48 521.28,384.48" fill="none" stroke="#262626" stroke-linecap="butt" stroke-opacity="0.15" stroke-dasharray="16,0" stroke-linejoin="miter" stroke-width="0.5"/>
   <polyline points="74.88,314.064 521.28,314.064" fill="none" stroke="#262626" stroke-linecap="butt" stroke-opacity="0.15" stroke-dasharray="16,0" stroke-linejoin="miter" stroke-width="0.5"/>
   <polyline points="74.88,243.648 521.28,243.648" fill="none" stroke="#262626" stroke-linecap="butt" stroke-opacity="0.15" stroke-dasharray="16,0" stroke-linejoin="miter" stroke-width="0.5"/>
   <polyline points="74.88,173.232 521.28,173.232" fill="none" stroke="#262626" stroke-linecap="butt" stroke-opacity="0.15" stroke-dasharray="16,0" stroke-linejoin="miter" stroke-width="0.5"/>
   <polyline points="74.88,102.816 521.28,102.816" fill="none" stroke="#262626" stroke-linecap="butt" stroke-opacity="0.15" stroke-dasharray="16,0" stroke-linejoin="miter" stroke-width="0.5"/>
   <polyline points="74.88,32.4 521.28,32.4" fill="none" stroke="#262626" stroke-linecap="butt" stroke-opacity="0.15" stroke-dasharray="16,0" stroke-linejoin="miter" stroke-width="0.5"/>
   <polyline points="74.88,384.48 79.348,384.48" fill="none" stroke="#262626" stroke-linecap="butt" stroke-linejoin="miter" stroke-width="0.5"/>
   <polyline points="521.28,384.48 516.812,384.48" fill="none" stroke="#262626" stroke-linecap="butt" stroke-linejoin="miter" stroke-width="0.5"/>
   <polyline points="74.88,314.064 79.348,314.064" fill="none" stroke="#262626" stroke-linecap="butt" stroke-linejoin="miter" stroke-width="0.5"/>
   <polyline points="521.28,314.064 516.812,314.064" fill="none" stroke="#262626" stroke-linecap="butt" stroke-linejoin="miter" stroke-width="0.5"/>
   <polyline points="74.88,243.648 79.348,243.648" fill="none" stroke="#262626" stroke-linecap="butt" stroke-linejoin="miter" stroke-width="0.5"/>
   <polyline points="521.28,243.648 516.812,243.648" fill="none" stroke="#262626" stroke-linecap="butt" stroke-linejoin="miter" stroke-width="0.5"/>
   <polyline points="74.88,173.232 79.348,173.232" fill="none" stroke="#262626" stroke-linecap="butt" stroke-linejoin="miter" stroke-width="0.5"/>
   <polyline points="521.28,173.232 516.812,173.232" fill="none" stroke="#262626" stroke-linecap="butt" stroke-linejoin="miter" stroke-width="0.5"/>
   <polyline points="74.88,102.816 79.348,102.816" fill="none" stroke="#262626" stroke-linecap="butt" stroke-linejoin="miter" stroke-width="0.5"/>
   <polyline points="521.28,102.816 516.812,102.816" fill="none" stroke="#262626" stroke-linecap="butt" stroke-linejoin="miter" stroke-width="0.5"/>
   <polyline points="74.88,32.4 79.348,32.4" fill="none" stroke="#262626" stroke-linecap="butt" stroke-linejoin="miter" stroke-width="0.5"/>
   <polyline points="521.28,32.4 516.812,32.4" fill="none" stroke="#262626" stroke-linecap="butt" stroke-linejoin="miter" stroke-width="0.5"/>
   <text xml:space="preserve" font-weight="normal" font-family="FreeSans" font-style="normal" font-size="10" transform="translate(63.8755,388.48) rotate(-0,6,-4)">
    <tspan y="-0" fill="rgb(38,38,38)" x="0 ">0</tspan>
   </text>
   <text xml:space="preserve" font-weight="normal" font-family="FreeSans" font-style="normal" font-size="10" transform="translate(51.8755,318.064) rotate(-0,18,-4)">
    <tspan y="-0" fill="rgb(38,38,38)" x="0 6 12 ">500</tspan>
   </text>
   <text xml:space="preserve" font-weight="normal" font-family="FreeSans" font-style="normal" font-size="10" transform="translate(45.8755,247.648) rotate(-0,24,-4)">
    <tspan y="-0" fill="rgb(38,38,38)" x="0 6 12 18 ">1000</tspan>
   </text>
   <text xml:space="preserve" font-weight="normal" font-family="FreeSans" font-style="normal" font-size="10" transform="translate(45.8755,177.232) rotate(-0,24,-4)">
    <tspan y="-0" fill="rgb(38,38,38)" x="0 6 12 18 ">1500</tspan>
   </text>
   <text xml:space="preserve" font-weight="normal" font-family="FreeSans" font-style="normal" font-size="10" transform="translate(45.8755,106.816) rotate(-0,24,-4)">
    <tspan y="-0" fill="rgb(38,38,38)" x="0 6 12 18 ">2000</tspan>
   </text>
   <text xml:space="preserve" font-weight="normal" font-family="FreeSans" font-style="normal" font-size="10" transform="translate(45.8755,36.4) rotate(-0,24,-4)">
    <tspan y="-0" fill="rgb(38,38,38)" x="0 6 12 18 ">2500</tspan>
   </text>
   <polyline points="74.88,384.48 521.28,384.48" fill="none" stroke="#262626" stroke-linecap="square" stroke-dasharray="16,0" stroke-linejoin="miter" stroke-width="0.5"/>
   <polyline points="74.88,32.4 521.28,32.4" fill="none" stroke="#262626" stroke-linecap="square" stroke-dasharray="16,0" stroke-linejoin="miter" stroke-width="0.5"/>
   <polyline points="74.88,384.48 74.88,32.4" fill="none" stroke="#262626" stroke-linecap="square" stroke-dasharray="16,0" stroke-linejoin="miter" stroke-width="0.5"/>
   <polyline points="521.28,384.48 521.28,32.4" fill="none" stroke="#262626" stroke-linecap="square" stroke-dasharray="16,0" stroke-linejoin="miter" stroke-width="0.5"/>
   <text xml:space="preserve" font-weight="normal" font-family="FreeSans" font-style="normal" font-size="11" transform="translate(273.08,416.982) rotate(-0,25,-12)">
    <tspan y="-3" fill="rgb(38,38,38)" x="0 7 13 22 28 34 37 41 46 ">Tempo (s)</tspan>
   </text>
   <text xml:space="preserve" font-weight="normal" font-family="FreeSans" font-style="normal" font-size="11" transform="translate(3.37552,208.44) rotate(-90,37.5,0)">
    <tspan y="-3" fill="rgb(38,38,38)" x="0 7 13 19 21 24 31 33 39 47 50 54 56 62 65 71 ">Fuel Flow (lb/h)</tspan>
   </text>
   <polyline points="128.984,341.984 129.162,339.823 129.341,327.423 129.52,308.409 129.698,274.64 129.877,192.901 130.056,54.6815 130.234,83.5668 130.413,89.203 130.592,94.2722 130.77,97.035 130.949,100.476 131.127,101.66 131.306,102.277 131.485,101.857 131.663,100.883 131.842,101.031 132.021,100.809 132.199,100.303 132.378,99.1316 132.557,98.3421 132.735,98.3298 132.914,97.7256 133.07,98.9343 133.24,99.6249 133.402,100.192 133.581,101.031 133.727,100.957 133.906,99.9951 134.085,98.0586 134.263,197.01 134.442,78.1275 134.621,88.4261 134.799,89.5115 134.978,89.3265 135.157,87.8465 135.335,85.9717 135.514,84.9233 135.693,136.006 135.871,180.587 136.05,207.102 136.229,238.017 136.407,239.099 136.586,238.575 136.765,238.424 136.943,237.807 137.122,245.415 137.301,244.733 137.479,235.293 137.658,222.001 137.837,223.036 137.977,223.397 138.135,223.979 138.286,224.061 138.446,224.887 138.605,225.027 138.781,206.543 138.955,204.96 139.097,203.936 139.244,204.424 139.378,201.736 139.51,201.107 139.687,202.027 139.864,201.969 140.011,202.073 140.173,202.376 140.32,202.248 140.497,197.813 140.648,197.929 140.824,197.894 141.002,198.756 141.159,198.709 141.318,199.082 141.494,199.966 141.641,200.071 141.793,199.757 141.929,203.319 142.093,202.481 142.196,202.597 142.373,199 142.536,191.819 142.697,188.753 142.869,190.131 143.027,191.365 143.185,191.225 143.362,185.393 143.536,180.013 143.71,181.281 143.885,182.703 144.059,192.68 144.23,199.21 144.403,202.411 144.569,135.671 144.747,150.855 144.926,150.938 145.101,151.93 145.276,152.6 145.433,152.062 145.592,153.198 145.771,153.15 145.92,153.413 146.098,153.664 146.275,153.855 146.438,154.25 146.601,154.501 146.766,154.991 146.945,158.303 147.111,159.845 147.28,169.505 147.452,174.669 147.624,175.889 147.794,177.288 147.972,179.356 148.138,180.802 148.312,182.034 148.491,184.042 148.656,185.106 148.818,186.015 148.992,186.792 149.153,188.597 149.331,180.348 149.504,181.878 149.659,180.348 149.83,181.292 149.982,182.321 150.152,182.739 150.316,182.56 150.477,183.325 150.636,183.672 150.815,184.724 150.974,186.17 151.143,185.824 151.3,199.128 151.448,197.685 151.603,201.096 151.781,201.27 151.958,201.91 152.135,201.759 152.295,202.643 152.455,203.249 152.632,204.122 152.807,204.122 152.965,204.436 153.125,205.81 153.284,205.065 153.461,206.38 153.607,207.067 153.765,207.265 153.934,207.881 154.093,207.532 154.252,208.021 154.396,207.265 154.567,209.29 154.741,209.953 154.837,209.592 154.929,193.623 155.059,198.162 155.218,195.031 155.355,195.695 155.504,195.101 155.672,195.229 155.834,170.82 155.979,172.673 156.144,158.338 156.3,160.132 156.47,160.574 156.625,161.554 156.797,162.822 156.961,164.4 157.137,166.372 157.297,165.846 157.469,168.214 157.646,168.249 157.807,169.277 157.971,169.66 158.133,225.597 158.312,219.754 158.482,220.243 158.639,221.162 158.803,221.628 158.939,222.233 159.109,222.92 159.268,227.576 159.396,227.378 159.536,229.171 159.704,231.429 159.797,231.371 159.922,244.939 160.068,296.845 160.246,281.399 160.425,280.214 160.604,280.344 160.782,280.07 160.961,280.175 161.064,280.487 161.243,280.552 161.421,280.357 161.6,280.487 161.779,284.121 161.957,284.147 162.136,284.668 162.314,284.603 162.493,284.694 162.672,284.772 162.85,284.603 163.029,286.53 163.053,286.726 163.231,222.548 163.41,219.731 163.513,223.048 163.692,207.823 163.703,207.649 163.881,207.241 164.06,193.588 164.239,152.492 164.417,168.799 164.596,170.748 164.775,172.517 164.919,174.275 165.05,175.255 165.228,174.646 165.377,176.259 165.556,206.753 165.734,178.782 165.913,178.639 166.092,187.892 166.27,191.737 166.449,199.117 166.628,198.523 166.806,334.921 166.985,323.483 167.164,322.034 167.342,321.309 167.521,324.419 167.7,321.665 167.878,321.862 168.053,322.126 168.23,266.76 168.393,183.719 168.562,169.325 168.739,172.685 168.916,175.518 169.089,180.013 169.268,183.911 169.434,187.031 169.611,189.363 169.79,190.911 169.868,191.272 170.047,191.958 170.218,191.33 170.384,192.482 170.563,193.309 170.724,206.299 170.9,176.295 171.043,191.726 171.221,192.796 171.399,192.552 171.578,191.551 171.757,191.004 171.935,190.073 172.114,189.165 172.293,188.346 172.471,187.856 172.65,187.569 172.829,187.139 173.007,186.051 173.186,200.223 173.364,205.076 173.543,175.853 173.722,182.883 173.9,184.843 174.079,185.967 174.24,186.684 174.368,186.876 174.546,186.242 174.636,251.301 174.814,336.318 174.993,330.559 175.172,331.877 175.237,335.685 175.402,330.296 175.455,325.802 175.63,324.603 175.73,324.498 175.908,324.393 176.087,316.526 176.265,304.561 176.438,303.533 176.607,314.378 176.783,248.527 176.962,260.34 177.132,260.444 177.295,259.077 177.46,258.621 177.638,261.981 177.775,261.877 177.954,260.066 178.133,290.112 178.311,289.995 178.49,280.826 178.669,284.004 178.847,265.797 179.026,264.586 179.205,265.185 179.383,207.637 179.51,212.561 179.689,209.185 179.868,204.052 180.046,177.192 180.225,179.105 180.404,179.679 180.582,178.842 180.761,180.958 180.918,262.997 181.013,253.125 181.162,259.272 181.204,255.378 181.382,254.57 181.561,256.68 181.739,268.388 181.918,269.079 182.097,269.665 182.229,279.354 182.335,275.525 182.49,275.069 182.668,274.627 182.847,274.9 183.026,274.77 183.204,274.965 183.383,275.408 183.562,275.565 183.74,275.148 183.907,275.838 184.06,274.015 184.238,274.809 184.386,274.887 184.52,274.887 184.692,274.757 184.831,275.708 184.992,274.991 185.165,275.538 185.339,275.408 185.515,275.838 185.684,275.616 185.837,276.359 185.998,276.281 186.174,276.32 186.307,276.854 186.467,276.815 186.57,276.932 186.697,277.192 186.872,276.776 186.906,276.984 187.085,276.75 187.259,276.059 187.431,276.763 187.549,276.736 187.724,276.71 187.862,277.453 187.976,277.231 188.105,277.792 188.281,277.765 188.399,277.843 188.574,266.982 188.688,232.942 188.804,243.72 188.983,228.53 189.162,230.195 189.34,231.371 189.519,230.568 189.698,229.776 189.869,229.578 190.005,229.508 190.184,249.322 190.246,264.546 190.424,253.893 190.603,253.516 190.782,254.023 190.95,254.401 191.127,255.339 191.301,254.701 191.454,255.808 191.616,256.706 191.789,257.045 191.964,256.485 192.138,256.811 192.143,256.706 192.322,257.54 192.5,256.837 192.679,256.928 192.858,256.146 193.036,255.912 193.215,255.717 193.393,254.596 193.572,254.701 193.751,255.261 193.93,255.157 194.108,255.508 194.287,255.678 194.465,255.717 194.644,255.508 194.823,255.612 194.99,256.693 195.169,261.408 195.348,268.857 195.526,268.271 195.705,268.362 195.861,267.685 195.995,267.672 196.088,280.5 196.266,276.411 196.425,276.658 196.594,276.45 196.624,276.333 196.803,276.489 196.858,276.203 197.026,275.89 197.205,275.734 197.384,276.242 197.562,276.15 197.741,275.968 197.766,276.567 197.945,276.333 198.123,276.463 198.293,276.424 198.469,276.45 198.646,275.916 198.813,276.111 198.955,276.32 199.115,276.203 199.275,275.747 199.442,275.89 199.618,275.382 199.785,275.121 199.945,274.952 200.037,274.965 200.216,275.278 200.395,281.855 200.573,280.031 200.752,288.353 200.931,289.096 201.102,289.343 201.231,289.46 201.403,289.408 201.486,289.474 201.665,289.369 201.844,289.174 202.022,289.343 202.201,288.861 202.38,289.07 202.538,289.057 202.688,288.666 202.796,288.523 202.967,288.731 203.145,288.744 203.324,288.992 203.503,288.705 203.681,289.135 203.86,289.343 204.039,289.617 204.217,289.76 204.372,289.981 204.542,290.45 204.691,290.086 204.776,289.995 204.946,290.125 205.124,290.138 205.303,290.372 205.481,289.721 205.66,289.786 205.837,289.46 206.015,289.213 206.191,288.861 206.342,288.406 206.517,287.768 206.696,287.286 206.863,286.947 207.039,286.895 207.216,287.207 207.328,286.999 207.467,287.207 207.646,286.934 207.824,287.39 208.003,287.637 208.182,287.273 208.36,287.624 208.539,287.754 208.718,287.924 208.896,287.911 209.075,287.924 209.254,288.041 209.432,287.989 209.611,287.845 209.789,287.911 209.968,287.533 210.128,287.051 210.304,286.608 210.441,287.025 210.567,286.621 210.717,286.413 210.895,286.608 211.004,286.348 211.125,286.556 211.286,286.179 211.325,286.205 211.503,286.296 211.529,286.348 211.707,286.231 211.886,286.192 212.065,286.374 212.243,286.595 212.422,286.608 212.601,286.765 212.752,286.348 212.897,286.361 213.033,285.84 213.158,285.905 213.285,276.372 213.444,274.887 213.567,274.887 213.655,275.018 213.783,274.913 213.909,275.148 214.07,275.03 214.239,275.174 214.415,274.965 214.564,274.809 214.719,275.004 214.835,274.601 214.945,274.614 215.044,274.809 215.17,274.497 215.28,274.405 215.427,274.47 215.591,273.95 215.769,274.158 215.772,274.132 215.951,274.405 216.13,274.47 216.308,274.184 216.487,274.627 216.666,274.509 216.844,275.044 217.023,274.809 217.19,275.148 217.315,274.887 217.453,275.512 217.603,275.642 217.781,275.135 217.798,275.265 217.976,275.538 218.131,276.046 218.272,276.137 218.45,275.656 218.622,276.15 218.753,276.307 218.879,276.71 219.032,279.576 219.21,281.073 219.389,280.969 219.568,280.539 219.746,280.748 219.925,269.131 220.104,272.178 220.282,272.204 220.461,272.53 220.64,272.413 220.818,272.686 220.997,269.066 221.176,268.662 221.354,268.31 221.533,269.157 221.712,268.44 221.89,245.285 222.069,254.701 222.248,253.88 222.426,254.961 222.605,254.792 222.784,254.049 222.962,253.008 223.141,253.268 223.32,252.33 223.498,253.516 223.677,254.31 223.855,254.023 223.987,254.075 224.114,254.297 224.28,278.026 224.419,269.547 224.598,268.922 224.776,268.949 224.955,269.743 225.134,270.134 225.312,269.613 225.491,268.505 225.67,269.313 225.848,269.248 226.027,269.144 226.205,269.795 226.384,270.407 226.523,269.665 226.661,270.459 226.793,270.667 226.966,270.902 227.089,271.306 227.226,271.501 227.314,271.254 227.489,271.176 227.617,271.475 227.669,271.775 227.798,271.358 227.977,268.896 228.156,268.479 228.334,268.271 228.513,267.972 228.691,268.467 228.87,268.857 229.049,268.388 229.141,268.545 229.262,268.779 229.44,268.896 229.462,268.597 229.64,268.662 229.819,267.958 229.998,269.026 230.176,267.867 230.355,266.682 230.534,267.177 230.712,266.943 230.891,267.503 231.07,267.711 231.248,267.711 231.42,269.404 231.569,268.636 231.724,269.43 231.898,269.938 232.017,239.39 232.196,242.475 232.374,242.719 232.553,242.032 232.732,241.113 232.903,241.916 233.012,253.372 233.17,251.067 233.346,250.663 233.514,250.885 233.688,250.286 233.867,249.882 234.016,250.429 234.195,250.924 234.374,274.783 234.552,265.836 234.731,265.927 234.91,265.901 235.088,265.601 235.267,265.25 235.446,265.654 235.624,266.539 235.803,266.526 235.982,266.135 236.16,266.422 236.339,266.018 236.518,266.148 236.696,266.161 236.875,265.914 237.054,265.224 237.232,265.119 237.411,265.484 237.59,265.797 237.768,266.474 237.921,266.422 238.046,266.187 238.206,266.539 238.385,266.591 238.563,264.963 238.714,164.842 238.854,179.475 239.029,184.389 239.204,191.132 239.382,195.893 239.509,199.501 239.687,200.094 239.709,201.107 239.887,202.981 240.066,201.037 240.244,201.061 240.423,200.327 240.602,199.408 240.767,207.695 240.933,207.719 241.1,207.893 241.275,205.216 241.452,203.354 241.599,202.481 241.774,202.097 241.926,201.107 242.102,199.629 242.279,199.419 242.393,225.574 242.496,205.856 242.674,201.107 242.853,202.155 243.032,201.771 243.21,202.504 243.389,201.41 243.568,333.985 243.746,338.123 243.925,339.032 244.104,339.322 244.282,339.441 244.461,339.625 244.639,339.691 244.818,332.496 244.997,336.015 245.175,335.791 245.354,317.04 245.533,314.918 245.711,314.483 245.869,314.892 246.012,314.879 246.185,312.335 246.219,311.993 246.397,307.921 246.558,236.061 246.72,161.292 246.895,186.912 247.07,190.503 247.229,191.423 247.396,193.763 247.574,194.356 247.748,195.683 247.907,197.196 247.986,198.069 248.164,198.477 248.343,197.86 248.522,198.977 248.7,197.115 248.879,196.847 249.057,196.183 249.236,196.556 249.415,195.718 249.593,195.148 249.772,221.908 249.951,219.719 250.056,218.823 250.151,221.651 250.312,222.862 250.444,221.395 250.623,216.506 250.798,186.302 250.957,187.139 251.117,183.445 251.288,181.639 251.463,180.229 251.641,176.522 251.808,173.904 251.883,172.792 252.062,174.466 252.24,173.689 252.38,175.303 252.557,174.837 252.711,175.195 252.865,174.598 253.032,175.064 253.2,175.064 253.217,174.92 253.396,174.825 253.575,175.016 253.753,174.347 253.932,276.515 254.111,336.384 254.289,337.754 254.468,338.439 254.647,338.597 254.825,338.887 254.904,338.703 255.083,321.862 255.261,244.998 255.437,152.6 255.614,181.161 255.791,188.753 255.968,193.32 256.072,194.286 256.249,300.86 256.428,300.101 256.606,284.902 256.781,325.183 256.95,326.158 257.128,334.974 257.305,292.195 257.478,216.716 257.64,230.801 257.683,314.193 257.862,299.085 258.039,295.347 258.216,253.294 258.392,269.17 258.568,272.491 258.728,275.03 258.767,275.799 258.946,273.884 259.117,273.077 259.295,268.245 259.472,263.778 259.65,271.162 259.828,162.391 260.007,162.296 260.172,160.897 260.351,164.806 260.529,162.989 260.708,335.488 260.887,338.597 261.052,339.546 261.231,339.546 261.408,339.665 261.585,340.179 261.761,340.442 261.934,340.324 262.099,292.143 262.206,260.483 262.384,185.13 262.563,189.549 262.741,187.019 262.919,182.608 263.095,177.228 263.273,171.956 263.452,169.684 263.63,165.99 263.806,163.826 263.983,159.761 264.119,159.654 264.298,161.016 264.476,163.061 264.653,168.919 264.828,173.295 264.918,174.251 265.093,172.553 265.269,170.055 265.448,168.13 265.619,166.564 265.771,334.262 265.807,336.107 265.986,338.321 266.163,339.164 266.34,339.388 266.519,339.401 266.697,339.981 266.874,340.06 267.036,340.192 267.124,340.179 267.303,340.179 267.477,340.442 267.654,320.598 267.831,277.609 268.006,303.19 268.183,214.528 268.357,164.842 268.527,168.608 268.657,168.225 268.836,168.608 268.912,167.879 269.035,169.445 269.1,169.337 269.218,169.206 269.328,169.194 269.439,169.254 269.534,168.728 269.632,168.919 269.739,169.636 269.918,168.584 270.095,169.911 270.144,171.047 270.323,171.214 270.5,179.87 270.678,187.151 270.853,193.937 271.015,196.987 271.193,195.206 271.367,191.656 271.531,189.526 271.708,188.011 271.885,187.127 271.951,186.087 272.13,319.728 272.307,338.097 272.48,338.874 272.657,339.968 272.831,340.086 272.93,340.297 273.108,340.034 273.287,340.297 273.465,340.31 273.643,340.614 273.811,340.521 273.987,303.414 274.165,237.621 274.344,153.102 274.522,167.998 274.694,167.233 274.843,166.217 274.994,165.679 275.156,166.049 275.311,164.579 275.49,166.516 275.667,174.609 275.843,183.911 276.019,191.795 276.189,194.461 276.368,191.958 276.543,186.051 276.714,181.651 276.89,179.499 277.056,176.702 277.226,173.055 277.395,168.357 277.551,165.368 277.576,165.141 277.755,227.448 277.934,313.93 278.101,307.816 278.275,296.506 278.449,295.582 278.626,294.722 278.799,281.959 278.961,283.222 279.019,283.952 279.197,288.028 279.373,286.752 279.544,282.141 279.717,166.468 279.883,176.773 280.03,178.519 280.161,178.949 280.265,180.575 280.443,277.271 280.537,286.022 280.715,276.945 280.894,250.872 281.073,235.049 281.251,235.153 281.43,236.341 281.609,233.361 281.776,173.33 281.949,162.057 282.127,169.074 282.301,176.319 282.471,208.091 282.574,331.1 282.753,297.288 282.931,315.406 283.103,307.236 283.272,307.578 283.416,337.372 283.467,332.22 283.645,339.401 283.823,337.767 283.995,339.283 284.168,338.69 284.311,340.35 284.49,340.416 284.667,340.587 284.842,340.745 285.018,340.745 285.196,317.685 285.228,305.51 285.406,328.464 285.585,279.406 285.758,193.751 285.927,160.801 286.102,159.355 286.279,154.381 286.394,154.656 286.46,154.979 286.639,157.609 286.806,162.26 286.973,165.201 287.136,167.951 287.299,170.091 287.477,170.652 287.599,170.975 287.737,171.25 287.907,246.092 288.051,245.102 288.218,315.959 288.388,293.25 288.562,286.296 288.734,291.74 288.898,288.106 288.951,269.873 289.13,224.038 289.306,230.137 289.48,182.703 289.654,160.825 289.823,169.803 289.991,168.369 290.165,165.87 290.332,163.12 290.481,161.495 290.659,163.025 290.838,165.249 291.011,165.488 291.187,174.239 291.365,177.383 291.542,183.612 291.703,185.716 291.748,184.532 291.927,184.377 292.099,180.79 292.276,177.288 292.455,173.522 292.633,168.345 292.792,167.616 292.956,331.772 293.135,336.384 293.313,301.635 293.492,312.256 293.668,316.091 293.845,314.048 294.024,329.914 294.202,339.269 294.338,339.783 294.516,339.651 294.691,339.678 294.869,338.255 295.047,323.826 295.225,270.694 295.404,213.119 295.519,192.354 295.698,197.255 295.877,200.153 296.055,245.793 296.219,165.512 296.259,173.653 296.438,174.908 296.617,175.554 296.795,180.444 296.972,186.29 297.134,189.793 297.234,190.073 297.413,189.304 297.587,186.374 297.759,182.679 297.934,179.942 298.099,177.993 298.277,175.064 298.431,174.454 298.61,174.179 298.784,173.187 298.875,172.039 299.054,170.354 299.233,172.661 299.411,173.534 299.59,173.235 299.6,173.295 299.779,172.649 299.954,171.692 300.129,174.37 300.3,174.574 300.478,180.193 300.656,183.552 300.828,183.193 300.997,178.375 301.156,285.423 301.283,217.624 301.43,281.868 301.579,270.016 301.758,253.789 301.936,219.289 302.115,209.325 302.294,201.852 302.472,186.433 302.651,180.647 302.829,182.452 303.008,181.292 303.09,180.659 303.241,278.351 303.297,311.782 303.426,336.805 303.605,338.611 303.784,339.006 303.955,339.098 304.123,339.849 304.196,339.783 304.374,340.073 304.553,340.073 304.73,340.073 304.893,340.218 305.056,314.062 305.235,279.12 305.413,280.839 305.592,281.243 305.771,232.569 305.949,278.859 306.128,274.497 306.307,250.833 306.485,242.405 306.664,241.323 306.843,263.843 307.021,261.369 307.2,229.485 307.379,219.963 307.557,224.887 307.736,221.174 307.915,216.379 308.093,226.645 308.272,247.98 308.451,313.456 308.629,284.616 308.808,265.237 308.987,274.027 309.146,326.514 309.19,335.171 309.368,286.843 309.543,279.016 309.594,290.086 309.772,288.38 309.951,279.641 310.13,335.764 310.308,339.691 310.487,339.928 310.666,339.889 310.817,340.086 310.995,340.047 311.174,294.683 311.353,339.283 311.531,340.192 311.71,340.35 311.889,340.508 312.067,340.587 312.227,340.561 312.349,340.627 312.482,340.851 312.569,340.917 312.728,328.991 312.793,317.356 312.972,247.655 313.151,206.357 313.329,218.462 313.502,218.031 313.666,218.637 313.831,313.772 313.951,286.621 314.129,289.083 314.298,287.637 314.41,278.651 314.584,276.828 314.613,278.299 314.791,278.99 314.97,284.525 315.149,288.249 315.327,267.19 315.506,289.057 315.632,280.878 315.739,279.628 315.899,267.242 316.077,254.336 316.256,254.075 316.435,204.005 316.613,178.77 316.745,179.009 316.914,178.567 317.073,178.483 317.198,178.399 317.345,177.873 317.483,178.196 317.656,176.594 317.832,175.506 318.004,172.29 318.172,170.748 318.283,170.413 318.461,169.923 318.64,170.401 318.819,173.115 318.983,175.662 319.157,179.165 319.331,182.608 319.446,182.942 319.625,183.552 319.801,181.292 319.951,179.726 320.13,181.341 320.308,184.772 320.485,189.991 320.651,193.809 320.83,194.496 320.962,193.716 321.122,192.82 321.165,229.182 321.344,239.029 321.365,246.235 321.544,251.015 321.633,253.711 321.811,265.758 321.99,278.169 322.039,278.143 322.196,277.062 322.375,277.166 322.432,277.349 322.611,276.606 322.774,276.671 322.818,268.701 322.997,239.798 323.07,240.38 323.225,240.578 323.397,219.102 323.566,180.193 323.699,181.46 323.878,185.214 324.056,186.541 324.228,185.106 324.338,278.13 324.517,244.705 324.685,168.572 324.861,229.822 325.028,210.279 325.199,210.349 325.264,194.205 325.442,195.148 325.621,193.448 325.8,191.958 325.978,190.678 326.157,190.806 326.336,190.934 326.511,249.934 326.69,242.94 326.868,242.556 327.047,250.234 327.226,250.39 327.404,250.13 327.583,256.264 327.762,255.508 327.94,256.12 328.119,256.342 328.298,256.407 328.476,256.394 328.655,257.657 328.834,256.055 329.012,256.993 329.191,257.358 329.37,256.472 329.548,256.537 329.727,256.29 329.906,256.498 330.084,256.589 330.218,256.133 330.355,255.795 330.534,314.72 330.712,294.006 330.891,298.342 331.07,298.16 331.23,300.335 331.408,280.865 331.587,289.864 331.765,283.483 331.943,265.042 332.07,272.751 332.167,273.038 332.346,273.077 332.524,273.702 332.703,272.894 332.879,272.673 333.058,271.631 333.224,272.387 333.378,273.585 333.551,272.152 333.669,272.256 333.841,273.598 333.945,273.481 334.021,272.934 334.2,195.811 334.369,173.247 334.547,173.235 334.724,167.926 334.902,161.794 335.079,162.009 335.256,167.15 335.434,174.143 335.609,181.149 335.784,187.318 335.961,194.03 336.138,195.439 336.306,198.942 336.476,199.233 336.653,199.128 336.82,200.49 336.984,200.909 337.124,200.781 337.227,255.495 337.405,208.708 337.529,208.906 337.7,207.567 337.879,206.95 338.022,206.857 338.122,206.776 338.301,206.811 338.463,206.147 338.586,206.392 338.652,207.986 338.831,216.437 339.009,215.424 339.188,213.143 339.364,212.188 339.513,211.804 339.669,210.663 339.845,209.767 340.018,210.244 340.135,208.743 340.264,208.475 340.334,208.499 340.46,207.858 340.638,230.183 340.651,229.369 340.83,229.147 340.905,227.215 341.027,226.889 341.192,227.495 341.251,226.773 341.429,226.703 341.602,226.924 341.781,258.126 341.959,302.36 342.138,295.113 342.305,294.37 342.477,293.771 342.647,293.12 342.813,315.761 342.989,312.138 343.153,312.428 343.329,311.729 343.493,311.756 343.664,311.967 343.81,312.138 343.973,310.438 344.13,312.652 344.306,312.546 344.456,312.428 344.635,312.533 344.814,310.873 344.992,240.764 345.171,256.016 345.35,256.667 345.528,256.107 345.707,259.259 345.885,260.978 346.064,259.559 346.243,259.441 346.421,260.626 346.6,259.272 346.771,260.314 346.91,260.691 346.996,260.639 347.167,260.405 347.345,260.691 347.524,261.121 347.703,255.196 347.826,190.794 347.97,178.698 348.143,183.265 348.318,188.023 348.48,191.493 348.658,193.355 348.832,197.697 349.01,201.678 349.177,204.82 349.348,205.821 349.514,205.693 349.692,208.871 349.87,210.291 350.048,212.584 350.215,214.551 350.388,213.166 350.567,211.746 350.745,210.291 350.924,207.788 351.102,205.042 351.274,206.694 351.448,202.597 351.607,199.664 351.784,197.732 351.962,221.977 352.132,224.503 352.31,226.168 352.485,244.407 352.663,237.121 352.835,236.888 353.009,235.142 353.184,234.676 353.358,233.605 353.52,235.305 353.683,301.688 353.832,296.089 353.971,308.172 354.143,310.477 354.321,311.242 354.5,312.81 354.67,311.743 354.824,312.098 354.937,313.113 355.074,314.655 355.222,317.119 355.377,317.395 355.555,316.75 355.731,320.98 355.759,321.085 355.916,322.311 356.094,293.758 356.273,207.439 356.452,170.581 356.626,178.889 356.804,185.214 356.979,190.771 357.131,310.372 357.252,337.332 357.431,339.269 357.61,316.499 357.78,271.709 357.944,249.127 358.121,256.12 358.297,272.113 358.476,268.636 358.653,269.326 358.83,268.662 358.992,267.972 359.158,267.594 359.299,268.753 359.463,194.531 359.619,277.218 359.785,262.515 359.939,240.252 360.084,259.011 360.252,258.959 360.381,259.493 360.528,278.781 360.614,274.718 360.751,236.05 360.929,216.041 361.091,220.743 361.269,220.033 361.448,253.294 361.627,262.241 361.805,255.261 361.984,255.495 362.163,255.547 362.341,255.43 362.52,255.99 362.699,296.949 362.877,318.067 363.056,313.39 363.234,313.456 363.413,337.991 363.592,339.823 363.77,331.429 363.949,318.581 364.128,301.543 364.306,308.119 364.485,246.952 364.664,221.861 364.831,160.777 365.006,172.183 365.179,175.674 365.351,180.444 365.528,183.719 365.707,185.058 365.883,186.29 365.893,186.11 366.072,184.963 366.25,241.788 366.429,234.025 366.608,307.578 366.779,338.347 366.947,339.559 367.124,339.731 367.296,339.783 367.475,339.125 367.653,338.874 367.832,338.848 368.01,338.176 368.189,304.192 368.354,313.047 368.532,337.425 368.682,337.648 368.855,286.413 368.872,281.79 369.051,258.699 369.161,204.913 369.34,270.798 369.518,305.365 369.697,299.489 369.876,306.524 370.054,270.655 370.233,185.931 370.409,184.736 370.578,182.285 370.755,179.75 370.925,177.575 371.101,175.303 371.27,172.398 371.439,171.358 371.535,171.549 371.714,172.673 371.892,173.235 372.069,175.112 372.248,175.913 372.426,176.176 372.603,176.379 372.768,174.956 372.941,174.98 372.964,174.932 373.143,173.797 373.315,171.68 373.489,168.501 373.66,163.324 373.808,162.033 373.857,162.236 374.036,164.555 374.214,165.344 374.392,170.581 374.571,178.662 374.739,224.468 374.792,314.628 374.971,337.556 375.149,338.439 375.328,339.362 375.507,339.52 375.572,339.032 375.751,339.335 375.929,339.717 376.103,339.836 376.281,339.796 376.431,339.81 376.595,339.941 376.773,339.994 376.886,339.875 377.065,340.39 377.236,340.719 377.413,298.108 377.59,281.659 377.764,327.595 377.937,312.059 378.024,310.359 378.203,308.29 378.376,309.463 378.552,327.081 378.731,322.179 378.907,243.045 379.081,207.09 379.243,216.437 379.42,216.763 379.57,177.873 379.685,156.653 379.826,172.458 379.969,173.833 380.148,227.797 380.266,254.844 380.417,245.584 380.595,266.695 380.774,152.169 380.953,174.107 381.131,174.813 381.31,176.726 381.488,176.02 381.667,175.124 381.842,181.137 382.02,185.943 382.185,189.63 382.23,189.991 382.4,188.979 382.578,185.166 382.756,180.205 382.934,174.203 383.11,165.488 383.28,301.543 383.351,331.64 383.53,331.64 383.708,320.374 383.886,326.843 384.063,281.178 384.241,212.072 384.413,220.196 384.591,181.448 384.749,193.006 384.927,254.623 385.104,225.76 385.279,263.531 385.452,325.592 385.628,289.044 385.799,230.963 385.974,259.988 386.079,329.018 386.257,273.194 386.436,277.818 386.611,193.53 386.79,179.774 386.957,183.313 387.049,183.959 387.228,183.911 387.402,182.859 387.575,180.324 387.753,178.101 387.929,209.243 388.096,275.786 388.112,262.593 388.291,150.795 388.469,183.05 388.641,185.441 388.814,318.74 388.988,313.864 389.166,318.489 389.33,339.23 389.508,339.731 389.52,339.77 389.698,319.635 389.871,265.211 390.049,185.764 390.222,182.165 390.394,179.464 390.569,175.566 390.742,170.521 390.898,169.78 390.957,170.569 391.136,171.932 391.315,172.446 391.493,173.689 391.67,171.764 391.848,175.662 392.024,186.23 392.201,192.11 392.336,197.359 392.512,196.021 392.689,191.423 392.864,182.835 393.039,181.042 393.213,177.993 393.38,175.65 393.558,173.868 393.692,171.406 393.871,174.55 394.047,179.774 394.224,187.677 394.402,194.647 394.506,196.405 394.681,193.599 394.859,187.725 395.032,183.158 395.204,179.284 395.378,174.586 395.555,172.589 395.732,169.923 395.798,167.209 395.976,167.986 396.155,173.713 396.332,176.977 396.433,177.575 396.611,176.02 396.782,172.326 396.942,171.107 397.048,306.919 397.227,337.49 397.403,338.532 397.58,339.111 397.758,339.678 397.936,339.731 398.108,339.968 398.129,340.086 398.307,340.258 398.483,340.165 398.66,277.609 398.836,195.66 399.007,181.998 399.173,181.747 399.336,179.81 399.513,178.746 399.687,178.65 399.865,178.758 400.044,178.555 400.223,178.435 400.401,176.259 400.549,177.216 400.659,177.837 400.837,179.165 401.016,177.933 401.118,177.587 401.212,177.67 401.375,175.1 401.541,175.195 401.72,173.031 401.769,173.318 401.948,173.067 402.127,172.984 402.305,173.402 402.464,172.255 402.642,174.466 402.821,176.343 402.993,179.691 403.098,181.639 403.276,181.388 403.452,176.738 403.617,173.749 403.753,174.944 403.932,333.142 404.11,194.659 404.288,182.99 404.464,186.708 404.639,242.719 404.815,336.489 404.858,337.556 405.037,338.505 405.215,339.77 405.394,339.796 405.568,340.02 405.745,339.81 405.924,339.678 406.102,339.744 406.263,339.941 406.43,339.955 406.596,339.836 406.775,339.362 406.949,339.941 407.128,318.753 407.307,324.393 407.485,323.879 407.664,327.318 407.843,328.201 408.021,328.306 408.2,298.772 408.379,308.527 408.557,308.29 408.736,308.33 408.915,238.063 409.093,159.283 409.272,173.33 409.432,172.529 409.61,205.297 409.659,301.86 409.837,309.094 410.016,330.441 410.195,334.816 410.373,307.565 410.552,338.294 410.731,329.822 410.909,333.511 411.088,333.155 411.267,332.641 411.445,333.801 411.624,333.01 411.803,333.893 411.949,333.617 412.099,333.735 412.278,326.224 412.397,325.816 412.575,325.816 412.754,326.382 412.933,326.066 413.111,325.921 413.288,325.802 413.46,251.289 413.633,233.699 413.804,234.548 413.976,236.632 414.154,267.203 414.181,267.36 414.36,268.844 414.493,268.428 414.661,267.425 414.826,267.203 414.974,266.526 415.12,270.472 415.287,267.177 415.463,266.787 415.623,336.7 415.792,324.274 415.97,323.048 416.128,328.411 416.281,328.596 416.441,328.003 416.605,327.95 416.78,327.146 416.957,327.45 417.134,327.305 417.281,326.87 417.419,297.418 417.482,266.708 417.615,263.726 417.794,271.879 417.972,311.176 417.978,311.189 418.157,309.661 418.326,311.057 418.482,317.949 418.661,317.777 418.809,316.789 418.948,316.75 419.127,316.433 419.293,316.407 419.457,315.827 419.621,315.485 419.782,317.804 419.954,317.382 420.118,317.132 420.296,321.454 420.442,321.625 420.584,321.006 420.73,321.006 420.882,320.729 421.038,320.835 421.209,320.716 421.372,320.505 421.539,320.505 421.667,320.387 421.799,320.426 421.93,320.189 422.057,320.268 422.189,320.466 422.313,320.268 422.449,319.939 422.585,319.925 422.725,319.846 422.86,319.859 422.977,319.965 423.125,319.833 423.261,319.859 423.438,331.39 423.583,328.411 423.754,327.99 423.906,327.937 424.078,327.845 424.239,327.515 424.394,327.608 424.569,314.114 424.742,315.432 424.897,315.709 425.055,322.745 425.217,318.331 425.389,318.542 425.551,318.239 425.71,318.186 425.87,318.173 426.027,317.567 426.185,317.264 426.364,317.936 426.532,317.514 426.698,317.132 426.87,316.908 427.032,316.381 427.211,315.854 427.387,315.155 427.554,314.997 427.727,314.391 427.898,314.365 428.071,313.469 428.245,313.192 428.418,313.047 428.596,312.823 428.764,312.006 428.942,311.901 429.09,313.535 429.251,292.248 429.424,251.301 429.576,263.296 429.72,263.83 429.897,242.405 430.072,262.567 430.239,248.827 430.402,247.798 430.573,246.379 430.74,248.267 430.916,245.858 431.082,245.05 431.237,246.261 431.397,247.29 431.542,244.442 431.695,245.702 431.861,245.871 432.039,267.776 432.186,267.555 432.332,268.011 432.503,289.161 432.68,300.27 432.85,307.13 433.02,306.867 433.184,309.555 433.358,309.384 433.531,310.504 433.698,310.53 433.863,316.209 434.031,314.022 434.21,312.625 434.386,311.084 434.562,309.305 434.741,309.015 434.91,308.237 435.079,309.054 435.253,308.646 435.431,309.199 435.6,309.292 435.779,308.251 435.946,323.655 436.107,316.961 436.262,316.249 436.409,316.275 436.581,316.17 436.753,321.032 436.891,318.305 437.057,318.16 437.16,317.764 437.304,317.922 437.466,317.567 437.634,310.728 437.785,322.759 437.963,309.898 437.968,304.969 438.147,297.079 438.325,297.965 438.504,226.947 438.683,228.833 438.861,215.936 439.04,209.406 439.219,235.421 439.397,274.041 439.576,271.592 439.755,272.204 439.933,272.152 440.112,271.462 440.291,271.579 440.469,271.696 440.648,273.455 440.826,279.836 441.005,279.719 441.184,262.723 441.362,265.471 441.541,250.95 441.72,255.209 441.898,259.975 442.077,261.043 442.256,261.226 442.434,260.9 442.613,261.46 442.792,261.173 442.97,261.681 443.149,261.824 443.328,261.499 443.391,261.772 443.539,261.616 443.71,262.502 443.875,262.697 444.052,261.942 444.105,261.551 444.284,260.496 444.462,267.711 444.641,274.21 444.82,275.408 444.998,274.21 445.177,274.457 445.199,274.314 445.378,260.809 445.557,260.171 445.735,261.616 445.914,261.369 446.093,260.561 446.271,261.056 446.45,260.457 446.629,260.574 446.807,260.34 446.986,255.977 447.164,257.839 447.202,257.696 447.381,257.201 447.43,257.123 447.609,256.889 447.76,257.266 447.811,256.654 447.99,257.253 448.168,257.149 448.347,257.722 448.526,257.8 448.704,258.165 448.883,253.125 449.062,252.747 449.24,252.721 449.419,251.796 449.597,252.239 449.776,251.992 449.955,253.047 450.133,252.317 450.312,251.666 450.491,252.708 450.669,251.796 450.848,323.786 451.027,339.23 451.205,340.245 451.33,335.29 451.48,335.198 451.652,333.366 451.758,334.499 451.878,334.552 451.984,333.419 452.119,332.206 452.298,336.397 452.476,334.367 452.655,333.722 452.834,333.511 453.012,309.581 453.191,321.77 453.37,321.046 453.548,319.043 453.727,265.771 453.906,276.919 454.084,292.534 454.263,298.291 454.415,304.983 454.582,293.55 454.755,267.451 454.93,268.128 455.087,304.377 455.263,309.331 455.401,308.185 455.569,327.726 455.732,321.098 455.858,322.363 456.021,339.164 456.176,341.404 456.353,356.571 456.494,357.452 456.652,347.558 456.803,330.849 456.977,307.236 457.122,290.997 457.281,333.788 457.395,326.264 457.508,335.264 457.636,350.43 457.815,357.583 457.821,357.281 458,349.284 458.178,343.394 458.357,345.265 458.536,327.805 458.714,302.36 458.893,251.536 459.072,85.984 459.25,78.6085 459.429,80.6559 459.608,82.2963 459.786,84.6766 459.965,87.0816 460.144,89.9062 460.306,88.8701 460.485,88.4753 460.651,87.5135 460.826,87.5381 460.924,86.8103 461.076,84.837 461.247,87.1556 461.423,88.8578 461.589,278.13 461.759,266.083 461.906,265.002 462.028,324.182 462.178,338.716 462.353,336.16 462.459,333.577 462.638,329.202 462.658,328.873 462.836,332.694 463.01,301.556 463.188,320.11 463.272,318.384 463.45,318.239 463.629,318.436 463.808,318.12 463.986,293.341 464.111,257.279 464.289,267.972 464.461,229.194 464.475,229.241 464.654,234.327 464.791,280.917 464.931,272.725 465.109,287.012 465.275,280.617 465.453,281.79 465.609,282.285 465.788,264 465.967,266.357 466.145,282.089 466.31,323.747 466.488,318.7 466.653,318.542 466.822,328.293 467.001,326.277 467.158,326.132 467.335,325.974 467.502,326.172 467.677,325.868 467.846,325.433 467.996,325.433 468.165,324.919 468.329,324.01 468.464,331.943 468.622,340.943 468.798,357.189 468.976,356.347 469.155,344.198 469.334,345.225 469.512,345.871 469.691,345.739 469.87,346.003 470.048,345.594 470.227,345.687 470.406,345.924 470.584,345.832 470.763,345.871 470.942,345.99 471.12,345.766 471.299,345.845 471.478,346.016 471.656,346.174 471.835,345.845 472.013,345.924 472.192,345.739 472.371,345.792 472.549,345.739 472.728,346.082 472.907,346.016 473.085,345.766 473.264,345.858 473.443,345.502 473.621,345.963 473.8,345.871 473.979,345.594 474.157,345.186 474.336,345.713 474.515,345.739 474.693,345.555 474.872,345.515 475.05,345.357 475.229,345.555 475.408,345.515 475.586,345.502 475.765,345.476 475.944,345.318 476.122,345.608 476.301,345.304 476.48,345.41 476.658,345.66 476.837,345.304 477.016,345.555 477.194,345.252 477.373,345.318 477.552,345.357 477.73,345.555 477.909,345.37 478.088,345.199 478.266,345.449 478.445,345.502 478.623,344.935 478.802,345.199 478.981,345.304 479.16,345.344 479.338,345.331 479.517,345.094 479.695,345.159 479.874,345.08 480.053,345.449 480.231,345.423 480.41,345.384 480.589,344.856 480.767,344.949 480.946,345.107 481.125,345.212 481.303,345.212 481.482,345.146 481.661,345.252 481.839,345.067 482.018,345.239 482.197,345.331 482.375,345.054 482.554,344.962 482.733,345.212 482.911,345.331 483.09,345.449 483.269,345.173 483.447,344.949 483.626,345.08 483.805,345.304 483.983,345.186 484.162,345.265 484.341,345.304 484.519,345.094 484.698,345.067 484.877,344.949 485.055,344.87 485.234,345.199 485.413,344.83 485.591,344.883 485.77,344.672 485.949,345.291 486.127,345.12 486.306,344.83 486.485,344.975 486.663,344.817 486.842,344.935 487.02,345.463 487.199,345.133 487.378,344.909 487.556,345.08 487.735,345.225 487.914,344.962 488.092,345.146 488.271,344.896 488.45,344.87 488.628,344.83 488.807,344.988 488.986,344.804 489.164,344.935 489.343,344.606 489.522,344.685 489.7,344.764 489.879,344.83 490.057,344.791 490.236,344.817 490.415,344.646 490.593,344.685 490.772,344.632 490.951,344.646 491.129,344.593 491.308,344.712 491.487,344.751 491.665,344.896 491.844,345.067 492.023,345.028 492.201,345.094 492.38,345.146 492.559,344.949 492.737,344.553 492.916,344.58 493.095,344.356 493.273,344.435 493.452,344.646 493.631,344.422 493.809,344.843 493.988,344.725 494.167,344.29 494.345,344.935 494.524,344.804 494.703,344.25 494.881,344.791 495.06,344.553 495.239,344.883 495.417,344.58 495.596,344.632 495.775,344.698 495.953,344.553 496.132,344.553" fill="none" stroke="#0071bc" stroke-linecap="butt" stroke-linejoin="round" stroke-width="2"/>
  </g>
 </g>
</svg>
