<?xml version='1.0' encoding='UTF-8' standalone='no'?>
<svg viewBox="0 0 576 432" xmlns="http://www.w3.org/2000/svg" xmlns:xlink="http://www.w3.org/1999/xlink" width="576pt" height="432pt">
 <title>gl2ps_renderer figure</title>
 <desc>
Creator: GL2PS 1.4.0, (C) 1999-2017 C. Geuzaine
For: Octave
CreationDate: Fri Jul 02 16:46:42 2021
</desc>
 <defs/>
 <polygon points="0,0 576,0 576,432 0,432" fill="#ffffff"/>
 <g>
  <polygon points="0,432 576,432 576,0 0,0" shape-rendering="crispEdges" fill="#ffffff"/>
  <clipPath id="cp00576432">
   <polygon points="0,432 576,432 576,0 0,0"/>
  </clipPath>
  <g clip-path="url(#cp00576432)">
   <polygon points="74.88,384.48 521.28,384.48 521.28,32.4 74.88,32.4" shape-rendering="crispEdges" fill="#ffffff"/>
   <polyline stroke-linecap="butt" points="74.88,384.48 74.88,32.4" stroke-dasharray="16,0" stroke-linejoin="miter" stroke-opacity="0.15" stroke-width="0.5" fill="none" stroke="#262626"/>
   <polyline stroke-linecap="butt" points="164.16,384.48 164.16,32.4" stroke-dasharray="16,0" stroke-linejoin="miter" stroke-opacity="0.15" stroke-width="0.5" fill="none" stroke="#262626"/>
   <polyline stroke-linecap="butt" points="253.44,384.48 253.44,32.4" stroke-dasharray="16,0" stroke-linejoin="miter" stroke-opacity="0.15" stroke-width="0.5" fill="none" stroke="#262626"/>
   <polyline stroke-linecap="butt" points="342.72,384.48 342.72,32.4" stroke-dasharray="16,0" stroke-linejoin="miter" stroke-opacity="0.15" stroke-width="0.5" fill="none" stroke="#262626"/>
   <polyline stroke-linecap="butt" points="432,384.48 432,32.4" stroke-dasharray="16,0" stroke-linejoin="miter" stroke-opacity="0.15" stroke-width="0.5" fill="none" stroke="#262626"/>
   <polyline stroke-linecap="butt" points="521.28,384.48 521.28,32.4" stroke-dasharray="16,0" stroke-linejoin="miter" stroke-opacity="0.15" stroke-width="0.5" fill="none" stroke="#262626"/>
   <polyline stroke-linecap="butt" points="74.88,384.48 74.88,380.015" stroke-linejoin="miter" stroke-width="0.5" fill="none" stroke="#262626"/>
   <polyline stroke-linecap="butt" points="74.88,32.4 74.88,36.865" stroke-linejoin="miter" stroke-width="0.5" fill="none" stroke="#262626"/>
   <polyline stroke-linecap="butt" points="164.16,384.48 164.16,380.015" stroke-linejoin="miter" stroke-width="0.5" fill="none" stroke="#262626"/>
   <polyline stroke-linecap="butt" points="164.16,32.4 164.16,36.865" stroke-linejoin="miter" stroke-width="0.5" fill="none" stroke="#262626"/>
   <polyline stroke-linecap="butt" points="253.44,384.48 253.44,380.015" stroke-linejoin="miter" stroke-width="0.5" fill="none" stroke="#262626"/>
   <polyline stroke-linecap="butt" points="253.44,32.4 253.44,36.865" stroke-linejoin="miter" stroke-width="0.5" fill="none" stroke="#262626"/>
   <polyline stroke-linecap="butt" points="342.72,384.48 342.72,380.015" stroke-linejoin="miter" stroke-width="0.5" fill="none" stroke="#262626"/>
   <polyline stroke-linecap="butt" points="342.72,32.4 342.72,36.865" stroke-linejoin="miter" stroke-width="0.5" fill="none" stroke="#262626"/>
   <polyline stroke-linecap="butt" points="432,384.48 432,380.015" stroke-linejoin="miter" stroke-width="0.5" fill="none" stroke="#262626"/>
   <polyline stroke-linecap="butt" points="432,32.4 432,36.865" stroke-linejoin="miter" stroke-width="0.5" fill="none" stroke="#262626"/>
   <polyline stroke-linecap="butt" points="521.28,384.48 521.28,380.015" stroke-linejoin="miter" stroke-width="0.5" fill="none" stroke="#262626"/>
   <polyline stroke-linecap="butt" points="521.28,32.4 521.28,36.865" stroke-linejoin="miter" stroke-width="0.5" fill="none" stroke="#262626"/>
   <text transform="translate(71.88,399.982) rotate(-0,3,-8)" font-weight="normal" font-size="10" xml:space="preserve" font-style="normal" font-family="FreeSans">
    <tspan y="-0" fill="rgb(38,38,38)" x="0 ">0</tspan>
   </text>
   <text transform="translate(152.16,399.982) rotate(-0,12,-8)" font-weight="normal" font-size="10" xml:space="preserve" font-style="normal" font-family="FreeSans">
    <tspan y="-0" fill="rgb(38,38,38)" x="0 6 12 18 ">1000</tspan>
   </text>
   <text transform="translate(241.44,399.982) rotate(-0,12,-8)" font-weight="normal" font-size="10" xml:space="preserve" font-style="normal" font-family="FreeSans">
    <tspan y="-0" fill="rgb(38,38,38)" x="0 6 12 18 ">2000</tspan>
   </text>
   <text transform="translate(330.72,399.982) rotate(-0,12,-8)" font-weight="normal" font-size="10" xml:space="preserve" font-style="normal" font-family="FreeSans">
    <tspan y="-0" fill="rgb(38,38,38)" x="0 6 12 18 ">3000</tspan>
   </text>
   <text transform="translate(420,399.982) rotate(-0,12,-8)" font-weight="normal" font-size="10" xml:space="preserve" font-style="normal" font-family="FreeSans">
    <tspan y="-0" fill="rgb(38,38,38)" x="0 6 12 18 ">4000</tspan>
   </text>
   <text transform="translate(509.28,399.982) rotate(-0,12,-8)" font-weight="normal" font-size="10" xml:space="preserve" font-style="normal" font-family="FreeSans">
    <tspan y="-0" fill="rgb(38,38,38)" x="0 6 12 18 ">5000</tspan>
   </text>
   <polyline stroke-linecap="butt" points="74.88,384.48 521.28,384.48" stroke-dasharray="16,0" stroke-linejoin="miter" stroke-opacity="0.15" stroke-width="0.5" fill="none" stroke="#262626"/>
   <polyline stroke-linecap="butt" points="74.88,325.8 521.28,325.8" stroke-dasharray="16,0" stroke-linejoin="miter" stroke-opacity="0.15" stroke-width="0.5" fill="none" stroke="#262626"/>
   <polyline stroke-linecap="butt" points="74.88,267.12 521.28,267.12" stroke-dasharray="16,0" stroke-linejoin="miter" stroke-opacity="0.15" stroke-width="0.5" fill="none" stroke="#262626"/>
   <polyline stroke-linecap="butt" points="74.88,208.44 521.28,208.44" stroke-dasharray="16,0" stroke-linejoin="miter" stroke-opacity="0.15" stroke-width="0.5" fill="none" stroke="#262626"/>
   <polyline stroke-linecap="butt" points="74.88,149.76 521.28,149.76" stroke-dasharray="16,0" stroke-linejoin="miter" stroke-opacity="0.15" stroke-width="0.5" fill="none" stroke="#262626"/>
   <polyline stroke-linecap="butt" points="74.88,91.08 521.28,91.08" stroke-dasharray="16,0" stroke-linejoin="miter" stroke-opacity="0.15" stroke-width="0.5" fill="none" stroke="#262626"/>
   <polyline stroke-linecap="butt" points="74.88,32.4 521.28,32.4" stroke-dasharray="16,0" stroke-linejoin="miter" stroke-opacity="0.15" stroke-width="0.5" fill="none" stroke="#262626"/>
   <polyline stroke-linecap="butt" points="74.88,384.48 79.348,384.48" stroke-linejoin="miter" stroke-width="0.5" fill="none" stroke="#262626"/>
   <polyline stroke-linecap="butt" points="521.28,384.48 516.812,384.48" stroke-linejoin="miter" stroke-width="0.5" fill="none" stroke="#262626"/>
   <polyline stroke-linecap="butt" points="74.88,325.8 79.348,325.8" stroke-linejoin="miter" stroke-width="0.5" fill="none" stroke="#262626"/>
   <polyline stroke-linecap="butt" points="521.28,325.8 516.812,325.8" stroke-linejoin="miter" stroke-width="0.5" fill="none" stroke="#262626"/>
   <polyline stroke-linecap="butt" points="74.88,267.12 79.348,267.12" stroke-linejoin="miter" stroke-width="0.5" fill="none" stroke="#262626"/>
   <polyline stroke-linecap="butt" points="521.28,267.12 516.812,267.12" stroke-linejoin="miter" stroke-width="0.5" fill="none" stroke="#262626"/>
   <polyline stroke-linecap="butt" points="74.88,208.44 79.348,208.44" stroke-linejoin="miter" stroke-width="0.5" fill="none" stroke="#262626"/>
   <polyline stroke-linecap="butt" points="521.28,208.44 516.812,208.44" stroke-linejoin="miter" stroke-width="0.5" fill="none" stroke="#262626"/>
   <polyline stroke-linecap="butt" points="74.88,149.76 79.348,149.76" stroke-linejoin="miter" stroke-width="0.5" fill="none" stroke="#262626"/>
   <polyline stroke-linecap="butt" points="521.28,149.76 516.812,149.76" stroke-linejoin="miter" stroke-width="0.5" fill="none" stroke="#262626"/>
   <polyline stroke-linecap="butt" points="74.88,91.08 79.348,91.08" stroke-linejoin="miter" stroke-width="0.5" fill="none" stroke="#262626"/>
   <polyline stroke-linecap="butt" points="521.28,91.08 516.812,91.08" stroke-linejoin="miter" stroke-width="0.5" fill="none" stroke="#262626"/>
   <polyline stroke-linecap="butt" points="74.88,32.4 79.348,32.4" stroke-linejoin="miter" stroke-width="0.5" fill="none" stroke="#262626"/>
   <polyline stroke-linecap="butt" points="521.28,32.4 516.812,32.4" stroke-linejoin="miter" stroke-width="0.5" fill="none" stroke="#262626"/>
   <text transform="translate(63.8755,388.48) rotate(-0,6,-4)" font-weight="normal" font-size="10" xml:space="preserve" font-style="normal" font-family="FreeSans">
    <tspan y="-0" fill="rgb(38,38,38)" x="0 ">0</tspan>
   </text>
   <text transform="translate(57.8755,329.8) rotate(-0,12,-4)" font-weight="normal" font-size="10" xml:space="preserve" font-style="normal" font-family="FreeSans">
    <tspan y="-0" fill="rgb(38,38,38)" x="0 6 ">20</tspan>
   </text>
   <text transform="translate(57.8755,271.12) rotate(-0,12,-4)" font-weight="normal" font-size="10" xml:space="preserve" font-style="normal" font-family="FreeSans">
    <tspan y="-0" fill="rgb(38,38,38)" x="0 6 ">40</tspan>
   </text>
   <text transform="translate(57.8755,212.44) rotate(-0,12,-4)" font-weight="normal" font-size="10" xml:space="preserve" font-style="normal" font-family="FreeSans">
    <tspan y="-0" fill="rgb(38,38,38)" x="0 6 ">60</tspan>
   </text>
   <text transform="translate(57.8755,153.76) rotate(-0,12,-4)" font-weight="normal" font-size="10" xml:space="preserve" font-style="normal" font-family="FreeSans">
    <tspan y="-0" fill="rgb(38,38,38)" x="0 6 ">80</tspan>
   </text>
   <text transform="translate(51.8755,95.08) rotate(-0,18,-4)" font-weight="normal" font-size="10" xml:space="preserve" font-style="normal" font-family="FreeSans">
    <tspan y="-0" fill="rgb(38,38,38)" x="0 6 12 ">100</tspan>
   </text>
   <text transform="translate(51.8755,36.4) rotate(-0,18,-4)" font-weight="normal" font-size="10" xml:space="preserve" font-style="normal" font-family="FreeSans">
    <tspan y="-0" fill="rgb(38,38,38)" x="0 6 12 ">120</tspan>
   </text>
   <polyline stroke-linecap="square" points="74.88,384.48 521.28,384.48" stroke-dasharray="16,0" stroke-linejoin="miter" stroke-width="0.5" fill="none" stroke="#262626"/>
   <polyline stroke-linecap="square" points="74.88,32.4 521.28,32.4" stroke-dasharray="16,0" stroke-linejoin="miter" stroke-width="0.5" fill="none" stroke="#262626"/>
   <polyline stroke-linecap="square" points="74.88,384.48 74.88,32.4" stroke-dasharray="16,0" stroke-linejoin="miter" stroke-width="0.5" fill="none" stroke="#262626"/>
   <polyline stroke-linecap="square" points="521.28,384.48 521.28,32.4" stroke-dasharray="16,0" stroke-linejoin="miter" stroke-width="0.5" fill="none" stroke="#262626"/>
   <text transform="translate(273.08,416.982) rotate(-0,25,-12)" font-weight="normal" font-size="11" xml:space="preserve" font-style="normal" font-family="FreeSans">
    <tspan y="-3" fill="rgb(38,38,38)" x="0 7 13 22 28 34 37 41 46 ">Tempo (s)</tspan>
   </text>
   <text transform="translate(29.3755,208.44) rotate(-90,17.5,0)" font-weight="normal" font-size="11" xml:space="preserve" font-style="normal" font-family="FreeSans">
    <tspan y="-3" fill="rgb(38,38,38)" x="0 8 14 17 21 31 ">N2 (%)</tspan>
   </text>
   <polyline stroke-linecap="butt" points="128.984,227.684 129.162,227.617 129.341,215.675 129.52,193.89 129.698,155.54 129.877,120.869 130.056,92.1479 130.234,91.7812 130.413,93.9142 130.592,94.3954 130.77,94.7152 130.949,94.9353 131.127,96.8805 131.306,96.0502 131.485,95.3754 131.663,96.1705 131.842,96.3113 132.021,95.9739 132.199,95.3167 132.378,95.5338 132.557,94.9147 132.735,95.4751 132.914,94.0316 133.07,96.012 133.24,95.6893 133.402,95.5133 133.581,95.0761 133.727,95.4546 133.906,95.1758 134.085,95.1758 134.263,113.355 134.442,92.5176 134.621,94.7769 134.799,94.8355 134.978,94.2751 135.157,94.636 135.335,94.6771 135.514,94.7152 135.693,102.837 135.871,111.369 136.05,119.299 136.229,129.43 136.407,131.816 136.586,132.532 136.765,131.114 136.943,131.508 137.122,134.392 137.301,133.347 137.479,131.557 137.658,127.051 137.837,126.291 137.977,127.18 138.135,126.37 138.286,125.719 138.446,126.608 138.605,126.702 138.781,123.463 138.955,118.862 139.097,116.245 139.244,116.107 139.378,115.643 139.51,115.884 139.687,116.057 139.864,114.933 140.011,115.884 140.173,115.315 140.32,115.142 140.497,115.142 140.648,115.247 140.824,114.831 141.002,115.488 141.159,114.725 141.318,114.966 141.494,116.004 141.641,115.177 141.793,115.711 141.929,117.169 142.093,118.255 142.196,117.882 142.373,116.521 142.536,115.332 142.697,110.424 142.869,110.923 143.027,110.905 143.185,110.726 143.362,111.583 143.536,110.207 143.71,109.811 143.885,110.585 144.059,111.867 144.23,111.636 144.403,111.885 144.569,101.179 144.747,98.726 144.926,97.8018 145.101,97.925 145.276,97.5935 145.433,97.9837 145.592,97.3969 145.771,97.1944 145.92,97.0771 146.098,97.8869 146.275,98.0835 146.438,97.2766 146.601,97.435 146.766,97.6903 146.945,97.2737 147.111,98.5089 147.28,100.005 147.452,101.276 147.624,100.334 147.794,101.411 147.972,100.874 148.138,101.945 148.312,101.569 148.491,101.868 148.656,101.657 148.818,101.114 148.992,99.9671 149.153,100.275 149.331,99.5827 149.504,99.9671 149.659,99.5417 149.83,99.348 149.982,99.659 150.152,100.084 150.316,99.9495 150.477,99.7734 150.636,99.9671 150.815,99.9113 150.974,99.615 151.143,100.161 151.3,102.514 151.448,102.778 151.603,102.986 151.781,102.93 151.958,103.08 152.135,102.875 152.295,103.57 152.455,103.165 152.632,103.459 152.807,103.723 152.965,103.327 153.125,102.077 153.284,103.549 153.461,104.022 153.607,103.365 153.765,102.608 153.934,103.705 154.093,103.816 154.252,104.227 154.396,103.949 154.567,104.94 154.741,104.042 154.837,103.74 154.929,104.679 155.059,99.9289 155.218,100.084 155.355,99.5798 155.504,99.9495 155.672,100.393 155.834,96.2468 155.979,95.4546 156.144,92.6379 156.3,94.9558 156.47,93.9934 156.625,95.3343 156.797,93.8732 156.961,94.5363 157.137,94.6155 157.297,94.7152 157.469,95.0966 157.646,94.3543 157.807,95.5133 157.971,93.6883 158.133,102.514 158.312,102.948 158.482,102.59 158.639,102.986 158.803,102.722 158.939,103.441 159.109,102.74 159.268,105.756 159.396,105.201 159.536,105.885 159.704,106.589 159.797,107.452 159.922,111.6 160.068,130.847 160.246,129.806 160.425,126.989 160.604,128.201 160.782,127.887 160.961,129.401 161.064,127.306 161.243,128.186 161.421,127.541 161.6,127.919 161.779,129.463 161.957,130.393 162.136,131.252 162.314,130.654 162.493,131.314 162.672,130.639 162.85,131.434 163.029,131.358 163.053,131.924 163.231,118.745 163.41,108.91 163.513,107.818 163.692,104.94 163.703,103.682 163.881,101.883 164.06,97.2971 164.239,90.0531 164.417,91.3089 164.596,92.9959 164.775,92.0453 164.919,93.5093 165.05,93.8086 165.228,94.3309 165.377,93.7529 165.556,97.5935 165.734,95.8125 165.913,94.5363 166.092,96.012 166.27,96.4668 166.449,100.278 166.628,100.739 166.806,140.861 166.985,150.986 167.164,151.039 167.342,150.634 167.521,155.69 167.7,157.917 167.878,157.905 168.053,156.907 168.23,141.046 168.393,113.279 168.562,92.8609 168.739,91.2912 168.916,91.3118 169.089,93.0428 169.268,92.1891 169.434,93.7704 169.611,92.9225 169.79,93.791 169.868,94.7739 170.047,94.7357 170.218,92.6379 170.384,94.3749 170.563,94.4746 170.724,96.9421 170.9,94.5568 171.043,94.1548 171.221,95.5514 171.399,95.0145 171.578,94.2546 171.757,94.7357 171.935,94.4541 172.114,93.8907 172.293,94.5773 172.471,94.5744 172.65,94.3749 172.829,94.2135 173.007,94.856 173.186,100.451 173.364,100.642 173.543,92.9842 173.722,93.4888 173.9,95.7333 174.079,94.9147 174.24,94.7944 174.368,94.5157 174.546,94.3338 174.636,111.6 174.814,141.706 174.993,150.006 175.172,151.647 175.237,153.313 175.402,154.51 175.455,152.345 175.63,150.021 175.73,150.649 175.908,150.294 176.087,148.331 176.265,137.983 176.438,138.127 176.607,141.554 176.783,123.882 176.962,120.185 177.132,118.792 177.295,118.137 177.46,118.941 177.638,118.862 177.775,119.953 177.954,118.34 178.133,130.915 178.311,132.056 178.49,128.984 178.669,128.75 178.847,123.331 179.026,120.452 179.205,121.03 179.383,106.533 179.51,101.349 179.689,100.064 179.868,97.4937 180.046,90.6751 180.225,91.3323 180.404,92.5969 180.582,93.166 180.761,92.7494 180.918,107.689 181.013,114.831 181.162,116.503 181.204,117.509 181.382,116.418 181.561,117.407 181.739,122.612 181.918,122.45 182.097,121.89 182.229,124.707 182.335,125.238 182.49,126.068 182.668,124.821 182.847,125.109 183.026,125.332 183.204,125.367 183.383,123.964 183.562,125.508 183.74,125.399 183.907,125.302 184.06,125.044 184.238,121.561 184.386,122.186 184.52,121.332 184.692,121.465 184.831,121.661 184.992,122.089 185.165,121.726 185.339,122.054 185.515,121.462 185.684,121.693 185.837,121.597 185.998,121.397 186.174,121.001 186.307,121.594 186.467,121.397 186.57,121.2 186.697,121.693 186.872,122.318 186.906,122.647 187.085,122.007 187.259,121.514 187.431,121.843 187.549,122.04 187.724,122.368 187.862,121.858 187.976,121.811 188.105,122.122 188.281,121.195 188.399,122.606 188.574,120.869 188.688,110.216 188.804,110.529 188.983,108.329 189.162,108.182 189.34,108.217 189.519,108.361 189.698,108.942 189.869,107.323 190.005,108.655 190.184,112.237 190.246,113.067 190.424,112.698 190.603,113.226 190.782,112.234 190.95,112.768 191.127,113.226 191.301,113.1 191.454,113.173 191.616,112.976 191.789,113.628 191.964,113.191 192.138,113.974 192.143,113.384 192.322,113.15 192.5,113.381 192.679,113.399 192.858,113.54 193.036,112.871 193.215,113.188 193.393,113.854 193.572,113.995 193.751,114.57 193.93,113.047 194.108,113.364 194.287,113.079 194.465,113.261 194.644,111.6 194.823,112.944 194.99,113.367 195.169,118.457 195.348,119.282 195.526,118.34 195.705,118.085 195.861,118.425 195.995,118.93 196.088,124.108 196.266,123.037 196.425,123.137 196.594,123.363 196.624,123.688 196.803,122.025 196.858,122.711 197.026,123.102 197.205,123.072 197.384,123.166 197.562,122.99 197.741,123.072 197.766,123.339 197.945,123.134 198.123,123.721 198.293,123.005 198.469,123.037 198.646,122.711 198.813,123.917 198.955,124.237 199.115,123.005 199.275,122.876 199.442,123.069 199.618,122.676 199.785,122.794 199.945,122.189 200.037,122.248 200.216,123.137 200.395,124.95 200.573,126.276 200.752,126.799 200.931,128.312 201.102,128.186 201.231,128.609 201.403,128.867 201.486,127.981 201.665,127.479 201.844,127.746 202.022,127.397 202.201,128.888 202.38,128.092 202.538,128.216 202.688,128.453 202.796,127.884 202.967,128.374 203.145,128.186 203.324,127.905 203.503,127.905 203.681,127.952 203.86,128.219 204.039,127.4 204.217,127.652 204.372,128.119 204.542,128.045 204.691,128.688 204.776,127.999 204.946,127.966 205.124,128.342 205.303,127.84 205.481,127.966 205.66,128.934 205.837,128.154 206.015,128.5 206.191,128.045 206.342,127.966 206.517,127.591 206.696,127.808 206.863,127.462 207.039,128.154 207.216,127.541 207.328,127.811 207.467,127.685 207.646,127.605 207.824,127.415 208.003,128.092 208.182,128.06 208.36,127.195 208.539,127.699 208.718,127.338 208.896,128.122 209.075,127.84 209.254,127.62 209.432,128.342 209.611,127.84 209.789,128.403 209.968,128.436 210.128,127.192 210.304,127.811 210.441,127.699 210.567,128.497 210.717,127.588 210.895,128.468 211.004,127.588 211.125,128.374 211.286,127.808 211.325,128.905 211.503,127.526 211.529,127.021 211.707,128.623 211.886,127.573 212.065,127.526 212.243,127.62 212.422,127.899 212.601,128.092 212.752,128.107 212.897,128.483 213.033,128.122 213.158,127.966 213.285,127.966 213.444,127.274 213.567,122.99 213.655,124.979 213.783,124.366 213.909,124.627 214.07,123.721 214.239,123.721 214.415,124.337 214.564,123.882 214.719,123.979 214.835,123.656 214.945,124.111 215.044,123.947 215.17,124.498 215.28,124.076 215.427,123.818 215.591,123.592 215.769,124.272 215.772,123.105 215.951,124.14 216.13,123.656 216.308,123.762 216.487,123.298 216.666,124.531 216.844,123.234 217.023,123.688 217.19,123.785 217.315,124.563 217.453,123.964 217.603,124.492 217.781,124.176 217.798,124.143 217.976,123.363 218.131,124.173 218.272,123.688 218.45,124.61 218.622,123.005 218.753,124.886 218.879,124.724 219.032,125.745 219.21,127.036 219.389,127.288 219.568,127.494 219.746,127.306 219.925,125.223 220.104,125.044 220.282,124.143 220.461,125.141 220.64,124.231 220.818,124.627 220.997,124.176 221.176,125.109 221.354,124.369 221.533,124.272 221.712,124.495 221.89,120.036 222.069,118.663 222.248,118.357 222.426,118.627 222.605,118.577 222.784,118.727 222.962,119.064 223.141,118.897 223.32,120.036 223.498,118.002 223.677,118.56 223.855,118.357 223.987,118.695 224.114,118.39 224.28,122.876 224.419,122.673 224.598,122.905 224.776,122.776 224.955,123.753 225.134,123.005 225.312,123.234 225.491,123.064 225.67,123.366 225.848,122.547 226.027,123.005 226.205,123.9 226.384,123.624 226.523,123.125 226.661,124.431 226.793,123.137 226.966,123.835 227.089,123.656 227.226,123.137 227.314,124.046 227.489,124.208 227.617,122.744 227.669,123.624 227.798,124.302 227.977,123.785 228.156,123.785 228.334,123.413 228.513,122.245 228.691,123.46 228.87,123.105 229.049,123.137 229.141,123.51 229.262,123.069 229.44,123.639 229.462,122.876 229.64,122.301 229.819,123.38 229.998,122.139 230.176,122.679 230.355,122.512 230.534,123.413 230.712,123.022 230.891,122.923 231.07,122.418 231.248,122.629 231.42,122.154 231.569,123.072 231.724,123.882 231.898,122.858 232.017,119.601 232.196,112.768 232.374,113.296 232.553,114.027 232.732,113.12 232.903,113.469 233.012,116.896 233.17,116.861 233.346,116.794 233.514,117.237 233.688,116.791 233.867,117.985 234.016,116.726 234.195,116.004 234.374,122.923 234.552,123.495 234.731,124.237 234.91,125.088 235.088,123.427 235.267,124.545 235.446,123.95 235.624,124.014 235.803,123.897 235.982,122.418 236.16,123.43 236.339,125.109 236.518,124.24 236.696,124.102 236.875,123.853 237.054,123.609 237.232,123.463 237.411,123.005 237.59,123.413 237.768,123.835 237.921,123.979 238.046,123.656 238.206,124.592 238.385,123.574 238.563,123.263 238.714,105.7 238.854,92.902 239.029,93.4272 239.204,92.8727 239.382,93.8526 239.509,93.6678 239.687,96.1705 239.709,95.2961 239.887,95.9534 240.066,95.616 240.244,96.0883 240.423,96.1118 240.602,96.725 240.767,97.2384 240.933,98.9783 241.1,99.1925 241.275,98.7641 241.452,98.2565 241.599,98.4913 241.774,97.749 241.926,98.2976 242.102,97.8869 242.279,98.0805 242.393,103.552 242.496,101.848 242.674,97.9837 242.853,99.2336 243.032,99.3275 243.21,99.1544 243.389,98.6673 243.568,137.446 243.746,149.927 243.925,153.114 244.104,155.789 244.282,156.039 244.461,156.957 244.639,158.266 244.818,157.647 244.997,157.911 245.175,157.987 245.354,148.167 245.533,143.203 245.711,143.951 245.869,143.593 246.012,143.12 246.185,142.24 246.219,141.598 246.397,140.295 246.558,123.005 246.72,102.531 246.895,93.747 247.07,92.5176 247.229,92.3944 247.396,92.3064 247.574,93.8732 247.748,94.9353 247.907,94.2751 247.986,95.5749 248.164,95.2961 248.343,94.8942 248.522,95.616 248.7,95.8712 248.879,95.8125 249.057,97.2003 249.236,95.1142 249.415,95.3548 249.593,95.0556 249.772,100.393 249.951,102.264 250.056,101.904 250.151,102.056 250.312,103.365 250.444,102.986 250.623,102.76 250.798,94.815 250.957,94.5157 251.117,93.122 251.288,92.7172 251.463,94.5538 251.641,94.8972 251.808,94.0521 251.883,96.012 252.062,94.3954 252.24,94.3749 252.38,93.4066 252.557,94.4746 252.711,94.7944 252.865,94.0551 253.032,95.1729 253.2,94.2135 253.217,94.6976 253.396,93.2453 253.575,93.7499 253.753,94.8942 253.932,111.46 254.111,143.288 254.289,147.639 254.468,152.973 254.647,154.736 254.825,155.64 254.904,156.708 255.083,153.102 255.261,126.719 255.437,101.331 255.614,90.7514 255.791,92.5969 255.968,92.8815 256.072,93.8937 256.249,113.399 256.428,131.681 256.606,126.872 256.781,136.437 256.95,149.003 257.128,151.676 257.305,143.607 257.478,120.784 257.64,108.091 257.683,124.093 257.862,133.646 258.039,130.715 258.216,119.199 258.392,118.93 258.568,120.203 258.728,121.858 258.767,121.321 258.946,121.661 259.117,121.529 259.295,120.135 259.472,119.719 259.65,124.947 259.828,103.778 260.007,91.3118 260.172,92.0688 260.351,91.6551 260.529,91.6169 260.708,139.365 260.887,150.805 261.052,153.419 261.231,155.276 261.408,156.807 261.585,156.731 261.761,157.253 261.934,156.857 262.099,161.599 262.206,129.991 262.384,112.768 262.563,93.3069 262.741,91.9044 262.919,91.6991 263.095,93.1602 263.273,91.4908 263.452,92.0688 263.63,92.7993 263.806,92.5558 263.983,93.348 264.119,92.1039 264.298,92.3533 264.476,93.0017 264.653,93.6883 264.828,94.3338 264.918,94.0521 265.093,94.6741 265.269,94.1137 265.448,94.4541 265.619,93.3685 265.771,138.995 265.807,142.451 265.986,151.623 266.163,155.188 266.34,156.822 266.519,155.989 266.697,157.303 266.874,156.711 267.036,156.338 267.124,158.257 267.303,157.782 267.477,157.623 267.654,153.316 267.831,134.157 268.006,141.95 268.183,119.886 268.357,91.9836 268.527,90.5518 268.657,90.7543 268.836,91.658 268.912,90.5929 269.035,90.86 269.1,92.0834 269.218,92.5147 269.328,91.6169 269.439,91.658 269.534,91.7196 269.632,93.0399 269.739,93.3891 269.918,93.0428 270.095,93.4301 270.144,92.99 270.323,93.2453 270.5,93.5093 270.678,93.2394 270.853,94.6155 271.015,94.9353 271.193,94.8972 271.367,94.1343 271.531,94.856 271.708,95.0966 271.885,95.3754 271.951,93.8086 272.13,124.95 272.307,146.938 272.48,151.946 272.657,155.088 272.831,156.717 272.93,156.734 273.108,156.796 273.287,158.709 273.465,158.77 273.643,159.991 273.811,159.879 273.987,147.005 274.165,124.272 274.344,99.4389 274.522,91.5583 274.694,90.1353 274.843,91.2296 274.994,91.5143 275.156,92.4531 275.311,92.0688 275.49,92.3533 275.667,93.568 275.843,94.014 276.019,95.0556 276.189,94.7769 276.368,95.3372 276.543,94.6566 276.714,94.1754 276.89,95.0145 277.056,93.9318 277.226,94.7974 277.395,93.2453 277.551,93.4477 277.576,93.3685 277.755,104.659 277.934,140.195 278.101,140.339 278.275,134.365 278.449,132.983 278.626,132.664 278.799,124.965 278.961,125.205 279.019,125.845 279.197,127.494 279.373,129.014 279.544,127.652 279.717,105.087 279.883,93.7118 280.03,92.2917 280.161,91.0418 280.265,92.5147 280.443,116.999 280.537,126.132 280.715,125.525 280.894,124.481 281.073,112.343 281.251,111.031 281.43,111.791 281.609,109.288 281.776,93.8115 281.949,89.1406 282.127,91.4761 282.301,93.9113 282.471,99.5798 282.574,131.772 282.753,131.557 282.931,140.266 283.103,139.911 283.272,139.479 283.416,150.672 283.467,152.345 283.645,156.485 283.823,158.77 283.995,159.254 284.168,158.697 284.311,160.812 284.49,160.446 284.667,160.657 284.842,160.865 285.018,161.675 285.196,157.512 285.228,152.398 285.406,143.622 285.585,139.94 285.758,119.836 285.927,94.9734 286.102,90.4668 286.279,88.1607 286.394,89.1817 286.46,89.2668 286.639,89.968 286.806,91.2912 286.973,92.0277 287.136,92.2507 287.299,93.4477 287.477,93.2863 287.599,93.3891 287.737,92.9225 287.907,113.399 288.051,114.414 288.218,134.99 288.388,132.828 288.562,129.216 288.734,129.574 288.898,130.005 288.951,126.831 289.13,109.236 289.306,105.905 289.48,101.179 289.654,92.192 289.823,91.5993 289.991,92.0688 290.165,93.2863 290.332,92.3093 290.481,92.8022 290.659,93.0428 290.838,93.791 291.011,93.3274 291.187,93.6091 291.365,94.3338 291.542,94.3749 291.703,94.815 291.748,95.0732 291.927,93.0986 292.099,94.1137 292.276,94.2546 292.455,93.7646 292.633,93.8497 292.792,92.6761 292.956,136.818 293.135,150.033 293.313,145.896 293.492,144.009 293.668,145.051 293.845,144.763 294.024,147.551 294.202,154.56 294.338,156.561 294.516,158.597 294.691,158.744 294.869,159.023 295.047,148.064 295.225,137.619 295.404,116.245 295.519,102.684 295.698,96.6077 295.877,96.2028 296.055,119.029 296.219,92.1069 296.259,93.3802 296.438,92.0688 296.617,92.4736 296.795,92.7993 296.972,93.3274 297.134,93.5064 297.234,93.8321 297.413,93.9729 297.587,93.9142 297.759,94.369 297.934,93.5093 298.099,94.7357 298.277,93.4477 298.431,94.1695 298.61,92.2301 298.784,93.6091 298.875,93.6707 299.054,93.0839 299.233,94.0932 299.411,93.0428 299.59,94.1754 299.6,94.014 299.779,93.348 299.954,93.7118 300.129,92.7407 300.3,93.6296 300.478,93.7118 300.656,94.0932 300.828,93.8907 300.997,93.3245 301.156,125.654 301.283,113.995 301.43,123.85 301.579,122.662 301.758,116.691 301.936,107.672 302.115,101.581 302.294,99.3099 302.472,97.0008 302.651,93.3891 302.829,93.8115 303.008,93.8086 303.09,93.3626 303.241,109.632 303.297,124.287 303.426,144.2 303.605,152.216 303.784,155.69 303.955,156.684 304.123,157.523 304.196,157.485 304.374,157.67 304.553,159.859 304.73,161.886 304.893,160.026 305.056,153.516 305.235,144.2 305.413,129.122 305.592,128.638 305.771,119.331 305.949,125.17 306.128,124.692 306.307,112.768 306.485,113.487 306.664,110.887 306.843,113.959 307.021,119.264 307.2,111.351 307.379,105.812 307.557,105.369 307.736,103.816 307.915,101.707 308.093,106.422 308.272,113.279 308.451,130.36 308.629,129.061 308.808,117.272 308.987,131.343 309.146,135.879 309.19,142.759 309.368,130.046 309.543,129.835 309.594,130.067 309.772,129.914 309.951,128.436 310.13,146.896 310.308,154.522 310.487,158.624 310.666,159.882 310.817,160.757 310.995,160.783 311.174,145.949 311.353,156.185 311.531,158.55 311.71,161.769 311.889,161.675 312.067,161.294 312.227,162.734 312.349,161.543 312.482,162.828 312.569,161.921 312.728,156.523 312.793,151.294 312.972,127.872 313.151,101.716 313.329,98.8815 313.502,98.8815 313.666,98.2184 313.831,127.905 313.951,125.654 314.129,125.493 314.298,126.737 314.41,125.78 314.584,121.893 314.613,122.597 314.791,123.721 314.97,126.64 315.149,127.429 315.327,124.208 315.506,126.259 315.632,125.51 315.739,125.813 315.899,123.169 316.077,116.893 316.256,116.195 316.435,104.829 316.613,91.6198 316.745,92.2712 316.914,91.9661 317.073,92.9431 317.198,93.3451 317.345,93.125 317.483,93.1631 317.656,94.1137 317.832,93.4008 318.004,93.6707 318.172,94.014 318.283,93.8937 318.461,93.8526 318.64,93.6091 318.819,94.856 318.983,94.2957 319.157,93.9318 319.331,94.2135 319.446,94.011 319.625,94.7769 319.801,94.457 319.951,94.8179 320.13,94.2957 320.308,95.4546 320.485,95.2375 320.651,95.035 320.83,96.2908 320.962,94.5568 321.122,94.815 321.165,99.8908 321.344,102.455 321.365,105.565 321.544,113.012 321.633,113.959 321.811,119.402 321.99,124.595 322.039,124.448 322.196,124.416 322.375,124.384 322.432,124.099 322.611,126.197 322.774,125.012 322.818,124.692 322.997,109.321 323.07,111.225 323.225,111.172 323.397,102.59 323.566,93.3685 323.699,92.3944 323.878,93.0428 324.056,93.9524 324.228,95.0966 324.338,112.519 324.517,122.204 324.685,98.4913 324.861,104.116 325.028,98.9196 325.199,97.7871 325.264,96.8629 325.442,97.4937 325.621,96.1118 325.8,95.8155 325.978,94.9558 326.157,94.636 326.336,95.1758 326.511,109.919 326.69,114.238 326.868,113.399 327.047,114.587 327.226,115.626 327.404,115.332 327.583,117.697 327.762,117.747 327.94,117.944 328.119,116.503 328.298,116.946 328.476,115.773 328.655,118.12 328.834,117.797 329.012,118.12 329.191,118.12 329.37,118.117 329.548,117.307 329.727,117.545 329.906,117.419 330.084,117.935 330.218,116.45 330.355,117.747 330.534,133.362 330.712,131.91 330.891,136.296 331.07,134.453 331.23,134.515 331.408,130.592 331.587,129.527 331.765,127.462 331.943,123.005 332.07,123.442 332.167,123.005 332.346,123.102 332.524,123.328 332.703,123.137 332.879,123.005 333.058,122.973 333.224,122.973 333.378,123.331 333.551,122.946 333.669,123.492 333.841,123.592 333.945,122.937 334.021,123.266 334.2,110.958 334.369,91.7607 334.547,91.8839 334.724,92.0277 334.902,91.4937 335.079,92.2712 335.256,92.5089 335.434,93.3069 335.609,94.2135 335.784,94.6155 335.961,95.5367 336.138,95.5338 336.306,96.4492 336.476,96.012 336.653,95.1553 336.82,96.2115 336.984,94.1959 337.124,95.9709 337.227,104.453 337.405,97.0947 337.529,96.4874 337.7,95.6952 337.879,96.3495 338.022,94.6536 338.122,96.8834 338.301,95.8536 338.463,95.0761 338.586,96.3289 338.652,96.9597 338.831,99.348 339.009,100.469 339.188,98.8815 339.364,99.4243 339.513,99.4829 339.669,99.7558 339.845,99.4829 340.018,99.5417 340.135,99.5798 340.264,99.1162 340.334,99.4448 340.46,99.5417 340.638,106.68 340.651,107.525 340.83,106.146 340.905,105.979 341.027,106.202 341.192,105.592 341.251,107.026 341.429,105.647 341.602,106.478 341.781,110.796 341.959,132.077 342.138,131.772 342.305,133.705 342.477,131.528 342.647,131.892 342.813,142.422 342.989,143.469 343.153,143.76 343.329,143.05 343.493,143.801 343.664,144.364 343.81,143.619 343.973,143.731 344.13,144.722 344.306,144.573 344.456,144.174 344.635,143.549 344.814,144.144 344.992,123.656 345.171,117.935 345.35,118.137 345.528,118.087 345.707,118.695 345.885,119.836 346.064,119.334 346.243,118.727 346.421,118.187 346.6,119.1 346.771,119.534 346.91,118.695 346.996,118.947 347.167,119.637 347.345,119.684 347.524,120.617 347.703,118.442 347.826,105.794 347.97,92.2301 348.143,92.2301 348.318,92.6174 348.48,93.5915 348.658,95.0115 348.832,94.2135 349.01,94.8972 349.177,95.1758 349.348,96.4286 349.514,95.1729 349.692,95.8536 349.87,95.0556 350.048,95.5719 350.215,95.7744 350.388,96.2878 350.567,96.3905 350.745,95.9328 350.924,95.8331 351.102,96.1089 351.274,99.8145 351.448,96.2115 351.607,96.6839 351.784,94.5685 351.962,97.9221 352.132,103.004 352.31,104.022 352.485,106.275 352.663,108.763 352.835,108.291 353.009,109.001 353.184,108.399 353.358,109.45 353.52,108.945 353.683,128.779 353.832,132.197 353.971,137.78 354.143,140.761 354.321,141.075 354.5,144.282 354.67,142.815 354.824,143.731 354.937,143.425 355.074,144.133 355.222,145.855 355.377,146.257 355.555,146.433 355.731,146.357 355.759,147.14 355.916,148.369 356.094,144.253 356.273,120.068 356.452,93.3274 356.626,91.0037 356.804,91.5348 356.979,92.3328 357.131,118.29 357.252,140.465 357.431,150.323 357.61,138.097 357.78,133.045 357.944,118.812 358.121,115.177 358.297,122.139 358.476,121.858 358.653,123.463 358.83,123.398 358.992,123.087 359.158,122.597 359.299,123.865 359.463,113.191 359.619,119.669 359.785,121.092 359.939,112.219 360.084,119.968 360.252,119.534 360.381,119.334 360.528,123.559 360.614,124.305 360.751,116.022 360.929,110.975 361.091,105.682 361.269,105.905 361.448,114.047 361.627,118.891 361.805,118.595 361.984,118.187 362.163,118.695 362.341,118.155 362.52,119.229 362.699,126.705 362.877,142.34 363.056,142.927 363.234,144.036 363.413,152.706 363.592,158.207 363.77,159.111 363.949,152.908 364.128,141.683 364.306,141.639 364.485,126.608 364.664,117.747 364.831,92.3123 365.006,91.3118 365.179,91.4526 365.351,91.8751 365.528,92.1479 365.707,92.4355 365.883,92.8404 365.893,92.7993 366.072,92.7582 366.25,103.212 366.429,108.945 366.608,131.067 366.779,147.703 366.947,153.046 367.124,156.326 367.296,156.262 367.475,155.64 367.653,157.82 367.832,157.928 368.01,158.406 368.189,143.065 368.354,143.232 368.532,150.024 368.682,154.27 368.855,141.257 368.872,138.112 369.051,126.147 369.161,116.383 369.34,114.693 369.518,133.3 369.697,133.705 369.876,139.007 370.054,131.006 370.233,114.012 370.409,94.9147 370.578,94.6155 370.755,91.1064 370.925,92.2096 371.101,92.5764 371.27,92.7172 371.439,93.9289 371.535,93.8702 371.714,94.0521 371.892,93.7294 372.069,93.7704 372.248,94.7739 372.426,93.9934 372.603,94.7357 372.768,95.2345 372.941,94.7563 372.964,93.0428 373.143,93.8115 373.315,93.4096 373.489,92.3915 373.66,93.0986 373.808,92.902 373.857,93.166 374.036,93.571 374.214,94.5949 374.392,93.4477 374.571,94.413 374.739,103.25 374.792,122.351 374.971,145.107 375.149,151.881 375.328,152.805 375.507,154.243 375.572,155.39 375.751,156.1 375.929,155.813 376.103,155.816 376.281,158.492 376.431,157.978 376.595,158.283 376.773,159.956 376.886,159.498 377.065,160.05 377.236,160.111 377.413,144.834 377.59,130.049 377.764,137.519 377.937,139.726 378.024,139.423 378.203,139.394 378.376,139.726 378.552,151.881 378.731,150.191 378.907,129.339 379.081,109.271 379.243,101.886 379.42,102.493 379.57,98.4355 379.685,91.0653 379.826,90.1382 379.969,91.658 380.148,103.101 380.266,112.026 380.417,113.12 380.595,122.007 380.774,97.4937 380.953,93.1045 381.131,93.2453 381.31,93.7118 381.488,94.2135 381.667,93.8937 381.842,94.2135 382.02,94.4746 382.185,95.7333 382.23,94.7357 382.4,94.2722 382.578,94.8179 382.756,94.5333 382.934,94.3367 383.11,93.9934 383.28,119.619 383.351,135.639 383.53,148.674 383.708,149.534 383.886,150.608 384.063,140.565 384.241,121.151 384.413,105.163 384.591,92.7934 384.749,92.4912 384.927,102.323 385.104,103.928 385.279,117.237 385.452,137.604 385.628,133.526 385.799,120.071 385.974,118.102 386.079,137.27 386.257,129.589 386.436,126.347 386.611,113.505 386.79,92.5969 386.957,92.1039 387.049,92.3915 387.228,94.7534 387.402,93.4096 387.575,93.6913 387.753,94.416 387.929,102.452 388.096,130.545 388.112,126.523 388.291,102.511 388.469,94.2135 388.641,93.8526 388.814,123.527 388.988,140.166 389.166,143.232 389.33,150.787 389.508,154.302 389.52,153.598 389.698,149.493 389.871,131.983 390.049,116.656 390.222,95.0556 390.394,91.9455 390.569,92.2712 390.742,93.0839 390.898,92.3944 390.957,92.6996 391.136,93.4477 391.315,92.5764 391.493,93.5299 391.67,93.4066 391.848,94.2957 392.024,95.0174 392.201,95.1377 392.336,95.4957 392.512,95.6747 392.689,95.0966 392.864,93.9318 393.039,92.7523 393.213,93.9318 393.38,93.6883 393.558,93.8115 393.692,93.2453 393.871,94.4893 394.047,94.3338 394.224,94.856 394.402,95.4546 394.506,93.7294 394.681,94.5157 394.859,95.7157 395.032,95.0761 395.204,95.0145 395.378,93.6091 395.555,95.3343 395.732,94.2927 395.798,93.7323 395.976,93.3685 396.155,93.4683 396.332,94.0932 396.433,93.7323 396.611,93.9729 396.782,93.5504 396.942,93.7323 397.048,121.233 397.227,145.828 397.403,151.104 397.58,153.674 397.758,153.483 397.936,154.912 398.108,155.939 398.129,155.499 398.307,156.658 398.483,155.789 398.66,136.965 398.836,115.538 399.007,92.2624 399.173,91.5788 399.336,91.4761 399.513,91.5788 399.687,91.9044 399.865,92.8199 400.044,94.0903 400.223,93.7089 400.401,92.7172 400.549,93.6091 400.659,93.3274 400.837,93.6091 401.016,93.6883 401.118,94.3338 401.212,93.9318 401.375,93.8115 401.541,94.6155 401.72,94.0521 401.769,93.3069 401.948,93.8937 402.127,93.791 402.305,92.3885 402.464,93.6091 402.642,94.0932 402.821,94.5773 402.993,94.5568 403.098,94.1548 403.276,94.2076 403.452,94.2546 403.617,93.8907 403.753,94.3162 403.932,135.375 404.11,113.924 404.288,93.7323 404.464,94.3162 404.639,105.424 404.815,139.711 404.858,142.173 405.037,150.438 405.215,153.662 405.394,153.991 405.568,155.426 405.745,156.162 405.924,156.784 406.102,158.697 406.263,158.075 406.43,158.82 406.596,159.762 406.775,158.515 406.949,160.625 407.128,151.177 407.307,149.402 407.485,150.775 407.664,152.973 407.843,152.474 408.021,153.926 408.2,147.542 408.379,137.895 408.557,135.7 408.736,135.847 408.915,121.429 409.093,94.9763 409.272,89.9739 409.432,89.2257 409.61,95.0174 409.659,114.587 409.837,134.515 410.016,146.979 410.195,153.037 410.373,102.42 410.552,151.35 410.731,156.062 410.909,156.323 411.088,155.739 411.267,156.139 411.445,156.573 411.624,156.373 411.803,156.608 411.949,157.239 412.099,156.411 412.278,151.177 412.397,151.429 412.575,151.312 412.754,150.96 412.933,151.984 413.111,151.749 413.288,151.388 413.46,129.495 413.633,110.744 413.804,108.581 413.976,106.929 414.154,120.103 414.181,120.502 414.36,119.995 414.493,120.869 414.661,122.301 414.826,120.203 414.974,120.634 415.12,121.825 415.287,121.479 415.463,121.957 415.623,144.212 415.792,148.528 415.97,148.674 416.128,149.666 416.281,153.683 416.441,154.504 416.605,153.521 416.78,154.296 416.957,154.686 417.134,153.944 417.281,153.521 417.419,147.809 417.482,142.481 417.615,124.627 417.794,123.785 417.972,141.847 417.978,141.131 418.157,141.917 418.326,141.357 418.482,146.263 418.661,146.518 418.809,147.072 418.948,146.938 419.127,146.33 419.293,146.653 419.457,146.087 419.621,146.923 419.782,148.211 419.954,147.26 420.118,147.65 420.296,149.376 420.442,149.073 420.584,147.65 420.73,148.223 420.882,148.091 421.038,147.862 421.209,148.821 421.372,148.475 421.539,147.703 421.667,148.264 421.799,147.677 421.93,148.528 422.057,148.14 422.189,148.871 422.313,147.997 422.449,148.316 422.585,147.794 422.725,148.98 422.86,148.011 422.977,149.534 423.125,148.223 423.261,148.005 423.438,153.967 423.583,153.216 423.754,152.577 423.906,152.858 424.078,152.987 424.239,153.19 424.394,152.679 424.569,152.139 424.742,147.14 424.897,147.782 425.055,151.209 425.217,151.52 425.389,152.497 425.551,151.623 425.71,150.323 425.87,151.958 426.027,150.388 426.185,152.204 426.364,150.831 426.532,152.101 426.698,151.441 426.87,152.277 427.032,152.448 427.211,151.347 427.387,151.089 427.554,151.57 427.727,150.986 427.898,150.919 428.071,152.805 428.245,151.52 428.418,151.556 428.596,151.585 428.764,151.274 428.942,151.183 429.09,151.752 429.251,146.75 429.424,132.197 429.576,126.402 429.72,127.133 429.897,123.917 430.072,120.27 430.239,121.033 430.402,120.303 430.573,120.652 430.74,121.761 430.916,121.332 431.082,120.702 431.237,120.135 431.397,121.133 431.542,121.033 431.695,120.998 431.861,120.62 432.039,128.289 432.186,129.354 432.332,129.712 432.503,136.096 432.68,145.403 432.85,149.364 433.02,150.018 433.184,153.114 433.358,152.935 433.531,155.085 433.698,155.352 433.863,156.796 434.031,157.547 434.21,157.104 434.386,156.711 434.562,156.661 434.741,156.62 434.91,156.288 435.079,157.004 435.253,156.238 435.431,156.931 435.6,158.04 435.779,157.682 435.946,161.613 436.107,165.161 436.262,166.449 436.409,165.284 436.581,165.95 436.753,167.194 436.891,167.913 437.057,167.757 437.16,168.227 437.304,169.136 437.466,168.071 437.634,166.821 437.785,169.248 437.963,165.607 437.968,164.48 438.147,147.753 438.325,154.912 438.504,124.466 438.683,123.947 438.861,122.418 439.04,118.12 439.219,122.926 439.397,139.937 439.576,139.309 439.755,140.606 439.933,139.309 440.112,140.509 440.291,140.55 440.469,142.24 440.648,140.99 440.826,143.672 441.005,144.696 441.184,137.954 441.362,134.618 441.541,134.811 441.72,135.891 441.898,137.373 442.077,137.197 442.256,138.197 442.434,137.153 442.613,138.215 442.792,137.692 442.97,138.52 443.149,138.071 443.328,137.86 443.391,136.956 443.539,138.303 443.71,138.138 443.875,137.56 444.052,137.373 444.105,137.546 444.284,137.097 444.462,138.966 444.641,142.369 444.82,143.311 444.998,142.689 445.177,143.455 445.199,142.713 445.378,138.303 445.557,137.924 445.735,137.836 445.914,136.434 446.093,137.736 446.271,137.998 446.45,136.759 446.629,137.868 446.807,138.2 446.986,137.311 447.164,137.194 447.202,138.288 447.381,137.604 447.43,137.023 447.609,138.042 447.76,137.895 447.811,136.712 447.99,137.78 448.168,137.053 448.347,137.604 448.526,137.88 448.704,137.387 448.883,135.51 449.062,135.815 449.24,135.228 449.419,135.049 449.597,136.026 449.776,134.841 449.955,135.7 450.133,135.064 450.312,134.841 450.491,134.738 450.669,135.832 450.848,151.441 451.027,185.206 451.205,183.269 451.33,185.927 451.48,195.557 451.652,205.999 451.758,207.401 451.878,208.147 451.984,207.551 452.119,207.029 452.298,209.473 452.476,210.661 452.655,209.619 452.834,210.089 453.012,188.345 453.191,180.406 453.37,180.825 453.548,179.91 453.727,148.143 453.906,146.034 454.084,155.713 454.263,158.406 454.415,163.362 454.582,156.373 454.755,140.48 454.93,143.343 455.087,154.055 455.263,163.529 455.401,164.665 455.569,177.7 455.732,180.992 455.858,180.784 456.021,187.104 456.176,203.25 456.353,217.321 456.494,223.703 456.652,225.39 456.803,217.662 456.977,187.374 457.122,161.555 457.281,181.702 457.395,193.612 457.508,206.407 457.636,215.197 457.815,225.883 457.821,226.848 458,226.645 458.178,225.712 458.357,226.05 458.536,214.587 458.714,181.996 458.893,143.455 459.072,106.184 459.25,88.3073 459.429,87.9729 459.608,88.768 459.786,90.3846 459.965,90.9215 460.144,92.6379 460.306,92.6996 460.485,93.3274 460.651,92.1039 460.826,94.413 460.924,92.1421 461.076,91.5553 461.247,92.9137 461.423,92.5558 461.589,137.27 461.759,137.534 461.906,137.197 462.028,152.782 462.178,170.732 462.353,181.6 462.459,185.722 462.638,195.252 462.658,196.716 462.836,196.86 463.01,187.7 463.188,172.628 463.272,171.501 463.45,172.525 463.629,173.217 463.808,174.488 463.986,168.042 464.111,143.798 464.289,141.58 464.461,124.255 464.475,124.66 464.654,125.141 464.791,140.21 464.931,140.935 465.109,149.332 465.275,146.398 465.453,146.462 465.609,145.162 465.788,138.59 465.967,139.482 466.145,142.366 466.31,169.755 466.488,174.127 466.653,175.488 466.822,183.343 467.001,183.26 467.158,183.774 467.335,184.678 467.502,184.584 467.677,185.927 467.846,185.17 467.996,185.335 468.165,184.563 468.329,185.936 468.464,185.927 468.622,202.71 468.798,218.923 468.976,227.79 469.155,224.011 469.334,225.158 469.512,226.097 469.691,226.191 469.87,225.293 470.048,226.431 470.227,226.015 470.406,225.387 470.584,225.833 470.763,225.894 470.942,226.337 471.12,226.493 471.299,226.047 471.478,225.592 471.656,226.848 471.835,225.472 472.013,225.918 472.192,224.562 472.371,226.739 472.549,225.352 472.728,225.032 472.907,226.314 473.085,227.162 473.264,225.616 473.443,226.669 473.621,189.439 473.8,226.731 473.979,226.525 474.157,226.235 474.336,225.231 474.515,227.027 474.693,225.654 474.872,225.035 475.05,227.772 475.229,227.376 475.408,227.543 475.586,227.185 475.765,226.252 475.944,226.954 476.122,225.941 476.301,226.408 476.48,226.901 476.658,226.276 476.837,224.568 477.016,226.493 477.194,226.499 477.373,226.314 477.552,226.296 477.73,226.742 477.909,226.194 478.088,226.557 478.266,226.965 478.445,227.267 478.623,226.61 478.802,226.731 478.981,225.654 479.16,226.819 479.338,226.725 479.517,226.314 479.695,228.142 479.874,226.373 480.053,225.58 480.231,225.821 480.41,228.374 480.589,226.704 480.767,226.34 480.946,225.977 481.125,227.438 481.303,225.953 481.482,226.848 481.661,227.353 481.839,227.109 482.018,226.895 482.197,226.871 482.375,225.953 482.554,227.08 482.733,226.508 482.911,227.174 483.09,225.624 483.269,227.203 483.447,226.904 483.626,227.438 483.805,226.205 483.983,226.252 484.162,227.775 484.341,226.731 484.519,226.789 484.698,227.496 484.877,226.34 485.055,226.745 485.234,228.186 485.413,226.229 485.591,227.508 485.77,227.986 485.949,227.992 486.127,227.226 486.306,227.567 486.485,228.259 486.663,227.731 486.842,227.024 487.02,226.669 487.199,227.596 487.378,227.426 487.556,226.129 487.735,226.478 487.914,227.203 488.092,226.666 488.271,227.05 488.45,225.894 488.628,225.833 488.807,228.28 488.986,226.493 489.164,227.578 489.343,227.379 489.522,225.712 489.7,226.757 489.879,226.965 490.057,227.115 490.236,227.32 490.415,227.091 490.593,227.931 490.772,227.086 490.951,227.003 491.129,227.262 491.308,227.086 491.487,227.068 491.665,212.911 491.844,191.895 492.023,180.121 492.201,177.328 492.38,178.014 492.559,226.678 492.737,302.498 492.916,342.565 493.095,342.565 493.273,342.565 493.452,342.565 493.631,342.565 493.809,342.565 493.988,342.565 494.167,342.565 494.345,342.565 494.524,342.565 494.703,342.565 494.881,342.565 495.06,342.565 495.239,342.565 495.417,342.565 495.596,342.565 495.775,342.565 495.953,342.565 496.132,342.565" stroke-linejoin="round" stroke-width="2" fill="none" stroke="#0071bc"/>
  </g>
 </g>
</svg>
