<?xml version='1.0' encoding='UTF-8' standalone='no'?>
<svg height="432pt" xmlns="http://www.w3.org/2000/svg" width="576pt" xmlns:xlink="http://www.w3.org/1999/xlink" viewBox="0 0 576 432">
 <title>gl2ps_renderer figure</title>
 <desc>
Creator: GL2PS 1.4.0, (C) 1999-2017 C. Geuzaine
For: Octave
CreationDate: Sun Jul 04 23:44:42 2021
</desc>
 <defs/>
 <polygon fill="#ffffff" points="0,0 576,0 576,432 0,432"/>
 <g>
  <polygon fill="#ffffff" points="0,432 576,432 576,0 0,0" shape-rendering="crispEdges"/>
  <clipPath id="cp00576432">
   <polygon points="0,432 576,432 576,0 0,0"/>
  </clipPath>
  <g clip-path="url(#cp00576432)">
   <polygon fill="#ffffff" points="74.88,384.48 521.28,384.48 521.28,32.4 74.88,32.4" shape-rendering="crispEdges"/>
   <polyline fill="none" stroke="#262626" points="74.88,384.48 74.88,32.4" stroke-opacity="0.15" stroke-linecap="butt" stroke-dasharray="16,0" stroke-width="0.5" stroke-linejoin="miter"/>
   <polyline fill="none" stroke="#262626" points="164.16,384.48 164.16,32.4" stroke-opacity="0.15" stroke-linecap="butt" stroke-dasharray="16,0" stroke-width="0.5" stroke-linejoin="miter"/>
   <polyline fill="none" stroke="#262626" points="253.44,384.48 253.44,32.4" stroke-opacity="0.15" stroke-linecap="butt" stroke-dasharray="16,0" stroke-width="0.5" stroke-linejoin="miter"/>
   <polyline fill="none" stroke="#262626" points="342.72,384.48 342.72,32.4" stroke-opacity="0.15" stroke-linecap="butt" stroke-dasharray="16,0" stroke-width="0.5" stroke-linejoin="miter"/>
   <polyline fill="none" stroke="#262626" points="432,384.48 432,32.4" stroke-opacity="0.15" stroke-linecap="butt" stroke-dasharray="16,0" stroke-width="0.5" stroke-linejoin="miter"/>
   <polyline fill="none" stroke="#262626" points="521.28,384.48 521.28,32.4" stroke-opacity="0.15" stroke-linecap="butt" stroke-dasharray="16,0" stroke-width="0.5" stroke-linejoin="miter"/>
   <polyline fill="none" stroke="#262626" points="74.88,384.48 74.88,380.015" stroke-linecap="butt" stroke-width="0.5" stroke-linejoin="miter"/>
   <polyline fill="none" stroke="#262626" points="74.88,32.4 74.88,36.865" stroke-linecap="butt" stroke-width="0.5" stroke-linejoin="miter"/>
   <polyline fill="none" stroke="#262626" points="164.16,384.48 164.16,380.015" stroke-linecap="butt" stroke-width="0.5" stroke-linejoin="miter"/>
   <polyline fill="none" stroke="#262626" points="164.16,32.4 164.16,36.865" stroke-linecap="butt" stroke-width="0.5" stroke-linejoin="miter"/>
   <polyline fill="none" stroke="#262626" points="253.44,384.48 253.44,380.015" stroke-linecap="butt" stroke-width="0.5" stroke-linejoin="miter"/>
   <polyline fill="none" stroke="#262626" points="253.44,32.4 253.44,36.865" stroke-linecap="butt" stroke-width="0.5" stroke-linejoin="miter"/>
   <polyline fill="none" stroke="#262626" points="342.72,384.48 342.72,380.015" stroke-linecap="butt" stroke-width="0.5" stroke-linejoin="miter"/>
   <polyline fill="none" stroke="#262626" points="342.72,32.4 342.72,36.865" stroke-linecap="butt" stroke-width="0.5" stroke-linejoin="miter"/>
   <polyline fill="none" stroke="#262626" points="432,384.48 432,380.015" stroke-linecap="butt" stroke-width="0.5" stroke-linejoin="miter"/>
   <polyline fill="none" stroke="#262626" points="432,32.4 432,36.865" stroke-linecap="butt" stroke-width="0.5" stroke-linejoin="miter"/>
   <polyline fill="none" stroke="#262626" points="521.28,384.48 521.28,380.015" stroke-linecap="butt" stroke-width="0.5" stroke-linejoin="miter"/>
   <polyline fill="none" stroke="#262626" points="521.28,32.4 521.28,36.865" stroke-linecap="butt" stroke-width="0.5" stroke-linejoin="miter"/>
   <text font-family="FreeSans" font-size="10" transform="translate(71.88,399.982) rotate(-0,3,-8)" xml:space="preserve" font-weight="normal" font-style="normal">
    <tspan fill="rgb(38,38,38)" y="-0" x="0 ">0</tspan>
   </text>
   <text font-family="FreeSans" font-size="10" transform="translate(152.16,399.982) rotate(-0,12,-8)" xml:space="preserve" font-weight="normal" font-style="normal">
    <tspan fill="rgb(38,38,38)" y="-0" x="0 6 12 18 ">1000</tspan>
   </text>
   <text font-family="FreeSans" font-size="10" transform="translate(241.44,399.982) rotate(-0,12,-8)" xml:space="preserve" font-weight="normal" font-style="normal">
    <tspan fill="rgb(38,38,38)" y="-0" x="0 6 12 18 ">2000</tspan>
   </text>
   <text font-family="FreeSans" font-size="10" transform="translate(330.72,399.982) rotate(-0,12,-8)" xml:space="preserve" font-weight="normal" font-style="normal">
    <tspan fill="rgb(38,38,38)" y="-0" x="0 6 12 18 ">3000</tspan>
   </text>
   <text font-family="FreeSans" font-size="10" transform="translate(420,399.982) rotate(-0,12,-8)" xml:space="preserve" font-weight="normal" font-style="normal">
    <tspan fill="rgb(38,38,38)" y="-0" x="0 6 12 18 ">4000</tspan>
   </text>
   <text font-family="FreeSans" font-size="10" transform="translate(509.28,399.982) rotate(-0,12,-8)" xml:space="preserve" font-weight="normal" font-style="normal">
    <tspan fill="rgb(38,38,38)" y="-0" x="0 6 12 18 ">5000</tspan>
   </text>
   <polyline fill="none" stroke="#262626" points="74.88,384.48 521.28,384.48" stroke-opacity="0.15" stroke-linecap="butt" stroke-dasharray="16,0" stroke-width="0.5" stroke-linejoin="miter"/>
   <polyline fill="none" stroke="#262626" points="74.88,325.8 521.28,325.8" stroke-opacity="0.15" stroke-linecap="butt" stroke-dasharray="16,0" stroke-width="0.5" stroke-linejoin="miter"/>
   <polyline fill="none" stroke="#262626" points="74.88,267.12 521.28,267.12" stroke-opacity="0.15" stroke-linecap="butt" stroke-dasharray="16,0" stroke-width="0.5" stroke-linejoin="miter"/>
   <polyline fill="none" stroke="#262626" points="74.88,208.44 521.28,208.44" stroke-opacity="0.15" stroke-linecap="butt" stroke-dasharray="16,0" stroke-width="0.5" stroke-linejoin="miter"/>
   <polyline fill="none" stroke="#262626" points="74.88,149.76 521.28,149.76" stroke-opacity="0.15" stroke-linecap="butt" stroke-dasharray="16,0" stroke-width="0.5" stroke-linejoin="miter"/>
   <polyline fill="none" stroke="#262626" points="74.88,91.0799 521.28,91.0799" stroke-opacity="0.15" stroke-linecap="butt" stroke-dasharray="16,0" stroke-width="0.5" stroke-linejoin="miter"/>
   <polyline fill="none" stroke="#262626" points="74.88,32.4 521.28,32.4" stroke-opacity="0.15" stroke-linecap="butt" stroke-dasharray="16,0" stroke-width="0.5" stroke-linejoin="miter"/>
   <polyline fill="none" stroke="#262626" points="74.88,384.48 79.348,384.48" stroke-linecap="butt" stroke-width="0.5" stroke-linejoin="miter"/>
   <polyline fill="none" stroke="#262626" points="521.28,384.48 516.812,384.48" stroke-linecap="butt" stroke-width="0.5" stroke-linejoin="miter"/>
   <polyline fill="none" stroke="#262626" points="74.88,325.8 79.348,325.8" stroke-linecap="butt" stroke-width="0.5" stroke-linejoin="miter"/>
   <polyline fill="none" stroke="#262626" points="521.28,325.8 516.812,325.8" stroke-linecap="butt" stroke-width="0.5" stroke-linejoin="miter"/>
   <polyline fill="none" stroke="#262626" points="74.88,267.12 79.348,267.12" stroke-linecap="butt" stroke-width="0.5" stroke-linejoin="miter"/>
   <polyline fill="none" stroke="#262626" points="521.28,267.12 516.812,267.12" stroke-linecap="butt" stroke-width="0.5" stroke-linejoin="miter"/>
   <polyline fill="none" stroke="#262626" points="74.88,208.44 79.348,208.44" stroke-linecap="butt" stroke-width="0.5" stroke-linejoin="miter"/>
   <polyline fill="none" stroke="#262626" points="521.28,208.44 516.812,208.44" stroke-linecap="butt" stroke-width="0.5" stroke-linejoin="miter"/>
   <polyline fill="none" stroke="#262626" points="74.88,149.76 79.348,149.76" stroke-linecap="butt" stroke-width="0.5" stroke-linejoin="miter"/>
   <polyline fill="none" stroke="#262626" points="521.28,149.76 516.812,149.76" stroke-linecap="butt" stroke-width="0.5" stroke-linejoin="miter"/>
   <polyline fill="none" stroke="#262626" points="74.88,91.0799 79.348,91.0799" stroke-linecap="butt" stroke-width="0.5" stroke-linejoin="miter"/>
   <polyline fill="none" stroke="#262626" points="521.28,91.0799 516.812,91.0799" stroke-linecap="butt" stroke-width="0.5" stroke-linejoin="miter"/>
   <polyline fill="none" stroke="#262626" points="74.88,32.4 79.348,32.4" stroke-linecap="butt" stroke-width="0.5" stroke-linejoin="miter"/>
   <polyline fill="none" stroke="#262626" points="521.28,32.4 516.812,32.4" stroke-linecap="butt" stroke-width="0.5" stroke-linejoin="miter"/>
   <text font-family="FreeSans" font-size="10" transform="translate(57.8755,388.48) rotate(-0,12,-4)" xml:space="preserve" font-weight="normal" font-style="normal">
    <tspan fill="rgb(38,38,38)" y="-0" x="0 6 ">50</tspan>
   </text>
   <text font-family="FreeSans" font-size="10" transform="translate(57.8755,329.8) rotate(-0,12,-4)" xml:space="preserve" font-weight="normal" font-style="normal">
    <tspan fill="rgb(38,38,38)" y="-0" x="0 6 ">60</tspan>
   </text>
   <text font-family="FreeSans" font-size="10" transform="translate(57.8755,271.12) rotate(-0,12,-4)" xml:space="preserve" font-weight="normal" font-style="normal">
    <tspan fill="rgb(38,38,38)" y="-0" x="0 6 ">70</tspan>
   </text>
   <text font-family="FreeSans" font-size="10" transform="translate(57.8755,212.44) rotate(-0,12,-4)" xml:space="preserve" font-weight="normal" font-style="normal">
    <tspan fill="rgb(38,38,38)" y="-0" x="0 6 ">80</tspan>
   </text>
   <text font-family="FreeSans" font-size="10" transform="translate(57.8755,153.76) rotate(-0,12,-4)" xml:space="preserve" font-weight="normal" font-style="normal">
    <tspan fill="rgb(38,38,38)" y="-0" x="0 6 ">90</tspan>
   </text>
   <text font-family="FreeSans" font-size="10" transform="translate(51.8755,95.08) rotate(-0,18,-4)" xml:space="preserve" font-weight="normal" font-style="normal">
    <tspan fill="rgb(38,38,38)" y="-0" x="0 6 12 ">100</tspan>
   </text>
   <text font-family="FreeSans" font-size="10" transform="translate(51.8755,36.4) rotate(-0,18,-4)" xml:space="preserve" font-weight="normal" font-style="normal">
    <tspan fill="rgb(38,38,38)" y="-0" x="0 6 12 ">110</tspan>
   </text>
   <polyline fill="none" stroke="#262626" points="74.88,384.48 521.28,384.48" stroke-linecap="square" stroke-dasharray="16,0" stroke-width="0.5" stroke-linejoin="miter"/>
   <polyline fill="none" stroke="#262626" points="74.88,32.4 521.28,32.4" stroke-linecap="square" stroke-dasharray="16,0" stroke-width="0.5" stroke-linejoin="miter"/>
   <polyline fill="none" stroke="#262626" points="74.88,384.48 74.88,32.4" stroke-linecap="square" stroke-dasharray="16,0" stroke-width="0.5" stroke-linejoin="miter"/>
   <polyline fill="none" stroke="#262626" points="521.28,384.48 521.28,32.4" stroke-linecap="square" stroke-dasharray="16,0" stroke-width="0.5" stroke-linejoin="miter"/>
   <text font-family="FreeSans" font-size="11" transform="translate(273.08,416.982) rotate(-0,25,-12)" xml:space="preserve" font-weight="normal" font-style="normal">
    <tspan fill="rgb(38,38,38)" y="-3" x="0 7 13 22 28 34 37 41 46 ">Tempo (s)</tspan>
   </text>
   <text font-family="FreeSans" font-size="11" transform="translate(29.3755,208.44) rotate(-90,17.5,0)" xml:space="preserve" font-weight="normal" font-style="normal">
    <tspan fill="rgb(38,38,38)" y="-3" x="0 8 14 17 21 31 ">N2 (%)</tspan>
   </text>
   <polyline fill="none" stroke="#0071bc" points="128.984,359.817 129.162,360.104 129.341,339.455 129.52,296.008 129.698,219.501 129.877,150.722 130.056,87.0369 130.234,87.9113 130.413,91.256 130.592,92.7289 130.77,93.4976 130.949,94.6829 131.127,94.6418 131.306,96.0619 131.485,95.4106 131.663,95.9387 131.842,96.2614 132.021,95.9798 132.199,95.0878 132.378,95.17 132.557,95.4927 132.735,95.5748 132.914,95.4927 133.07,96.1382 133.24,96.3025 133.402,95.5748 133.581,95.0057 133.727,95.9798 133.906,95.17 134.085,95.2521 134.263,133.999 134.442,88.2047 134.621,92.2418 134.799,93.0164 134.978,93.3039 135.157,91.3675 135.335,93.2218 135.514,92.77 135.693,108.661 135.871,127.608 136.05,140.929 136.229,156.819 136.407,161.379 136.586,161.566 136.765,161.361 136.943,161.948 137.122,166.73 137.301,166.636 137.479,161.801 137.658,153.099 137.837,153.427 137.977,153.427 138.135,153.427 138.286,154.179 138.446,153.821 138.605,153.492 138.781,148.85 138.955,143.123 139.097,142.507 139.244,142.231 139.378,141.41 139.51,140.864 139.687,140.964 139.864,141.204 140.011,141.034 140.173,140.929 140.32,141.105 140.497,139.133 140.648,138.546 140.824,138.722 141.002,139.068 141.159,138.511 141.318,139.133 141.494,139.479 141.641,139.415 141.793,139.239 141.929,140.864 142.093,140.794 142.196,140.688 142.373,139.239 142.536,135.724 142.697,134.104 142.869,134.386 143.027,134.456 143.185,135.196 143.362,132.831 143.536,128.465 143.71,129.228 143.885,129.263 144.059,130.695 144.23,131.34 144.403,131.446 144.569,111.395 144.747,106.724 144.926,105.674 145.101,105.556 145.276,105.908 145.433,105.357 145.592,106.061 145.771,106.607 145.92,106.02 146.098,105.903 146.275,105.75 146.438,107.035 146.601,105.826 146.766,106.296 146.945,106.489 147.111,107.463 147.28,110.204 147.452,112.005 147.624,112.387 147.794,113.073 147.972,113.073 148.138,113.378 148.312,113.455 148.491,113.76 148.656,113.566 148.818,114.663 148.992,114.135 149.153,114.059 149.331,110.01 149.504,109.975 149.659,108.936 149.83,109.013 149.982,108.936 150.152,109.629 150.316,109.394 150.477,109.165 150.636,109.318 150.815,109.705 150.974,109.781 151.143,109.781 151.3,113.678 151.448,115.684 151.603,116.964 151.781,117.38 151.958,117.269 152.135,117.451 152.295,117.903 152.455,117.269 152.632,117.603 152.807,117.756 152.965,117.756 153.125,117.903 153.284,117.903 153.461,118.501 153.607,118.425 153.765,118.501 153.934,118.466 154.093,118.126 154.252,117.979 154.396,117.903 154.567,119.692 154.741,119.246 154.837,119.616 154.929,113.114 155.059,112.809 155.218,111.853 155.355,111.354 155.504,111.166 155.672,111.242 155.834,101.103 155.979,97.9925 156.144,91.2971 156.3,90.0237 156.47,89.8535 156.625,90.9274 156.797,90.5988 156.961,91.1328 157.137,91.3382 157.297,91.1328 157.469,91.7489 157.646,91.8721 157.807,91.5846 157.971,91.9543 158.133,117.715 158.312,120.731 158.482,120.619 158.639,121.394 158.803,121.101 158.939,121.506 159.109,121.658 159.268,124.85 159.396,124.264 159.536,125.502 159.704,127.391 159.797,127.104 159.922,133.682 160.068,164.823 160.246,162.012 160.425,160.545 160.604,160.897 160.782,160.275 160.961,161.185 161.064,161.379 161.243,161.502 161.421,161.566 161.6,161.695 161.779,163.028 161.957,164.917 162.136,163.831 162.314,165.228 162.493,165.48 162.672,165.322 162.85,165.293 163.029,167.164 163.053,166.73 163.231,138.646 163.41,124.193 163.513,122.726 163.692,114.364 163.703,115.045 163.881,112.158 164.06,104.107 164.239,84.5313 164.417,85.2413 164.596,85.9513 164.775,87.3714 164.919,89.0262 165.05,88.5332 165.228,88.7797 165.377,89.6481 165.556,101.026 165.734,94.3602 165.913,93.1396 166.092,99.5944 166.27,101.419 166.449,107.54 166.628,107.229 166.806,188.853 166.985,198.282 167.164,198.588 167.342,198.693 167.521,206.803 167.7,200.958 167.878,200.958 168.053,201.31 168.23,172.281 168.393,119.393 168.562,88.3279 168.739,85.3704 168.916,84.7836 169.089,86.1626 169.268,86.9548 169.434,88.2868 169.611,89.5249 169.79,90.3523 169.868,90.4344 170.047,91.1738 170.218,90.9274 170.384,91.6667 170.563,91.9132 170.724,96.3846 170.9,95.2521 171.043,91.1328 171.221,91.6257 171.399,92.1597 171.578,92.6878 171.757,92.3651 171.935,92.4003 172.114,92.5645 172.293,92.2007 172.471,92.3651 172.65,92.2418 172.829,92.77 173.007,92.5645 173.186,105.867 173.364,104.805 173.543,89.5249 173.722,90.188 173.9,91.9543 174.079,91.9132 174.24,92.4003 174.368,92.0775 174.546,91.4203 174.636,124.481 174.814,192.145 174.993,201.745 175.172,204.274 175.237,208.463 175.402,207.566 175.455,204.702 175.63,200.495 175.73,200.659 175.908,200.495 176.087,196.44 176.265,179.493 176.438,179.2 176.607,187.597 176.783,154.179 176.962,145.294 177.132,144.215 177.295,143.804 177.46,143.428 177.638,144.96 177.775,146.345 177.954,144.854 178.133,165.885 178.311,166.76 178.49,162.247 178.669,162.329 178.847,151.321 179.026,148.023 179.205,148.223 179.383,122.761 179.51,113.56 179.689,109.552 179.868,106.648 180.046,86.0393 180.225,85.5347 180.404,86.2858 180.582,87.3303 180.761,88.5332 180.918,125.361 181.013,135.266 181.162,140.172 181.204,139.825 181.382,140.447 181.561,141.551 181.739,149.695 181.918,150.488 182.097,151.221 182.229,155.874 182.335,155.845 182.49,155.646 182.668,156.039 182.847,155.939 183.026,155.974 183.204,156.361 183.383,156.232 183.562,156.074 183.74,156.103 183.907,156.039 184.06,156.103 184.238,154.93 184.386,155.258 184.52,155.487 184.692,155.258 184.831,155.358 184.992,155.194 185.165,155.616 185.339,155.258 185.515,155.581 185.684,155.258 185.837,155.517 185.998,155.194 186.174,155.194 186.307,155.651 186.467,155.517 186.57,155.874 186.697,155.781 186.872,155.387 186.906,155.781 187.085,155.745 187.259,154.736 187.431,155.581 187.549,155.517 187.724,155.581 187.862,156.039 187.976,155.81 188.105,155.845 188.281,155.91 188.399,155.681 188.574,152.442 188.688,131.194 188.804,131.552 188.983,122.538 189.162,122.726 189.34,122.321 189.519,122.321 189.698,122.133 189.869,122.169 190.005,121.729 190.184,131.305 190.246,139.825 190.424,138.892 190.603,138.27 190.782,139.479 190.95,139.79 191.127,140.037 191.301,139.379 191.454,139.655 191.616,141.052 191.789,139.861 191.964,140.312 192.138,139.896 192.143,139.896 192.322,140.377 192.5,140.101 192.679,139.896 192.858,139.825 193.036,139.344 193.215,139.344 193.393,138.546 193.572,139.655 193.751,138.511 193.93,138.998 194.108,138.998 194.287,139.479 194.465,140.172 194.644,138.928 194.823,139.274 194.99,140.312 195.169,143.804 195.348,149.062 195.526,148.727 195.705,149.126 195.861,148.657 195.995,147.565 196.088,155.616 196.266,155.845 196.425,155.423 196.594,155.716 196.624,155.581 196.803,155.845 196.858,155.81 197.026,155.323 197.205,155.258 197.384,155.581 197.562,155.845 197.741,154.554 197.766,155.517 197.945,155.775 198.123,155.845 198.293,155.745 198.469,155.874 198.646,155.581 198.813,155.745 198.955,155.581 199.115,155.716 199.275,155.581 199.442,155.646 199.618,155.581 199.785,155.487 199.945,155.581 200.037,155.223 200.216,155.581 200.395,158.943 200.573,158.82 200.752,165.48 200.931,165.48 201.102,166.325 201.231,166.261 201.403,166.261 201.486,165.791 201.665,165.827 201.844,166.296 202.022,166.449 202.201,165.856 202.38,166.419 202.538,166.138 202.688,165.856 202.796,166.167 202.967,165.92 203.145,165.92 203.324,166.419 203.503,166.261 203.681,166.73 203.86,166.167 204.039,166.325 204.217,166.296 204.372,166.853 204.542,167.229 204.691,166.889 204.776,166.666 204.946,166.419 205.124,167.012 205.303,166.542 205.481,166.449 205.66,166.918 205.837,166.607 206.015,166.853 206.191,166.636 206.342,166.231 206.517,166.044 206.696,165.791 206.863,165.574 207.039,165.885 207.216,165.668 207.328,165.791 207.467,165.275 207.646,166.014 207.824,166.261 208.003,166.138 208.182,166.325 208.36,165.885 208.539,166.572 208.718,166.419 208.896,166.607 209.075,166.202 209.254,166.261 209.432,166.167 209.611,166.636 209.789,166.231 209.968,166.296 210.128,165.95 210.304,165.791 210.441,166.044 210.567,165.574 210.717,165.827 210.895,165.791 211.004,165.979 211.125,165.827 211.286,165.95 211.325,166.044 211.503,165.51 211.529,165.791 211.707,165.604 211.886,165.668 212.065,165.791 212.243,165.979 212.422,166.419 212.601,165.979 212.752,166.296 212.897,165.92 213.033,165.545 213.158,165.733 213.285,161.819 213.444,157.852 213.567,157.429 213.655,157.013 213.783,157.465 213.909,157.3 214.07,157.852 214.239,157.529 214.415,157.529 214.564,157.658 214.719,157.752 214.835,157.3 214.945,157.077 215.044,157.013 215.17,157.236 215.28,157.206 215.427,157.013 215.591,157.206 215.769,157.171 215.772,157.465 215.951,156.948 216.13,157.077 216.308,157.658 216.487,157.494 216.666,157.336 216.844,157.529 217.023,157.465 217.19,157.559 217.315,157.4 217.453,157.171 217.603,158.169 217.781,157.465 217.798,157.529 217.976,157.817 218.131,157.787 218.272,158.175 218.45,157.529 218.622,157.981 218.753,158.175 218.879,158.046 219.032,159.395 219.21,161.437 219.389,161.214 219.568,160.804 219.746,161.279 219.925,154.994 220.104,154.93 220.282,155.094 220.461,155.129 220.64,155.194 220.818,155.258 220.997,152.571 221.176,152.641 221.354,152.342 221.533,152.606 221.712,152.406 221.89,142.167 222.069,142.918 222.248,142.372 222.426,143.822 222.605,142.918 222.784,142.847 222.962,142.231 223.141,142.437 223.32,141.65 223.498,141.404 223.677,142.337 223.855,142.642 223.987,142.372 224.114,142.847 224.28,153.034 224.419,153.134 224.598,151.896 224.776,152.97 224.955,153.392 225.134,153.785 225.312,153.592 225.491,153.199 225.67,153.427 225.848,153.557 226.027,153.656 226.205,153.785 226.384,153.621 226.523,153.621 226.661,154.278 226.793,153.885 226.966,153.785 227.089,153.95 227.226,154.214 227.314,153.721 227.489,153.92 227.617,154.114 227.669,154.014 227.798,153.885 227.977,152.142 228.156,151.714 228.334,151.714 228.513,151.649 228.691,151.978 228.87,151.849 229.049,151.585 229.141,152.277 229.262,151.714 229.44,152.178 229.462,151.779 229.64,151.098 229.819,151.649 229.998,152.242 230.176,151.949 230.355,151.849 230.534,151.186 230.712,151.186 230.891,149.772 231.07,151.286 231.248,151.321 231.42,151.978 231.569,151.649 231.724,151.978 231.898,150.969 232.017,142.372 232.196,133.711 232.374,133.5 232.553,134.034 232.732,133.611 232.903,133.611 233.012,140.172 233.17,139.825 233.346,141.152 233.514,139.896 233.688,140.037 233.867,139.825 234.016,139.825 234.195,139.966 234.374,149.825 234.552,150.159 234.731,150.188 234.91,150.159 235.088,150.094 235.267,150.024 235.446,149.995 235.624,150.323 235.803,150.259 235.982,150.124 236.16,150.658 236.339,150.259 236.518,150.423 236.696,150.394 236.875,149.86 237.054,149.795 237.232,150.059 237.411,150.059 237.59,148.909 237.768,150.094 237.921,149.725 238.046,150.059 238.206,149.138 238.385,150.887 238.563,149.76 238.714,107.035 238.854,92.0365 239.029,90.3523 239.204,91.4203 239.382,90.9685 239.509,92.2418 239.687,92.4824 239.709,92.5235 239.887,93.8321 240.066,94.8062 240.244,94.8062 240.423,94.8062 240.602,94.3602 240.767,97.6697 240.933,102.728 241.1,104.535 241.275,104.183 241.452,104.26 241.599,104.418 241.774,104.107 241.926,104.224 242.102,103.79 242.279,103.831 242.393,114.476 242.496,110.855 242.674,106.219 242.853,107.229 243.032,106.02 243.21,106.53 243.389,106.372 243.568,182.081 243.746,208.463 243.925,215.81 244.104,218.744 244.282,220.798 244.461,222.042 244.639,223.28 244.818,219.548 244.997,217.512 245.175,217.635 245.354,201.633 245.533,191.012 245.711,191.634 245.869,191.775 246.012,192.004 246.185,188.313 246.219,188.512 246.397,186.388 246.558,144.889 246.72,95.1289 246.895,87.3714 247.07,86.0804 247.229,86.6203 247.396,87.8291 247.574,88.4511 247.748,89.6071 247.907,90.8453 247.986,90.9685 248.164,92.0365 248.343,92.4003 248.522,93.0575 248.7,93.3802 248.879,93.791 249.057,96.1793 249.236,94.9294 249.415,93.9553 249.593,93.7088 249.772,105.005 249.951,112.997 250.056,112.387 250.151,113.302 250.312,115.913 250.444,115.01 250.623,114.059 250.798,96.3025 250.957,92.2418 251.117,88.6154 251.288,90.3523 251.463,90.8453 251.641,90.8042 251.808,91.5024 251.883,91.0917 252.062,91.3382 252.24,91.5846 252.38,91.7079 252.557,91.79 252.711,92.0775 252.865,91.3792 253.032,91.3382 253.2,91.4203 253.217,91.256 253.396,91.2149 253.575,91.256 253.753,91.5846 253.932,129.944 254.111,194.721 254.289,209.666 254.468,213.968 254.647,216.626 254.825,218.721 254.904,219.349 255.083,213.07 255.261,155.781 255.437,97.1064 255.614,87.8702 255.791,87.5768 255.968,88.1166 256.072,88.4922 256.249,134.527 256.428,167.041 256.606,161.12 256.781,181.5 256.95,201.205 257.128,207.777 257.305,189.369 257.478,136.246 257.64,124.557 257.683,155.845 257.862,175.609 258.039,172.281 258.216,144.755 258.392,147.319 258.568,147.753 258.728,149.995 258.767,150.259 258.946,149.596 259.117,149.66 259.295,147.319 259.472,146.984 259.65,150.787 259.828,106.841 260.007,85.9513 260.172,84.6134 260.351,85.2824 260.529,85.4525 260.708,185.437 260.887,209.461 261.052,216.368 261.231,219.349 261.408,221.496 261.585,221.796 261.761,222.711 261.934,222.635 262.099,185.637 262.206,158.72 262.384,109.822 262.563,88.369 262.741,85.8692 262.919,85.077 263.095,85.0301 263.273,85.1181 263.452,87.6119 263.63,87.2892 263.806,87.7059 263.983,87.2481 264.119,87.2071 264.298,88.1166 264.476,88.5332 264.653,89.2785 264.828,90.0237 264.918,90.147 265.093,89.7714 265.269,89.6071 265.448,89.9827 265.619,89.9416 265.771,184.105 265.807,192.197 265.986,210.869 266.163,216.626 266.34,219.302 266.519,220.651 266.697,220.921 266.874,220.798 267.036,221.021 267.124,221.05 267.303,221.35 267.477,221.461 267.654,214.279 267.831,170.873 268.006,186.676 268.183,133.893 268.357,86.8726 268.527,83.0115 268.657,82.2955 268.836,82.589 268.912,82.9293 269.035,84.1909 269.1,84.7836 269.218,85.0301 269.328,85.8281 269.439,86.0393 269.534,86.2858 269.632,87.4536 269.739,88.2868 269.918,88.1166 270.095,89.4428 270.144,90.3054 270.323,89.0731 270.5,90.147 270.678,91.256 270.853,92.0775 271.015,93.0164 271.193,92.811 271.367,92.6467 271.531,92.2418 271.708,93.0986 271.885,92.5235 271.951,92.4413 272.13,154.378 272.307,200.659 272.48,211.779 272.657,215.253 272.831,217.788 272.93,218.85 273.108,220.798 273.287,222.288 273.465,223.92 273.643,225.24 273.811,226.56 273.987,199.35 274.165,148.058 274.344,89.7303 274.522,84.0266 274.694,83.0584 274.843,82.9293 274.994,83.3929 275.156,84.5313 275.311,84.9479 275.49,86.1626 275.667,87.5357 275.843,88.9088 276.019,90.6809 276.189,91.3382 276.368,91.4203 276.543,91.2149 276.714,90.0648 276.89,90.2702 277.056,89.6892 277.226,89.9827 277.395,89.4839 277.551,89.1963 277.576,89.1963 277.755,115.99 277.934,183.026 278.101,182.263 278.275,175.943 278.449,172.886 278.626,173.467 278.799,160.358 278.961,160.422 279.019,160.516 279.197,163.908 279.373,164.788 279.544,162.675 279.717,108.003 279.883,92.7289 280.03,92.0658 280.161,93.2218 280.265,93.5445 280.443,142.748 280.537,157.271 280.715,157.465 280.894,151.385 281.073,131.411 281.251,130.624 281.43,130.982 281.609,128.905 281.776,95.2521 281.949,83.7743 282.127,85.4525 282.301,87.4887 282.471,102.294 282.574,170.134 282.753,168.684 282.931,186.705 283.103,183.959 283.272,184.393 283.416,208.88 283.467,210.347 283.645,220.874 283.823,221.543 283.995,224.36 284.168,223.527 284.311,225.68 284.49,227.482 284.667,228.661 284.842,229.025 285.018,230.363 285.196,221.25 285.228,210.922 285.406,193.042 285.585,180.913 285.758,124.193 285.927,84.8658 286.102,80.5528 286.279,79.1034 286.394,79.7899 286.46,79.9601 286.639,82.0432 286.806,83.3518 286.973,84.6134 287.136,85.2413 287.299,87.119 287.477,87.7059 287.599,87.8291 287.737,88.2868 287.907,134.879 288.051,134.949 288.218,173.86 288.388,168.989 288.562,163.086 288.734,164.759 288.898,164.788 288.951,158.691 289.13,122.615 289.306,122.943 289.48,108.391 289.654,87.2481 289.823,84.6134 289.991,85.787 290.165,85.8692 290.332,87.2071 290.481,87.5357 290.659,88.1166 290.838,88.7797 291.011,88.5332 291.187,90.3113 291.365,90.2291 291.542,91.2971 291.703,92.4003 291.748,91.256 291.927,91.3382 292.099,91.0506 292.276,90.8453 292.455,90.6809 292.633,89.7303 292.792,89.7303 292.956,180.144 293.135,204.221 293.313,195.108 293.492,188.254 293.668,190.22 293.845,189.48 294.024,198.036 294.202,214.073 294.338,218.04 294.516,220.622 294.691,222.734 294.869,223.574 295.047,196.158 295.225,171.149 295.404,126.446 295.519,110.667 295.698,103.197 295.877,102.452 296.055,140.172 296.219,89.9416 296.259,87.9523 296.438,85.6168 296.617,85.2413 296.795,85.2413 296.972,87.119 297.134,88.9499 297.234,88.6976 297.413,89.3607 297.587,90.188 297.759,89.2374 297.934,89.6481 298.099,89.4428 298.277,89.3196 298.431,89.6071 298.61,89.8594 298.784,89.7714 298.875,89.8594 299.054,89.7714 299.233,89.6892 299.411,90.0237 299.59,90.1058 299.6,90.2291 299.779,90.0237 299.954,90.2291 300.129,90.147 300.3,89.6481 300.478,91.5024 300.656,91.0096 300.828,91.5024 300.997,90.5167 301.156,154.149 301.283,128.688 301.43,149.49 301.579,150.922 301.758,141.551 301.936,125.466 302.115,114.024 302.294,109.858 302.472,102.845 302.651,96.4257 302.829,95.0057 303.008,94.5245 303.09,94.3602 303.241,132.121 303.297,158.139 303.426,196.769 303.605,212.424 303.784,217.688 303.955,220.252 304.123,222.042 304.196,222.787 304.374,223.773 304.553,225.363 304.73,226.654 304.893,227.963 305.056,206.404 305.235,182.145 305.413,161.695 305.592,161.695 305.771,142.613 305.949,155.387 306.128,155.258 306.307,136.979 306.485,136.14 306.664,132.69 306.843,140.999 307.021,145.94 307.2,132.226 307.379,122.133 307.557,121.101 307.736,118.648 307.915,115.309 308.093,122.427 308.272,136.668 308.451,168.526 308.629,164.788 308.808,147.084 308.987,166.419 309.146,180.144 309.19,192.761 309.368,169.764 309.543,165.856 309.594,167.91 309.772,167.663 309.951,163.908 310.13,200.77 310.308,217.459 310.487,223.034 310.666,226.414 310.817,227.84 310.995,228.638 311.174,196.105 311.353,217.025 311.531,225.24 311.71,228.274 311.889,229.623 312.067,230.556 312.227,230.744 312.349,231.46 312.482,231.366 312.569,231.272 312.728,217.336 312.793,208.252 312.972,157.206 313.151,109.899 313.329,113.073 313.502,110.55 313.666,110.703 313.831,165.357 313.951,160.897 314.129,162.359 314.298,163.438 314.41,160.358 314.584,154.278 314.613,155.517 314.791,156.004 314.97,160.868 315.149,163.028 315.327,153.592 315.506,160.164 315.632,159.331 315.739,158.497 315.899,151.649 316.077,141.069 316.256,140.312 316.435,119.059 316.613,88.4922 316.745,86.2448 316.914,85.7049 317.073,86.2448 317.198,86.2858 317.345,87.2481 317.483,87.9113 317.656,87.9523 317.832,89.4428 318.004,89.6071 318.172,89.4428 318.283,89.9827 318.461,90.0237 318.64,89.7303 318.819,90.2291 318.983,90.5577 319.157,90.5577 319.331,92.0775 319.446,92.2829 319.625,91.3382 319.801,91.6667 319.951,91.8311 320.13,91.6667 320.308,92.1538 320.485,92.6467 320.651,93.6266 320.83,93.8731 320.962,93.7088 321.122,93.0986 321.165,106.8 321.344,116.4 321.365,121.47 321.544,133.752 321.633,136.352 321.811,145.429 321.99,154.865 322.039,154.93 322.196,154.607 322.375,154.93 322.432,154.93 322.611,154.994 322.774,155.029 322.818,152.899 322.997,130.231 323.07,130.266 323.225,130.337 323.397,116.588 323.566,94.9294 323.699,87.2892 323.878,88.1577 324.056,88.4511 324.228,89.2785 324.338,125.789 324.517,145.975 324.685,94.4423 324.861,111.853 325.028,106.061 325.199,106.607 325.264,103.162 325.442,98.4737 325.621,95.3754 325.8,95.0057 325.978,94.6007 326.157,94.9704 326.336,95.17 326.511,126.047 326.69,131.053 326.868,130.912 327.047,136.979 327.226,137.05 327.404,136.909 327.583,140.893 327.762,141.134 327.94,141.41 328.119,141.204 328.298,141.204 328.476,141.686 328.655,141.65 328.834,142.096 329.012,141.756 329.191,142.026 329.37,141.65 329.548,142.231 329.727,141.721 329.906,142.132 330.084,141.791 330.218,142.642 330.355,141.439 330.534,171.941 330.712,169.025 330.891,174.376 331.07,173.948 331.23,176.031 331.408,167.258 331.587,166.138 331.765,161.76 331.943,149.202 332.07,151.649 332.167,151.649 332.346,151.614 332.524,151.468 332.703,153.034 332.879,152.242 333.058,152.471 333.224,152.87 333.378,153.557 333.551,153.427 333.669,153.392 333.841,153.721 333.945,153.95 334.021,154.542 334.2,123.313 334.369,88.1166 334.547,85.1181 334.724,85.4525 334.902,84.7366 335.079,85.8692 335.256,87.3303 335.434,88.1166 335.609,89.2785 335.784,90.5988 335.961,91.4614 336.138,92.0775 336.306,92.77 336.476,93.5034 336.653,92.811 336.82,92.8932 336.984,92.6409 337.124,93.3039 337.227,113.566 337.405,100.551 337.529,101.103 337.7,100.152 337.879,100.551 338.022,99.8233 338.122,100.903 338.301,100.868 338.463,100.551 338.586,100.786 338.652,101.543 338.831,108.895 339.009,108.854 339.188,108.467 339.364,108.391 339.513,108.314 339.669,108.391 339.845,108.314 340.018,108.003 340.135,107.54 340.264,107.616 340.334,108.044 340.46,107.616 340.638,122.832 340.651,122.726 340.83,122.321 340.905,121.065 341.027,120.655 341.192,120.989 341.251,120.878 341.429,121.024 341.602,120.731 341.781,132.191 341.959,169.764 342.138,170.075 342.305,170.257 342.477,170.169 342.647,170.38 342.813,189.081 342.989,188.999 343.153,188.682 343.329,188.225 343.493,188.571 343.664,188.401 343.81,189.029 343.973,188.8 344.13,189.081 344.306,189.48 344.456,189.369 344.635,189.369 344.814,188.055 344.992,143.053 345.171,142.578 345.35,142.231 345.528,142.812 345.707,143.329 345.885,144.314 346.064,143.704 346.243,143.974 346.421,144.62 346.6,144.215 346.771,144.449 346.91,144.825 346.996,144.62 347.167,144.549 347.345,144.96 347.524,144.62 347.703,142.231 347.826,116.33 347.97,88.369 348.143,86.5381 348.318,87.3245 348.48,87.7059 348.658,88.1166 348.832,89.6481 349.01,90.5577 349.177,91.5846 349.348,92.6878 349.514,92.6467 349.692,93.6266 349.87,93.3039 350.048,94.5245 350.215,94.8472 350.388,95.5748 350.567,94.5245 350.745,94.8062 350.924,94.724 351.102,94.3602 351.274,101.067 351.448,96.543 351.607,94.9294 351.784,93.6266 351.962,106.841 352.132,114.176 352.31,115.649 352.485,124.557 352.663,126.664 352.835,126.845 353.009,126.376 353.184,126.376 353.358,126.523 353.52,127.244 353.683,164.729 353.832,171.026 353.971,179.2 354.143,184.686 354.321,187.08 354.5,188.512 354.67,189.029 354.824,189.199 354.937,189.938 355.074,192.197 355.222,194.163 355.377,194.662 355.555,194.856 355.731,198.312 355.759,198.588 355.916,200.225 356.094,190.501 356.273,132.332 356.452,87.0369 356.626,84.3611 356.804,84.32 356.979,84.8658 357.131,137.924 357.252,185.754 357.431,207.988 357.61,181.265 357.78,167.786 357.944,137.537 358.121,138.787 358.297,149.326 358.476,148.991 358.653,149.69 358.83,150.194 358.992,150.323 359.158,150.259 359.299,150.758 359.463,121.764 359.619,144.755 359.785,147.319 359.939,134.421 360.084,144.719 360.252,145.23 360.381,145.635 360.528,153.363 360.614,155.258 360.751,136.944 360.929,126.81 361.091,120.878 361.269,120.138 361.448,134.738 361.627,143.769 361.805,143.839 361.984,143.734 362.163,143.769 362.341,143.599 362.52,143.804 362.699,160.739 362.877,189.797 363.056,190.19 363.234,190.507 363.413,211.544 363.592,221.15 363.77,220.299 363.949,205.101 364.128,186.388 364.306,187.427 364.485,153.621 364.664,135.653 364.831,88.2457 365.006,84.6134 365.179,84.32 365.351,85.077 365.528,86.0393 365.707,87.8702 365.883,88.2868 365.893,88.1166 366.072,88.8677 366.25,115.156 366.429,124.445 366.608,167.288 366.779,204.702 366.947,214.484 367.124,218.392 367.296,220.552 367.475,221.842 367.653,222.042 367.832,222.341 368.01,222.019 368.189,187.996 368.354,188.882 368.532,206.269 368.682,213.146 368.855,183.084 368.872,178.601 369.051,155.845 369.161,125.942 369.34,139.274 369.518,169.705 369.697,172.34 369.876,180.409 370.054,166.325 370.233,115.197 370.409,91.6667 370.578,93.7088 370.755,85.3235 370.925,85.2413 371.101,86.7024 371.27,87.7822 371.439,87.7469 371.535,88.369 371.714,89.5249 371.892,89.3607 372.069,90.3523 372.248,90.7631 372.426,91.4203 372.603,91.0096 372.768,90.5988 372.941,91.2149 372.964,91.256 373.143,90.6809 373.315,90.8453 373.489,90.4344 373.66,89.5249 373.808,88.9499 373.857,89.1552 374.036,89.8184 374.214,89.5249 374.392,89.6481 374.571,91.0096 374.739,110.169 374.792,150.059 374.971,198.148 375.149,210.218 375.328,214.126 375.507,216.52 375.572,217.436 375.751,218.774 375.929,220.552 376.103,222.535 376.281,223.081 376.431,224.26 376.595,224.559 376.773,225.193 376.886,225.657 377.065,226.631 377.236,225.974 377.413,195.771 377.59,161.602 377.764,180.972 377.937,183.9 378.024,182.263 378.203,180.438 378.376,181.265 378.552,202.607 378.731,200.225 378.907,150.722 379.081,110.703 379.243,112.615 379.42,113.185 379.57,102.37 379.685,85.4525 379.826,82.9293 379.969,83.3518 380.148,111.7 380.266,131.34 380.417,132.76 380.595,147.653 380.774,92.0658 380.953,88.5332 381.131,87.8702 381.31,88.6565 381.488,88.7797 381.667,88.1988 381.842,90.2291 382.02,91.6667 382.185,91.9543 382.23,92.2418 382.4,91.79 382.578,91.9132 382.756,91.4203 382.934,90.722 383.11,89.3196 383.28,145.465 383.351,179.018 383.53,201.903 383.708,199.163 383.886,201.715 384.063,179.522 384.241,129.551 384.413,116.928 384.591,91.0917 384.749,89.6481 384.927,112.046 385.104,114.892 385.279,141.204 385.452,179.763 385.628,171.36 385.799,137.537 385.974,142.096 386.079,180.972 386.257,161.379 386.436,159.137 386.611,121.952 386.79,89.6071 386.957,87.8702 387.049,88.1166 387.228,87.7469 387.402,88.2457 387.575,89.032 387.753,89.4017 387.929,106.448 388.096,160.422 388.112,155.745 388.291,93.4213 388.469,91.9543 388.641,90.3113 388.814,156.361 388.988,181.236 389.166,187.855 389.33,207.988 389.508,213.457 389.52,213.61 389.698,206.932 389.871,163.028 390.049,113.414 390.222,89.9416 390.394,87.119 390.569,86.6614 390.742,86.0393 390.898,87.4536 390.957,87.3714 391.136,88.2868 391.315,88.369 391.493,89.6071 391.67,89.3607 391.848,89.6071 392.024,91.9543 392.201,91.1738 392.336,92.6056 392.512,92.77 392.689,93.5856 392.864,91.3382 393.039,91.0917 393.213,91.0506 393.38,90.7631 393.558,90.8453 393.692,89.6892 393.871,90.4344 394.047,90.2643 394.224,91.7489 394.402,91.9954 394.506,92.4824 394.681,92.5645 394.859,91.8252 395.032,92.6467 395.204,91.8311 395.378,90.6809 395.555,90.2291 395.732,90.8453 395.798,89.4428 395.976,88.9088 396.155,89.9005 396.332,90.2291 396.433,90.2291 396.611,90.0237 396.782,89.8184 396.942,89.6892 397.048,146.984 397.227,199.515 397.403,211.128 397.58,214.584 397.758,215.757 397.936,216.039 398.108,216.063 398.129,216.215 398.307,216.954 398.483,218.545 398.66,175.521 398.836,120.766 399.007,88.7797 399.173,85.8692 399.336,84.8658 399.513,84.5313 399.687,85.2824 399.865,85.3235 400.044,86.4559 400.223,87.2071 400.401,87.119 400.549,87.9934 400.659,88.2047 400.837,88.5332 401.016,89.1552 401.118,89.4428 401.212,89.4428 401.375,88.6976 401.541,89.032 401.72,88.8677 401.769,88.7797 401.948,89.2785 402.127,89.6071 402.305,89.3196 402.464,89.4428 402.642,89.3607 402.821,89.6892 402.993,89.8594 403.098,90.1058 403.276,89.9416 403.452,90.0237 403.617,89.3196 403.753,89.6892 403.932,178.425 404.11,123.02 404.288,91.8252 404.464,90.722 404.639,114.1 404.815,186.793 404.858,194.386 405.037,208.487 405.215,212.941 405.394,215.3 405.568,217.488 405.745,220 405.924,222.089 406.102,222.535 406.263,223.474 406.43,223.867 406.596,224.876 406.775,225.44 406.949,226.22 407.128,203.47 407.307,202.93 407.485,202.554 407.664,207.196 407.843,207.067 408.021,207.648 408.2,194.439 408.379,183.607 408.557,183.636 408.736,183.313 408.915,147.149 409.093,87.9523 409.272,81.2334 409.432,79.4027 409.61,92.9753 409.659,137.255 409.837,175.673 410.016,196.798 410.195,210.371 410.373,187.456 410.552,208.933 410.731,211.386 410.909,211.802 411.088,212.219 411.267,212.683 411.445,213.093 411.624,213.146 411.803,213.457 411.949,213.222 412.099,213.686 412.278,204.755 412.397,204.485 412.575,204.004 412.754,204.004 412.933,204.274 413.111,204.297 413.288,203.734 413.46,157.077 413.633,125.936 413.804,126.775 413.976,125.067 414.154,147.923 414.181,148.657 414.36,147.97 414.493,148.24 414.661,149.226 414.826,148.657 414.974,148.322 415.12,150.722 415.287,149.725 415.463,149.496 415.623,195.607 415.792,200.33 415.97,200.495 416.128,203.845 416.281,208.78 416.441,209.068 416.605,209.25 416.78,209.144 416.957,210.06 417.134,210.007 417.281,210.036 417.419,197.103 417.482,175.914 417.615,153.656 417.794,155.094 417.972,188.201 417.978,188.201 418.157,188.283 418.326,189.34 418.482,197.655 418.661,197.543 418.809,197.484 418.948,197.514 419.127,197.32 419.293,197.484 419.457,197.185 419.621,197.044 419.782,199.544 419.954,199.409 420.118,199.163 420.296,203.734 420.442,204.379 420.584,204.274 420.73,204.35 420.882,204.538 421.038,204.162 421.209,204.514 421.372,204.086 421.539,204.297 421.667,204.244 421.799,204.297 421.93,204.297 422.057,204.514 422.189,204.274 422.313,204.162 422.449,204.432 422.585,204.35 422.725,204.538 422.86,204.379 422.977,204.274 423.125,203.347 423.261,204.702 423.438,212.941 423.583,214.249 423.754,214.126 423.906,214.66 424.078,214.66 424.239,214.226 424.394,214.02 424.569,205.817 424.742,201.269 424.897,202.39 425.055,206.034 425.217,205.923 425.389,205.817 425.551,205.899 425.71,205.5 425.87,205.688 426.027,205.981 426.185,205.952 426.364,205.764 426.532,205.365 426.698,205.582 426.87,205.606 427.032,205.794 427.211,205.072 427.387,205.125 427.554,205.125 427.727,204.755 427.898,204.943 428.071,203.452 428.245,204.485 428.418,204.591 428.596,204.567 428.764,204.538 428.942,204.591 429.09,205.418 429.251,195.272 429.424,169.922 429.576,162.329 429.72,160.07 429.897,155.129 430.072,150.587 430.239,151.978 430.402,151.779 430.573,151.614 430.74,152.307 430.916,151.649 431.082,151.649 431.237,151.978 431.397,153.064 431.542,152.113 431.695,151.949 431.861,152.078 432.039,165.92 432.186,167.135 432.332,167.663 432.503,179.2 432.68,193.911 432.85,200.442 433.02,202.443 433.184,207.067 433.358,207.249 433.531,209.408 433.698,210.241 433.863,215.505 434.031,215.939 434.21,215.482 434.386,215.047 434.562,214.736 434.741,214.279 434.91,214.484 435.079,215.047 435.253,215.529 435.431,216.52 435.6,217.031 435.779,218.216 435.946,225.95 436.107,231.296 436.262,231.202 436.409,231.079 436.581,231.507 436.753,234.623 436.891,235.069 437.057,235.28 437.16,234.952 437.304,235.374 437.466,235.515 437.634,232.27 437.785,238.068 437.963,231.032 437.968,229.741 438.147,198.588 438.325,210.711 438.504,155.81 438.683,155.716 438.861,149.461 439.04,143.704 439.219,154.636 439.397,181.705 439.576,181.676 439.755,182.703 439.933,182.468 440.112,182.498 440.291,182.498 440.469,182.732 440.648,183.783 440.826,187.855 441.005,189.14 441.184,177.827 441.362,178.243 441.541,172.581 441.72,171.548 441.898,174.1 442.077,174.705 442.256,175.491 442.434,174.916 442.613,175.309 442.792,175.127 442.97,175.614 443.149,175.462 443.328,175.01 443.391,175.069 443.539,175.55 443.71,176.33 443.875,176.06 444.052,175.79 444.105,175.462 444.284,174.951 444.462,178.243 444.641,184.105 444.82,184.768 444.998,185.033 445.177,184.628 445.199,184.481 445.378,175.579 445.557,175.01 445.735,175.521 445.914,175.368 446.093,174.857 446.271,174.646 446.45,175.192 446.629,174.828 446.807,175.069 446.986,172.463 447.164,172.827 447.202,173.074 447.381,172.645 447.43,173.074 447.609,172.369 447.76,172.768 447.811,172.129 447.99,172.733 448.168,172.434 448.347,172.886 448.526,173.074 448.704,173.009 448.883,169.705 449.062,169.517 449.24,168.96 449.419,169.06 449.597,169.829 449.776,169.183 449.955,169.641 450.133,169.488 450.312,169.025 450.491,169.429 450.669,169.212 450.848,208.516 451.027,253.002 451.205,271.632 451.33,273.246 451.48,274.238 451.652,274.273 451.758,275.634 451.878,276.327 451.984,276.033 452.119,275.441 452.298,278.351 452.476,279.642 452.655,278.656 452.834,278.428 453.012,242.498 453.191,245.508 453.37,245.15 453.548,244.681 453.727,188.225 453.906,186.822 454.084,201.04 454.263,206.404 454.415,216.931 454.582,203.681 454.755,178.783 454.93,182.762 455.087,200.659 455.263,219.953 455.401,219.677 455.569,246.283 455.732,245.995 455.858,246.218 456.021,263.505 456.176,286.138 456.353,324.321 456.494,348.233 456.652,360.826 456.803,347.846 456.977,294.835 457.122,225.117 457.281,259.362 457.395,268.159 457.508,271.732 457.636,294.435 457.815,336.28 457.821,337.254 458,360.973 458.178,360.216 458.357,358.995 458.536,342.753 458.714,284.354 458.893,190.56 459.072,104.377 459.25,79.1034 459.429,79.2735 459.608,81.9142 459.786,83.6862 459.965,85.6638 460.144,87.4536 460.306,87.5357 460.485,88.0345 460.651,88.2868 460.826,88.991 460.924,89.3548 461.076,88.7797 461.247,89.3607 461.423,89.1142 461.589,174.136 461.759,173.86 461.906,174.376 462.028,208.463 462.178,247.99 462.353,267.56 462.459,267.959 462.638,265.741 462.658,265.013 462.836,268.241 463.01,254.504 463.188,237 463.272,236.19 463.45,235.685 463.629,236.818 463.808,236.677 463.986,225.533 464.111,182.116 464.289,179.822 464.461,153.128 464.475,153.427 464.654,154.93 464.791,181.676 464.931,181.324 465.109,194.163 465.275,188.8 465.453,189.369 465.609,189.709 465.788,175.221 465.967,176.723 466.145,184.188 466.31,233.027 466.488,237.627 466.653,237.674 466.822,259.263 467.001,258.025 467.158,258.488 467.335,258.107 467.502,258.717 467.677,258.236 467.846,258.881 467.996,258.506 468.165,258.676 468.329,258.107 468.464,261.446 468.622,285.499 468.798,328.306 468.976,357.851 469.155,361.008 469.334,358.896 469.512,358.849 469.691,358.972 469.87,359.383 470.048,359.054 470.227,359.042 470.406,359.066 470.584,359.383 470.763,359.142 470.942,359.142 471.12,359.019 471.299,359.142 471.478,359.019 471.656,359.089 471.835,359.03 472.013,359.259 472.192,359.201 472.371,359.259 472.549,359.735 472.728,359.864 472.907,360.157 473.085,360.468 473.264,360.046 473.443,360.398 473.621,360.609 473.8,360.104 473.979,360.046 474.157,360.468 474.336,360.228 474.515,360.228 474.693,359.864 474.872,360.31 475.05,360.609 475.229,360.468 475.408,360.826 475.586,360.374 475.765,360.228 475.944,360.949 476.122,360.492 476.301,360.609 476.48,360.791 476.658,360.826 476.837,360.709 477.016,360.586 477.194,360.374 477.373,360.662 477.552,360.345 477.73,360.949 477.909,360.586 478.088,360.527 478.266,360.586 478.445,361.665 478.623,361.56 478.802,361.067 478.981,361.043 479.16,361.067 479.338,361.137 479.517,361.067 479.695,361.178 479.874,361.02 480.053,361.09 480.231,361.401 480.41,361.583 480.589,361.307 480.767,361.09 480.946,361.137 481.125,361.202 481.303,360.949 481.482,361.149 481.661,361.161 481.839,361.19 482.018,361.307 482.197,360.58 482.375,361.307 482.554,360.826 482.733,361.078 482.911,361.237 483.09,361.067 483.269,361.425 483.447,361.278 483.626,361.425 483.805,361.607 483.983,361.483 484.162,361.736 484.341,362.258 484.519,362.141 484.698,362.047 484.877,361.988 485.055,361.425 485.234,361.46 485.413,361.853 485.591,361.759 485.77,361.665 485.949,361.783 486.127,361.378 486.306,361.548 486.485,361.536 486.663,361.536 486.842,361.689 487.02,361.894 487.199,361.601 487.378,361.448 487.556,362.117 487.735,361.871 487.914,361.677 488.092,361.783 488.271,361.783 488.45,361.653 488.628,361.783 488.807,361.906 488.986,362.023 489.164,362.281 489.343,362.381 489.522,362.451 489.7,361.049 489.879,361.906 490.057,361.818 490.236,362.058 490.415,362.141 490.593,362.023 490.772,362.141 490.951,361.941 491.129,362.141 491.308,361.665 491.487,361.783 491.665,361.19 491.844,360.697 492.023,360.709 492.201,360.826 492.38,360.709 492.559,362.141 492.737,363.021 492.916,362.498 493.095,362.733 493.273,361.518 493.452,362.974 493.631,362.95 493.809,362.258 493.988,363.091 494.167,361.454 494.345,362.463 494.524,362.851 494.703,362.405 494.881,362.639 495.06,362.639 495.239,362.193 495.417,362.974 495.596,362.545 495.775,363.185 495.953,362.733 496.132,362.498" stroke-linecap="butt" stroke-width="2" stroke-linejoin="round"/>
  </g>
 </g>
</svg>
