<?xml version='1.0' encoding='UTF-8' standalone='no'?>
<svg width="576pt" xmlns="http://www.w3.org/2000/svg" height="432pt" viewBox="0 0 576 432" xmlns:xlink="http://www.w3.org/1999/xlink">
 <title>gl2ps_renderer figure</title>
 <desc>
Creator: GL2PS 1.4.0, (C) 1999-2017 C. Geuzaine
For: Octave
CreationDate: Sun Jul 04 23:14:42 2021
</desc>
 <defs/>
 <polygon fill="#ffffff" points="0,0 576,0 576,432 0,432"/>
 <g>
  <polygon fill="#ffffff" shape-rendering="crispEdges" points="0,432 576,432 576,0 0,0"/>
  <clipPath id="cp00576432">
   <polygon points="0,432 576,432 576,0 0,0"/>
  </clipPath>
  <g clip-path="url(#cp00576432)">
   <polygon fill="#ffffff" shape-rendering="crispEdges" points="74.88,384.48 521.28,384.48 521.28,32.4 74.88,32.4"/>
   <polyline stroke="#262626" stroke-width="0.5" fill="none" stroke-opacity="0.15" stroke-dasharray="16,0" stroke-linejoin="miter" points="74.88,384.48 74.88,32.4" stroke-linecap="butt"/>
   <polyline stroke="#262626" stroke-width="0.5" fill="none" stroke-opacity="0.15" stroke-dasharray="16,0" stroke-linejoin="miter" points="164.16,384.48 164.16,32.4" stroke-linecap="butt"/>
   <polyline stroke="#262626" stroke-width="0.5" fill="none" stroke-opacity="0.15" stroke-dasharray="16,0" stroke-linejoin="miter" points="253.44,384.48 253.44,32.4" stroke-linecap="butt"/>
   <polyline stroke="#262626" stroke-width="0.5" fill="none" stroke-opacity="0.15" stroke-dasharray="16,0" stroke-linejoin="miter" points="342.72,384.48 342.72,32.4" stroke-linecap="butt"/>
   <polyline stroke="#262626" stroke-width="0.5" fill="none" stroke-opacity="0.15" stroke-dasharray="16,0" stroke-linejoin="miter" points="432,384.48 432,32.4" stroke-linecap="butt"/>
   <polyline stroke="#262626" stroke-width="0.5" fill="none" stroke-opacity="0.15" stroke-dasharray="16,0" stroke-linejoin="miter" points="521.28,384.48 521.28,32.4" stroke-linecap="butt"/>
   <polyline stroke="#262626" stroke-width="0.5" fill="none" stroke-linejoin="miter" points="74.88,384.48 74.88,380.015" stroke-linecap="butt"/>
   <polyline stroke="#262626" stroke-width="0.5" fill="none" stroke-linejoin="miter" points="74.88,32.4 74.88,36.8651" stroke-linecap="butt"/>
   <polyline stroke="#262626" stroke-width="0.5" fill="none" stroke-linejoin="miter" points="164.16,384.48 164.16,380.015" stroke-linecap="butt"/>
   <polyline stroke="#262626" stroke-width="0.5" fill="none" stroke-linejoin="miter" points="164.16,32.4 164.16,36.8651" stroke-linecap="butt"/>
   <polyline stroke="#262626" stroke-width="0.5" fill="none" stroke-linejoin="miter" points="253.44,384.48 253.44,380.015" stroke-linecap="butt"/>
   <polyline stroke="#262626" stroke-width="0.5" fill="none" stroke-linejoin="miter" points="253.44,32.4 253.44,36.8651" stroke-linecap="butt"/>
   <polyline stroke="#262626" stroke-width="0.5" fill="none" stroke-linejoin="miter" points="342.72,384.48 342.72,380.015" stroke-linecap="butt"/>
   <polyline stroke="#262626" stroke-width="0.5" fill="none" stroke-linejoin="miter" points="342.72,32.4 342.72,36.8651" stroke-linecap="butt"/>
   <polyline stroke="#262626" stroke-width="0.5" fill="none" stroke-linejoin="miter" points="432,384.48 432,380.015" stroke-linecap="butt"/>
   <polyline stroke="#262626" stroke-width="0.5" fill="none" stroke-linejoin="miter" points="432,32.4 432,36.8651" stroke-linecap="butt"/>
   <polyline stroke="#262626" stroke-width="0.5" fill="none" stroke-linejoin="miter" points="521.28,384.48 521.28,380.015" stroke-linecap="butt"/>
   <polyline stroke="#262626" stroke-width="0.5" fill="none" stroke-linejoin="miter" points="521.28,32.4 521.28,36.8651" stroke-linecap="butt"/>
   <text font-style="normal" font-size="10" xml:space="preserve" transform="translate(71.88,399.982) rotate(-0,3,-8)" font-weight="normal" font-family="FreeSans">
    <tspan fill="rgb(38,38,38)" y="-0" x="0 ">0</tspan>
   </text>
   <text font-style="normal" font-size="10" xml:space="preserve" transform="translate(152.16,399.982) rotate(-0,12,-8)" font-weight="normal" font-family="FreeSans">
    <tspan fill="rgb(38,38,38)" y="-0" x="0 6 12 18 ">1000</tspan>
   </text>
   <text font-style="normal" font-size="10" xml:space="preserve" transform="translate(241.44,399.982) rotate(-0,12,-8)" font-weight="normal" font-family="FreeSans">
    <tspan fill="rgb(38,38,38)" y="-0" x="0 6 12 18 ">2000</tspan>
   </text>
   <text font-style="normal" font-size="10" xml:space="preserve" transform="translate(330.72,399.982) rotate(-0,12,-8)" font-weight="normal" font-family="FreeSans">
    <tspan fill="rgb(38,38,38)" y="-0" x="0 6 12 18 ">3000</tspan>
   </text>
   <text font-style="normal" font-size="10" xml:space="preserve" transform="translate(420,399.982) rotate(-0,12,-8)" font-weight="normal" font-family="FreeSans">
    <tspan fill="rgb(38,38,38)" y="-0" x="0 6 12 18 ">4000</tspan>
   </text>
   <text font-style="normal" font-size="10" xml:space="preserve" transform="translate(509.28,399.982) rotate(-0,12,-8)" font-weight="normal" font-family="FreeSans">
    <tspan fill="rgb(38,38,38)" y="-0" x="0 6 12 18 ">5000</tspan>
   </text>
   <polyline stroke="#262626" stroke-width="0.5" fill="none" stroke-opacity="0.15" stroke-dasharray="16,0" stroke-linejoin="miter" points="74.88,384.48 521.28,384.48" stroke-linecap="butt"/>
   <polyline stroke="#262626" stroke-width="0.5" fill="none" stroke-opacity="0.15" stroke-dasharray="16,0" stroke-linejoin="miter" points="74.88,296.46 521.28,296.46" stroke-linecap="butt"/>
   <polyline stroke="#262626" stroke-width="0.5" fill="none" stroke-opacity="0.15" stroke-dasharray="16,0" stroke-linejoin="miter" points="74.88,208.44 521.28,208.44" stroke-linecap="butt"/>
   <polyline stroke="#262626" stroke-width="0.5" fill="none" stroke-opacity="0.15" stroke-dasharray="16,0" stroke-linejoin="miter" points="74.88,120.42 521.28,120.42" stroke-linecap="butt"/>
   <polyline stroke="#262626" stroke-width="0.5" fill="none" stroke-opacity="0.15" stroke-dasharray="16,0" stroke-linejoin="miter" points="74.88,32.4 521.28,32.4" stroke-linecap="butt"/>
   <polyline stroke="#262626" stroke-width="0.5" fill="none" stroke-linejoin="miter" points="74.88,384.48 79.348,384.48" stroke-linecap="butt"/>
   <polyline stroke="#262626" stroke-width="0.5" fill="none" stroke-linejoin="miter" points="521.28,384.48 516.812,384.48" stroke-linecap="butt"/>
   <polyline stroke="#262626" stroke-width="0.5" fill="none" stroke-linejoin="miter" points="74.88,296.46 79.348,296.46" stroke-linecap="butt"/>
   <polyline stroke="#262626" stroke-width="0.5" fill="none" stroke-linejoin="miter" points="521.28,296.46 516.812,296.46" stroke-linecap="butt"/>
   <polyline stroke="#262626" stroke-width="0.5" fill="none" stroke-linejoin="miter" points="74.88,208.44 79.348,208.44" stroke-linecap="butt"/>
   <polyline stroke="#262626" stroke-width="0.5" fill="none" stroke-linejoin="miter" points="521.28,208.44 516.812,208.44" stroke-linecap="butt"/>
   <polyline stroke="#262626" stroke-width="0.5" fill="none" stroke-linejoin="miter" points="74.88,120.42 79.348,120.42" stroke-linecap="butt"/>
   <polyline stroke="#262626" stroke-width="0.5" fill="none" stroke-linejoin="miter" points="521.28,120.42 516.812,120.42" stroke-linecap="butt"/>
   <polyline stroke="#262626" stroke-width="0.5" fill="none" stroke-linejoin="miter" points="74.88,32.4 79.348,32.4" stroke-linecap="butt"/>
   <polyline stroke="#262626" stroke-width="0.5" fill="none" stroke-linejoin="miter" points="521.28,32.4 516.812,32.4" stroke-linecap="butt"/>
   <text font-style="normal" font-size="10" xml:space="preserve" transform="translate(63.8755,388.48) rotate(-0,6,-4)" font-weight="normal" font-family="FreeSans">
    <tspan fill="rgb(38,38,38)" y="-0" x="0 ">0</tspan>
   </text>
   <text font-style="normal" font-size="10" xml:space="preserve" transform="translate(45.8755,300.46) rotate(-0,24,-4)" font-weight="normal" font-family="FreeSans">
    <tspan fill="rgb(38,38,38)" y="-0" x="0 6 12 18 ">5000</tspan>
   </text>
   <text font-style="normal" font-size="10" xml:space="preserve" transform="translate(39.8755,212.44) rotate(-0,30,-4)" font-weight="normal" font-family="FreeSans">
    <tspan fill="rgb(38,38,38)" y="-0" x="0 6 12 18 24 ">10000</tspan>
   </text>
   <text font-style="normal" font-size="10" xml:space="preserve" transform="translate(39.8755,124.42) rotate(-0,30,-4)" font-weight="normal" font-family="FreeSans">
    <tspan fill="rgb(38,38,38)" y="-0" x="0 6 12 18 24 ">15000</tspan>
   </text>
   <text font-style="normal" font-size="10" xml:space="preserve" transform="translate(39.8755,36.4) rotate(-0,30,-4)" font-weight="normal" font-family="FreeSans">
    <tspan fill="rgb(38,38,38)" y="-0" x="0 6 12 18 24 ">20000</tspan>
   </text>
   <polyline stroke="#262626" stroke-width="0.5" fill="none" stroke-dasharray="16,0" stroke-linejoin="miter" points="74.88,384.48 521.28,384.48" stroke-linecap="square"/>
   <polyline stroke="#262626" stroke-width="0.5" fill="none" stroke-dasharray="16,0" stroke-linejoin="miter" points="74.88,32.4 521.28,32.4" stroke-linecap="square"/>
   <polyline stroke="#262626" stroke-width="0.5" fill="none" stroke-dasharray="16,0" stroke-linejoin="miter" points="74.88,384.48 74.88,32.4" stroke-linecap="square"/>
   <polyline stroke="#262626" stroke-width="0.5" fill="none" stroke-dasharray="16,0" stroke-linejoin="miter" points="521.28,384.48 521.28,32.4" stroke-linecap="square"/>
   <text font-style="normal" font-size="11" xml:space="preserve" transform="translate(273.08,416.982) rotate(-0,25,-12)" font-weight="normal" font-family="FreeSans">
    <tspan fill="rgb(38,38,38)" y="-3" x="0 7 13 22 28 34 37 41 46 ">Tempo (s)</tspan>
   </text>
   <text font-style="normal" font-size="11" xml:space="preserve" transform="translate(14.3755,208.44) rotate(-90,20.5,0)" font-weight="normal" font-family="FreeSans">
    <tspan fill="rgb(38,38,38)" y="-3" x="0 9 17 24 27 31 34 37 ">QNE (ft)</tspan>
   </text>
   <polyline stroke="#0071bc" stroke-width="2" fill="none" stroke-linejoin="round" points="128.984,383.845 129.162,383.845 129.341,383.845 129.52,383.845 129.698,383.845 129.877,383.845 130.056,383.845 130.234,383.845 130.413,383.845 130.592,383.845 130.77,383.845 130.949,383.845 131.127,383.845 131.306,383.845 131.485,383.845 131.663,383.845 131.842,384.163 132.021,384.163 132.199,384.163 132.378,384.163 132.557,384.163 132.735,384.163 132.914,383.527 133.07,381.809 133.24,379.709 133.402,377.482 133.581,375.764 133.727,374.619 133.906,374.619 134.085,374.619 134.263,374.619 134.442,374.937 134.621,375.319 134.799,375.891 134.978,375.891 135.157,376.209 135.335,376.528 135.514,376.782 135.693,376.941 135.871,377.164 136.05,377.164 136.229,377.068 136.407,377.164 136.586,376.846 136.765,376.846 136.943,376.846 137.122,376.846 137.301,376.528 137.479,376.209 137.658,375.573 137.837,374.937 137.977,374.237 138.135,373.664 138.286,373.028 138.446,372.392 138.605,371.755 138.781,371.183 138.955,370.483 139.097,369.846 139.244,369.21 139.378,368.574 139.51,367.938 139.687,366.983 139.864,366.315 140.011,365.36 140.173,364.438 140.32,363.483 140.497,362.465 140.648,361.574 140.824,360.652 141.002,359.538 141.159,358.075 141.318,356.484 141.494,354.83 141.641,353.621 141.793,352.666 141.929,351.903 142.093,351.394 142.196,351.076 142.373,350.63 142.536,349.676 142.697,348.817 142.869,347.544 143.027,345.985 143.185,344.394 143.362,342.104 143.536,339.495 143.71,336.123 143.885,331.987 144.059,327.214 144.23,322.76 144.403,318.624 144.569,315.443 144.747,313.089 144.926,311.084 145.101,309.302 145.276,308.062 145.433,306.853 145.592,305.58 145.771,304.227 145.92,302.643 146.098,301.026 146.275,299.442 146.438,297.825 146.601,295.885 146.766,293.298 146.945,289.839 147.111,286.508 147.28,283.275 147.452,280.042 147.624,276.808 147.794,273.316 147.972,270.212 148.138,267.108 148.312,263.875 148.491,260.932 148.656,257.408 148.818,254.821 148.992,251.911 149.153,249.324 149.331,246.738 149.504,244.474 149.659,242.534 149.83,240.594 149.982,238.945 150.152,237.038 150.316,235.098 150.477,233.125 150.636,231.217 150.815,229.019 150.974,227.014 151.143,225.344 151.3,223.753 151.448,222.544 151.603,221.272 151.781,219.745 151.958,218.09 152.135,216.5 152.295,214.909 152.455,213.191 152.632,211.409 152.807,209.5 152.965,207.91 153.125,206.319 153.284,204.728 153.461,202.756 153.607,201.865 153.765,200.592 153.934,199.32 154.093,198.111 154.252,196.966 154.396,196.043 154.567,195.184 154.741,194.548 154.837,194.23 154.929,193.911 155.059,193.561 155.218,193.275 155.355,192.83 155.504,192.321 155.672,191.048 155.834,189.457 155.979,188.121 156.144,186.912 156.3,185.735 156.47,184.335 156.625,182.776 156.797,180.867 156.961,178.959 157.137,177.05 157.297,175.141 157.469,173.232 157.646,171.323 157.807,169.732 157.971,168.11 158.133,166.233 158.312,163.91 158.482,161.143 158.639,158.916 158.803,156.879 158.939,155.734 159.109,154.461 159.268,153.507 159.396,152.871 159.536,152.234 159.704,151.535 159.797,151.28 159.922,150.962 160.068,150.93 160.246,150.962 160.425,150.962 160.604,150.962 160.782,150.962 160.961,150.962 161.064,150.835 161.243,151.28 161.421,151.28 161.6,151.598 161.779,151.916 161.957,151.916 162.136,152.234 162.314,152.553 162.493,152.871 162.672,153.507 162.85,153.825 163.029,153.825 163.053,154.143 163.231,153.825 163.41,154.143 163.513,154.461 163.692,154.461 163.703,154.78 163.881,154.78 164.06,154.78 164.239,154.143 164.417,153.507 164.596,153.189 164.775,152.425 164.919,151.598 165.05,150.962 165.228,150.962 165.377,150.644 165.556,150.644 165.734,150.962 165.913,151.28 166.092,151.916 166.27,152.553 166.449,152.871 166.628,153.189 166.806,153.507 166.985,153.507 167.164,153.507 167.342,153.189 167.521,152.553 167.7,151.916 167.878,150.962 168.053,150.007 168.23,149.053 168.393,147.462 168.562,144.827 168.739,141.666 168.916,138.119 169.089,134.249 169.268,130.54 169.434,127.154 169.611,124.768 169.79,123.188 169.868,122.64 170.047,122.64 170.218,121.672 170.384,119.737 170.563,117.544 170.724,115.867 170.9,114.674 171.043,113.932 171.221,113.481 171.399,113.61 171.578,113.932 171.757,114.577 171.935,115.222 172.114,115.577 172.293,115.932 172.471,116.19 172.65,116.19 172.829,115.996 173.007,116.19 173.186,116.448 173.364,117.157 173.543,116.835 173.722,116.448 173.9,115.545 174.079,114.255 174.24,113.287 174.368,112.965 174.546,112.933 174.636,112.9 174.814,112.965 174.993,112.965 175.172,112.965 175.237,112.642 175.402,112.32 175.455,112.255 175.63,112.191 175.73,111.997 175.908,111.997 176.087,112.32 176.265,113.61 176.438,116.19 176.607,119.092 176.783,122.317 176.962,125.703 177.132,129.089 177.295,131.669 177.46,133.927 177.638,135.958 177.775,137.151 177.954,137.151 178.133,136.506 178.311,136.184 178.49,135.861 178.669,135.539 178.847,135.217 179.026,134.894 179.205,134.572 179.383,134.217 179.51,133.862 179.689,133.927 179.868,133.927 180.046,134.249 180.225,134.83 180.404,135.539 180.582,136.055 180.761,136.829 180.918,137.474 181.013,137.796 181.162,138.119 181.204,138.183 181.382,138.119 181.561,138.119 181.739,138.119 181.918,138.119 182.097,138.119 182.229,138.441 182.335,138.474 182.49,138.57 182.668,138.441 182.847,138.441 183.026,138.312 183.204,137.893 183.383,137.474 183.562,136.764 183.74,135.861 183.907,134.668 184.06,133.927 184.238,133.153 184.386,132.314 184.52,131.669 184.692,130.992 184.831,130.379 184.992,129.734 185.165,129.121 185.339,128.541 185.515,127.799 185.684,127.154 185.837,126.509 185.998,125.864 186.174,125.51 186.307,124.897 186.467,124.413 186.57,124.123 186.697,123.93 186.872,123.768 186.906,123.607 187.085,123.607 187.259,123.285 187.431,123.027 187.549,122.64 187.724,121.995 187.862,121.35 187.976,120.511 188.105,120.06 188.281,119.35 188.399,118.77 188.574,118.286 188.688,117.802 188.804,117.48 188.983,117.48 189.162,117.48 189.34,117.867 189.519,118.77 189.698,119.737 189.869,120.705 190.005,121.35 190.184,121.704 190.246,121.995 190.424,121.672 190.603,120.769 190.782,119.415 190.95,117.48 191.127,115.545 191.301,114.061 191.454,112.642 191.616,111.353 191.789,110.063 191.964,109.063 192.138,108.482 192.143,108.45 192.322,108.45 192.5,108.45 192.679,108.773 192.858,109.095 193.036,109.418 193.215,109.772 193.393,110.385 193.572,110.708 193.751,111.03 193.93,110.901 194.108,110.708 194.287,110.159 194.465,109.74 194.644,109.095 194.823,108.45 194.99,107.741 195.169,108.095 195.348,108.773 195.526,109.74 195.705,110.708 195.861,111.353 195.995,111.385 196.088,111.449 196.266,111.353 196.425,111.675 196.594,111.804 196.624,111.997 196.803,111.997 196.858,112.352 197.026,112.384 197.205,112.32 197.384,112.32 197.562,112.32 197.741,112.32 197.766,112.417 197.945,112.32 198.123,112.32 198.293,112.642 198.469,112.9 198.646,113.255 198.813,113.61 198.955,113.932 199.115,114.384 199.275,115.222 199.442,116.19 199.618,116.996 199.785,117.802 199.945,118.254 200.037,118.447 200.216,118.447 200.395,118.125 200.573,117.48 200.752,116.545 200.931,115.738 201.102,115.158 201.231,114.577 201.403,114.287 201.486,114.061 201.665,114.319 201.844,114.577 202.022,114.9 202.201,115.674 202.38,116.512 202.538,117.48 202.688,118.125 202.796,118.447 202.967,118.77 203.145,118.77 203.324,118.77 203.503,118.447 203.681,118.125 203.86,117.48 204.039,116.835 204.217,115.867 204.372,115.093 204.542,114.577 204.691,114.19 204.776,114.029 204.946,113.932 205.124,114.255 205.303,114.577 205.481,115.416 205.66,116.319 205.837,117.544 206.015,118.576 206.191,120.06 206.342,121.35 206.517,122.962 206.696,124.445 206.863,125.864 207.039,127.154 207.216,127.993 207.328,128.444 207.467,128.767 207.646,128.767 207.824,128.767 208.003,128.444 208.182,128.122 208.36,127.799 208.539,127.541 208.718,127.154 208.896,126.832 209.075,126.832 209.254,126.832 209.432,126.832 209.611,127.477 209.789,128.025 209.968,128.767 210.128,129.734 210.304,130.702 210.441,131.347 210.567,131.992 210.717,132.637 210.895,133.411 211.004,133.927 211.125,134.249 211.286,134.41 211.325,134.572 211.503,134.572 211.529,134.83 211.707,134.572 211.886,134.249 212.065,134.12 212.243,133.927 212.422,134.217 212.601,134.572 212.752,135.217 212.897,135.861 213.033,136.506 213.158,137.151 213.285,137.796 213.444,138.57 213.567,139.086 213.655,139.409 213.783,139.731 213.909,140.054 214.07,140.28 214.239,140.699 214.415,141.021 214.564,141.344 214.719,141.666 214.835,141.989 214.945,142.311 215.044,142.634 215.17,142.956 215.28,143.343 215.427,143.988 215.591,144.246 215.769,144.246 215.772,144.569 215.951,144.569 216.13,144.246 216.308,144.246 216.487,143.601 216.666,143.279 216.844,142.634 217.023,141.989 217.19,141.344 217.315,141.021 217.453,140.699 217.603,140.376 217.781,140.054 217.798,140.022 217.976,140.054 218.131,139.667 218.272,139.409 218.45,139.409 218.622,138.699 218.753,138.441 218.879,138.119 219.032,137.796 219.21,137.796 219.389,137.796 219.568,137.796 219.746,137.796 219.925,137.796 220.104,138.119 220.282,138.087 220.461,138.119 220.64,138.119 220.818,138.119 220.997,138.119 221.176,138.119 221.354,138.119 221.533,138.119 221.712,138.441 221.89,138.441 222.069,138.506 222.248,138.764 222.426,139.086 222.605,139.409 222.784,139.989 222.962,140.376 223.141,140.699 223.32,140.699 223.498,140.699 223.677,140.699 223.855,140.699 223.987,141.021 224.114,141.344 224.28,141.731 224.419,142.311 224.598,142.311 224.776,142.311 224.955,142.311 225.134,141.989 225.312,141.989 225.491,141.989 225.67,141.989 225.848,141.666 226.027,141.344 226.205,140.763 226.384,139.731 226.523,139.086 226.661,138.409 226.793,137.796 226.966,136.829 227.089,136.055 227.226,135.539 227.314,135.217 227.489,134.701 227.617,134.314 227.669,134.249 227.798,134.185 227.977,134.249 228.156,134.572 228.334,134.894 228.513,135.184 228.691,134.894 228.87,134.83 229.049,134.249 229.141,133.927 229.262,133.54 229.44,133.604 229.462,133.282 229.64,133.282 229.819,133.282 229.998,133.604 230.176,134.249 230.355,135.217 230.534,135.861 230.712,136.184 230.891,136.023 231.07,135.217 231.248,133.927 231.42,132.314 231.569,131.024 231.724,130.057 231.898,129.347 232.017,128.767 232.196,128.767 232.374,129.412 232.553,130.702 232.732,131.669 232.903,132.637 233.012,132.959 233.17,133.282 233.346,133.604 233.514,133.733 233.688,134.249 233.867,134.249 234.016,134.636 234.195,134.249 234.374,133.927 234.552,133.927 234.731,133.927 234.91,133.927 235.088,133.927 235.267,133.669 235.446,133.604 235.624,133.604 235.803,133.604 235.982,133.604 236.16,133.604 236.339,133.604 236.518,133.927 236.696,133.959 236.875,134.249 237.054,134.249 237.232,133.927 237.411,133.282 237.59,132.314 237.768,131.669 237.921,130.96 238.046,130.379 238.206,129.541 238.385,130.057 238.563,129.702 238.714,128.767 238.854,127.477 239.029,123.93 239.204,117.157 239.382,108.45 239.509,104.903 239.687,102.774 239.709,101.678 239.887,103.032 240.066,103.613 240.244,103.29 240.423,103.129 240.602,103.613 240.767,105.225 240.933,107.483 241.1,110.385 241.275,113.287 241.452,115.351 241.599,116.835 241.774,117.996 241.926,119.092 242.102,120.124 242.279,121.382 242.393,122.317 242.496,122.672 242.674,122.64 242.853,121.995 243.032,121.35 243.21,120.382 243.389,120.06 243.568,120.511 243.746,120.608 243.925,120.382 244.104,120.382 244.282,120.382 244.461,120.382 244.639,120.06 244.818,119.931 244.997,120.06 245.175,120.06 245.354,120.382 245.533,120.06 245.711,119.737 245.869,119.092 246.012,118.77 246.185,118.641 246.219,118.447 246.397,118.447 246.558,117.157 246.72,114.158 246.895,111.03 247.07,108.644 247.229,107.483 247.396,106.483 247.574,104.742 247.748,102.581 247.907,101.033 247.986,100.581 248.164,100.71 248.343,101.194 248.522,102.387 248.7,103.29 248.879,103.29 249.057,103.613 249.236,103.29 249.415,103.29 249.593,103.129 249.772,103.29 249.951,103.484 250.056,103.935 250.151,104.258 250.312,104.29 250.444,104.419 250.623,104.258 250.798,104.903 250.957,105.87 251.117,107.483 251.288,110.708 251.463,116.19 251.641,122.317 251.808,126.187 251.883,126.832 252.062,126.187 252.24,124.929 252.38,123.607 252.557,122.607 252.711,121.672 252.865,120.705 253.032,119.415 253.2,118.608 253.217,118.447 253.396,118.77 253.575,118.544 253.753,118.77 253.932,119.092 254.111,119.415 254.289,119.737 254.468,120.221 254.647,120.705 254.825,121.35 254.904,121.672 255.083,121.672 255.261,119.092 255.437,112.642 255.614,104.258 255.791,94.7767 255.968,88.2947 256.072,87.4563 256.249,91.6808 256.428,99.872 256.606,109.966 256.781,119.737 256.95,126.187 257.128,130.025 257.305,132.637 257.478,134.894 257.64,137.151 257.683,137.474 257.862,135.861 258.039,129.702 258.216,119.092 258.392,107.805 258.568,100.065 258.728,97.1631 258.767,97.1309 258.946,98.1306 259.117,101.678 259.295,108.45 259.472,118.125 259.65,128.122 259.828,137.506 260.007,146.181 260.172,150.326 260.351,149.689 260.529,149.053 260.708,148.989 260.887,148.735 261.052,147.144 261.231,141.537 261.408,132.314 261.585,121.672 261.761,113.287 261.934,107.483 262.099,104.258 262.206,103.29 262.384,103.484 262.563,106.193 262.741,111.159 262.919,118.318 263.095,127.154 263.273,135.797 263.452,142.827 263.63,148.894 263.806,154.143 263.983,158.597 264.119,159.87 264.298,158.916 264.476,155.67 264.653,147.144 264.828,139.409 264.918,138.699 265.093,142.311 265.269,146.826 265.448,151.28 265.619,153.825 265.771,155.766 265.807,156.052 265.986,153.825 266.163,146.504 266.34,136.506 266.519,125.703 266.697,115.029 266.874,106.838 267.036,102.645 267.124,101.678 267.303,102 267.477,105.87 267.654,112.32 267.831,121.027 268.006,130.379 268.183,138.764 268.357,144.569 268.527,147.78 268.657,149.053 268.836,150.007 268.912,150.326 269.035,150.644 269.1,150.962 269.218,151.28 269.328,151.598 269.439,151.916 269.534,152.234 269.632,152.553 269.739,152.871 269.918,152.553 270.095,153.825 270.144,154.461 270.323,152.553 270.5,143.601 270.678,130.992 270.853,119.737 271.015,115.577 271.193,120.124 271.367,125.542 271.531,129.412 271.708,131.992 271.885,133.024 271.951,133.12 272.13,132.282 272.307,127.477 272.48,120.801 272.657,116.19 272.831,113.771 272.93,112.9 273.108,113.61 273.287,116.48 273.465,121.027 273.643,127.703 273.811,133.604 273.987,138.764 274.165,143.569 274.344,147.908 274.522,151.916 274.694,154.461 274.843,156.052 274.994,157.007 275.156,157.961 275.311,158.279 275.49,157.325 275.667,150.644 275.843,139.086 276.019,127.799 276.189,123.865 276.368,127.896 276.543,134.572 276.714,141.021 276.89,146.181 277.056,150.007 277.226,154.461 277.395,159.552 277.551,162.733 277.576,163.051 277.755,163.051 277.934,161.143 278.101,159.552 278.275,157.929 278.449,152.871 278.626,144.246 278.799,136.506 278.961,132.959 279.019,132.637 279.197,135.217 279.373,141.021 279.544,147.462 279.717,153.189 279.883,156.689 280.03,158.279 280.161,158.916 280.265,159.234 280.443,159.234 280.537,159.361 280.715,159.202 280.894,158.916 281.073,158.916 281.251,158.279 281.43,157.643 281.609,156.689 281.776,155.893 281.949,154.461 282.127,150.135 282.301,142.956 282.471,137.796 282.574,136.506 282.753,138.119 282.931,144.794 283.103,152.234 283.272,157.325 283.416,159.552 283.467,159.87 283.645,159.234 283.823,154.461 283.995,147.462 284.168,141.666 284.311,139.989 284.49,141.021 284.667,144.246 284.842,149.053 285.018,154.461 285.196,157.643 285.228,157.961 285.406,157.961 285.585,157.961 285.758,159.552 285.927,163.051 286.102,168.142 286.279,173.232 286.394,175.141 286.46,175.459 286.639,173.868 286.806,170.051 286.973,165.915 287.136,161.461 287.299,159.234 287.477,157.325 287.599,157.007 287.737,156.37 287.907,155.607 288.051,155.098 288.218,153.825 288.388,149.689 288.562,142.634 288.734,135.539 288.898,131.669 288.951,131.218 289.13,132.637 289.306,137.151 289.48,142.311 289.654,147.144 289.823,151.28 289.991,155.734 290.165,160.188 290.332,164.324 290.481,166.551 290.659,166.233 290.838,163.433 291.011,159.552 291.187,152.234 291.365,142.311 291.542,133.604 291.703,129.154 291.748,129.089 291.927,130.057 292.099,134.249 292.276,141.666 292.455,149.626 292.633,155.67 292.792,158.279 292.956,159.361 293.135,158.916 293.313,157.007 293.492,151.376 293.668,141.989 293.845,131.218 294.024,121.575 294.202,115.416 294.338,113.803 294.516,116.835 294.691,123.93 294.869,131.992 295.047,139.086 295.225,143.762 295.404,146.665 295.519,147.78 295.698,147.462 295.877,146.181 296.055,144.891 296.219,143.924 296.259,143.859 296.438,144.569 296.617,143.924 296.795,138.732 296.972,130.702 297.134,127.154 297.234,126.767 297.413,129.412 297.587,134.249 297.759,139.086 297.934,143.279 298.099,146.181 298.277,148.003 298.431,149.689 298.61,151.853 298.784,153.189 298.875,153.571 299.054,152.871 299.233,151.598 299.411,151.598 299.59,150.517 299.6,150.23 299.779,150.262 299.954,149.689 300.129,148.735 300.3,144.891 300.478,137.151 300.656,133.572 300.828,136.829 300.997,141.989 301.156,144.569 301.283,145.536 301.43,146.181 301.579,146.504 301.758,146.504 301.936,146.504 302.115,146.504 302.294,146.504 302.472,146.181 302.651,146.504 302.829,146.921 303.008,147.717 303.09,148.099 303.241,148.48 303.297,148.735 303.426,149.053 303.605,148.735 303.784,144.698 303.955,138.764 304.123,134.249 304.196,133.604 304.374,135.861 304.553,140.312 304.73,146.181 304.893,149.689 305.056,151.026 305.235,150.962 305.413,150.962 305.592,150.962 305.771,150.962 305.949,150.962 306.128,150.962 306.307,150.962 306.485,150.962 306.664,150.644 306.843,150.326 307.021,150.007 307.2,150.007 307.379,150.007 307.557,150.326 307.736,150.326 307.915,150.326 308.093,150.294 308.272,150.644 308.451,150.644 308.629,150.326 308.808,150.326 308.987,150.007 309.146,151.28 309.19,151.598 309.368,150.326 309.543,148.417 309.594,148.099 309.772,148.099 309.951,148.417 310.13,149.371 310.308,149.689 310.487,150.453 310.666,150.962 310.817,151.598 310.995,151.598 311.174,151.598 311.353,150.962 311.531,150.262 311.71,150.007 311.889,149.689 312.067,149.371 312.227,148.417 312.349,147.78 312.482,147.144 312.569,146.826 312.728,146.181 312.793,145.826 312.972,145.859 313.151,146.181 313.329,146.826 313.502,144.569 313.666,142.311 313.831,141.537 313.951,141.344 314.129,140.667 314.298,139.667 314.41,139.086 314.584,138.732 314.613,138.635 314.791,139.086 314.97,139.731 315.149,140.699 315.327,141.344 315.506,141.666 315.632,141.989 315.739,142.311 315.899,142.634 316.077,142.634 316.256,142.634 316.435,142.634 316.613,142.634 316.745,143.279 316.914,143.924 317.073,144.569 317.198,145.214 317.345,145.859 317.483,146.504 317.656,148.099 317.832,150.962 318.004,154.78 318.172,157.325 318.283,157.961 318.461,157.929 318.64,157.007 318.819,156.37 318.983,154.461 319.157,150.007 319.331,144.246 319.446,142.956 319.625,145.859 319.801,150.644 319.951,153.571 320.13,152.553 320.308,147.335 320.485,140.699 320.651,135.861 320.83,134.152 320.962,133.572 321.122,133.54 321.165,133.282 321.344,133.282 321.365,133.249 321.544,133.282 321.633,133.217 321.811,133.282 321.99,133.282 322.039,132.927 322.196,132.637 322.375,132.637 322.432,132.314 322.611,132.314 322.774,131.992 322.818,131.927 322.997,131.992 323.07,131.669 323.225,131.54 323.397,131.024 323.566,130.379 323.699,129.412 323.878,129.734 324.056,131.992 324.228,135.539 324.338,137.151 324.517,136.829 324.685,133.927 324.861,131.024 325.028,128.767 325.199,127.154 325.264,126.767 325.442,126.832 325.621,127.283 325.8,127.799 325.978,127.799 326.157,127.477 326.336,126.832 326.511,126.703 326.69,127.154 326.868,127.477 327.047,127.799 327.226,128.122 327.404,128.38 327.583,128.154 327.762,128.38 327.94,128.444 328.119,128.444 328.298,128.122 328.476,127.799 328.655,127.154 328.834,126.864 329.012,126.864 329.191,127.154 329.37,127.477 329.548,127.799 329.727,128.444 329.906,129.089 330.084,129.734 330.218,130.379 330.355,130.702 330.534,130.702 330.712,130.379 330.891,130.057 331.07,129.089 331.23,127.154 331.408,124.542 331.587,122.285 331.765,119.963 331.943,118.286 332.07,117.48 332.167,117.157 332.346,117.157 332.524,117.867 332.703,119.415 332.879,121.35 333.058,123.607 333.224,125.542 333.378,127.154 333.551,128.702 333.669,129.412 333.841,130.057 333.945,130.379 334.021,130.444 334.2,129.734 334.369,130.702 334.547,136.184 334.724,148.417 334.902,160.729 335.079,165.597 335.256,162.097 335.434,153.062 335.609,143.601 335.784,133.927 335.961,126.703 336.138,121.995 336.306,118.447 336.476,115.545 336.653,112.062 336.82,110.063 336.984,109.031 337.124,108.45 337.227,108.128 337.405,107.934 337.529,107.741 337.7,107.676 337.879,107.741 338.022,107.45 338.122,107.16 338.301,106.741 338.463,106.064 338.586,105.87 338.652,105.87 338.831,106.193 339.009,106.838 339.188,108.128 339.364,109.482 339.513,110.708 339.669,111.675 339.845,112.417 340.018,113.255 340.135,113.61 340.264,113.932 340.334,114.19 340.46,114.255 340.638,114.513 340.651,114.577 340.83,114.577 340.905,114.9 341.027,114.964 341.192,114.997 341.251,115.222 341.429,115.222 341.602,115.255 341.781,114.9 341.959,114.9 342.138,115.222 342.305,116.19 342.477,117.802 342.647,120.06 342.813,122.64 342.989,125.51 343.153,128.122 343.329,130.54 343.493,132.637 343.664,134.249 343.81,135.217 343.973,135.861 344.13,136.506 344.306,136.958 344.456,137.474 344.635,137.474 344.814,137.151 344.992,137.151 345.171,136.829 345.35,136.829 345.528,137.151 345.707,136.829 345.885,136.506 346.064,136.184 346.243,135.861 346.421,135.217 346.6,134.572 346.771,133.604 346.91,132.959 346.996,132.637 347.167,132.25 347.345,132.314 347.524,132.637 347.703,132.314 347.826,131.669 347.97,131.54 348.143,131.347 348.318,129.089 348.48,125.219 348.658,120.447 348.832,115.867 349.01,111.514 349.177,107.741 349.348,105.225 349.514,102.645 349.692,99.614 349.87,96.8406 350.048,93.5835 350.215,92.0033 350.388,91.3584 350.567,91.3584 350.745,92.6483 350.924,95.8409 351.102,99.6462 351.274,103.29 351.448,106.193 351.607,108.128 351.784,110.063 351.962,111.933 352.132,113.61 352.31,115.222 352.485,116.996 352.663,119.124 352.835,121.995 353.009,124.897 353.184,127.799 353.358,130.379 353.52,132.637 353.683,134.572 353.832,135.861 353.971,136.829 354.143,137.796 354.321,138.57 354.5,139.635 354.67,140.699 354.824,141.666 354.937,142.311 355.074,142.956 355.222,143.601 355.377,144.246 355.555,144.794 355.731,145.278 355.759,145.536 355.916,145.859 356.094,145.859 356.273,143.601 356.452,137.925 356.626,130.057 356.804,122.285 356.979,114.577 357.131,113.61 357.252,113.287 357.431,114.19 357.61,115.545 357.78,117.802 357.944,120.06 358.121,122.962 358.297,125.897 358.476,129.38 358.653,132.637 358.83,135.539 358.992,137.796 359.158,139.731 359.299,141.021 359.463,142.311 359.619,144.246 359.785,146.504 359.939,148.417 360.084,150.007 360.252,151.28 360.381,151.916 360.528,152.553 360.614,152.871 360.751,153.189 360.929,153.189 361.091,153.571 361.269,153.507 361.448,153.507 361.627,153.507 361.805,153.507 361.984,153.507 362.163,153.507 362.341,153.507 362.52,153.507 362.699,153.507 362.877,153.189 363.056,152.871 363.234,152.234 363.413,152.234 363.592,151.916 363.77,151.916 363.949,151.916 364.128,152.553 364.306,152.871 364.485,152.871 364.664,152.871 364.831,150.294 365.006,145.859 365.179,140.054 365.351,134.572 365.528,129.799 365.707,127.025 365.883,125.671 365.893,125.542 366.072,125.864 366.25,126.187 366.429,126.187 366.608,125.542 366.779,124.897 366.947,123.93 367.124,122.801 367.296,122.317 367.475,122.414 367.653,122.64 367.832,122.962 368.01,123.285 368.189,122.962 368.354,121.608 368.532,120.608 368.682,119.737 368.855,119.157 368.872,119.092 369.051,119.092 369.161,118.963 369.34,119.092 369.518,119.092 369.697,119.189 369.876,119.286 370.054,119.737 370.233,120.705 370.409,122.317 370.578,123.93 370.755,126.122 370.925,129.734 371.101,134.572 371.27,139.086 371.439,141.666 371.535,142.311 371.714,141.666 371.892,139.731 372.069,137.151 372.248,135.152 372.426,133.282 372.603,132.282 372.768,131.669 372.941,131.605 372.964,131.347 373.143,131.992 373.315,134.572 373.489,138.764 373.66,143.924 373.808,146.826 373.857,147.144 374.036,145.536 374.214,141.247 374.392,133.507 374.571,122.317 374.739,115.545 374.792,114.9 374.971,115.222 375.149,116.512 375.328,116.19 375.507,114.9 375.572,114.577 375.751,115.738 375.929,119.511 376.103,123.607 376.281,126.509 376.431,128.122 376.595,129.412 376.773,130.186 376.886,130.702 377.065,130.057 377.236,125.542 377.413,117.48 377.59,109.095 377.764,103.29 377.937,99.4205 378.024,98.453 378.203,100.388 378.376,105.548 378.552,111.997 378.731,118.447 378.907,123.607 379.081,127.154 379.243,129.412 379.42,131.347 379.57,132.637 379.685,133.282 379.826,133.604 379.969,133.733 380.148,133.604 380.266,133.83 380.417,133.927 380.595,133.927 380.774,133.927 380.953,133.604 381.131,133.282 381.31,132.959 381.488,132.379 381.667,131.282 381.842,125.542 382.02,116.383 382.185,111.675 382.23,111.449 382.4,114.9 382.578,120.705 382.756,128.251 382.934,137.474 383.11,147.144 383.28,153.571 383.351,154.525 383.53,152.553 383.708,146.6 383.886,137.893 384.063,127.477 384.241,117.867 384.413,109.74 384.591,103.806 384.749,101.323 384.927,102.968 385.104,106.838 385.279,111.675 385.452,117.157 385.628,122.962 385.799,128.122 385.974,131.669 386.079,132.637 386.257,132.637 386.436,131.411 386.611,127.477 386.79,120.898 386.957,116.19 387.049,114.9 387.228,116.512 387.402,121.027 387.575,126.187 387.753,129.734 387.929,131.508 388.096,132.604 388.112,132.637 388.291,130.379 388.469,123.542 388.641,116.19 388.814,110.385 388.988,105.225 389.166,100.936 389.33,97.4856 389.508,95.4217 389.52,94.9702 389.698,95.8732 389.871,99.4205 390.049,105.87 390.222,112.642 390.394,118.447 390.569,124.897 390.742,131.669 390.898,134.894 390.957,135.217 391.136,134.12 391.315,133.282 391.493,132.637 391.67,131.347 391.848,126.8 392.024,115.867 392.201,102 392.336,95.4861 392.512,99.4205 392.689,109.095 392.864,116.835 393.039,123.607 393.213,127.799 393.38,130.702 393.558,132.766 393.692,133.927 393.871,131.669 394.047,122.962 394.224,110.063 394.402,98.453 394.506,96.3891 394.681,102 394.859,112.965 395.032,120.705 395.204,125.864 395.378,130.379 395.555,135.346 395.732,139.119 395.798,140.054 395.976,138.925 396.155,132.153 396.332,124.897 396.433,123.672 396.611,128.251 396.782,134.894 396.942,138.764 397.048,139.764 397.227,137.732 397.403,129.734 397.58,117.48 397.758,104.58 397.936,94.1962 398.108,87.166 398.129,86.8436 398.307,88.7785 398.483,96.1956 398.66,105.225 398.836,114.255 399.007,121.027 399.173,125.219 399.336,127.477 399.513,128.799 399.687,129.734 399.865,129.734 400.044,129.702 400.223,129.734 400.401,129.734 400.549,130.379 400.659,130.702 400.837,130.702 401.016,130.702 401.118,131.024 401.212,131.347 401.375,131.992 401.541,134.249 401.72,136.506 401.769,136.829 401.948,136.506 402.127,135.217 402.305,133.959 402.464,132.314 402.642,131.024 402.821,126.993 402.993,119.737 403.098,117.48 403.276,120.576 403.452,128.444 403.617,132.959 403.753,133.927 403.932,133.604 404.11,129.734 404.288,121.027 404.464,111.353 404.639,103.935 404.815,100.001 404.858,99.743 405.037,100.388 405.215,101.871 405.394,105.225 405.568,111.675 405.745,118.125 405.924,121.414 406.102,123.414 406.263,125.542 406.43,127.799 406.596,130.379 406.775,132.959 406.949,134.249 407.128,133.927 407.307,133.282 407.485,133.604 407.664,133.927 407.843,133.927 408.021,133.636 408.2,133.282 408.379,132.959 408.557,132.637 408.736,132.637 408.915,132.637 409.093,133.282 409.272,134.056 409.432,134.572 409.61,134.572 409.659,134.894 409.837,134.83 410.016,134.733 410.195,134.894 410.373,134.572 410.552,134.249 410.731,133.927 410.909,133.927 411.088,133.927 411.267,134.12 411.445,133.927 411.624,133.282 411.803,132.314 411.949,131.024 412.099,129.541 412.278,129.186 412.397,128.767 412.575,128.767 412.754,129.089 412.933,129.734 413.111,130.702 413.288,132.282 413.46,133.927 413.633,135.539 413.804,136.829 413.976,137.474 414.154,137.474 414.181,137.796 414.36,137.796 414.493,138.119 414.661,138.764 414.826,139.731 414.974,140.699 415.12,141.989 415.287,143.279 415.463,144.891 415.623,146.181 415.792,147.78 415.97,149.467 416.128,151.598 416.281,153.507 416.441,155.416 416.605,157.325 416.78,159.234 416.957,161.143 417.134,163.051 417.281,164.642 417.419,165.597 417.482,165.915 417.615,166.233 417.794,166.233 417.972,166.233 417.978,166.296 418.157,166.233 418.326,166.869 418.482,167.505 418.661,168.364 418.809,169.414 418.948,170.369 419.127,171.546 419.293,172.914 419.457,174.186 419.621,175.459 419.782,176.732 419.954,178.004 420.118,179.277 420.296,180.549 420.442,181.504 420.584,182.458 420.73,183.413 420.882,184.367 421.038,185.322 421.209,186.276 421.372,187.23 421.539,188.185 421.667,188.821 421.799,189.457 421.93,190.094 422.057,190.73 422.189,191.366 422.313,192.003 422.449,192.639 422.585,193.275 422.725,193.911 422.86,194.548 422.977,195.248 423.125,195.82 423.261,196.457 423.438,197.411 423.583,198.365 423.754,199.638 423.906,200.911 424.078,202.501 424.239,204.092 424.394,205.683 424.569,207.592 424.742,209.5 424.897,211.091 425.055,212.682 425.217,214.273 425.389,216.182 425.551,217.772 425.71,219.363 425.87,220.954 426.027,222.544 426.185,224.135 426.364,225.885 426.532,228.307 426.698,230.894 426.87,233.804 427.032,236.714 427.211,239.883 427.387,242.858 427.554,245.768 427.727,248.678 427.898,251.588 428.071,254.498 428.245,257.214 428.418,259.995 428.596,262.484 428.764,264.845 428.942,266.979 429.09,268.725 429.251,270.341 429.424,272.281 429.576,273.963 429.72,275.192 429.897,276.485 430.072,277.778 430.239,279.072 430.402,280.688 430.573,282.628 430.74,284.568 430.916,286.508 431.082,288.125 431.237,289.418 431.397,290.712 431.542,291.682 431.695,292.975 431.861,294.268 432.039,295.562 432.186,296.532 432.332,297.502 432.503,298.795 432.68,300.735 432.85,302.999 433.02,305.58 433.184,308.125 433.358,310.989 433.531,313.852 433.698,316.715 433.863,319.579 434.031,322.442 434.21,325.624 434.386,328.487 434.562,331.287 434.741,334.15 434.91,337.077 435.079,339.94 435.253,342.804 435.431,345.476 435.6,348.212 435.779,350.567 435.946,352.984 436.107,354.893 436.262,356.484 436.409,357.757 436.581,359.029 436.753,359.984 436.891,360.62 437.057,361.256 437.16,361.574 437.304,361.893 437.466,362.211 437.634,362.465 437.785,362.847 437.963,363.038 437.968,363.165 438.147,363.165 438.325,362.847 438.504,362.529 438.683,362.211 438.861,361.988 439.04,361.893 439.219,361.893 439.397,361.893 439.576,361.765 439.755,361.893 439.933,361.447 440.112,361.288 440.291,361.256 440.469,360.938 440.648,360.62 440.826,360.62 441.005,360.556 441.184,360.62 441.362,360.938 441.541,360.938 441.72,361.256 441.898,361.256 442.077,361.256 442.256,361.256 442.434,361.256 442.613,360.938 442.792,360.938 442.97,360.62 443.149,360.556 443.328,360.238 443.391,359.857 443.539,359.857 443.71,359.634 443.875,358.966 444.052,358.838 444.105,358.711 444.284,359.029 444.462,359.347 444.641,359.347 444.82,359.029 444.998,358.743 445.177,358.711 445.199,358.648 445.378,359.029 445.557,359.347 445.735,359.666 445.914,359.984 446.093,360.238 446.271,360.588 446.45,360.62 446.629,360.938 446.807,361.193 446.986,361.256 447.164,361.574 447.202,361.893 447.381,361.893 447.43,362.211 447.609,362.211 447.76,362.465 447.811,362.529 447.99,362.211 448.168,361.638 448.347,361.256 448.526,360.938 448.704,360.938 448.883,360.938 449.062,360.938 449.24,361.256 449.419,361.256 449.597,361.256 449.776,361.256 449.955,361.256 450.133,361.256 450.312,361.256 450.491,360.938 450.669,360.938 450.848,360.556 451.027,359.984 451.205,359.666 451.33,358.966 451.48,358.393 451.652,357.693 451.758,357.439 451.878,357.12 451.984,356.675 452.119,356.484 452.298,356.484 452.476,356.739 452.655,356.802 452.834,357.12 453.012,357.439 453.191,357.757 453.37,358.011 453.548,358.075 453.727,358.075 453.906,358.075 454.084,358.393 454.263,359.284 454.415,360.62 454.582,362.211 454.755,364.12 454.93,366.029 455.087,367.619 455.263,369.083 455.401,370.165 455.569,371.119 455.732,372.073 455.858,372.71 456.021,373.664 456.176,374.937 456.353,376.528 456.494,377.8 456.652,379.073 456.803,380.027 456.977,380.982 457.122,381.618 457.281,382.254 457.395,382.572 457.508,382.891 457.636,383.209 457.815,383.209 457.821,383.527 458,383.527 458.178,383.527 458.357,383.527 458.536,383.527 458.714,383.527 458.893,383.527 459.072,383.527 459.25,383.527 459.429,383.527 459.608,383.145 459.786,382.254 459.965,381.3 460.144,380.663 460.306,379.836 460.485,380.027 460.651,379.709 460.826,379.327 460.924,379.073 461.076,378.436 461.247,375.573 461.423,370.419 461.589,366.029 461.759,362.815 461.906,361.256 462.028,360.62 462.178,360.206 462.353,360.079 462.459,359.92 462.638,360.111 462.658,359.857 462.836,360.016 463.01,359.666 463.188,359.666 463.272,359.347 463.45,359.347 463.629,359.347 463.808,359.347 463.986,359.347 464.111,359.22 464.289,359.347 464.461,358.87 464.475,358.711 464.654,358.711 464.791,358.393 464.931,358.075 465.109,357.725 465.275,357.375 465.453,357.152 465.609,357.089 465.788,357.439 465.967,358.075 466.145,359.507 466.31,361.574 466.488,363.547 466.653,365.71 466.822,367.619 467.001,369.306 467.158,371.119 467.335,372.901 467.502,374.619 467.677,376.209 467.846,377.8 467.996,379.073 468.165,380.663 468.329,381.713 468.464,382.572 468.622,383.209 468.798,383.527 468.976,383.527 469.155,383.527 469.334,383.527 469.512,383.527 469.691,383.527 469.87,383.527 470.048,383.527 470.227,383.527 470.406,383.527 470.584,383.527 470.763,383.527 470.942,383.527 471.12,383.527 471.299,383.527 471.478,383.527 471.656,383.527 471.835,383.527 472.013,383.527 472.192,383.527 472.371,383.527 472.549,383.527 472.728,383.527 472.907,383.527 473.085,383.527 473.264,383.527 473.443,383.527 473.621,383.527 473.8,383.527 473.979,383.527 474.157,383.527 474.336,383.527 474.515,383.527 474.693,383.527 474.872,383.527 475.05,383.527 475.229,383.527 475.408,383.527 475.586,383.527 475.765,383.527 475.944,383.527 476.122,383.527 476.301,383.527 476.48,383.527 476.658,383.527 476.837,383.527 477.016,383.527 477.194,383.527 477.373,383.209 477.552,383.209 477.73,383.209 477.909,383.209 478.088,383.209 478.266,383.209 478.445,383.209 478.623,383.209 478.802,383.209 478.981,383.209 479.16,383.209 479.338,383.209 479.517,383.209 479.695,383.336 479.874,383.209 480.053,383.177 480.231,383.209 480.41,383.209 480.589,383.209 480.767,383.209 480.946,383.209 481.125,383.209 481.303,383.209 481.482,383.209 481.661,383.209 481.839,383.209 482.018,383.209 482.197,383.209 482.375,383.209 482.554,383.209 482.733,383.209 482.911,383.209 483.09,383.209 483.269,383.209 483.447,383.209 483.626,383.209 483.805,383.209 483.983,383.209 484.162,383.209 484.341,383.209 484.519,383.209 484.698,383.209 484.877,383.209 485.055,383.209 485.234,383.209 485.413,383.209 485.591,383.209 485.77,383.209 485.949,383.209 486.127,383.209 486.306,383.209 486.485,383.209 486.663,383.209 486.842,383.209 487.02,383.209 487.199,383.209 487.378,383.209 487.556,383.209 487.735,383.209 487.914,383.209 488.092,383.209 488.271,383.209 488.45,383.209 488.628,383.209 488.807,383.209 488.986,383.209 489.164,383.209 489.343,383.209 489.522,383.209 489.7,383.209 489.879,383.209 490.057,383.209 490.236,383.209 490.415,383.209 490.593,383.209 490.772,383.209 490.951,383.209 491.129,383.209 491.308,383.209 491.487,383.209 491.665,383.209 491.844,383.209 492.023,383.209 492.201,383.209 492.38,383.209 492.559,383.209 492.737,383.209 492.916,383.209 493.095,383.209 493.273,383.209 493.452,383.209 493.631,383.209 493.809,383.209 493.988,383.209 494.167,383.209 494.345,383.209 494.524,383.209 494.703,383.209 494.881,383.209 495.06,383.209 495.239,383.209 495.417,383.209 495.596,383.209 495.775,383.209 495.953,383.209 496.132,383.209" stroke-linecap="butt"/>
  </g>
 </g>
</svg>
