<?xml version='1.0' encoding='UTF-8' standalone='no'?>
<svg xmlns="http://www.w3.org/2000/svg" xmlns:xlink="http://www.w3.org/1999/xlink" viewBox="0 0 576 432" height="432pt" width="576pt">
 <title>gl2ps_renderer figure</title>
 <desc>
Creator: GL2PS 1.4.0, (C) 1999-2017 C. Geuzaine
For: Octave
CreationDate: Fri Jul 02 17:01:47 2021
</desc>
 <defs/>
 <polygon fill="#ffffff" points="0,0 576,0 576,432 0,432"/>
 <g>
  <polygon fill="#ffffff" shape-rendering="crispEdges" points="0,432 576,432 576,0 0,0"/>
  <clipPath id="cp00576432">
   <polygon points="0,432 576,432 576,0 0,0"/>
  </clipPath>
  <g clip-path="url(#cp00576432)">
   <polygon fill="#ffffff" shape-rendering="crispEdges" points="74.88,384.48 521.28,384.48 521.28,32.4 74.88,32.4"/>
   <polyline fill="none" stroke-dasharray="16,0" stroke-linecap="butt" stroke-opacity="0.15" stroke-linejoin="miter" stroke="#262626" points="74.88,384.48 74.88,32.4" stroke-width="0.5"/>
   <polyline fill="none" stroke-dasharray="16,0" stroke-linecap="butt" stroke-opacity="0.15" stroke-linejoin="miter" stroke="#262626" points="164.16,384.48 164.16,32.4" stroke-width="0.5"/>
   <polyline fill="none" stroke-dasharray="16,0" stroke-linecap="butt" stroke-opacity="0.15" stroke-linejoin="miter" stroke="#262626" points="253.44,384.48 253.44,32.4" stroke-width="0.5"/>
   <polyline fill="none" stroke-dasharray="16,0" stroke-linecap="butt" stroke-opacity="0.15" stroke-linejoin="miter" stroke="#262626" points="342.72,384.48 342.72,32.4" stroke-width="0.5"/>
   <polyline fill="none" stroke-dasharray="16,0" stroke-linecap="butt" stroke-opacity="0.15" stroke-linejoin="miter" stroke="#262626" points="432,384.48 432,32.4" stroke-width="0.5"/>
   <polyline fill="none" stroke-dasharray="16,0" stroke-linecap="butt" stroke-opacity="0.15" stroke-linejoin="miter" stroke="#262626" points="521.28,384.48 521.28,32.4" stroke-width="0.5"/>
   <polyline fill="none" stroke-linecap="butt" stroke-linejoin="miter" stroke="#262626" points="74.88,384.48 74.88,380.015" stroke-width="0.5"/>
   <polyline fill="none" stroke-linecap="butt" stroke-linejoin="miter" stroke="#262626" points="74.88,32.4 74.88,36.865" stroke-width="0.5"/>
   <polyline fill="none" stroke-linecap="butt" stroke-linejoin="miter" stroke="#262626" points="164.16,384.48 164.16,380.015" stroke-width="0.5"/>
   <polyline fill="none" stroke-linecap="butt" stroke-linejoin="miter" stroke="#262626" points="164.16,32.4 164.16,36.865" stroke-width="0.5"/>
   <polyline fill="none" stroke-linecap="butt" stroke-linejoin="miter" stroke="#262626" points="253.44,384.48 253.44,380.015" stroke-width="0.5"/>
   <polyline fill="none" stroke-linecap="butt" stroke-linejoin="miter" stroke="#262626" points="253.44,32.4 253.44,36.865" stroke-width="0.5"/>
   <polyline fill="none" stroke-linecap="butt" stroke-linejoin="miter" stroke="#262626" points="342.72,384.48 342.72,380.015" stroke-width="0.5"/>
   <polyline fill="none" stroke-linecap="butt" stroke-linejoin="miter" stroke="#262626" points="342.72,32.4 342.72,36.865" stroke-width="0.5"/>
   <polyline fill="none" stroke-linecap="butt" stroke-linejoin="miter" stroke="#262626" points="432,384.48 432,380.015" stroke-width="0.5"/>
   <polyline fill="none" stroke-linecap="butt" stroke-linejoin="miter" stroke="#262626" points="432,32.4 432,36.865" stroke-width="0.5"/>
   <polyline fill="none" stroke-linecap="butt" stroke-linejoin="miter" stroke="#262626" points="521.28,384.48 521.28,380.015" stroke-width="0.5"/>
   <polyline fill="none" stroke-linecap="butt" stroke-linejoin="miter" stroke="#262626" points="521.28,32.4 521.28,36.865" stroke-width="0.5"/>
   <text font-style="normal" xml:space="preserve" font-family="FreeSans" font-weight="normal" font-size="10" transform="translate(71.88,399.982) rotate(-0,3,-8)">
    <tspan fill="rgb(38,38,38)" x="0 " y="-0">0</tspan>
   </text>
   <text font-style="normal" xml:space="preserve" font-family="FreeSans" font-weight="normal" font-size="10" transform="translate(161.16,399.982) rotate(-0,3,-8)">
    <tspan fill="rgb(38,38,38)" x="0 " y="-0">5</tspan>
   </text>
   <text font-style="normal" xml:space="preserve" font-family="FreeSans" font-weight="normal" font-size="10" transform="translate(247.44,399.982) rotate(-0,6,-8)">
    <tspan fill="rgb(38,38,38)" x="0 6 " y="-0">10</tspan>
   </text>
   <text font-style="normal" xml:space="preserve" font-family="FreeSans" font-weight="normal" font-size="10" transform="translate(336.72,399.982) rotate(-0,6,-8)">
    <tspan fill="rgb(38,38,38)" x="0 6 " y="-0">15</tspan>
   </text>
   <text font-style="normal" xml:space="preserve" font-family="FreeSans" font-weight="normal" font-size="10" transform="translate(426,399.982) rotate(-0,6,-8)">
    <tspan fill="rgb(38,38,38)" x="0 6 " y="-0">20</tspan>
   </text>
   <text font-style="normal" xml:space="preserve" font-family="FreeSans" font-weight="normal" font-size="10" transform="translate(515.28,399.982) rotate(-0,6,-8)">
    <tspan fill="rgb(38,38,38)" x="0 6 " y="-0">25</tspan>
   </text>
   <polyline fill="none" stroke-dasharray="16,0" stroke-linecap="butt" stroke-opacity="0.15" stroke-linejoin="miter" stroke="#262626" points="74.88,384.48 521.28,384.48" stroke-width="0.5"/>
   <polyline fill="none" stroke-dasharray="16,0" stroke-linecap="butt" stroke-opacity="0.15" stroke-linejoin="miter" stroke="#262626" points="74.88,296.46 521.28,296.46" stroke-width="0.5"/>
   <polyline fill="none" stroke-dasharray="16,0" stroke-linecap="butt" stroke-opacity="0.15" stroke-linejoin="miter" stroke="#262626" points="74.88,208.44 521.28,208.44" stroke-width="0.5"/>
   <polyline fill="none" stroke-dasharray="16,0" stroke-linecap="butt" stroke-opacity="0.15" stroke-linejoin="miter" stroke="#262626" points="74.88,120.42 521.28,120.42" stroke-width="0.5"/>
   <polyline fill="none" stroke-dasharray="16,0" stroke-linecap="butt" stroke-opacity="0.15" stroke-linejoin="miter" stroke="#262626" points="74.88,32.4 521.28,32.4" stroke-width="0.5"/>
   <polyline fill="none" stroke-linecap="butt" stroke-linejoin="miter" stroke="#262626" points="74.88,384.48 79.348,384.48" stroke-width="0.5"/>
   <polyline fill="none" stroke-linecap="butt" stroke-linejoin="miter" stroke="#262626" points="521.28,384.48 516.812,384.48" stroke-width="0.5"/>
   <polyline fill="none" stroke-linecap="butt" stroke-linejoin="miter" stroke="#262626" points="74.88,296.46 79.348,296.46" stroke-width="0.5"/>
   <polyline fill="none" stroke-linecap="butt" stroke-linejoin="miter" stroke="#262626" points="521.28,296.46 516.812,296.46" stroke-width="0.5"/>
   <polyline fill="none" stroke-linecap="butt" stroke-linejoin="miter" stroke="#262626" points="74.88,208.44 79.348,208.44" stroke-width="0.5"/>
   <polyline fill="none" stroke-linecap="butt" stroke-linejoin="miter" stroke="#262626" points="521.28,208.44 516.812,208.44" stroke-width="0.5"/>
   <polyline fill="none" stroke-linecap="butt" stroke-linejoin="miter" stroke="#262626" points="74.88,120.42 79.348,120.42" stroke-width="0.5"/>
   <polyline fill="none" stroke-linecap="butt" stroke-linejoin="miter" stroke="#262626" points="521.28,120.42 516.812,120.42" stroke-width="0.5"/>
   <polyline fill="none" stroke-linecap="butt" stroke-linejoin="miter" stroke="#262626" points="74.88,32.4 79.348,32.4" stroke-width="0.5"/>
   <polyline fill="none" stroke-linecap="butt" stroke-linejoin="miter" stroke="#262626" points="521.28,32.4 516.812,32.4" stroke-width="0.5"/>
   <text font-style="normal" xml:space="preserve" font-family="FreeSans" font-weight="normal" font-size="10" transform="translate(63.8755,388.48) rotate(-0,6,-4)">
    <tspan fill="rgb(38,38,38)" x="0 " y="-0">0</tspan>
   </text>
   <text font-style="normal" xml:space="preserve" font-family="FreeSans" font-weight="normal" font-size="10" transform="translate(63.8755,300.46) rotate(-0,6,-4)">
    <tspan fill="rgb(38,38,38)" x="0 " y="-0">5</tspan>
   </text>
   <text font-style="normal" xml:space="preserve" font-family="FreeSans" font-weight="normal" font-size="10" transform="translate(57.8755,212.44) rotate(-0,12,-4)">
    <tspan fill="rgb(38,38,38)" x="0 6 " y="-0">10</tspan>
   </text>
   <text font-style="normal" xml:space="preserve" font-family="FreeSans" font-weight="normal" font-size="10" transform="translate(57.8755,124.42) rotate(-0,12,-4)">
    <tspan fill="rgb(38,38,38)" x="0 6 " y="-0">15</tspan>
   </text>
   <text font-style="normal" xml:space="preserve" font-family="FreeSans" font-weight="normal" font-size="10" transform="translate(57.8755,36.4) rotate(-0,12,-4)">
    <tspan fill="rgb(38,38,38)" x="0 6 " y="-0">20</tspan>
   </text>
   <polyline fill="none" stroke-dasharray="16,0" stroke-linecap="square" stroke-linejoin="miter" stroke="#262626" points="74.88,384.48 521.28,384.48" stroke-width="0.5"/>
   <polyline fill="none" stroke-dasharray="16,0" stroke-linecap="square" stroke-linejoin="miter" stroke="#262626" points="74.88,32.4 521.28,32.4" stroke-width="0.5"/>
   <polyline fill="none" stroke-dasharray="16,0" stroke-linecap="square" stroke-linejoin="miter" stroke="#262626" points="74.88,384.48 74.88,32.4" stroke-width="0.5"/>
   <polyline fill="none" stroke-dasharray="16,0" stroke-linecap="square" stroke-linejoin="miter" stroke="#262626" points="521.28,384.48 521.28,32.4" stroke-width="0.5"/>
   <text font-style="normal" xml:space="preserve" font-family="FreeSans" font-weight="normal" font-size="11" transform="translate(258.58,416.982) rotate(-0,39.5,-12)">
    <tspan fill="rgb(38,38,38)" x="0 7 11 17 23 29 35 41 47 49 55 58 62 70 75 " y="-3">Frequência (Hz)</tspan>
   </text>
   <text font-style="normal" xml:space="preserve" font-family="FreeSans" font-weight="normal" font-size="11" transform="translate(29.3755,208.44) rotate(-90,23.5,0)">
    <tspan fill="rgb(38,38,38)" x="0 7 16 22 24 26 29 35 41 " y="-3">Amplitude</tspan>
   </text>
   <polyline fill="none" stroke-linecap="butt" stroke-linejoin="round" stroke="#0071bc" points="74.88,39.2054 75.5929,384.478 76.3057,384.477 77.0186,384.477 77.7315,384.476 78.4444,384.476 79.1572,384.475 79.8701,384.474 80.583,384.473 81.2958,384.473 82.0087,384.472 82.7216,384.471 83.4344,384.47 84.1473,384.469 84.8602,384.469 85.5731,384.468 86.2859,384.467 86.9988,384.466 87.7117,384.465 88.4245,384.464 89.1374,384.464 89.8503,384.463 90.5632,384.462 91.276,384.461 91.9889,384.46 92.7018,384.459 93.4147,384.458 94.1275,384.457 94.8404,384.456 95.5533,384.455 96.2661,384.454 96.979,384.453 97.6919,384.451 98.4047,384.45 99.1176,384.449 99.8305,384.448 100.543,384.447 101.256,384.445 101.969,384.444 102.682,384.443 103.395,384.441 104.108,384.44 104.821,384.439 105.533,384.437 106.246,384.435 106.959,384.434 107.672,384.432 108.385,384.43 109.098,384.429 109.811,384.427 110.524,384.425 111.236,384.423 111.949,384.421 112.662,384.419 113.375,384.417 114.088,384.414 114.801,384.412 115.514,384.41 116.227,384.407 116.939,384.404 117.652,384.401 118.365,384.398 119.078,384.395 119.791,384.392 120.504,384.389 121.217,384.385 121.929,384.382 122.642,384.378 123.355,384.374 124.068,384.37 124.781,384.365 125.494,384.36 126.207,384.355 126.92,384.35 127.632,384.344 128.345,384.339 129.058,384.332 129.771,384.326 130.484,384.318 131.197,384.311 131.91,384.303 132.623,384.294 133.335,384.285 134.048,384.275 134.761,384.265 135.474,384.254 136.187,384.242 136.9,384.228 137.613,384.214 138.326,384.199 139.038,384.182 139.751,384.164 140.464,384.145 141.177,384.123 141.89,384.099 142.603,384.074 143.316,384.045 144.029,384.013 144.741,383.978 145.454,383.939 146.167,383.895 146.88,383.846 147.593,383.791 148.306,383.728 149.019,383.656 149.731,383.574 150.444,383.479 151.157,383.368 151.87,383.238 152.583,383.085 153.296,382.903 154.009,382.682 154.722,382.414 155.434,382.082 156.147,381.666 156.86,381.134 157.573,380.443 158.286,379.524 158.999,378.27 159.712,376.508 160.425,373.945 161.137,370.071 161.85,363.955 162.563,353.885 163.276,337.437 163.989,319.892 164.702,327.757 165.415,346.885 166.128,359.754 166.84,367.49 167.553,372.287 168.266,375.396 168.979,377.496 169.692,378.967 170.405,380.031 171.118,380.821 171.83,381.423 172.543,381.89 173.256,382.259 173.969,382.556 174.682,382.798 175.395,382.998 176.108,383.164 176.821,383.305 177.533,383.424 178.246,383.526 178.959,383.614 179.672,383.691 180.385,383.758 181.098,383.816 181.811,383.868 182.524,383.915 183.236,383.956 183.949,383.993 184.662,384.026 185.375,384.056 186.088,384.083 186.801,384.108 187.514,384.13 188.227,384.15 188.939,384.169 189.652,384.186 190.365,384.202 191.078,384.217 191.791,384.23 192.504,384.243 193.217,384.254 193.93,384.265 194.642,384.275 195.355,384.285 196.068,384.293 196.781,384.302 197.494,384.309 198.207,384.316 198.92,384.323 199.632,384.33 200.345,384.335 201.058,384.341 201.771,384.346 202.484,384.351 203.197,384.356 203.91,384.361 204.623,384.365 205.335,384.369 206.048,384.373 206.761,384.376 207.474,384.38 208.187,384.383 208.9,384.386 209.613,384.389 210.326,384.392 211.038,384.395 211.751,384.398 212.464,384.4 213.177,384.402 213.89,384.405 214.603,384.407 215.316,384.409 216.029,384.411 216.741,384.413 217.454,384.415 218.167,384.417 218.88,384.418 219.593,384.42 220.306,384.422 221.019,384.423 221.731,384.424 222.444,384.426 223.157,384.427 223.87,384.429 224.583,384.43 225.296,384.431 226.009,384.432 226.722,384.433 227.434,384.434 228.147,384.435 228.86,384.437 229.573,384.438 230.286,384.438 230.999,384.439 231.712,384.44 232.425,384.441 233.137,384.442 233.85,384.443 234.563,384.444 235.276,384.444 235.989,384.445 236.702,384.446 237.415,384.447 238.128,384.447 238.84,384.448 239.553,384.449 240.266,384.449 240.979,384.45 241.692,384.45 242.405,384.451 243.118,384.451 243.83,384.452 244.543,384.453 245.256,384.453 245.969,384.454 246.682,384.454 247.395,384.454 248.108,384.455 248.821,384.455 249.533,384.456 250.246,384.456 250.959,384.457 251.672,384.457 252.385,384.457 253.098,384.458 253.811,384.458 254.524,384.459 255.236,384.459 255.949,384.459 256.662,384.46 257.375,384.46 258.088,384.46 258.801,384.461 259.514,384.461 260.227,384.461 260.939,384.462 261.652,384.462 262.365,384.462 263.078,384.462 263.791,384.463 264.504,384.463 265.217,384.463 265.93,384.463 266.642,384.464 267.355,384.464 268.068,384.464 268.781,384.464 269.494,384.465 270.207,384.465 270.92,384.465 271.632,384.465 272.345,384.466 273.058,384.466 273.771,384.466 274.484,384.466 275.197,384.466 275.91,384.467 276.623,384.467 277.335,384.467 278.048,384.467 278.761,384.467 279.474,384.467 280.187,384.468 280.9,384.468 281.613,384.468 282.326,384.468 283.038,384.468 283.751,384.468 284.464,384.469 285.177,384.469 285.89,384.469 286.603,384.469 287.316,384.469 288.029,384.469 288.741,384.469 289.454,384.47 290.167,384.47 290.88,384.47 291.593,384.47 292.306,384.47 293.019,384.47 293.731,384.47 294.444,384.47 295.157,384.471 295.87,384.471 296.583,384.471 297.296,384.471 298.009,384.471 298.722,384.471 299.434,384.471 300.147,384.471 300.86,384.471 301.573,384.471 302.286,384.472 302.999,384.472 303.712,384.472 304.425,384.472 305.137,384.472 305.85,384.472 306.563,384.472 307.276,384.472 307.989,384.472 308.702,384.472 309.415,384.472 310.128,384.473 310.84,384.473 311.553,384.473 312.266,384.473 312.979,384.473 313.692,384.473 314.405,384.473 315.118,384.473 315.83,384.473 316.543,384.473 317.256,384.473 317.969,384.473 318.682,384.473 319.395,384.474 320.108,384.474 320.821,384.474 321.533,384.474 322.246,384.474 322.959,384.474 323.672,384.474 324.385,384.474 325.098,384.474 325.811,384.474 326.524,384.474 327.236,384.474 327.949,384.474 328.662,384.474 329.375,384.474 330.088,384.474 330.801,384.474 331.514,384.475 332.227,384.475 332.939,384.475 333.652,384.475 334.365,384.475 335.078,384.475 335.791,384.475 336.504,384.475 337.217,384.475 337.929,384.475 338.642,384.475 339.355,384.475 340.068,384.475 340.781,384.475 341.494,384.475 342.207,384.475 342.92,384.475 343.632,384.475 344.345,384.475 345.058,384.475 345.771,384.475 346.484,384.476 347.197,384.476 347.91,384.476 348.623,384.476 349.335,384.476 350.048,384.476 350.761,384.476 351.474,384.476 352.187,384.476 352.9,384.476 353.613,384.476 354.326,384.476 355.038,384.476 355.751,384.476 356.464,384.476 357.177,384.476 357.89,384.476 358.603,384.476 359.316,384.476 360.028,384.476 360.741,384.476 361.454,384.476 362.167,384.476 362.88,384.476 363.593,384.476 364.306,384.476 365.019,384.476 365.731,384.476 366.444,384.476 367.157,384.477 367.87,384.477 368.583,384.477 369.296,384.477 370.009,384.477 370.722,384.477 371.434,384.477 372.147,384.477 372.86,384.477 373.573,384.477 374.286,384.477 374.999,384.477 375.712,384.477 376.425,384.477 377.137,384.477 377.85,384.477 378.563,384.477 379.276,384.477 379.989,384.477 380.702,384.477 381.415,384.477 382.128,384.477 382.84,384.477 383.553,384.477 384.266,384.477 384.979,384.477 385.692,384.477 386.405,384.477 387.118,384.477 387.83,384.477 388.543,384.477 389.256,384.477 389.969,384.477 390.682,384.477 391.395,384.477 392.108,384.477 392.821,384.477 393.533,384.477 394.246,384.477 394.959,384.477 395.672,384.477 396.385,384.477 397.098,384.477 397.811,384.477 398.524,384.478 399.236,384.478 399.949,384.478 400.662,384.478 401.375,384.478 402.088,384.478 402.801,384.478 403.514,384.478 404.227,384.478 404.939,384.478 405.652,384.478 406.365,384.478 407.078,384.478 407.791,384.478 408.504,384.478 409.217,384.478 409.929,384.478 410.642,384.478 411.355,384.478 412.068,384.478 412.781,384.478 413.494,384.478 414.207,384.478 414.92,384.478 415.632,384.478 416.345,384.478 417.058,384.478 417.771,384.478 418.484,384.478 419.197,384.478 419.91,384.478 420.623,384.478 421.335,384.478 422.048,384.478 422.761,384.478 423.474,384.478 424.187,384.478 424.9,384.478 425.613,384.478 426.326,384.478 427.038,384.478 427.751,384.478 428.464,384.478 429.177,384.478 429.89,384.478 430.603,384.478 431.316,384.478 432.028,384.478 432.741,384.478 433.454,384.478 434.167,384.478 434.88,384.478 435.593,384.478 436.306,384.478 437.019,384.478 437.731,384.478 438.444,384.478 439.157,384.478 439.87,384.478 440.583,384.478 441.296,384.478 442.009,384.478 442.722,384.478 443.434,384.478 444.147,384.478 444.86,384.478 445.573,384.478 446.286,384.478 446.999,384.478 447.712,384.478 448.425,384.478 449.137,384.478 449.85,384.478 450.563,384.478 451.276,384.478 451.989,384.478 452.702,384.478 453.415,384.478 454.128,384.479 454.84,384.479 455.553,384.479 456.266,384.479 456.979,384.479 457.692,384.479 458.405,384.479 459.118,384.479 459.83,384.479 460.543,384.479 461.256,384.479 461.969,384.479 462.682,384.479 463.395,384.479 464.108,384.479 464.821,384.479 465.533,384.479 466.246,384.479 466.959,384.479 467.672,384.479 468.385,384.479 469.098,384.479 469.811,384.479 470.524,384.479 471.236,384.479 471.949,384.479 472.662,384.479 473.375,384.479 474.088,384.479 474.801,384.479 475.514,384.479 476.227,384.479 476.939,384.479 477.652,384.479 478.365,384.479 479.078,384.479 479.791,384.479 480.504,384.479 481.217,384.479 481.929,384.479 482.642,384.479 483.355,384.479 484.068,384.479 484.781,384.479 485.494,384.479 486.207,384.479 486.92,384.479 487.632,384.479 488.345,384.479 489.058,384.479 489.771,384.479 490.484,384.479 491.197,384.479 491.91,384.479 492.623,384.479 493.335,384.479 494.048,384.479 494.761,384.479 495.474,384.479 496.187,384.479 496.9,384.479 497.613,384.479 498.326,384.479 499.038,384.479 499.751,384.479 500.464,384.479 501.177,384.479 501.89,384.479 502.603,384.479 503.316,384.479 504.029,384.479 504.741,384.479 505.454,384.479 506.167,384.479 506.88,384.479 507.593,384.479 508.306,384.479 509.019,384.479 509.731,384.479 510.444,384.479 511.157,384.479 511.87,384.479 512.583,384.479 513.296,384.479 514.009,384.479 514.722,384.479 515.434,384.479 516.147,384.479 516.86,384.479 517.573,384.479 518.286,384.479 518.999,384.479 519.712,384.479 520.424,384.479 521.137,384.479 521.726,384.479" stroke-width="2"/>
   <polyline fill="none" stroke-linecap="round" stroke-linejoin="round" stroke="#d85218" points="167.489,319.892 166.82,321.949 165.07,323.221 162.907,323.221 161.157,321.949 160.489,319.892 161.157,317.835 162.907,316.563 165.07,316.563 166.82,317.835 167.489,319.892" stroke-width="2"/>
   <polyline fill="none" stroke-linecap="round" stroke-linejoin="round" stroke="#d85218" points="78.38,39.2053 77.7115,41.2626 75.9615,42.534 73.7984,42.534 72.0484,41.2626 71.38,39.2053 72.0484,37.1481 73.7984,35.8766 75.9615,35.8766 77.7115,37.1481 78.38,39.2053" stroke-width="2"/>
   <text font-style="normal" xml:space="preserve" font-family="FreeSans" font-weight="normal" font-size="10" transform="translate(176.488,325.392) rotate(-0,-0,-5.5)">
    <tspan fill="rgb(0,0,0)" x="0 3 9 12 18 21 27 33 39 45 52 57 60 63 70 76 79 85 88 94 100 106 " y="-2">f= 4.9904Hz; A= 3.6689</tspan>
   </text>
   <text font-style="normal" xml:space="preserve" font-family="FreeSans" font-weight="normal" font-size="10" transform="translate(87.3792,44.7053) rotate(-0,-0,-5.5)">
    <tspan fill="rgb(0,0,0)" x="0 3 9 12 18 25 30 33 36 43 49 52 58 64 67 73 79 85 " y="-2">f= 0Hz; A= 19.6134</tspan>
   </text>
  </g>
 </g>
</svg>
