<?xml version='1.0' encoding='UTF-8' standalone='no'?>
<svg xmlns:xlink="http://www.w3.org/1999/xlink" height="432pt" viewBox="0 0 576 432" width="576pt" xmlns="http://www.w3.org/2000/svg">
 <title>gl2ps_renderer figure</title>
 <desc>
Creator: GL2PS 1.4.0, (C) 1999-2017 C. Geuzaine
For: Octave
CreationDate: Fri Jul 02 16:33:48 2021
</desc>
 <defs/>
 <polygon fill="#ffffff" points="0,0 576,0 576,432 0,432"/>
 <g>
  <polygon fill="#ffffff" shape-rendering="crispEdges" points="0,432 576,432 576,0 0,0"/>
  <clipPath id="cp00576432">
   <polygon points="0,432 576,432 576,0 0,0"/>
  </clipPath>
  <g clip-path="url(#cp00576432)">
   <polygon fill="#ffffff" shape-rendering="crispEdges" points="74.88,384.48 521.28,384.48 521.28,32.4 74.88,32.4"/>
   <polyline stroke-opacity="0.15" fill="none" stroke-width="0.5" stroke-linecap="butt" stroke-linejoin="miter" stroke="#262626" points="74.88,384.48 74.88,32.4" stroke-dasharray="16,0"/>
   <polyline stroke-opacity="0.15" fill="none" stroke-width="0.5" stroke-linecap="butt" stroke-linejoin="miter" stroke="#262626" points="164.16,384.48 164.16,32.4" stroke-dasharray="16,0"/>
   <polyline stroke-opacity="0.15" fill="none" stroke-width="0.5" stroke-linecap="butt" stroke-linejoin="miter" stroke="#262626" points="253.44,384.48 253.44,32.4" stroke-dasharray="16,0"/>
   <polyline stroke-opacity="0.15" fill="none" stroke-width="0.5" stroke-linecap="butt" stroke-linejoin="miter" stroke="#262626" points="342.72,384.48 342.72,32.4" stroke-dasharray="16,0"/>
   <polyline stroke-opacity="0.15" fill="none" stroke-width="0.5" stroke-linecap="butt" stroke-linejoin="miter" stroke="#262626" points="432,384.48 432,32.4" stroke-dasharray="16,0"/>
   <polyline stroke-opacity="0.15" fill="none" stroke-width="0.5" stroke-linecap="butt" stroke-linejoin="miter" stroke="#262626" points="521.28,384.48 521.28,32.4" stroke-dasharray="16,0"/>
   <polyline fill="none" stroke-width="0.5" stroke-linecap="butt" stroke-linejoin="miter" stroke="#262626" points="74.88,384.48 74.88,380.015"/>
   <polyline fill="none" stroke-width="0.5" stroke-linecap="butt" stroke-linejoin="miter" stroke="#262626" points="74.88,32.4 74.88,36.865"/>
   <polyline fill="none" stroke-width="0.5" stroke-linecap="butt" stroke-linejoin="miter" stroke="#262626" points="164.16,384.48 164.16,380.015"/>
   <polyline fill="none" stroke-width="0.5" stroke-linecap="butt" stroke-linejoin="miter" stroke="#262626" points="164.16,32.4 164.16,36.865"/>
   <polyline fill="none" stroke-width="0.5" stroke-linecap="butt" stroke-linejoin="miter" stroke="#262626" points="253.44,384.48 253.44,380.015"/>
   <polyline fill="none" stroke-width="0.5" stroke-linecap="butt" stroke-linejoin="miter" stroke="#262626" points="253.44,32.4 253.44,36.865"/>
   <polyline fill="none" stroke-width="0.5" stroke-linecap="butt" stroke-linejoin="miter" stroke="#262626" points="342.72,384.48 342.72,380.015"/>
   <polyline fill="none" stroke-width="0.5" stroke-linecap="butt" stroke-linejoin="miter" stroke="#262626" points="342.72,32.4 342.72,36.865"/>
   <polyline fill="none" stroke-width="0.5" stroke-linecap="butt" stroke-linejoin="miter" stroke="#262626" points="432,384.48 432,380.015"/>
   <polyline fill="none" stroke-width="0.5" stroke-linecap="butt" stroke-linejoin="miter" stroke="#262626" points="432,32.4 432,36.865"/>
   <polyline fill="none" stroke-width="0.5" stroke-linecap="butt" stroke-linejoin="miter" stroke="#262626" points="521.28,384.48 521.28,380.015"/>
   <polyline fill="none" stroke-width="0.5" stroke-linecap="butt" stroke-linejoin="miter" stroke="#262626" points="521.28,32.4 521.28,36.865"/>
   <text font-size="10" font-family="FreeSans" font-style="normal" transform="translate(71.88,399.982) rotate(-0,3,-8)" font-weight="normal" xml:space="preserve">
    <tspan x="0 " fill="rgb(38,38,38)" y="-0">0</tspan>
   </text>
   <text font-size="10" font-family="FreeSans" font-style="normal" transform="translate(161.16,399.982) rotate(-0,3,-8)" font-weight="normal" xml:space="preserve">
    <tspan x="0 " fill="rgb(38,38,38)" y="-0">5</tspan>
   </text>
   <text font-size="10" font-family="FreeSans" font-style="normal" transform="translate(247.44,399.982) rotate(-0,6,-8)" font-weight="normal" xml:space="preserve">
    <tspan x="0 6 " fill="rgb(38,38,38)" y="-0">10</tspan>
   </text>
   <text font-size="10" font-family="FreeSans" font-style="normal" transform="translate(336.72,399.982) rotate(-0,6,-8)" font-weight="normal" xml:space="preserve">
    <tspan x="0 6 " fill="rgb(38,38,38)" y="-0">15</tspan>
   </text>
   <text font-size="10" font-family="FreeSans" font-style="normal" transform="translate(426,399.982) rotate(-0,6,-8)" font-weight="normal" xml:space="preserve">
    <tspan x="0 6 " fill="rgb(38,38,38)" y="-0">20</tspan>
   </text>
   <text font-size="10" font-family="FreeSans" font-style="normal" transform="translate(515.28,399.982) rotate(-0,6,-8)" font-weight="normal" xml:space="preserve">
    <tspan x="0 6 " fill="rgb(38,38,38)" y="-0">25</tspan>
   </text>
   <polyline stroke-opacity="0.15" fill="none" stroke-width="0.5" stroke-linecap="butt" stroke-linejoin="miter" stroke="#262626" points="74.88,384.48 521.28,384.48" stroke-dasharray="16,0"/>
   <polyline stroke-opacity="0.15" fill="none" stroke-width="0.5" stroke-linecap="butt" stroke-linejoin="miter" stroke="#262626" points="74.88,296.46 521.28,296.46" stroke-dasharray="16,0"/>
   <polyline stroke-opacity="0.15" fill="none" stroke-width="0.5" stroke-linecap="butt" stroke-linejoin="miter" stroke="#262626" points="74.88,208.44 521.28,208.44" stroke-dasharray="16,0"/>
   <polyline stroke-opacity="0.15" fill="none" stroke-width="0.5" stroke-linecap="butt" stroke-linejoin="miter" stroke="#262626" points="74.88,120.42 521.28,120.42" stroke-dasharray="16,0"/>
   <polyline stroke-opacity="0.15" fill="none" stroke-width="0.5" stroke-linecap="butt" stroke-linejoin="miter" stroke="#262626" points="74.88,32.4 521.28,32.4" stroke-dasharray="16,0"/>
   <polyline fill="none" stroke-width="0.5" stroke-linecap="butt" stroke-linejoin="miter" stroke="#262626" points="74.88,384.48 79.348,384.48"/>
   <polyline fill="none" stroke-width="0.5" stroke-linecap="butt" stroke-linejoin="miter" stroke="#262626" points="521.28,384.48 516.812,384.48"/>
   <polyline fill="none" stroke-width="0.5" stroke-linecap="butt" stroke-linejoin="miter" stroke="#262626" points="74.88,296.46 79.348,296.46"/>
   <polyline fill="none" stroke-width="0.5" stroke-linecap="butt" stroke-linejoin="miter" stroke="#262626" points="521.28,296.46 516.812,296.46"/>
   <polyline fill="none" stroke-width="0.5" stroke-linecap="butt" stroke-linejoin="miter" stroke="#262626" points="74.88,208.44 79.348,208.44"/>
   <polyline fill="none" stroke-width="0.5" stroke-linecap="butt" stroke-linejoin="miter" stroke="#262626" points="521.28,208.44 516.812,208.44"/>
   <polyline fill="none" stroke-width="0.5" stroke-linecap="butt" stroke-linejoin="miter" stroke="#262626" points="74.88,120.42 79.348,120.42"/>
   <polyline fill="none" stroke-width="0.5" stroke-linecap="butt" stroke-linejoin="miter" stroke="#262626" points="521.28,120.42 516.812,120.42"/>
   <polyline fill="none" stroke-width="0.5" stroke-linecap="butt" stroke-linejoin="miter" stroke="#262626" points="74.88,32.4 79.348,32.4"/>
   <polyline fill="none" stroke-width="0.5" stroke-linecap="butt" stroke-linejoin="miter" stroke="#262626" points="521.28,32.4 516.812,32.4"/>
   <text font-size="10" font-family="FreeSans" font-style="normal" transform="translate(63.8755,388.48) rotate(-0,6,-4)" font-weight="normal" xml:space="preserve">
    <tspan x="0 " fill="rgb(38,38,38)" y="-0">0</tspan>
   </text>
   <text font-size="10" font-family="FreeSans" font-style="normal" transform="translate(63.8755,300.46) rotate(-0,6,-4)" font-weight="normal" xml:space="preserve">
    <tspan x="0 " fill="rgb(38,38,38)" y="-0">5</tspan>
   </text>
   <text font-size="10" font-family="FreeSans" font-style="normal" transform="translate(57.8755,212.44) rotate(-0,12,-4)" font-weight="normal" xml:space="preserve">
    <tspan x="0 6 " fill="rgb(38,38,38)" y="-0">10</tspan>
   </text>
   <text font-size="10" font-family="FreeSans" font-style="normal" transform="translate(57.8755,124.42) rotate(-0,12,-4)" font-weight="normal" xml:space="preserve">
    <tspan x="0 6 " fill="rgb(38,38,38)" y="-0">15</tspan>
   </text>
   <text font-size="10" font-family="FreeSans" font-style="normal" transform="translate(57.8755,36.4) rotate(-0,12,-4)" font-weight="normal" xml:space="preserve">
    <tspan x="0 6 " fill="rgb(38,38,38)" y="-0">20</tspan>
   </text>
   <polyline fill="none" stroke-width="0.5" stroke-linecap="square" stroke-linejoin="miter" stroke="#262626" points="74.88,384.48 521.28,384.48" stroke-dasharray="16,0"/>
   <polyline fill="none" stroke-width="0.5" stroke-linecap="square" stroke-linejoin="miter" stroke="#262626" points="74.88,32.4 521.28,32.4" stroke-dasharray="16,0"/>
   <polyline fill="none" stroke-width="0.5" stroke-linecap="square" stroke-linejoin="miter" stroke="#262626" points="74.88,384.48 74.88,32.4" stroke-dasharray="16,0"/>
   <polyline fill="none" stroke-width="0.5" stroke-linecap="square" stroke-linejoin="miter" stroke="#262626" points="521.28,384.48 521.28,32.4" stroke-dasharray="16,0"/>
   <text font-size="11" font-family="FreeSans" font-style="normal" transform="translate(258.58,416.982) rotate(-0,39.5,-12)" font-weight="normal" xml:space="preserve">
    <tspan x="0 7 11 17 23 29 35 41 47 49 55 58 62 70 75 " fill="rgb(38,38,38)" y="-3">Frequência (Hz)</tspan>
   </text>
   <text font-size="11" font-family="FreeSans" font-style="normal" transform="translate(29.3755,208.44) rotate(-90,23.5,0)" font-weight="normal" xml:space="preserve">
    <tspan x="0 7 16 22 24 26 29 35 41 " fill="rgb(38,38,38)" y="-3">Amplitude</tspan>
   </text>
   <polyline fill="none" stroke-width="2" stroke-linecap="butt" stroke-linejoin="round" stroke="#0071bc" points="74.88,39.1989 75.5929,384.47 76.3057,384.468 77.0186,384.465 77.7315,384.461 78.4444,384.457 79.1572,384.453 79.8701,384.448 80.583,384.444 81.2958,384.439 82.0087,384.435 82.7216,384.43 83.4344,384.425 84.1473,384.42 84.8602,384.415 85.5731,384.41 86.2859,384.404 86.9988,384.398 87.7117,384.392 88.4245,384.386 89.1374,384.38 89.8503,384.373 90.5632,384.367 91.276,384.359 91.9889,384.352 92.7018,384.344 93.4147,384.336 94.1275,384.327 94.8404,384.318 95.5533,384.308 96.2661,384.297 96.979,384.286 97.6919,384.275 98.4047,384.262 99.1176,384.249 99.8305,384.235 100.543,384.219 101.256,384.203 101.969,384.185 102.682,384.166 103.395,384.146 104.108,384.123 104.821,384.099 105.533,384.072 106.246,384.043 106.959,384.011 107.672,383.976 108.385,383.937 109.098,383.894 109.811,383.846 110.524,383.792 111.236,383.732 111.949,383.663 112.662,383.586 113.375,383.498 114.088,383.396 114.801,383.279 115.514,383.142 116.227,382.981 116.939,382.791 117.652,382.564 118.365,382.288 119.078,381.951 119.791,381.532 120.504,381.004 121.217,380.324 121.929,379.432 122.642,378.231 123.355,376.567 124.068,374.183 124.781,370.625 125.494,365.057 126.207,355.849 126.92,339.687 127.632,310.709 128.345,278.159 129.058,299.695 129.771,332.907 130.484,352.086 131.197,362.851 131.91,369.251 132.623,373.28 133.335,375.946 134.048,377.786 134.761,379.102 135.474,380.072 136.187,380.806 136.9,381.374 137.613,381.821 138.326,382.18 139.038,382.472 139.751,382.712 140.464,382.912 141.177,383.08 141.89,383.223 142.603,383.345 143.316,383.451 144.029,383.543 144.741,383.623 145.454,383.693 146.167,383.755 146.88,383.81 147.593,383.86 148.306,383.904 149.019,383.943 149.731,383.979 150.444,384.011 151.157,384.041 151.87,384.067 152.583,384.092 153.296,384.114 154.009,384.135 154.722,384.154 155.434,384.171 156.147,384.187 156.86,384.202 157.573,384.216 158.286,384.229 158.999,384.241 159.712,384.252 160.425,384.262 161.137,384.272 161.85,384.281 162.563,384.289 163.276,384.297 163.989,384.305 164.702,384.312 165.415,384.319 166.128,384.325 166.84,384.331 167.553,384.337 168.266,384.342 168.979,384.347 169.692,384.352 170.405,384.356 171.118,384.361 171.83,384.365 172.543,384.368 173.256,384.372 173.969,384.376 174.682,384.379 175.395,384.382 176.108,384.385 176.821,384.388 177.533,384.391 178.246,384.394 178.959,384.396 179.672,384.399 180.385,384.401 181.098,384.403 181.811,384.406 182.524,384.408 183.236,384.41 183.949,384.412 184.662,384.413 185.375,384.415 186.088,384.417 186.801,384.419 187.514,384.42 188.227,384.422 188.939,384.423 189.652,384.425 190.365,384.426 191.078,384.427 191.791,384.429 192.504,384.43 193.217,384.431 193.93,384.432 194.642,384.433 195.355,384.434 196.068,384.435 196.781,384.436 197.494,384.437 198.207,384.438 198.92,384.439 199.632,384.44 200.345,384.441 201.058,384.442 201.771,384.443 202.484,384.443 203.197,384.444 203.91,384.445 204.623,384.446 205.335,384.446 206.048,384.447 206.761,384.448 207.474,384.448 208.187,384.449 208.9,384.45 209.613,384.45 210.326,384.451 211.038,384.451 211.751,384.452 212.464,384.452 213.177,384.453 213.89,384.453 214.603,384.454 215.316,384.454 216.029,384.455 216.741,384.455 217.454,384.456 218.167,384.456 218.88,384.456 219.593,384.457 220.306,384.457 221.019,384.458 221.731,384.458 222.444,384.458 223.157,384.459 223.87,384.459 224.583,384.459 225.296,384.46 226.009,384.46 226.722,384.46 227.434,384.461 228.147,384.461 228.86,384.461 229.573,384.462 230.286,384.462 230.999,384.462 231.712,384.463 232.425,384.463 233.137,384.463 233.85,384.463 234.563,384.464 235.276,384.464 235.989,384.464 236.702,384.464 237.415,384.465 238.128,384.465 238.84,384.465 239.553,384.465 240.266,384.465 240.979,384.466 241.692,384.466 242.405,384.466 243.118,384.466 243.83,384.466 244.543,384.467 245.256,384.467 245.969,384.467 246.682,384.467 247.395,384.467 248.108,384.467 248.821,384.468 249.533,384.468 250.246,384.468 250.959,384.468 251.672,384.468 252.385,384.468 253.098,384.469 253.811,384.469 254.524,384.469 255.236,384.469 255.949,384.469 256.662,384.469 257.375,384.469 258.088,384.47 258.801,384.47 259.514,384.47 260.227,384.47 260.939,384.47 261.652,384.47 262.365,384.47 263.078,384.47 263.791,384.471 264.504,384.471 265.217,384.471 265.93,384.471 266.642,384.471 267.355,384.471 268.068,384.471 268.781,384.471 269.494,384.471 270.207,384.471 270.92,384.472 271.632,384.472 272.345,384.472 273.058,384.472 273.771,384.472 274.484,384.472 275.197,384.472 275.91,384.472 276.623,384.472 277.335,384.472 278.048,384.472 278.761,384.473 279.474,384.473 280.187,384.473 280.9,384.473 281.613,384.473 282.326,384.473 283.038,384.473 283.751,384.473 284.464,384.473 285.177,384.473 285.89,384.473 286.603,384.473 287.316,384.473 288.029,384.474 288.741,384.474 289.454,384.474 290.167,384.474 290.88,384.474 291.593,384.474 292.306,384.474 293.019,384.474 293.731,384.474 294.444,384.474 295.157,384.474 295.87,384.474 296.583,384.474 297.296,384.474 298.009,384.474 298.722,384.474 299.434,384.474 300.147,384.475 300.86,384.475 301.573,384.475 302.286,384.475 302.999,384.475 303.712,384.475 304.425,384.475 305.137,384.475 305.85,384.475 306.563,384.475 307.276,384.475 307.989,384.475 308.702,384.475 309.415,384.475 310.128,384.475 310.84,384.475 311.553,384.475 312.266,384.475 312.979,384.475 313.692,384.475 314.405,384.475 315.118,384.475 315.83,384.476 316.543,384.476 317.256,384.476 317.969,384.476 318.682,384.476 319.395,384.476 320.108,384.476 320.821,384.476 321.533,384.476 322.246,384.476 322.959,384.476 323.672,384.476 324.385,384.476 325.098,384.476 325.811,384.476 326.524,384.476 327.236,384.476 327.949,384.476 328.662,384.476 329.375,384.476 330.088,384.476 330.801,384.476 331.514,384.476 332.227,384.476 332.939,384.476 333.652,384.476 334.365,384.476 335.078,384.476 335.791,384.476 336.504,384.477 337.217,384.477 337.929,384.477 338.642,384.477 339.355,384.477 340.068,384.477 340.781,384.477 341.494,384.477 342.207,384.477 342.92,384.477 343.632,384.477 344.345,384.477 345.058,384.477 345.771,384.477 346.484,384.477 347.197,384.477 347.91,384.477 348.623,384.477 349.335,384.477 350.048,384.477 350.761,384.477 351.474,384.477 352.187,384.477 352.9,384.477 353.613,384.477 354.326,384.477 355.038,384.477 355.751,384.477 356.464,384.477 357.177,384.477 357.89,384.477 358.603,384.477 359.316,384.477 360.028,384.477 360.741,384.477 361.454,384.477 362.167,384.477 362.88,384.477 363.593,384.477 364.306,384.477 365.019,384.477 365.731,384.477 366.444,384.477 367.157,384.477 367.87,384.477 368.583,384.477 369.296,384.478 370.009,384.478 370.722,384.478 371.434,384.478 372.147,384.478 372.86,384.478 373.573,384.478 374.286,384.478 374.999,384.478 375.712,384.478 376.425,384.478 377.137,384.478 377.85,384.478 378.563,384.478 379.276,384.478 379.989,384.478 380.702,384.478 381.415,384.478 382.128,384.478 382.84,384.478 383.553,384.478 384.266,384.478 384.979,384.478 385.692,384.478 386.405,384.478 387.118,384.478 387.83,384.478 388.543,384.478 389.256,384.478 389.969,384.478 390.682,384.478 391.395,384.478 392.108,384.478 392.821,384.478 393.533,384.478 394.246,384.478 394.959,384.478 395.672,384.478 396.385,384.478 397.098,384.478 397.811,384.478 398.524,384.478 399.236,384.478 399.949,384.478 400.662,384.478 401.375,384.478 402.088,384.478 402.801,384.478 403.514,384.478 404.227,384.478 404.939,384.478 405.652,384.478 406.365,384.478 407.078,384.478 407.791,384.478 408.504,384.478 409.217,384.478 409.929,384.478 410.642,384.478 411.355,384.478 412.068,384.478 412.781,384.478 413.494,384.478 414.207,384.478 414.92,384.478 415.632,384.478 416.345,384.478 417.058,384.478 417.771,384.478 418.484,384.478 419.197,384.478 419.91,384.478 420.623,384.478 421.335,384.478 422.048,384.478 422.761,384.478 423.474,384.478 424.187,384.478 424.9,384.478 425.613,384.478 426.326,384.478 427.038,384.478 427.751,384.478 428.464,384.478 429.177,384.478 429.89,384.479 430.603,384.479 431.316,384.479 432.028,384.479 432.741,384.479 433.454,384.479 434.167,384.479 434.88,384.479 435.593,384.479 436.306,384.479 437.019,384.479 437.731,384.479 438.444,384.479 439.157,384.479 439.87,384.479 440.583,384.479 441.296,384.479 442.009,384.479 442.722,384.479 443.434,384.479 444.147,384.479 444.86,384.479 445.573,384.479 446.286,384.479 446.999,384.479 447.712,384.479 448.425,384.479 449.137,384.479 449.85,384.479 450.563,384.479 451.276,384.479 451.989,384.479 452.702,384.479 453.415,384.479 454.128,384.479 454.84,384.479 455.553,384.479 456.266,384.479 456.979,384.479 457.692,384.479 458.405,384.479 459.118,384.479 459.83,384.479 460.543,384.479 461.256,384.479 461.969,384.479 462.682,384.479 463.395,384.479 464.108,384.479 464.821,384.479 465.533,384.479 466.246,384.479 466.959,384.479 467.672,384.479 468.385,384.479 469.098,384.479 469.811,384.479 470.524,384.479 471.236,384.479 471.949,384.479 472.662,384.479 473.375,384.479 474.088,384.479 474.801,384.479 475.514,384.479 476.227,384.479 476.939,384.479 477.652,384.479 478.365,384.479 479.078,384.479 479.791,384.479 480.504,384.479 481.217,384.479 481.929,384.479 482.642,384.479 483.355,384.479 484.068,384.479 484.781,384.479 485.494,384.479 486.207,384.479 486.92,384.479 487.632,384.479 488.345,384.479 489.058,384.479 489.771,384.479 490.484,384.479 491.197,384.479 491.91,384.479 492.623,384.479 493.335,384.479 494.048,384.479 494.761,384.479 495.474,384.479 496.187,384.479 496.9,384.479 497.613,384.479 498.326,384.479 499.038,384.479 499.751,384.479 500.464,384.479 501.177,384.479 501.89,384.479 502.603,384.479 503.316,384.479 504.029,384.479 504.741,384.479 505.454,384.479 506.167,384.479 506.88,384.479 507.593,384.479 508.306,384.479 509.019,384.479 509.731,384.479 510.444,384.479 511.157,384.479 511.87,384.479 512.583,384.479 513.296,384.479 514.009,384.479 514.722,384.479 515.434,384.479 516.147,384.479 516.86,384.479 517.573,384.479 518.286,384.479 518.999,384.479 519.712,384.479 520.424,384.479 521.137,384.479 521.726,384.479"/>
   <polyline fill="none" stroke-width="2" stroke-linecap="round" stroke-linejoin="round" stroke="#d85218" points="131.845,278.159 131.177,280.216 129.427,281.488 127.264,281.488 125.514,280.216 124.845,278.159 125.514,276.102 127.264,274.83 129.427,274.83 131.177,276.102 131.845,278.159"/>
   <text font-size="10" font-family="FreeSans" font-style="normal" transform="translate(140.845,283.659) rotate(-0,-0,-5.5)" font-weight="normal" xml:space="preserve">
    <tspan x="0 3 9 12 18 21 27 33 39 45 52 57 60 63 70 76 79 85 88 94 100 106 " fill="rgb(0,0,0)" y="-2">f= 2.9943Hz; A= 6.0396</tspan>
   </text>
  </g>
 </g>
</svg>
