<?xml version='1.0' encoding='UTF-8' standalone='no'?>
<svg xmlns="http://www.w3.org/2000/svg" xmlns:xlink="http://www.w3.org/1999/xlink" width="576pt" viewBox="0 0 576 432" height="432pt">
 <title>gl2ps_renderer figure</title>
 <desc>
Creator: GL2PS 1.4.0, (C) 1999-2017 C. Geuzaine
For: Octave
CreationDate: Sat Jul 03 01:44:27 2021
</desc>
 <defs/>
 <polygon fill="#ffffff" points="0,0 576,0 576,432 0,432"/>
 <g>
  <polygon fill="#ffffff" points="0,432 576,432 576,0 0,0" shape-rendering="crispEdges"/>
  <clipPath id="cp00576432">
   <polygon points="0,432 576,432 576,0 0,0"/>
  </clipPath>
  <g clip-path="url(#cp00576432)">
   <polygon fill="#ffffff" points="74.88,384.48 521.28,384.48 521.28,32.4 74.88,32.4" shape-rendering="crispEdges"/>
   <polyline fill="none" stroke-width="0.5" points="74.88,384.48 74.88,32.4" stroke="#262626" stroke-opacity="0.15" stroke-dasharray="16,0" stroke-linejoin="miter" stroke-linecap="butt"/>
   <polyline fill="none" stroke-width="0.5" points="164.16,384.48 164.16,32.4" stroke="#262626" stroke-opacity="0.15" stroke-dasharray="16,0" stroke-linejoin="miter" stroke-linecap="butt"/>
   <polyline fill="none" stroke-width="0.5" points="253.44,384.48 253.44,32.4" stroke="#262626" stroke-opacity="0.15" stroke-dasharray="16,0" stroke-linejoin="miter" stroke-linecap="butt"/>
   <polyline fill="none" stroke-width="0.5" points="342.72,384.48 342.72,32.4" stroke="#262626" stroke-opacity="0.15" stroke-dasharray="16,0" stroke-linejoin="miter" stroke-linecap="butt"/>
   <polyline fill="none" stroke-width="0.5" points="432,384.48 432,32.4" stroke="#262626" stroke-opacity="0.15" stroke-dasharray="16,0" stroke-linejoin="miter" stroke-linecap="butt"/>
   <polyline fill="none" stroke-width="0.5" points="521.28,384.48 521.28,32.4" stroke="#262626" stroke-opacity="0.15" stroke-dasharray="16,0" stroke-linejoin="miter" stroke-linecap="butt"/>
   <polyline fill="none" stroke-width="0.5" points="74.88,384.48 74.88,380.015" stroke="#262626" stroke-linejoin="miter" stroke-linecap="butt"/>
   <polyline fill="none" stroke-width="0.5" points="74.88,32.4 74.88,36.865" stroke="#262626" stroke-linejoin="miter" stroke-linecap="butt"/>
   <polyline fill="none" stroke-width="0.5" points="164.16,384.48 164.16,380.015" stroke="#262626" stroke-linejoin="miter" stroke-linecap="butt"/>
   <polyline fill="none" stroke-width="0.5" points="164.16,32.4 164.16,36.865" stroke="#262626" stroke-linejoin="miter" stroke-linecap="butt"/>
   <polyline fill="none" stroke-width="0.5" points="253.44,384.48 253.44,380.015" stroke="#262626" stroke-linejoin="miter" stroke-linecap="butt"/>
   <polyline fill="none" stroke-width="0.5" points="253.44,32.4 253.44,36.865" stroke="#262626" stroke-linejoin="miter" stroke-linecap="butt"/>
   <polyline fill="none" stroke-width="0.5" points="342.72,384.48 342.72,380.015" stroke="#262626" stroke-linejoin="miter" stroke-linecap="butt"/>
   <polyline fill="none" stroke-width="0.5" points="342.72,32.4 342.72,36.865" stroke="#262626" stroke-linejoin="miter" stroke-linecap="butt"/>
   <polyline fill="none" stroke-width="0.5" points="432,384.48 432,380.015" stroke="#262626" stroke-linejoin="miter" stroke-linecap="butt"/>
   <polyline fill="none" stroke-width="0.5" points="432,32.4 432,36.865" stroke="#262626" stroke-linejoin="miter" stroke-linecap="butt"/>
   <polyline fill="none" stroke-width="0.5" points="521.28,384.48 521.28,380.015" stroke="#262626" stroke-linejoin="miter" stroke-linecap="butt"/>
   <polyline fill="none" stroke-width="0.5" points="521.28,32.4 521.28,36.865" stroke="#262626" stroke-linejoin="miter" stroke-linecap="butt"/>
   <text font-family="FreeSans" font-size="10" font-weight="normal" xml:space="preserve" font-style="normal" transform="translate(71.88,399.982) rotate(-0,3,-8)">
    <tspan y="-0" fill="rgb(38,38,38)" x="0 ">0</tspan>
   </text>
   <text font-family="FreeSans" font-size="10" font-weight="normal" xml:space="preserve" font-style="normal" transform="translate(161.16,399.982) rotate(-0,3,-8)">
    <tspan y="-0" fill="rgb(38,38,38)" x="0 ">5</tspan>
   </text>
   <text font-family="FreeSans" font-size="10" font-weight="normal" xml:space="preserve" font-style="normal" transform="translate(247.44,399.982) rotate(-0,6,-8)">
    <tspan y="-0" fill="rgb(38,38,38)" x="0 6 ">10</tspan>
   </text>
   <text font-family="FreeSans" font-size="10" font-weight="normal" xml:space="preserve" font-style="normal" transform="translate(336.72,399.982) rotate(-0,6,-8)">
    <tspan y="-0" fill="rgb(38,38,38)" x="0 6 ">15</tspan>
   </text>
   <text font-family="FreeSans" font-size="10" font-weight="normal" xml:space="preserve" font-style="normal" transform="translate(426,399.982) rotate(-0,6,-8)">
    <tspan y="-0" fill="rgb(38,38,38)" x="0 6 ">20</tspan>
   </text>
   <text font-family="FreeSans" font-size="10" font-weight="normal" xml:space="preserve" font-style="normal" transform="translate(515.28,399.982) rotate(-0,6,-8)">
    <tspan y="-0" fill="rgb(38,38,38)" x="0 6 ">25</tspan>
   </text>
   <polyline fill="none" stroke-width="0.5" points="74.88,384.48 521.28,384.48" stroke="#262626" stroke-opacity="0.15" stroke-dasharray="16,0" stroke-linejoin="miter" stroke-linecap="butt"/>
   <polyline fill="none" stroke-width="0.5" points="74.88,334.183 521.28,334.183" stroke="#262626" stroke-opacity="0.15" stroke-dasharray="16,0" stroke-linejoin="miter" stroke-linecap="butt"/>
   <polyline fill="none" stroke-width="0.5" points="74.88,283.886 521.28,283.886" stroke="#262626" stroke-opacity="0.15" stroke-dasharray="16,0" stroke-linejoin="miter" stroke-linecap="butt"/>
   <polyline fill="none" stroke-width="0.5" points="74.88,233.589 521.28,233.589" stroke="#262626" stroke-opacity="0.15" stroke-dasharray="16,0" stroke-linejoin="miter" stroke-linecap="butt"/>
   <polyline fill="none" stroke-width="0.5" points="74.88,183.291 521.28,183.291" stroke="#262626" stroke-opacity="0.15" stroke-dasharray="16,0" stroke-linejoin="miter" stroke-linecap="butt"/>
   <polyline fill="none" stroke-width="0.5" points="74.88,132.994 521.28,132.994" stroke="#262626" stroke-opacity="0.15" stroke-dasharray="16,0" stroke-linejoin="miter" stroke-linecap="butt"/>
   <polyline fill="none" stroke-width="0.5" points="74.88,82.6971 521.28,82.6971" stroke="#262626" stroke-opacity="0.15" stroke-dasharray="16,0" stroke-linejoin="miter" stroke-linecap="butt"/>
   <polyline fill="none" stroke-width="0.5" points="74.88,32.4 521.28,32.4" stroke="#262626" stroke-opacity="0.15" stroke-dasharray="16,0" stroke-linejoin="miter" stroke-linecap="butt"/>
   <polyline fill="none" stroke-width="0.5" points="74.88,384.48 79.348,384.48" stroke="#262626" stroke-linejoin="miter" stroke-linecap="butt"/>
   <polyline fill="none" stroke-width="0.5" points="521.28,384.48 516.812,384.48" stroke="#262626" stroke-linejoin="miter" stroke-linecap="butt"/>
   <polyline fill="none" stroke-width="0.5" points="74.88,334.183 79.348,334.183" stroke="#262626" stroke-linejoin="miter" stroke-linecap="butt"/>
   <polyline fill="none" stroke-width="0.5" points="521.28,334.183 516.812,334.183" stroke="#262626" stroke-linejoin="miter" stroke-linecap="butt"/>
   <polyline fill="none" stroke-width="0.5" points="74.88,283.886 79.348,283.886" stroke="#262626" stroke-linejoin="miter" stroke-linecap="butt"/>
   <polyline fill="none" stroke-width="0.5" points="521.28,283.886 516.812,283.886" stroke="#262626" stroke-linejoin="miter" stroke-linecap="butt"/>
   <polyline fill="none" stroke-width="0.5" points="74.88,233.589 79.348,233.589" stroke="#262626" stroke-linejoin="miter" stroke-linecap="butt"/>
   <polyline fill="none" stroke-width="0.5" points="521.28,233.589 516.812,233.589" stroke="#262626" stroke-linejoin="miter" stroke-linecap="butt"/>
   <polyline fill="none" stroke-width="0.5" points="74.88,183.291 79.348,183.291" stroke="#262626" stroke-linejoin="miter" stroke-linecap="butt"/>
   <polyline fill="none" stroke-width="0.5" points="521.28,183.291 516.812,183.291" stroke="#262626" stroke-linejoin="miter" stroke-linecap="butt"/>
   <polyline fill="none" stroke-width="0.5" points="74.88,132.994 79.348,132.994" stroke="#262626" stroke-linejoin="miter" stroke-linecap="butt"/>
   <polyline fill="none" stroke-width="0.5" points="521.28,132.994 516.812,132.994" stroke="#262626" stroke-linejoin="miter" stroke-linecap="butt"/>
   <polyline fill="none" stroke-width="0.5" points="74.88,82.6971 79.348,82.6971" stroke="#262626" stroke-linejoin="miter" stroke-linecap="butt"/>
   <polyline fill="none" stroke-width="0.5" points="521.28,82.6971 516.812,82.6971" stroke="#262626" stroke-linejoin="miter" stroke-linecap="butt"/>
   <polyline fill="none" stroke-width="0.5" points="74.88,32.4 79.348,32.4" stroke="#262626" stroke-linejoin="miter" stroke-linecap="butt"/>
   <polyline fill="none" stroke-width="0.5" points="521.28,32.4 516.812,32.4" stroke="#262626" stroke-linejoin="miter" stroke-linecap="butt"/>
   <text font-family="FreeSans" font-size="10" font-weight="normal" xml:space="preserve" font-style="normal" transform="translate(63.8755,388.48) rotate(-0,6,-4)">
    <tspan y="-0" fill="rgb(38,38,38)" x="0 ">0</tspan>
   </text>
   <text font-family="FreeSans" font-size="10" font-weight="normal" xml:space="preserve" font-style="normal" transform="translate(63.8755,338.183) rotate(-0,6,-4)">
    <tspan y="-0" fill="rgb(38,38,38)" x="0 ">1</tspan>
   </text>
   <text font-family="FreeSans" font-size="10" font-weight="normal" xml:space="preserve" font-style="normal" transform="translate(63.8755,287.886) rotate(-0,6,-4)">
    <tspan y="-0" fill="rgb(38,38,38)" x="0 ">2</tspan>
   </text>
   <text font-family="FreeSans" font-size="10" font-weight="normal" xml:space="preserve" font-style="normal" transform="translate(63.8755,237.589) rotate(-0,6,-4)">
    <tspan y="-0" fill="rgb(38,38,38)" x="0 ">3</tspan>
   </text>
   <text font-family="FreeSans" font-size="10" font-weight="normal" xml:space="preserve" font-style="normal" transform="translate(63.8755,187.291) rotate(-0,6,-4)">
    <tspan y="-0" fill="rgb(38,38,38)" x="0 ">4</tspan>
   </text>
   <text font-family="FreeSans" font-size="10" font-weight="normal" xml:space="preserve" font-style="normal" transform="translate(63.8755,136.994) rotate(-0,6,-4)">
    <tspan y="-0" fill="rgb(38,38,38)" x="0 ">5</tspan>
   </text>
   <text font-family="FreeSans" font-size="10" font-weight="normal" xml:space="preserve" font-style="normal" transform="translate(63.8755,86.6971) rotate(-0,6,-4)">
    <tspan y="-0" fill="rgb(38,38,38)" x="0 ">6</tspan>
   </text>
   <text font-family="FreeSans" font-size="10" font-weight="normal" xml:space="preserve" font-style="normal" transform="translate(63.8755,36.4) rotate(-0,6,-4)">
    <tspan y="-0" fill="rgb(38,38,38)" x="0 ">7</tspan>
   </text>
   <polyline fill="none" stroke-width="0.5" points="74.88,384.48 521.28,384.48" stroke="#262626" stroke-dasharray="16,0" stroke-linejoin="miter" stroke-linecap="square"/>
   <polyline fill="none" stroke-width="0.5" points="74.88,32.4 521.28,32.4" stroke="#262626" stroke-dasharray="16,0" stroke-linejoin="miter" stroke-linecap="square"/>
   <polyline fill="none" stroke-width="0.5" points="74.88,384.48 74.88,32.4" stroke="#262626" stroke-dasharray="16,0" stroke-linejoin="miter" stroke-linecap="square"/>
   <polyline fill="none" stroke-width="0.5" points="521.28,384.48 521.28,32.4" stroke="#262626" stroke-dasharray="16,0" stroke-linejoin="miter" stroke-linecap="square"/>
   <text font-family="FreeSans" font-size="11" font-weight="normal" xml:space="preserve" font-style="normal" transform="translate(258.58,416.982) rotate(-0,39.5,-12)">
    <tspan y="-3" fill="rgb(38,38,38)" x="0 7 11 17 23 29 35 41 47 49 55 58 62 70 75 ">Frequência (Hz)</tspan>
   </text>
   <text font-family="FreeSans" font-size="11" font-weight="normal" xml:space="preserve" font-style="normal" transform="translate(35.3755,208.44) rotate(-90,23.5,0)">
    <tspan y="-3" fill="rgb(38,38,38)" x="0 7 16 22 24 26 29 35 41 ">Amplitude</tspan>
   </text>
   <polyline fill="none" stroke-width="2" points="74.88,384.462 75.5929,384.459 76.3057,384.453 77.0186,384.445 77.7315,384.436 78.4444,384.426 79.1572,384.416 79.8701,384.406 80.583,384.395 81.2958,384.385 82.0087,384.374 82.7216,384.362 83.4344,384.351 84.1473,384.339 84.8602,384.326 85.5731,384.313 86.2859,384.3 86.9988,384.286 87.7117,384.272 88.4245,384.257 89.1374,384.242 89.8503,384.225 90.5632,384.208 91.276,384.19 91.9889,384.171 92.7018,384.152 93.4147,384.131 94.1275,384.108 94.8404,384.085 95.5533,384.06 96.2661,384.033 96.979,384.005 97.6919,383.975 98.4047,383.943 99.1176,383.908 99.8305,383.871 100.543,383.831 101.256,383.788 101.969,383.741 102.682,383.69 103.395,383.635 104.108,383.575 104.821,383.51 105.533,383.438 106.246,383.359 106.959,383.272 107.672,383.176 108.385,383.07 109.098,382.952 109.811,382.819 110.524,382.671 111.236,382.504 111.949,382.315 112.662,382.099 113.375,381.853 114.088,381.569 114.801,381.24 115.514,380.856 116.227,380.404 116.939,379.867 117.652,379.224 118.365,378.445 119.078,377.489 119.791,376.299 120.504,374.795 121.217,372.86 121.929,370.315 122.642,366.887 123.355,362.134 124.068,355.317 124.781,345.138 125.494,329.202 126.207,302.839 126.92,256.553 127.632,173.562 128.345,80.3171 129.058,141.924 129.771,237.034 130.484,291.992 131.197,322.866 131.91,341.236 132.623,352.813 133.335,360.485 134.048,365.79 134.761,369.595 135.474,372.409 136.187,374.548 136.9,376.212 137.613,377.533 138.326,378.601 139.038,379.48 139.751,380.215 140.464,380.837 141.177,381.371 141.89,381.836 142.603,382.243 143.316,382.604 144.029,382.924 144.741,383.204 145.454,383.44 146.167,383.617 146.88,383.706 147.593,383.68 148.306,383.545 149.019,383.329 149.731,383.055 150.444,382.732 151.157,382.359 151.87,381.93 152.583,381.435 153.296,380.857 154.009,380.174 154.722,379.353 155.434,378.353 156.147,377.113 156.86,375.544 157.573,373.517 158.286,370.836 158.999,367.194 159.712,362.092 160.425,354.691 161.137,343.524 161.85,325.919 162.563,296.974 163.276,249.754 163.989,199.446 164.702,222.071 165.415,276.982 166.128,313.922 166.84,336.126 167.553,349.89 168.266,358.805 168.979,364.822 169.692,369.033 170.405,372.074 171.118,374.33 171.83,376.045 172.543,377.374 173.256,378.424 173.969,379.265 174.682,379.95 175.395,380.513 176.108,380.981 176.821,381.375 177.533,381.709 178.246,381.994 178.959,382.239 179.672,382.452 180.385,382.637 181.098,382.799 181.811,382.942 182.524,383.068 183.236,383.181 183.949,383.281 184.662,383.371 185.375,383.451 186.088,383.524 186.801,383.59 187.514,383.649 188.227,383.704 188.939,383.753 189.652,383.798 190.365,383.84 191.078,383.878 191.791,383.913 192.504,383.945 193.217,383.975 193.93,384.003 194.642,384.028 195.355,384.052 196.068,384.074 196.781,384.094 197.494,384.113 198.207,384.131 198.92,384.148 199.632,384.164 200.345,384.178 201.058,384.192 201.771,384.205 202.484,384.217 203.197,384.228 203.91,384.239 204.623,384.249 205.335,384.259 206.048,384.268 206.761,384.277 207.474,384.285 208.187,384.292 208.9,384.3 209.613,384.306 210.326,384.313 211.038,384.319 211.751,384.325 212.464,384.331 213.177,384.336 213.89,384.341 214.603,384.346 215.316,384.351 216.029,384.355 216.741,384.359 217.454,384.363 218.167,384.367 218.88,384.371 219.593,384.374 220.306,384.378 221.019,384.381 221.731,384.384 222.444,384.387 223.157,384.39 223.87,384.393 224.583,384.395 225.296,384.398 226.009,384.4 226.722,384.402 227.434,384.405 228.147,384.407 228.86,384.409 229.573,384.411 230.286,384.413 230.999,384.415 231.712,384.416 232.425,384.418 233.137,384.42 233.85,384.421 234.563,384.423 235.276,384.424 235.989,384.426 236.702,384.427 237.415,384.429 238.128,384.43 238.84,384.431 239.553,384.432 240.266,384.434 240.979,384.435 241.692,384.436 242.405,384.437 243.118,384.438 243.83,384.439 244.543,384.44 245.256,384.441 245.969,384.442 246.682,384.443 247.395,384.443 248.108,384.444 248.821,384.445 249.533,384.446 250.246,384.447 250.959,384.447 251.672,384.448 252.385,384.449 253.098,384.449 253.811,384.45 254.524,384.451 255.236,384.451 255.949,384.452 256.662,384.452 257.375,384.453 258.088,384.454 258.801,384.454 259.514,384.455 260.227,384.455 260.939,384.456 261.652,384.456 262.365,384.457 263.078,384.457 263.791,384.458 264.504,384.458 265.217,384.458 265.93,384.459 266.642,384.459 267.355,384.46 268.068,384.46 268.781,384.46 269.494,384.461 270.207,384.461 270.92,384.461 271.632,384.462 272.345,384.462 273.058,384.462 273.771,384.463 274.484,384.463 275.197,384.463 275.91,384.464 276.623,384.464 277.335,384.464 278.048,384.465 278.761,384.465 279.474,384.465 280.187,384.465 280.9,384.466 281.613,384.466 282.326,384.466 283.038,384.466 283.751,384.467 284.464,384.467 285.177,384.467 285.89,384.467 286.603,384.467 287.316,384.468 288.029,384.468 288.741,384.468 289.454,384.468 290.167,384.468 290.88,384.469 291.593,384.469 292.306,384.469 293.019,384.469 293.731,384.469 294.444,384.469 295.157,384.47 295.87,384.47 296.583,384.47 297.296,384.47 298.009,384.47 298.722,384.47 299.434,384.471 300.147,384.471 300.86,384.471 301.573,384.471 302.286,384.471 302.999,384.471 303.712,384.471 304.425,384.472 305.137,384.472 305.85,384.472 306.563,384.472 307.276,384.472 307.989,384.472 308.702,384.472 309.415,384.472 310.128,384.472 310.84,384.473 311.553,384.473 312.266,384.473 312.979,384.473 313.692,384.473 314.405,384.473 315.118,384.473 315.83,384.473 316.543,384.473 317.256,384.473 317.969,384.474 318.682,384.474 319.395,384.474 320.108,384.474 320.821,384.474 321.533,384.474 322.246,384.474 322.959,384.474 323.672,384.474 324.385,384.474 325.098,384.474 325.811,384.474 326.524,384.475 327.236,384.475 327.949,384.475 328.662,384.475 329.375,384.475 330.088,384.475 330.801,384.475 331.514,384.475 332.227,384.475 332.939,384.475 333.652,384.475 334.365,384.475 335.078,384.475 335.791,384.475 336.504,384.475 337.217,384.475 337.929,384.476 338.642,384.476 339.355,384.476 340.068,384.476 340.781,384.476 341.494,384.476 342.207,384.476 342.92,384.476 343.632,384.476 344.345,384.476 345.058,384.476 345.771,384.476 346.484,384.476 347.197,384.476 347.91,384.476 348.623,384.476 349.335,384.476 350.048,384.476 350.761,384.476 351.474,384.477 352.187,384.477 352.9,384.477 353.613,384.477 354.326,384.477 355.038,384.477 355.751,384.477 356.464,384.477 357.177,384.477 357.89,384.477 358.603,384.477 359.316,384.477 360.028,384.477 360.741,384.477 361.454,384.477 362.167,384.477 362.88,384.477 363.593,384.477 364.306,384.477 365.019,384.477 365.731,384.477 366.444,384.477 367.157,384.477 367.87,384.477 368.583,384.477 369.296,384.477 370.009,384.477 370.722,384.477 371.434,384.478 372.147,384.478 372.86,384.478 373.573,384.478 374.286,384.478 374.999,384.478 375.712,384.478 376.425,384.478 377.137,384.478 377.85,384.478 378.563,384.478 379.276,384.478 379.989,384.478 380.702,384.478 381.415,384.478 382.128,384.478 382.84,384.478 383.553,384.478 384.266,384.478 384.979,384.478 385.692,384.478 386.405,384.478 387.118,384.478 387.83,384.478 388.543,384.478 389.256,384.478 389.969,384.478 390.682,384.478 391.395,384.478 392.108,384.478 392.821,384.478 393.533,384.478 394.246,384.478 394.959,384.478 395.672,384.478 396.385,384.478 397.098,384.478 397.811,384.478 398.524,384.478 399.236,384.478 399.949,384.478 400.662,384.478 401.375,384.478 402.088,384.478 402.801,384.478 403.514,384.478 404.227,384.479 404.939,384.479 405.652,384.479 406.365,384.479 407.078,384.479 407.791,384.479 408.504,384.479 409.217,384.479 409.929,384.479 410.642,384.479 411.355,384.479 412.068,384.479 412.781,384.479 413.494,384.479 414.207,384.479 414.92,384.479 415.632,384.479 416.345,384.479 417.058,384.479 417.771,384.479 418.484,384.479 419.197,384.479 419.91,384.479 420.623,384.479 421.335,384.479 422.048,384.479 422.761,384.479 423.474,384.479 424.187,384.479 424.9,384.479 425.613,384.479 426.326,384.479 427.038,384.479 427.751,384.479 428.464,384.479 429.177,384.479 429.89,384.479 430.603,384.479 431.316,384.479 432.028,384.479 432.741,384.479 433.454,384.479 434.167,384.479 434.88,384.479 435.593,384.479 436.306,384.479 437.019,384.479 437.731,384.479 438.444,384.479 439.157,384.479 439.87,384.479 440.583,384.479 441.296,384.479 442.009,384.479 442.722,384.479 443.434,384.479 444.147,384.479 444.86,384.479 445.573,384.479 446.286,384.479 446.999,384.479 447.712,384.479 448.425,384.479 449.137,384.479 449.85,384.479 450.563,384.479 451.276,384.479 451.989,384.479 452.702,384.479 453.415,384.479 454.128,384.479 454.84,384.479 455.553,384.479 456.266,384.479 456.979,384.479 457.692,384.479 458.405,384.479 459.118,384.479 459.83,384.479 460.543,384.479 461.256,384.479 461.969,384.479 462.682,384.479 463.395,384.479 464.108,384.479 464.821,384.479 465.533,384.479 466.246,384.479 466.959,384.479 467.672,384.479 468.385,384.479 469.098,384.479 469.811,384.479 470.524,384.479 471.236,384.479 471.949,384.479 472.662,384.479 473.375,384.479 474.088,384.479 474.801,384.479 475.514,384.479 476.227,384.479 476.939,384.479 477.652,384.48 478.365,384.48 479.078,384.48 479.791,384.48 480.504,384.48 481.217,384.48 481.929,384.48 482.642,384.48 483.355,384.48 484.068,384.48 484.781,384.48 485.494,384.48 486.207,384.48 486.92,384.48 487.632,384.48 488.345,384.48 489.058,384.48 489.771,384.48 490.484,384.48 491.197,384.48 491.91,384.48 492.623,384.48 493.335,384.48 494.048,384.48 494.761,384.48 495.474,384.48 496.187,384.48 496.9,384.48 497.613,384.48 498.326,384.48 499.038,384.48 499.751,384.48 500.464,384.48 501.177,384.48 501.89,384.48 502.603,384.48 503.316,384.48 504.029,384.48 504.741,384.48 505.454,384.48 506.167,384.48 506.88,384.48 507.593,384.48 508.306,384.48 509.019,384.48 509.731,384.48 510.444,384.48 511.157,384.48 511.87,384.48 512.583,384.48 513.296,384.48 514.009,384.48 514.722,384.48 515.434,384.48 516.147,384.48 516.86,384.48 517.573,384.48 518.286,384.48 518.999,384.48 519.712,384.48 520.424,384.48 521.137,384.48 521.726,384.48" stroke="#0071bc" stroke-linejoin="round" stroke-linecap="butt"/>
   <polyline fill="none" stroke-width="2" points="131.845,80.317 131.177,82.3743 129.427,83.6458 127.264,83.6458 125.514,82.3743 124.845,80.317 125.514,78.2598 127.264,76.9883 129.427,76.9883 131.177,78.2598 131.845,80.317" stroke="#d85218" stroke-linejoin="round" stroke-linecap="round"/>
   <polyline fill="none" stroke-width="2" points="167.489,199.446 166.82,201.504 165.07,202.775 162.907,202.775 161.157,201.504 160.489,199.446 161.157,197.389 162.907,196.118 165.07,196.118 166.82,197.389 167.489,199.446" stroke="#d85218" stroke-linejoin="round" stroke-linecap="round"/>
   <text font-family="FreeSans" font-size="10" font-weight="normal" xml:space="preserve" font-style="normal" transform="translate(140.845,85.8171) rotate(-0,-0,-5.5)">
    <tspan y="-2" fill="rgb(0,0,0)" x="0 3 9 12 18 21 27 33 39 45 52 57 60 63 70 76 79 85 88 94 100 106 ">f= 2.9943Hz; A= 6.0473</tspan>
   </text>
   <text font-family="FreeSans" font-size="10" font-weight="normal" xml:space="preserve" font-style="normal" transform="translate(176.488,204.946) rotate(-0,-0,-5.5)">
    <tspan y="-2" fill="rgb(0,0,0)" x="0 3 9 12 18 21 27 33 39 45 52 57 60 63 70 76 79 85 88 94 100 106 ">f= 4.9904Hz; A= 3.6788</tspan>
   </text>
  </g>
 </g>
</svg>
